G75*
%MOIN*%
%OFA0B0*%
%FSLAX25Y25*%
%IPPOS*%
%LPD*%
%AMOC8*
5,1,8,0,0,1.08239X$1,22.5*
%
%ADD10C,0.00000*%
%ADD11C,0.00500*%
%ADD12C,0.00400*%
%ADD13C,0.00300*%
%ADD14R,0.01800X0.03000*%
%ADD15R,0.03000X0.01800*%
%ADD16C,0.00200*%
%ADD17C,0.00600*%
%ADD18C,0.00800*%
%ADD19C,0.01575*%
%ADD20C,0.01000*%
D10*
X0027919Y0011500D02*
X0277919Y0011500D01*
X0278161Y0011503D01*
X0278402Y0011512D01*
X0278643Y0011526D01*
X0278884Y0011547D01*
X0279124Y0011573D01*
X0279364Y0011605D01*
X0279603Y0011643D01*
X0279840Y0011686D01*
X0280077Y0011736D01*
X0280312Y0011791D01*
X0280546Y0011851D01*
X0280778Y0011918D01*
X0281009Y0011989D01*
X0281238Y0012067D01*
X0281465Y0012150D01*
X0281690Y0012238D01*
X0281913Y0012332D01*
X0282133Y0012431D01*
X0282351Y0012536D01*
X0282566Y0012645D01*
X0282779Y0012760D01*
X0282989Y0012880D01*
X0283195Y0013005D01*
X0283399Y0013135D01*
X0283600Y0013270D01*
X0283797Y0013410D01*
X0283991Y0013554D01*
X0284181Y0013703D01*
X0284367Y0013857D01*
X0284550Y0014015D01*
X0284729Y0014177D01*
X0284904Y0014344D01*
X0285075Y0014515D01*
X0285242Y0014690D01*
X0285404Y0014869D01*
X0285562Y0015052D01*
X0285716Y0015238D01*
X0285865Y0015428D01*
X0286009Y0015622D01*
X0286149Y0015819D01*
X0286284Y0016020D01*
X0286414Y0016224D01*
X0286539Y0016430D01*
X0286659Y0016640D01*
X0286774Y0016853D01*
X0286883Y0017068D01*
X0286988Y0017286D01*
X0287087Y0017506D01*
X0287181Y0017729D01*
X0287269Y0017954D01*
X0287352Y0018181D01*
X0287430Y0018410D01*
X0287501Y0018641D01*
X0287568Y0018873D01*
X0287628Y0019107D01*
X0287683Y0019342D01*
X0287733Y0019579D01*
X0287776Y0019816D01*
X0287814Y0020055D01*
X0287846Y0020295D01*
X0287872Y0020535D01*
X0287893Y0020776D01*
X0287907Y0021017D01*
X0287916Y0021258D01*
X0287919Y0021500D01*
X0287919Y0191500D01*
X0287916Y0191742D01*
X0287907Y0191983D01*
X0287893Y0192224D01*
X0287872Y0192465D01*
X0287846Y0192705D01*
X0287814Y0192945D01*
X0287776Y0193184D01*
X0287733Y0193421D01*
X0287683Y0193658D01*
X0287628Y0193893D01*
X0287568Y0194127D01*
X0287501Y0194359D01*
X0287430Y0194590D01*
X0287352Y0194819D01*
X0287269Y0195046D01*
X0287181Y0195271D01*
X0287087Y0195494D01*
X0286988Y0195714D01*
X0286883Y0195932D01*
X0286774Y0196147D01*
X0286659Y0196360D01*
X0286539Y0196570D01*
X0286414Y0196776D01*
X0286284Y0196980D01*
X0286149Y0197181D01*
X0286009Y0197378D01*
X0285865Y0197572D01*
X0285716Y0197762D01*
X0285562Y0197948D01*
X0285404Y0198131D01*
X0285242Y0198310D01*
X0285075Y0198485D01*
X0284904Y0198656D01*
X0284729Y0198823D01*
X0284550Y0198985D01*
X0284367Y0199143D01*
X0284181Y0199297D01*
X0283991Y0199446D01*
X0283797Y0199590D01*
X0283600Y0199730D01*
X0283399Y0199865D01*
X0283195Y0199995D01*
X0282989Y0200120D01*
X0282779Y0200240D01*
X0282566Y0200355D01*
X0282351Y0200464D01*
X0282133Y0200569D01*
X0281913Y0200668D01*
X0281690Y0200762D01*
X0281465Y0200850D01*
X0281238Y0200933D01*
X0281009Y0201011D01*
X0280778Y0201082D01*
X0280546Y0201149D01*
X0280312Y0201209D01*
X0280077Y0201264D01*
X0279840Y0201314D01*
X0279603Y0201357D01*
X0279364Y0201395D01*
X0279124Y0201427D01*
X0278884Y0201453D01*
X0278643Y0201474D01*
X0278402Y0201488D01*
X0278161Y0201497D01*
X0277919Y0201500D01*
X0027919Y0201500D01*
X0027677Y0201497D01*
X0027436Y0201488D01*
X0027195Y0201474D01*
X0026954Y0201453D01*
X0026714Y0201427D01*
X0026474Y0201395D01*
X0026235Y0201357D01*
X0025998Y0201314D01*
X0025761Y0201264D01*
X0025526Y0201209D01*
X0025292Y0201149D01*
X0025060Y0201082D01*
X0024829Y0201011D01*
X0024600Y0200933D01*
X0024373Y0200850D01*
X0024148Y0200762D01*
X0023925Y0200668D01*
X0023705Y0200569D01*
X0023487Y0200464D01*
X0023272Y0200355D01*
X0023059Y0200240D01*
X0022849Y0200120D01*
X0022643Y0199995D01*
X0022439Y0199865D01*
X0022238Y0199730D01*
X0022041Y0199590D01*
X0021847Y0199446D01*
X0021657Y0199297D01*
X0021471Y0199143D01*
X0021288Y0198985D01*
X0021109Y0198823D01*
X0020934Y0198656D01*
X0020763Y0198485D01*
X0020596Y0198310D01*
X0020434Y0198131D01*
X0020276Y0197948D01*
X0020122Y0197762D01*
X0019973Y0197572D01*
X0019829Y0197378D01*
X0019689Y0197181D01*
X0019554Y0196980D01*
X0019424Y0196776D01*
X0019299Y0196570D01*
X0019179Y0196360D01*
X0019064Y0196147D01*
X0018955Y0195932D01*
X0018850Y0195714D01*
X0018751Y0195494D01*
X0018657Y0195271D01*
X0018569Y0195046D01*
X0018486Y0194819D01*
X0018408Y0194590D01*
X0018337Y0194359D01*
X0018270Y0194127D01*
X0018210Y0193893D01*
X0018155Y0193658D01*
X0018105Y0193421D01*
X0018062Y0193184D01*
X0018024Y0192945D01*
X0017992Y0192705D01*
X0017966Y0192465D01*
X0017945Y0192224D01*
X0017931Y0191983D01*
X0017922Y0191742D01*
X0017919Y0191500D01*
X0017919Y0021500D01*
X0017922Y0021258D01*
X0017931Y0021017D01*
X0017945Y0020776D01*
X0017966Y0020535D01*
X0017992Y0020295D01*
X0018024Y0020055D01*
X0018062Y0019816D01*
X0018105Y0019579D01*
X0018155Y0019342D01*
X0018210Y0019107D01*
X0018270Y0018873D01*
X0018337Y0018641D01*
X0018408Y0018410D01*
X0018486Y0018181D01*
X0018569Y0017954D01*
X0018657Y0017729D01*
X0018751Y0017506D01*
X0018850Y0017286D01*
X0018955Y0017068D01*
X0019064Y0016853D01*
X0019179Y0016640D01*
X0019299Y0016430D01*
X0019424Y0016224D01*
X0019554Y0016020D01*
X0019689Y0015819D01*
X0019829Y0015622D01*
X0019973Y0015428D01*
X0020122Y0015238D01*
X0020276Y0015052D01*
X0020434Y0014869D01*
X0020596Y0014690D01*
X0020763Y0014515D01*
X0020934Y0014344D01*
X0021109Y0014177D01*
X0021288Y0014015D01*
X0021471Y0013857D01*
X0021657Y0013703D01*
X0021847Y0013554D01*
X0022041Y0013410D01*
X0022238Y0013270D01*
X0022439Y0013135D01*
X0022643Y0013005D01*
X0022849Y0012880D01*
X0023059Y0012760D01*
X0023272Y0012645D01*
X0023487Y0012536D01*
X0023705Y0012431D01*
X0023925Y0012332D01*
X0024148Y0012238D01*
X0024373Y0012150D01*
X0024600Y0012067D01*
X0024829Y0011989D01*
X0025060Y0011918D01*
X0025292Y0011851D01*
X0025526Y0011791D01*
X0025761Y0011736D01*
X0025998Y0011686D01*
X0026235Y0011643D01*
X0026474Y0011605D01*
X0026714Y0011573D01*
X0026954Y0011547D01*
X0027195Y0011526D01*
X0027436Y0011512D01*
X0027677Y0011503D01*
X0027919Y0011500D01*
D11*
X0080607Y0022501D02*
X0081357Y0021750D01*
X0082108Y0021750D01*
X0082859Y0022501D01*
X0082859Y0026254D01*
X0083609Y0026254D02*
X0082108Y0026254D01*
X0085211Y0026254D02*
X0087463Y0026254D01*
X0088213Y0025503D01*
X0088213Y0024002D01*
X0087463Y0023251D01*
X0085211Y0023251D01*
X0085211Y0021750D02*
X0085211Y0026254D01*
X0089815Y0024002D02*
X0092817Y0024002D01*
X0092067Y0021750D02*
X0092067Y0026254D01*
X0089815Y0024002D01*
X0200841Y0031953D02*
X0204912Y0031953D01*
X0202919Y0027661D02*
X0202919Y0012701D01*
X0232919Y0012701D01*
X0232919Y0027661D01*
X0232876Y0029918D02*
X0232876Y0033988D01*
X0230841Y0031953D02*
X0234912Y0031953D01*
X0271757Y0026500D02*
X0286718Y0026500D01*
X0286718Y0076500D01*
X0271757Y0076500D01*
X0271757Y0086500D02*
X0286718Y0086500D01*
X0286718Y0136500D01*
X0271757Y0136500D01*
X0271757Y0151500D02*
X0286718Y0151500D01*
X0286718Y0191500D01*
X0271757Y0191500D01*
X0267116Y0183320D02*
X0267116Y0179250D01*
X0265081Y0181285D02*
X0269151Y0181285D01*
X0267116Y0163320D02*
X0267116Y0159250D01*
X0224434Y0144984D02*
X0176403Y0144984D01*
X0176403Y0193016D01*
X0224434Y0193016D01*
X0224434Y0144984D01*
X0157919Y0185339D02*
X0157919Y0200299D01*
X0127919Y0200299D01*
X0127919Y0185339D01*
X0134591Y0183203D02*
X0138662Y0183203D01*
X0136626Y0185238D02*
X0136626Y0181168D01*
X0148341Y0183203D02*
X0152412Y0183203D01*
D12*
X0125396Y0194967D02*
X0124628Y0194200D01*
X0123094Y0194200D01*
X0122326Y0194967D01*
X0122326Y0196502D02*
X0123861Y0197269D01*
X0124628Y0197269D01*
X0125396Y0196502D01*
X0125396Y0194967D01*
X0122326Y0196502D02*
X0122326Y0198804D01*
X0125396Y0198804D01*
X0120792Y0198804D02*
X0120792Y0194200D01*
X0117723Y0198804D01*
X0117723Y0194200D01*
X0116188Y0194967D02*
X0115421Y0194200D01*
X0113886Y0194200D01*
X0113119Y0194967D01*
X0113119Y0198037D01*
X0113886Y0198804D01*
X0115421Y0198804D01*
X0116188Y0198037D01*
X0150123Y0139295D02*
X0172564Y0139295D01*
X0175714Y0136146D01*
X0174631Y0129846D02*
X0174546Y0130132D01*
X0174455Y0130415D01*
X0174356Y0130696D01*
X0174251Y0130974D01*
X0174139Y0131250D01*
X0174020Y0131523D01*
X0173894Y0131793D01*
X0173762Y0132059D01*
X0173624Y0132323D01*
X0173479Y0132583D01*
X0173327Y0132839D01*
X0173170Y0133092D01*
X0173006Y0133340D01*
X0172837Y0133585D01*
X0172661Y0133825D01*
X0172480Y0134061D01*
X0172293Y0134293D01*
X0172100Y0134520D01*
X0171902Y0134742D01*
X0171699Y0134959D01*
X0171490Y0135171D01*
X0171276Y0135378D01*
X0171057Y0135580D01*
X0170834Y0135776D01*
X0170605Y0135967D01*
X0170372Y0136152D01*
X0170135Y0136332D01*
X0169893Y0136505D01*
X0169647Y0136673D01*
X0169397Y0136834D01*
X0169143Y0136990D01*
X0168885Y0137139D01*
X0168624Y0137282D01*
X0168360Y0137418D01*
X0168092Y0137548D01*
X0167821Y0137671D01*
X0167547Y0137788D01*
X0167271Y0137898D01*
X0166991Y0138001D01*
X0166710Y0138097D01*
X0166426Y0138186D01*
X0166140Y0138269D01*
X0165852Y0138344D01*
X0165562Y0138413D01*
X0165271Y0138474D01*
X0164978Y0138528D01*
X0164684Y0138575D01*
X0164389Y0138615D01*
X0164094Y0138647D01*
X0163797Y0138673D01*
X0163500Y0138691D01*
X0163202Y0138701D01*
X0162905Y0138705D01*
X0162607Y0138701D01*
X0162310Y0138690D01*
X0162013Y0138672D01*
X0161716Y0138646D01*
X0161420Y0138614D01*
X0161125Y0138574D01*
X0160832Y0138527D01*
X0160539Y0138472D01*
X0160248Y0138411D01*
X0159958Y0138342D01*
X0159670Y0138267D01*
X0159384Y0138184D01*
X0159100Y0138095D01*
X0158819Y0137998D01*
X0158540Y0137895D01*
X0158263Y0137785D01*
X0157989Y0137668D01*
X0157719Y0137544D01*
X0157451Y0137414D01*
X0157186Y0137278D01*
X0156925Y0137135D01*
X0156668Y0136985D01*
X0156414Y0136830D01*
X0156164Y0136668D01*
X0155919Y0136500D01*
X0155677Y0136327D01*
X0155439Y0136147D01*
X0155207Y0135962D01*
X0154978Y0135771D01*
X0154755Y0135574D01*
X0154536Y0135372D01*
X0154322Y0135165D01*
X0154114Y0134953D01*
X0153910Y0134736D01*
X0153712Y0134513D01*
X0153520Y0134286D01*
X0153333Y0134055D01*
X0153152Y0133819D01*
X0152976Y0133578D01*
X0152807Y0133333D01*
X0152644Y0133085D01*
X0152486Y0132832D01*
X0152335Y0132576D01*
X0152190Y0132315D01*
X0152052Y0132052D01*
X0151920Y0131785D01*
X0151795Y0131515D01*
X0151676Y0131242D01*
X0151564Y0130966D01*
X0151459Y0130688D01*
X0151361Y0130407D01*
X0151269Y0130124D01*
X0151185Y0129839D01*
X0151107Y0129551D01*
X0150123Y0129650D02*
X0150123Y0139295D01*
X0151206Y0123154D02*
X0151291Y0122868D01*
X0151382Y0122585D01*
X0151481Y0122304D01*
X0151586Y0122026D01*
X0151698Y0121750D01*
X0151817Y0121477D01*
X0151943Y0121207D01*
X0152075Y0120941D01*
X0152213Y0120677D01*
X0152358Y0120417D01*
X0152510Y0120161D01*
X0152667Y0119908D01*
X0152831Y0119660D01*
X0153000Y0119415D01*
X0153176Y0119175D01*
X0153357Y0118939D01*
X0153544Y0118707D01*
X0153737Y0118480D01*
X0153935Y0118258D01*
X0154138Y0118041D01*
X0154347Y0117829D01*
X0154561Y0117622D01*
X0154780Y0117420D01*
X0155003Y0117224D01*
X0155232Y0117033D01*
X0155465Y0116848D01*
X0155702Y0116668D01*
X0155944Y0116495D01*
X0156190Y0116327D01*
X0156440Y0116166D01*
X0156694Y0116010D01*
X0156952Y0115861D01*
X0157213Y0115718D01*
X0157477Y0115582D01*
X0157745Y0115452D01*
X0158016Y0115329D01*
X0158290Y0115212D01*
X0158566Y0115102D01*
X0158846Y0114999D01*
X0159127Y0114903D01*
X0159411Y0114814D01*
X0159697Y0114731D01*
X0159985Y0114656D01*
X0160275Y0114587D01*
X0160566Y0114526D01*
X0160859Y0114472D01*
X0161153Y0114425D01*
X0161448Y0114385D01*
X0161743Y0114353D01*
X0162040Y0114327D01*
X0162337Y0114309D01*
X0162635Y0114299D01*
X0162932Y0114295D01*
X0163230Y0114299D01*
X0163527Y0114310D01*
X0163824Y0114328D01*
X0164121Y0114354D01*
X0164417Y0114386D01*
X0164712Y0114426D01*
X0165005Y0114473D01*
X0165298Y0114528D01*
X0165589Y0114589D01*
X0165879Y0114658D01*
X0166167Y0114733D01*
X0166453Y0114816D01*
X0166737Y0114905D01*
X0167018Y0115002D01*
X0167297Y0115105D01*
X0167574Y0115215D01*
X0167848Y0115332D01*
X0168118Y0115456D01*
X0168386Y0115586D01*
X0168651Y0115722D01*
X0168912Y0115865D01*
X0169169Y0116015D01*
X0169423Y0116170D01*
X0169673Y0116332D01*
X0169918Y0116500D01*
X0170160Y0116673D01*
X0170398Y0116853D01*
X0170630Y0117038D01*
X0170859Y0117229D01*
X0171082Y0117426D01*
X0171301Y0117628D01*
X0171515Y0117835D01*
X0171723Y0118047D01*
X0171927Y0118264D01*
X0172125Y0118487D01*
X0172317Y0118714D01*
X0172504Y0118945D01*
X0172685Y0119181D01*
X0172861Y0119422D01*
X0173030Y0119667D01*
X0173193Y0119915D01*
X0173351Y0120168D01*
X0173502Y0120424D01*
X0173647Y0120685D01*
X0173785Y0120948D01*
X0173917Y0121215D01*
X0174042Y0121485D01*
X0174161Y0121758D01*
X0174273Y0122034D01*
X0174378Y0122312D01*
X0174476Y0122593D01*
X0174568Y0122876D01*
X0174652Y0123161D01*
X0174730Y0123449D01*
X0175714Y0116854D02*
X0172564Y0113705D01*
X0150123Y0113705D01*
X0150123Y0123744D01*
X0078750Y0095054D02*
X0075680Y0095054D01*
X0077215Y0095054D02*
X0077215Y0090450D01*
X0074146Y0091217D02*
X0074146Y0094287D01*
X0073378Y0095054D01*
X0071844Y0095054D01*
X0071076Y0094287D01*
X0071076Y0091217D01*
X0071844Y0090450D01*
X0073378Y0090450D01*
X0074146Y0091217D01*
X0069542Y0091217D02*
X0069542Y0094287D01*
X0068774Y0095054D01*
X0067240Y0095054D01*
X0066473Y0094287D01*
X0066473Y0091217D01*
X0067240Y0090450D01*
X0068774Y0090450D01*
X0069542Y0091217D01*
X0064938Y0091217D02*
X0064171Y0090450D01*
X0061869Y0090450D01*
X0061869Y0095054D01*
X0064171Y0095054D01*
X0064938Y0094287D01*
X0064938Y0093519D01*
X0064171Y0092752D01*
X0061869Y0092752D01*
X0064171Y0092752D02*
X0064938Y0091985D01*
X0064938Y0091217D01*
X0047104Y0095054D02*
X0044034Y0095054D01*
X0042500Y0095054D02*
X0039430Y0095054D01*
X0039430Y0090450D01*
X0042500Y0090450D01*
X0040965Y0092752D02*
X0039430Y0092752D01*
X0037896Y0091985D02*
X0037896Y0091217D01*
X0037128Y0090450D01*
X0035594Y0090450D01*
X0034826Y0091217D01*
X0033292Y0090450D02*
X0030223Y0090450D01*
X0030223Y0095054D01*
X0033292Y0095054D01*
X0034826Y0094287D02*
X0034826Y0093519D01*
X0035594Y0092752D01*
X0037128Y0092752D01*
X0037896Y0091985D01*
X0037896Y0094287D02*
X0037128Y0095054D01*
X0035594Y0095054D01*
X0034826Y0094287D01*
X0031757Y0092752D02*
X0030223Y0092752D01*
X0028688Y0092752D02*
X0028688Y0094287D01*
X0027921Y0095054D01*
X0025619Y0095054D01*
X0025619Y0090450D01*
X0025619Y0091985D02*
X0027921Y0091985D01*
X0028688Y0092752D01*
X0027153Y0091985D02*
X0028688Y0090450D01*
X0045569Y0090450D02*
X0045569Y0095054D01*
X0049155Y0060789D02*
X0049154Y0060789D01*
X0049155Y0060789D02*
X0049107Y0060787D01*
X0049060Y0060782D01*
X0049013Y0060773D01*
X0048967Y0060760D01*
X0048922Y0060743D01*
X0048879Y0060723D01*
X0048837Y0060700D01*
X0048797Y0060674D01*
X0048760Y0060644D01*
X0048725Y0060612D01*
X0048692Y0060577D01*
X0048663Y0060539D01*
X0048636Y0060499D01*
X0048613Y0060458D01*
X0048593Y0060414D01*
X0048576Y0060369D01*
X0048564Y0060323D01*
X0048554Y0060277D01*
X0048549Y0060229D01*
X0048547Y0060181D01*
X0048547Y0056483D01*
X0050700Y0058636D02*
X0050810Y0058636D01*
X0050811Y0058636D02*
X0050868Y0058638D01*
X0050926Y0058644D01*
X0050983Y0058653D01*
X0051039Y0058666D01*
X0051095Y0058683D01*
X0051149Y0058703D01*
X0051201Y0058727D01*
X0051252Y0058754D01*
X0051301Y0058785D01*
X0051348Y0058818D01*
X0051393Y0058855D01*
X0051435Y0058895D01*
X0051475Y0058937D01*
X0051512Y0058982D01*
X0051545Y0059029D01*
X0051576Y0059078D01*
X0051603Y0059129D01*
X0051627Y0059181D01*
X0051647Y0059235D01*
X0051664Y0059291D01*
X0051677Y0059347D01*
X0051686Y0059404D01*
X0051692Y0059462D01*
X0051694Y0059519D01*
X0051693Y0059519D02*
X0051693Y0060181D01*
X0051695Y0060229D01*
X0051700Y0060276D01*
X0051710Y0060323D01*
X0051723Y0060369D01*
X0051739Y0060413D01*
X0051759Y0060457D01*
X0051782Y0060498D01*
X0051809Y0060538D01*
X0051838Y0060575D01*
X0051871Y0060610D01*
X0051906Y0060643D01*
X0051943Y0060672D01*
X0051983Y0060699D01*
X0052024Y0060722D01*
X0052068Y0060742D01*
X0052112Y0060758D01*
X0052158Y0060771D01*
X0052205Y0060781D01*
X0052252Y0060786D01*
X0052300Y0060788D01*
X0052349Y0060786D01*
X0052399Y0060781D01*
X0052447Y0060771D01*
X0052495Y0060759D01*
X0052542Y0060742D01*
X0052587Y0060722D01*
X0052631Y0060699D01*
X0052673Y0060673D01*
X0052713Y0060644D01*
X0052750Y0060611D01*
X0052785Y0060576D01*
X0052818Y0060539D01*
X0052847Y0060499D01*
X0052873Y0060457D01*
X0052896Y0060413D01*
X0052916Y0060368D01*
X0052933Y0060321D01*
X0052945Y0060273D01*
X0052955Y0060225D01*
X0052960Y0060175D01*
X0052962Y0060126D01*
X0052963Y0060126D02*
X0052963Y0056428D01*
X0052962Y0056484D02*
X0052962Y0051517D01*
X0052963Y0051516D02*
X0052961Y0051444D01*
X0052956Y0051371D01*
X0052947Y0051299D01*
X0052934Y0051227D01*
X0052917Y0051157D01*
X0052897Y0051087D01*
X0052874Y0051018D01*
X0052847Y0050950D01*
X0052816Y0050884D01*
X0052783Y0050820D01*
X0052746Y0050757D01*
X0052706Y0050696D01*
X0052663Y0050638D01*
X0052617Y0050581D01*
X0052568Y0050527D01*
X0052517Y0050476D01*
X0052463Y0050427D01*
X0052406Y0050381D01*
X0052348Y0050338D01*
X0052287Y0050298D01*
X0052224Y0050261D01*
X0052160Y0050228D01*
X0052094Y0050197D01*
X0052026Y0050170D01*
X0051957Y0050147D01*
X0051887Y0050127D01*
X0051817Y0050110D01*
X0051745Y0050097D01*
X0051673Y0050088D01*
X0051600Y0050083D01*
X0051528Y0050081D01*
X0051527Y0050081D02*
X0049430Y0050081D01*
X0052962Y0056484D02*
X0017915Y0056484D01*
X0017915Y0026514D01*
X0032154Y0026514D01*
X0032154Y0022816D01*
X0032155Y0022816D02*
X0032153Y0022769D01*
X0032148Y0022721D01*
X0032139Y0022674D01*
X0032126Y0022628D01*
X0032109Y0022583D01*
X0032089Y0022540D01*
X0032066Y0022498D01*
X0032040Y0022459D01*
X0032010Y0022421D01*
X0031978Y0022386D01*
X0031943Y0022354D01*
X0031905Y0022324D01*
X0031865Y0022298D01*
X0031824Y0022274D01*
X0031780Y0022254D01*
X0031735Y0022238D01*
X0031689Y0022225D01*
X0031642Y0022216D01*
X0031595Y0022211D01*
X0031547Y0022209D01*
X0031547Y0022209D01*
X0031498Y0022211D01*
X0031448Y0022216D01*
X0031400Y0022226D01*
X0031352Y0022238D01*
X0031305Y0022255D01*
X0031260Y0022275D01*
X0031216Y0022298D01*
X0031174Y0022324D01*
X0031134Y0022353D01*
X0031097Y0022386D01*
X0031062Y0022421D01*
X0031029Y0022458D01*
X0031000Y0022498D01*
X0030974Y0022540D01*
X0030951Y0022584D01*
X0030931Y0022629D01*
X0030914Y0022676D01*
X0030902Y0022724D01*
X0030892Y0022772D01*
X0030887Y0022822D01*
X0030885Y0022871D01*
X0030885Y0023478D01*
X0030885Y0023479D02*
X0030883Y0023537D01*
X0030878Y0023594D01*
X0030868Y0023651D01*
X0030855Y0023708D01*
X0030838Y0023763D01*
X0030818Y0023817D01*
X0030794Y0023870D01*
X0030767Y0023921D01*
X0030737Y0023970D01*
X0030703Y0024017D01*
X0030666Y0024061D01*
X0030627Y0024104D01*
X0030584Y0024143D01*
X0030540Y0024180D01*
X0030493Y0024214D01*
X0030444Y0024244D01*
X0030393Y0024271D01*
X0030340Y0024295D01*
X0030286Y0024315D01*
X0030231Y0024332D01*
X0030174Y0024345D01*
X0030117Y0024355D01*
X0030060Y0024360D01*
X0030002Y0024362D01*
X0030002Y0024361D02*
X0029891Y0024361D01*
X0029891Y0024362D02*
X0029834Y0024360D01*
X0029776Y0024354D01*
X0029719Y0024345D01*
X0029663Y0024332D01*
X0029607Y0024315D01*
X0029553Y0024295D01*
X0029501Y0024271D01*
X0029450Y0024244D01*
X0029401Y0024213D01*
X0029354Y0024180D01*
X0029309Y0024143D01*
X0029267Y0024103D01*
X0029227Y0024061D01*
X0029190Y0024016D01*
X0029157Y0023969D01*
X0029126Y0023920D01*
X0029099Y0023869D01*
X0029075Y0023817D01*
X0029055Y0023763D01*
X0029038Y0023707D01*
X0029025Y0023651D01*
X0029016Y0023594D01*
X0029010Y0023536D01*
X0029008Y0023479D01*
X0029008Y0023478D02*
X0029008Y0022816D01*
X0029006Y0022768D01*
X0029001Y0022721D01*
X0028991Y0022674D01*
X0028978Y0022628D01*
X0028962Y0022584D01*
X0028942Y0022540D01*
X0028919Y0022499D01*
X0028892Y0022459D01*
X0028863Y0022422D01*
X0028830Y0022387D01*
X0028795Y0022354D01*
X0028758Y0022325D01*
X0028718Y0022298D01*
X0028677Y0022275D01*
X0028633Y0022255D01*
X0028589Y0022239D01*
X0028543Y0022226D01*
X0028496Y0022216D01*
X0028449Y0022211D01*
X0028401Y0022209D01*
X0028352Y0022211D01*
X0028302Y0022216D01*
X0028254Y0022226D01*
X0028206Y0022238D01*
X0028159Y0022255D01*
X0028114Y0022275D01*
X0028070Y0022298D01*
X0028028Y0022324D01*
X0027988Y0022353D01*
X0027951Y0022386D01*
X0027916Y0022421D01*
X0027883Y0022458D01*
X0027854Y0022498D01*
X0027828Y0022540D01*
X0027805Y0022584D01*
X0027785Y0022629D01*
X0027768Y0022676D01*
X0027756Y0022724D01*
X0027746Y0022772D01*
X0027741Y0022822D01*
X0027739Y0022871D01*
X0027739Y0026293D01*
X0032154Y0026514D02*
X0052962Y0026514D01*
X0052962Y0022816D01*
X0052960Y0022768D01*
X0052955Y0022721D01*
X0052946Y0022674D01*
X0052933Y0022628D01*
X0052916Y0022583D01*
X0052896Y0022540D01*
X0052873Y0022498D01*
X0052847Y0022459D01*
X0052817Y0022421D01*
X0052785Y0022386D01*
X0052750Y0022354D01*
X0052712Y0022324D01*
X0052672Y0022298D01*
X0052631Y0022274D01*
X0052587Y0022255D01*
X0052543Y0022238D01*
X0052497Y0022225D01*
X0052450Y0022216D01*
X0052402Y0022211D01*
X0052355Y0022209D01*
X0052355Y0022209D01*
X0052306Y0022211D01*
X0052256Y0022216D01*
X0052208Y0022226D01*
X0052160Y0022238D01*
X0052113Y0022255D01*
X0052068Y0022275D01*
X0052024Y0022298D01*
X0051982Y0022324D01*
X0051942Y0022353D01*
X0051905Y0022386D01*
X0051870Y0022421D01*
X0051837Y0022458D01*
X0051808Y0022498D01*
X0051782Y0022540D01*
X0051759Y0022584D01*
X0051739Y0022629D01*
X0051722Y0022676D01*
X0051710Y0022724D01*
X0051700Y0022772D01*
X0051695Y0022822D01*
X0051693Y0022871D01*
X0051693Y0023478D01*
X0051693Y0023479D02*
X0051691Y0023537D01*
X0051686Y0023594D01*
X0051676Y0023651D01*
X0051663Y0023708D01*
X0051646Y0023763D01*
X0051626Y0023817D01*
X0051602Y0023870D01*
X0051575Y0023921D01*
X0051545Y0023970D01*
X0051511Y0024017D01*
X0051474Y0024061D01*
X0051435Y0024104D01*
X0051392Y0024143D01*
X0051348Y0024180D01*
X0051301Y0024214D01*
X0051252Y0024244D01*
X0051201Y0024271D01*
X0051148Y0024295D01*
X0051094Y0024315D01*
X0051039Y0024332D01*
X0050982Y0024345D01*
X0050925Y0024355D01*
X0050868Y0024360D01*
X0050810Y0024362D01*
X0050810Y0024361D02*
X0050699Y0024361D01*
X0050641Y0024359D01*
X0050584Y0024353D01*
X0050527Y0024344D01*
X0050470Y0024331D01*
X0050415Y0024314D01*
X0050361Y0024294D01*
X0050308Y0024270D01*
X0050258Y0024243D01*
X0050208Y0024212D01*
X0050161Y0024179D01*
X0050117Y0024142D01*
X0050075Y0024102D01*
X0050035Y0024060D01*
X0049998Y0024016D01*
X0049965Y0023969D01*
X0049934Y0023920D01*
X0049907Y0023869D01*
X0049883Y0023816D01*
X0049863Y0023762D01*
X0049846Y0023707D01*
X0049833Y0023650D01*
X0049824Y0023593D01*
X0049818Y0023536D01*
X0049816Y0023478D01*
X0049816Y0022816D01*
X0049814Y0022768D01*
X0049809Y0022721D01*
X0049799Y0022674D01*
X0049786Y0022628D01*
X0049770Y0022584D01*
X0049750Y0022540D01*
X0049727Y0022499D01*
X0049700Y0022459D01*
X0049671Y0022422D01*
X0049638Y0022387D01*
X0049603Y0022354D01*
X0049566Y0022325D01*
X0049526Y0022298D01*
X0049485Y0022275D01*
X0049441Y0022255D01*
X0049397Y0022239D01*
X0049351Y0022226D01*
X0049304Y0022216D01*
X0049257Y0022211D01*
X0049209Y0022209D01*
X0049160Y0022211D01*
X0049110Y0022216D01*
X0049062Y0022226D01*
X0049014Y0022238D01*
X0048967Y0022255D01*
X0048922Y0022275D01*
X0048878Y0022298D01*
X0048836Y0022324D01*
X0048796Y0022353D01*
X0048759Y0022386D01*
X0048724Y0022421D01*
X0048691Y0022458D01*
X0048662Y0022498D01*
X0048636Y0022540D01*
X0048613Y0022584D01*
X0048593Y0022629D01*
X0048576Y0022676D01*
X0048564Y0022724D01*
X0048554Y0022772D01*
X0048549Y0022822D01*
X0048547Y0022871D01*
X0048547Y0026293D01*
X0052962Y0026514D02*
X0052962Y0031537D01*
X0052963Y0031537D02*
X0052961Y0031609D01*
X0052955Y0031681D01*
X0052946Y0031753D01*
X0052933Y0031824D01*
X0052916Y0031894D01*
X0052896Y0031963D01*
X0052871Y0032031D01*
X0052844Y0032098D01*
X0052813Y0032163D01*
X0052778Y0032227D01*
X0052740Y0032289D01*
X0052699Y0032348D01*
X0052655Y0032405D01*
X0052609Y0032460D01*
X0052559Y0032513D01*
X0052506Y0032563D01*
X0052451Y0032609D01*
X0052394Y0032653D01*
X0052335Y0032694D01*
X0052273Y0032732D01*
X0052209Y0032767D01*
X0052144Y0032798D01*
X0052077Y0032825D01*
X0052009Y0032850D01*
X0051940Y0032870D01*
X0051870Y0032887D01*
X0051799Y0032900D01*
X0051727Y0032909D01*
X0051655Y0032915D01*
X0051583Y0032917D01*
X0051582Y0032917D02*
X0049264Y0032917D01*
X0059365Y0031960D02*
X0059365Y0030425D01*
X0060132Y0029658D01*
X0059365Y0028123D02*
X0063969Y0028123D01*
X0059365Y0025054D01*
X0063969Y0025054D01*
X0063201Y0023519D02*
X0063969Y0022752D01*
X0063969Y0021217D01*
X0063201Y0020450D01*
X0060132Y0020450D01*
X0059365Y0021217D01*
X0059365Y0022752D01*
X0060132Y0023519D01*
X0063201Y0029658D02*
X0063969Y0030425D01*
X0063969Y0031960D01*
X0063201Y0032727D01*
X0062434Y0032727D01*
X0061667Y0031960D01*
X0061667Y0031192D01*
X0061667Y0031960D02*
X0060899Y0032727D01*
X0060132Y0032727D01*
X0059365Y0031960D01*
X0040378Y0038656D02*
X0040378Y0044452D01*
X0040379Y0044452D02*
X0040377Y0044524D01*
X0040371Y0044595D01*
X0040361Y0044666D01*
X0040348Y0044737D01*
X0040331Y0044806D01*
X0040309Y0044875D01*
X0040285Y0044942D01*
X0040256Y0045008D01*
X0040224Y0045072D01*
X0040189Y0045135D01*
X0040150Y0045195D01*
X0040109Y0045254D01*
X0040064Y0045309D01*
X0040016Y0045363D01*
X0039965Y0045414D01*
X0039911Y0045462D01*
X0039856Y0045507D01*
X0039797Y0045548D01*
X0039737Y0045587D01*
X0039674Y0045622D01*
X0039610Y0045654D01*
X0039544Y0045683D01*
X0039477Y0045707D01*
X0039408Y0045729D01*
X0039339Y0045746D01*
X0039268Y0045759D01*
X0039197Y0045769D01*
X0039126Y0045775D01*
X0039054Y0045777D01*
X0039054Y0045776D02*
X0023213Y0046604D01*
X0023214Y0046604D02*
X0023169Y0046605D01*
X0023125Y0046601D01*
X0023081Y0046594D01*
X0023037Y0046584D01*
X0022995Y0046569D01*
X0022954Y0046551D01*
X0022915Y0046530D01*
X0022878Y0046505D01*
X0022843Y0046478D01*
X0022811Y0046447D01*
X0022781Y0046414D01*
X0022754Y0046378D01*
X0022730Y0046341D01*
X0022710Y0046301D01*
X0022693Y0046260D01*
X0022679Y0046217D01*
X0022669Y0046174D01*
X0022663Y0046130D01*
X0022661Y0046085D01*
X0022662Y0046041D01*
X0022668Y0045996D01*
X0022677Y0045953D01*
X0022689Y0045910D01*
X0022705Y0045869D01*
X0022725Y0045829D01*
X0022748Y0045790D01*
X0022774Y0045754D01*
X0022803Y0045721D01*
X0022835Y0045689D01*
X0022870Y0045661D01*
X0022906Y0045636D01*
X0022945Y0045614D01*
X0022985Y0045595D01*
X0023027Y0045580D01*
X0023070Y0045568D01*
X0023114Y0045560D01*
X0023158Y0045556D01*
X0035411Y0044893D01*
X0035492Y0044891D01*
X0035574Y0044885D01*
X0035655Y0044876D01*
X0035735Y0044862D01*
X0035814Y0044845D01*
X0035893Y0044824D01*
X0035971Y0044799D01*
X0036047Y0044770D01*
X0036122Y0044738D01*
X0036195Y0044703D01*
X0036267Y0044664D01*
X0036336Y0044621D01*
X0036403Y0044576D01*
X0036469Y0044527D01*
X0036531Y0044475D01*
X0036592Y0044420D01*
X0036649Y0044363D01*
X0036704Y0044302D01*
X0036756Y0044240D01*
X0036805Y0044174D01*
X0036850Y0044107D01*
X0036893Y0044038D01*
X0036932Y0043966D01*
X0036967Y0043893D01*
X0036999Y0043818D01*
X0037028Y0043742D01*
X0037053Y0043664D01*
X0037074Y0043585D01*
X0037091Y0043506D01*
X0037105Y0043426D01*
X0037114Y0043345D01*
X0037120Y0043263D01*
X0037122Y0043182D01*
X0037122Y0039705D01*
X0037120Y0039626D01*
X0037115Y0039548D01*
X0037105Y0039469D01*
X0037092Y0039392D01*
X0037075Y0039315D01*
X0037055Y0039238D01*
X0037031Y0039163D01*
X0037003Y0039090D01*
X0036972Y0039017D01*
X0036938Y0038946D01*
X0036900Y0038877D01*
X0036859Y0038810D01*
X0036815Y0038744D01*
X0036768Y0038681D01*
X0036718Y0038621D01*
X0036665Y0038562D01*
X0036609Y0038506D01*
X0036550Y0038453D01*
X0036490Y0038403D01*
X0036427Y0038356D01*
X0036361Y0038312D01*
X0036294Y0038271D01*
X0036225Y0038233D01*
X0036154Y0038199D01*
X0036081Y0038168D01*
X0036008Y0038140D01*
X0035933Y0038116D01*
X0035856Y0038096D01*
X0035779Y0038079D01*
X0035702Y0038066D01*
X0035623Y0038056D01*
X0035545Y0038051D01*
X0035466Y0038049D01*
X0035190Y0038049D01*
X0023213Y0037497D01*
X0023213Y0037496D02*
X0023167Y0037492D01*
X0023121Y0037484D01*
X0023076Y0037472D01*
X0023032Y0037457D01*
X0022989Y0037437D01*
X0022948Y0037414D01*
X0022910Y0037388D01*
X0022873Y0037359D01*
X0022840Y0037326D01*
X0022809Y0037291D01*
X0022781Y0037253D01*
X0022757Y0037214D01*
X0022736Y0037172D01*
X0022718Y0037128D01*
X0022705Y0037084D01*
X0022695Y0037038D01*
X0022689Y0036992D01*
X0022687Y0036945D01*
X0022689Y0036898D01*
X0022695Y0036852D01*
X0022705Y0036806D01*
X0022718Y0036762D01*
X0022736Y0036718D01*
X0022757Y0036676D01*
X0022781Y0036637D01*
X0022809Y0036599D01*
X0022840Y0036564D01*
X0022873Y0036531D01*
X0022910Y0036502D01*
X0022948Y0036476D01*
X0022989Y0036453D01*
X0023032Y0036433D01*
X0023076Y0036418D01*
X0023121Y0036406D01*
X0023167Y0036398D01*
X0023213Y0036394D01*
X0038943Y0037221D01*
X0039018Y0037223D01*
X0039093Y0037229D01*
X0039167Y0037239D01*
X0039241Y0037252D01*
X0039314Y0037270D01*
X0039386Y0037291D01*
X0039457Y0037316D01*
X0039527Y0037345D01*
X0039594Y0037377D01*
X0039661Y0037413D01*
X0039725Y0037453D01*
X0039786Y0037495D01*
X0039846Y0037541D01*
X0039903Y0037590D01*
X0039958Y0037641D01*
X0040009Y0037696D01*
X0040058Y0037753D01*
X0040104Y0037813D01*
X0040146Y0037874D01*
X0040186Y0037939D01*
X0040222Y0038005D01*
X0040254Y0038072D01*
X0040283Y0038142D01*
X0040308Y0038213D01*
X0040329Y0038285D01*
X0040347Y0038358D01*
X0040360Y0038432D01*
X0040370Y0038506D01*
X0040376Y0038581D01*
X0040378Y0038656D01*
X0038613Y0034848D02*
X0024152Y0034186D01*
X0023987Y0034186D01*
X0023914Y0034184D01*
X0023842Y0034178D01*
X0023771Y0034169D01*
X0023700Y0034156D01*
X0023630Y0034139D01*
X0023560Y0034118D01*
X0023492Y0034094D01*
X0023426Y0034067D01*
X0023360Y0034036D01*
X0023297Y0034001D01*
X0023235Y0033963D01*
X0023176Y0033922D01*
X0023118Y0033878D01*
X0023064Y0033832D01*
X0023011Y0033782D01*
X0022961Y0033729D01*
X0022915Y0033675D01*
X0022871Y0033617D01*
X0022830Y0033558D01*
X0022792Y0033496D01*
X0022757Y0033433D01*
X0022726Y0033367D01*
X0022699Y0033301D01*
X0022675Y0033233D01*
X0022654Y0033163D01*
X0022637Y0033093D01*
X0022624Y0033022D01*
X0022615Y0032951D01*
X0022609Y0032879D01*
X0022607Y0032806D01*
X0022607Y0026735D01*
X0025366Y0030874D02*
X0038778Y0029991D01*
X0038819Y0029987D01*
X0038859Y0029979D01*
X0038898Y0029967D01*
X0038936Y0029953D01*
X0038973Y0029935D01*
X0039008Y0029914D01*
X0039041Y0029890D01*
X0039072Y0029863D01*
X0039100Y0029833D01*
X0039126Y0029802D01*
X0039149Y0029768D01*
X0039169Y0029732D01*
X0039186Y0029695D01*
X0039200Y0029657D01*
X0039210Y0029617D01*
X0039216Y0029577D01*
X0039220Y0029536D01*
X0039219Y0029495D01*
X0039220Y0029494D02*
X0039220Y0026735D01*
X0038668Y0033689D02*
X0025311Y0032806D01*
X0025250Y0032800D01*
X0025189Y0032790D01*
X0025129Y0032776D01*
X0025069Y0032758D01*
X0025011Y0032737D01*
X0024955Y0032712D01*
X0024900Y0032683D01*
X0024847Y0032651D01*
X0024797Y0032616D01*
X0024748Y0032578D01*
X0024703Y0032536D01*
X0024660Y0032492D01*
X0024620Y0032445D01*
X0024583Y0032395D01*
X0024549Y0032344D01*
X0024518Y0032290D01*
X0024492Y0032234D01*
X0024468Y0032177D01*
X0024449Y0032118D01*
X0024433Y0032059D01*
X0024421Y0031998D01*
X0024413Y0031937D01*
X0024409Y0031875D01*
X0024408Y0031813D01*
X0024412Y0031752D01*
X0024420Y0031690D01*
X0024431Y0031630D01*
X0024447Y0031570D01*
X0024466Y0031511D01*
X0024489Y0031454D01*
X0024515Y0031398D01*
X0024545Y0031344D01*
X0024579Y0031292D01*
X0024615Y0031242D01*
X0024655Y0031195D01*
X0024698Y0031151D01*
X0024743Y0031109D01*
X0024791Y0031070D01*
X0024842Y0031034D01*
X0024894Y0031002D01*
X0024949Y0030973D01*
X0025005Y0030947D01*
X0025063Y0030926D01*
X0025122Y0030908D01*
X0025182Y0030893D01*
X0025243Y0030883D01*
X0025305Y0030877D01*
X0025366Y0030874D01*
X0038668Y0033689D02*
X0038715Y0033693D01*
X0038763Y0033701D01*
X0038809Y0033713D01*
X0038854Y0033729D01*
X0038898Y0033749D01*
X0038940Y0033772D01*
X0038980Y0033798D01*
X0039017Y0033828D01*
X0039052Y0033861D01*
X0039084Y0033896D01*
X0039113Y0033934D01*
X0039139Y0033975D01*
X0039162Y0034017D01*
X0039181Y0034061D01*
X0039196Y0034106D01*
X0039207Y0034153D01*
X0039215Y0034200D01*
X0039219Y0034248D01*
X0039218Y0034296D01*
X0039214Y0034343D01*
X0039206Y0034390D01*
X0039194Y0034437D01*
X0039178Y0034482D01*
X0039159Y0034526D01*
X0039136Y0034568D01*
X0039109Y0034608D01*
X0039080Y0034645D01*
X0039047Y0034680D01*
X0039012Y0034712D01*
X0038974Y0034742D01*
X0038933Y0034768D01*
X0038891Y0034790D01*
X0038847Y0034809D01*
X0038802Y0034825D01*
X0038755Y0034836D01*
X0038708Y0034844D01*
X0038661Y0034848D01*
X0038613Y0034847D01*
X0038612Y0048150D02*
X0024152Y0048812D01*
X0023986Y0048812D01*
X0023986Y0048811D02*
X0023914Y0048813D01*
X0023842Y0048819D01*
X0023770Y0048828D01*
X0023699Y0048841D01*
X0023629Y0048858D01*
X0023560Y0048878D01*
X0023492Y0048903D01*
X0023425Y0048930D01*
X0023360Y0048961D01*
X0023296Y0048996D01*
X0023234Y0049034D01*
X0023175Y0049075D01*
X0023118Y0049119D01*
X0023063Y0049165D01*
X0023010Y0049215D01*
X0022960Y0049268D01*
X0022914Y0049323D01*
X0022870Y0049380D01*
X0022829Y0049439D01*
X0022791Y0049501D01*
X0022756Y0049565D01*
X0022725Y0049630D01*
X0022698Y0049697D01*
X0022673Y0049765D01*
X0022653Y0049834D01*
X0022636Y0049904D01*
X0022623Y0049975D01*
X0022614Y0050047D01*
X0022608Y0050119D01*
X0022606Y0050191D01*
X0022606Y0050192D02*
X0022606Y0056263D01*
X0025366Y0052124D02*
X0038778Y0053007D01*
X0038819Y0053011D01*
X0038859Y0053019D01*
X0038898Y0053031D01*
X0038936Y0053045D01*
X0038973Y0053063D01*
X0039008Y0053084D01*
X0039041Y0053108D01*
X0039072Y0053135D01*
X0039100Y0053165D01*
X0039126Y0053196D01*
X0039149Y0053230D01*
X0039169Y0053266D01*
X0039186Y0053303D01*
X0039200Y0053341D01*
X0039210Y0053381D01*
X0039216Y0053421D01*
X0039220Y0053462D01*
X0039219Y0053503D01*
X0039219Y0056263D01*
X0038667Y0049309D02*
X0025311Y0050192D01*
X0025310Y0050192D02*
X0025249Y0050198D01*
X0025188Y0050208D01*
X0025128Y0050222D01*
X0025068Y0050240D01*
X0025010Y0050261D01*
X0024954Y0050286D01*
X0024899Y0050315D01*
X0024846Y0050347D01*
X0024796Y0050382D01*
X0024747Y0050420D01*
X0024702Y0050462D01*
X0024659Y0050506D01*
X0024619Y0050553D01*
X0024582Y0050603D01*
X0024548Y0050654D01*
X0024517Y0050708D01*
X0024491Y0050764D01*
X0024467Y0050821D01*
X0024448Y0050880D01*
X0024432Y0050939D01*
X0024420Y0051000D01*
X0024412Y0051061D01*
X0024408Y0051123D01*
X0024407Y0051185D01*
X0024411Y0051246D01*
X0024419Y0051308D01*
X0024430Y0051368D01*
X0024446Y0051428D01*
X0024465Y0051487D01*
X0024488Y0051544D01*
X0024514Y0051600D01*
X0024544Y0051654D01*
X0024578Y0051706D01*
X0024614Y0051756D01*
X0024654Y0051803D01*
X0024697Y0051847D01*
X0024742Y0051889D01*
X0024790Y0051928D01*
X0024841Y0051964D01*
X0024893Y0051996D01*
X0024948Y0052025D01*
X0025004Y0052051D01*
X0025062Y0052072D01*
X0025121Y0052090D01*
X0025181Y0052105D01*
X0025242Y0052115D01*
X0025304Y0052121D01*
X0025365Y0052124D01*
X0027739Y0056483D02*
X0027739Y0060181D01*
X0027739Y0060182D02*
X0027741Y0060229D01*
X0027746Y0060277D01*
X0027755Y0060324D01*
X0027768Y0060370D01*
X0027785Y0060415D01*
X0027805Y0060458D01*
X0027828Y0060500D01*
X0027854Y0060539D01*
X0027884Y0060577D01*
X0027916Y0060612D01*
X0027951Y0060644D01*
X0027989Y0060674D01*
X0028029Y0060700D01*
X0028070Y0060724D01*
X0028114Y0060744D01*
X0028159Y0060760D01*
X0028205Y0060773D01*
X0028252Y0060782D01*
X0028299Y0060787D01*
X0028347Y0060789D01*
X0028347Y0060789D01*
X0028347Y0060788D02*
X0028396Y0060786D01*
X0028446Y0060781D01*
X0028494Y0060771D01*
X0028542Y0060759D01*
X0028589Y0060742D01*
X0028634Y0060722D01*
X0028678Y0060699D01*
X0028720Y0060673D01*
X0028760Y0060644D01*
X0028797Y0060611D01*
X0028832Y0060576D01*
X0028865Y0060539D01*
X0028894Y0060499D01*
X0028920Y0060457D01*
X0028943Y0060413D01*
X0028963Y0060368D01*
X0028980Y0060321D01*
X0028992Y0060273D01*
X0029002Y0060225D01*
X0029007Y0060175D01*
X0029009Y0060126D01*
X0029009Y0059519D01*
X0029009Y0059520D02*
X0029011Y0059462D01*
X0029016Y0059405D01*
X0029026Y0059348D01*
X0029039Y0059291D01*
X0029056Y0059236D01*
X0029076Y0059182D01*
X0029100Y0059129D01*
X0029127Y0059078D01*
X0029158Y0059029D01*
X0029191Y0058982D01*
X0029228Y0058938D01*
X0029267Y0058895D01*
X0029310Y0058856D01*
X0029354Y0058819D01*
X0029401Y0058786D01*
X0029450Y0058755D01*
X0029501Y0058728D01*
X0029554Y0058704D01*
X0029608Y0058684D01*
X0029663Y0058667D01*
X0029720Y0058654D01*
X0029777Y0058644D01*
X0029834Y0058639D01*
X0029892Y0058637D01*
X0029892Y0058636D02*
X0030002Y0058636D01*
X0030002Y0058637D02*
X0030060Y0058639D01*
X0030117Y0058644D01*
X0030174Y0058654D01*
X0030231Y0058667D01*
X0030286Y0058684D01*
X0030340Y0058704D01*
X0030393Y0058728D01*
X0030444Y0058755D01*
X0030493Y0058786D01*
X0030540Y0058819D01*
X0030584Y0058856D01*
X0030627Y0058895D01*
X0030666Y0058938D01*
X0030703Y0058982D01*
X0030736Y0059029D01*
X0030767Y0059078D01*
X0030794Y0059129D01*
X0030818Y0059182D01*
X0030838Y0059236D01*
X0030855Y0059291D01*
X0030868Y0059348D01*
X0030878Y0059405D01*
X0030883Y0059462D01*
X0030885Y0059520D01*
X0030886Y0059519D02*
X0030886Y0060181D01*
X0030888Y0060229D01*
X0030893Y0060276D01*
X0030903Y0060323D01*
X0030916Y0060369D01*
X0030932Y0060413D01*
X0030952Y0060457D01*
X0030975Y0060498D01*
X0031002Y0060538D01*
X0031031Y0060575D01*
X0031064Y0060610D01*
X0031099Y0060643D01*
X0031136Y0060672D01*
X0031176Y0060699D01*
X0031217Y0060722D01*
X0031261Y0060742D01*
X0031305Y0060758D01*
X0031351Y0060771D01*
X0031398Y0060781D01*
X0031445Y0060786D01*
X0031493Y0060788D01*
X0031542Y0060786D01*
X0031592Y0060781D01*
X0031640Y0060771D01*
X0031688Y0060759D01*
X0031735Y0060742D01*
X0031780Y0060722D01*
X0031824Y0060699D01*
X0031866Y0060673D01*
X0031906Y0060644D01*
X0031943Y0060611D01*
X0031978Y0060576D01*
X0032011Y0060539D01*
X0032040Y0060499D01*
X0032066Y0060457D01*
X0032089Y0060413D01*
X0032109Y0060368D01*
X0032126Y0060321D01*
X0032138Y0060273D01*
X0032148Y0060225D01*
X0032153Y0060175D01*
X0032155Y0060126D01*
X0032155Y0056704D01*
X0038668Y0049308D02*
X0038715Y0049304D01*
X0038763Y0049296D01*
X0038809Y0049284D01*
X0038854Y0049268D01*
X0038898Y0049248D01*
X0038940Y0049225D01*
X0038980Y0049199D01*
X0039017Y0049169D01*
X0039052Y0049136D01*
X0039084Y0049101D01*
X0039113Y0049063D01*
X0039139Y0049022D01*
X0039162Y0048980D01*
X0039181Y0048936D01*
X0039196Y0048891D01*
X0039207Y0048844D01*
X0039215Y0048797D01*
X0039219Y0048749D01*
X0039218Y0048701D01*
X0039214Y0048654D01*
X0039206Y0048607D01*
X0039194Y0048560D01*
X0039178Y0048515D01*
X0039159Y0048471D01*
X0039136Y0048429D01*
X0039109Y0048389D01*
X0039080Y0048352D01*
X0039047Y0048317D01*
X0039012Y0048285D01*
X0038974Y0048255D01*
X0038933Y0048229D01*
X0038891Y0048207D01*
X0038847Y0048188D01*
X0038802Y0048172D01*
X0038755Y0048161D01*
X0038708Y0048153D01*
X0038661Y0048149D01*
X0038613Y0048150D01*
X0049817Y0059519D02*
X0049817Y0060126D01*
X0049816Y0060126D02*
X0049814Y0060175D01*
X0049809Y0060225D01*
X0049799Y0060273D01*
X0049787Y0060321D01*
X0049770Y0060368D01*
X0049750Y0060413D01*
X0049727Y0060457D01*
X0049701Y0060499D01*
X0049672Y0060539D01*
X0049639Y0060576D01*
X0049604Y0060611D01*
X0049567Y0060644D01*
X0049527Y0060673D01*
X0049485Y0060699D01*
X0049441Y0060722D01*
X0049396Y0060742D01*
X0049349Y0060759D01*
X0049301Y0060771D01*
X0049253Y0060781D01*
X0049203Y0060786D01*
X0049154Y0060788D01*
X0049817Y0059519D02*
X0049819Y0059461D01*
X0049825Y0059404D01*
X0049834Y0059347D01*
X0049847Y0059290D01*
X0049864Y0059235D01*
X0049884Y0059181D01*
X0049908Y0059128D01*
X0049935Y0059078D01*
X0049966Y0059028D01*
X0049999Y0058981D01*
X0050036Y0058937D01*
X0050076Y0058895D01*
X0050118Y0058855D01*
X0050162Y0058818D01*
X0050209Y0058785D01*
X0050259Y0058754D01*
X0050309Y0058727D01*
X0050362Y0058703D01*
X0050416Y0058683D01*
X0050471Y0058666D01*
X0050528Y0058653D01*
X0050585Y0058644D01*
X0050642Y0058638D01*
X0050700Y0058636D01*
X0093119Y0032269D02*
X0094653Y0033804D01*
X0094653Y0029200D01*
X0093119Y0029200D02*
X0096188Y0029200D01*
X0097723Y0029200D02*
X0097723Y0029967D01*
X0100792Y0033037D01*
X0100792Y0033804D01*
X0097723Y0033804D01*
X0098490Y0021304D02*
X0100024Y0021304D01*
X0100792Y0020537D01*
X0100792Y0019769D01*
X0100024Y0019002D01*
X0098490Y0019002D01*
X0097723Y0019769D01*
X0097723Y0020537D01*
X0098490Y0021304D01*
X0094653Y0021304D02*
X0093119Y0019769D01*
X0094653Y0021304D02*
X0094653Y0016700D01*
X0093119Y0016700D02*
X0096188Y0016700D01*
X0097723Y0017467D02*
X0098490Y0016700D01*
X0100024Y0016700D01*
X0100792Y0017467D01*
X0100792Y0018235D01*
X0100024Y0019002D01*
X0098490Y0019002D02*
X0097723Y0018235D01*
X0097723Y0017467D01*
X0195619Y0016700D02*
X0198688Y0019769D01*
X0198688Y0020537D01*
X0197921Y0021304D01*
X0196386Y0021304D01*
X0195619Y0020537D01*
X0195619Y0016700D02*
X0198688Y0016700D01*
X0198688Y0029200D02*
X0195619Y0029200D01*
X0197153Y0029200D02*
X0197153Y0033804D01*
X0195619Y0032269D01*
X0235557Y0018037D02*
X0235557Y0014967D01*
X0236324Y0014200D01*
X0237859Y0014200D01*
X0238626Y0014967D01*
X0240161Y0014200D02*
X0240161Y0018804D01*
X0243230Y0014200D01*
X0243230Y0018804D01*
X0244765Y0016502D02*
X0247067Y0016502D01*
X0247834Y0015735D01*
X0247834Y0014967D01*
X0247067Y0014200D01*
X0245532Y0014200D01*
X0244765Y0014967D01*
X0244765Y0016502D01*
X0246299Y0018037D01*
X0247834Y0018804D01*
X0255615Y0018656D02*
X0256382Y0017888D01*
X0259451Y0017888D01*
X0260219Y0018656D01*
X0260219Y0020190D01*
X0259451Y0020957D01*
X0260219Y0022492D02*
X0255615Y0022492D01*
X0260219Y0025561D01*
X0255615Y0025561D01*
X0257917Y0027096D02*
X0255615Y0029398D01*
X0260219Y0029398D01*
X0257917Y0030165D02*
X0257917Y0027096D01*
X0263115Y0030450D02*
X0263115Y0032752D01*
X0263882Y0033519D01*
X0264649Y0033519D01*
X0265417Y0032752D01*
X0265417Y0030450D01*
X0267719Y0030450D02*
X0267719Y0032752D01*
X0266951Y0033519D01*
X0266184Y0033519D01*
X0265417Y0032752D01*
X0267719Y0030450D02*
X0263115Y0030450D01*
X0256382Y0020957D02*
X0255615Y0020190D01*
X0255615Y0018656D01*
X0238626Y0018037D02*
X0237859Y0018804D01*
X0236324Y0018804D01*
X0235557Y0018037D01*
X0263115Y0069200D02*
X0263115Y0072269D01*
X0263115Y0070735D02*
X0267719Y0070735D01*
X0260219Y0078656D02*
X0260219Y0080190D01*
X0259451Y0080957D01*
X0260219Y0082492D02*
X0255615Y0082492D01*
X0260219Y0085561D01*
X0255615Y0085561D01*
X0256382Y0087096D02*
X0255615Y0087863D01*
X0255615Y0089398D01*
X0256382Y0090165D01*
X0257149Y0090165D01*
X0260219Y0087096D01*
X0260219Y0090165D01*
X0263115Y0090450D02*
X0267719Y0090450D01*
X0267719Y0093519D01*
X0256382Y0080957D02*
X0255615Y0080190D01*
X0255615Y0078656D01*
X0256382Y0077888D01*
X0259451Y0077888D01*
X0260219Y0078656D01*
X0263115Y0129200D02*
X0263115Y0131502D01*
X0263882Y0132269D01*
X0265417Y0132269D01*
X0266184Y0131502D01*
X0266184Y0129200D01*
X0267719Y0129200D02*
X0263115Y0129200D01*
X0266184Y0130735D02*
X0267719Y0132269D01*
X0266964Y0168705D02*
X0256925Y0168705D01*
X0251019Y0168705D02*
X0241373Y0168705D01*
X0241373Y0191146D01*
X0244523Y0194295D01*
X0250823Y0193213D02*
X0250537Y0193128D01*
X0250254Y0193037D01*
X0249973Y0192938D01*
X0249695Y0192833D01*
X0249419Y0192721D01*
X0249146Y0192602D01*
X0248876Y0192476D01*
X0248610Y0192344D01*
X0248346Y0192206D01*
X0248086Y0192061D01*
X0247830Y0191909D01*
X0247577Y0191752D01*
X0247329Y0191588D01*
X0247084Y0191419D01*
X0246844Y0191243D01*
X0246608Y0191062D01*
X0246376Y0190875D01*
X0246149Y0190682D01*
X0245927Y0190484D01*
X0245710Y0190281D01*
X0245498Y0190072D01*
X0245291Y0189858D01*
X0245089Y0189639D01*
X0244893Y0189416D01*
X0244702Y0189187D01*
X0244517Y0188954D01*
X0244337Y0188717D01*
X0244164Y0188475D01*
X0243996Y0188229D01*
X0243835Y0187979D01*
X0243679Y0187725D01*
X0243530Y0187467D01*
X0243387Y0187206D01*
X0243251Y0186942D01*
X0243121Y0186674D01*
X0242998Y0186403D01*
X0242881Y0186129D01*
X0242771Y0185853D01*
X0242668Y0185573D01*
X0242572Y0185292D01*
X0242483Y0185008D01*
X0242400Y0184722D01*
X0242325Y0184434D01*
X0242256Y0184144D01*
X0242195Y0183853D01*
X0242141Y0183560D01*
X0242094Y0183266D01*
X0242054Y0182971D01*
X0242022Y0182676D01*
X0241996Y0182379D01*
X0241978Y0182082D01*
X0241968Y0181784D01*
X0241964Y0181487D01*
X0241968Y0181189D01*
X0241979Y0180892D01*
X0241997Y0180595D01*
X0242023Y0180298D01*
X0242055Y0180002D01*
X0242095Y0179707D01*
X0242142Y0179414D01*
X0242197Y0179121D01*
X0242258Y0178830D01*
X0242327Y0178540D01*
X0242402Y0178252D01*
X0242485Y0177966D01*
X0242574Y0177682D01*
X0242671Y0177401D01*
X0242774Y0177122D01*
X0242884Y0176845D01*
X0243001Y0176571D01*
X0243125Y0176301D01*
X0243255Y0176033D01*
X0243391Y0175768D01*
X0243534Y0175507D01*
X0243684Y0175250D01*
X0243839Y0174996D01*
X0244001Y0174746D01*
X0244169Y0174501D01*
X0244342Y0174259D01*
X0244522Y0174021D01*
X0244707Y0173789D01*
X0244898Y0173560D01*
X0245095Y0173337D01*
X0245297Y0173118D01*
X0245504Y0172904D01*
X0245716Y0172696D01*
X0245933Y0172492D01*
X0246156Y0172294D01*
X0246383Y0172102D01*
X0246614Y0171915D01*
X0246850Y0171734D01*
X0247091Y0171558D01*
X0247336Y0171389D01*
X0247584Y0171226D01*
X0247837Y0171068D01*
X0248093Y0170917D01*
X0248354Y0170772D01*
X0248617Y0170634D01*
X0248884Y0170502D01*
X0249154Y0170377D01*
X0249427Y0170258D01*
X0249703Y0170146D01*
X0249981Y0170041D01*
X0250262Y0169943D01*
X0250545Y0169851D01*
X0250830Y0169767D01*
X0251118Y0169689D01*
X0257515Y0169787D02*
X0257801Y0169872D01*
X0258084Y0169963D01*
X0258365Y0170062D01*
X0258643Y0170167D01*
X0258919Y0170279D01*
X0259192Y0170398D01*
X0259462Y0170524D01*
X0259728Y0170656D01*
X0259992Y0170794D01*
X0260252Y0170939D01*
X0260508Y0171091D01*
X0260761Y0171248D01*
X0261009Y0171412D01*
X0261254Y0171581D01*
X0261494Y0171757D01*
X0261730Y0171938D01*
X0261962Y0172125D01*
X0262189Y0172318D01*
X0262411Y0172516D01*
X0262628Y0172719D01*
X0262840Y0172928D01*
X0263047Y0173142D01*
X0263249Y0173361D01*
X0263445Y0173584D01*
X0263636Y0173813D01*
X0263821Y0174046D01*
X0264001Y0174283D01*
X0264174Y0174525D01*
X0264342Y0174771D01*
X0264503Y0175021D01*
X0264659Y0175275D01*
X0264808Y0175533D01*
X0264951Y0175794D01*
X0265087Y0176058D01*
X0265217Y0176326D01*
X0265340Y0176597D01*
X0265457Y0176871D01*
X0265567Y0177147D01*
X0265670Y0177427D01*
X0265766Y0177708D01*
X0265855Y0177992D01*
X0265938Y0178278D01*
X0266013Y0178566D01*
X0266082Y0178856D01*
X0266143Y0179147D01*
X0266197Y0179440D01*
X0266244Y0179734D01*
X0266284Y0180029D01*
X0266316Y0180324D01*
X0266342Y0180621D01*
X0266360Y0180918D01*
X0266370Y0181216D01*
X0266374Y0181513D01*
X0266370Y0181811D01*
X0266359Y0182108D01*
X0266341Y0182405D01*
X0266315Y0182702D01*
X0266283Y0182998D01*
X0266243Y0183293D01*
X0266196Y0183586D01*
X0266141Y0183879D01*
X0266080Y0184170D01*
X0266011Y0184460D01*
X0265936Y0184748D01*
X0265853Y0185034D01*
X0265764Y0185318D01*
X0265667Y0185599D01*
X0265564Y0185878D01*
X0265454Y0186155D01*
X0265337Y0186429D01*
X0265213Y0186699D01*
X0265083Y0186967D01*
X0264947Y0187232D01*
X0264804Y0187493D01*
X0264654Y0187750D01*
X0264499Y0188004D01*
X0264337Y0188254D01*
X0264169Y0188499D01*
X0263996Y0188741D01*
X0263816Y0188979D01*
X0263631Y0189211D01*
X0263440Y0189440D01*
X0263243Y0189663D01*
X0263041Y0189882D01*
X0262834Y0190096D01*
X0262622Y0190304D01*
X0262405Y0190508D01*
X0262182Y0190706D01*
X0261955Y0190898D01*
X0261724Y0191085D01*
X0261488Y0191266D01*
X0261247Y0191442D01*
X0261002Y0191611D01*
X0260754Y0191774D01*
X0260501Y0191932D01*
X0260245Y0192083D01*
X0259984Y0192228D01*
X0259721Y0192366D01*
X0259454Y0192498D01*
X0259184Y0192623D01*
X0258911Y0192742D01*
X0258635Y0192854D01*
X0258357Y0192959D01*
X0258076Y0193057D01*
X0257793Y0193149D01*
X0257508Y0193233D01*
X0257220Y0193311D01*
X0263814Y0194295D02*
X0266964Y0191146D01*
X0266964Y0168705D01*
X0270136Y0194200D02*
X0269369Y0194967D01*
X0269369Y0198037D01*
X0270136Y0198804D01*
X0271671Y0198804D01*
X0272438Y0198037D01*
X0273973Y0198804D02*
X0273973Y0194200D01*
X0272438Y0194967D02*
X0271671Y0194200D01*
X0270136Y0194200D01*
X0273973Y0198804D02*
X0277042Y0194200D01*
X0277042Y0198804D01*
X0278576Y0197269D02*
X0280111Y0198804D01*
X0280111Y0194200D01*
X0278576Y0194200D02*
X0281646Y0194200D01*
D13*
X0245465Y0166352D02*
X0245465Y0163450D01*
X0246432Y0163450D02*
X0244497Y0163450D01*
X0243486Y0163934D02*
X0243002Y0163450D01*
X0242034Y0163450D01*
X0241551Y0163934D01*
X0241551Y0165869D01*
X0242034Y0166352D01*
X0243002Y0166352D01*
X0243486Y0165869D01*
X0244497Y0165385D02*
X0245465Y0166352D01*
X0201807Y0136619D02*
X0201807Y0136135D01*
X0201323Y0135651D01*
X0201807Y0135167D01*
X0201807Y0134684D01*
X0201323Y0134200D01*
X0200356Y0134200D01*
X0199872Y0134684D01*
X0198861Y0134200D02*
X0197893Y0135167D01*
X0198377Y0135167D02*
X0196926Y0135167D01*
X0196926Y0134200D02*
X0196926Y0137102D01*
X0198377Y0137102D01*
X0198861Y0136619D01*
X0198861Y0135651D01*
X0198377Y0135167D01*
X0199872Y0136619D02*
X0200356Y0137102D01*
X0201323Y0137102D01*
X0201807Y0136619D01*
X0201323Y0135651D02*
X0200840Y0135651D01*
X0201466Y0128802D02*
X0200015Y0127351D01*
X0201950Y0127351D01*
X0201466Y0125900D02*
X0201466Y0128802D01*
X0199004Y0128319D02*
X0199004Y0127351D01*
X0198520Y0126867D01*
X0197069Y0126867D01*
X0197069Y0125900D02*
X0197069Y0128802D01*
X0198520Y0128802D01*
X0199004Y0128319D01*
X0198036Y0126867D02*
X0199004Y0125900D01*
X0209366Y0119031D02*
X0209850Y0118064D01*
X0210817Y0117097D01*
X0210817Y0118548D01*
X0211301Y0119031D01*
X0211785Y0119031D01*
X0212269Y0118548D01*
X0212269Y0117580D01*
X0211785Y0117097D01*
X0210817Y0117097D01*
X0209850Y0116085D02*
X0209366Y0115601D01*
X0209366Y0114634D01*
X0209850Y0114150D01*
X0211785Y0114150D01*
X0212269Y0114634D01*
X0212269Y0115601D01*
X0211785Y0116085D01*
X0220159Y0129200D02*
X0221127Y0129200D01*
X0221611Y0129684D01*
X0222622Y0129684D02*
X0223106Y0129200D01*
X0224073Y0129200D01*
X0224557Y0129684D01*
X0224557Y0130651D01*
X0224073Y0131135D01*
X0223590Y0131135D01*
X0222622Y0130651D01*
X0222622Y0132102D01*
X0224557Y0132102D01*
X0221611Y0131619D02*
X0221127Y0132102D01*
X0220159Y0132102D01*
X0219676Y0131619D01*
X0219676Y0129684D01*
X0220159Y0129200D01*
X0174519Y0103744D02*
X0174035Y0104228D01*
X0172100Y0104228D01*
X0171616Y0103744D01*
X0171616Y0102777D01*
X0172100Y0102293D01*
X0172584Y0102293D01*
X0173067Y0102777D01*
X0173067Y0104228D01*
X0174519Y0103744D02*
X0174519Y0102777D01*
X0174035Y0102293D01*
X0174519Y0101281D02*
X0174519Y0099347D01*
X0174519Y0100314D02*
X0171616Y0100314D01*
X0172584Y0099347D01*
X0173067Y0098335D02*
X0173551Y0097851D01*
X0173551Y0096400D01*
X0173551Y0097367D02*
X0174519Y0098335D01*
X0173067Y0098335D02*
X0172100Y0098335D01*
X0171616Y0097851D01*
X0171616Y0096400D01*
X0174519Y0096400D01*
X0164519Y0096400D02*
X0161616Y0096400D01*
X0161616Y0097851D01*
X0162100Y0098335D01*
X0163067Y0098335D01*
X0163551Y0097851D01*
X0163551Y0096400D01*
X0163551Y0097367D02*
X0164519Y0098335D01*
X0164519Y0099347D02*
X0162584Y0101281D01*
X0162100Y0101281D01*
X0161616Y0100798D01*
X0161616Y0099830D01*
X0162100Y0099347D01*
X0164519Y0099347D02*
X0164519Y0101281D01*
X0164035Y0102293D02*
X0162100Y0104228D01*
X0164035Y0104228D01*
X0164519Y0103744D01*
X0164519Y0102777D01*
X0164035Y0102293D01*
X0162100Y0102293D01*
X0161616Y0102777D01*
X0161616Y0103744D01*
X0162100Y0104228D01*
X0154519Y0104228D02*
X0154519Y0102293D01*
X0154519Y0103261D02*
X0151616Y0103261D01*
X0152584Y0102293D01*
X0152584Y0101281D02*
X0152100Y0101281D01*
X0151616Y0100798D01*
X0151616Y0099830D01*
X0152100Y0099347D01*
X0152100Y0098335D02*
X0153067Y0098335D01*
X0153551Y0097851D01*
X0153551Y0096400D01*
X0153551Y0097367D02*
X0154519Y0098335D01*
X0154519Y0099347D02*
X0152584Y0101281D01*
X0154519Y0101281D02*
X0154519Y0099347D01*
X0152100Y0098335D02*
X0151616Y0097851D01*
X0151616Y0096400D01*
X0154519Y0096400D01*
X0144519Y0096400D02*
X0141616Y0096400D01*
X0141616Y0097851D01*
X0142100Y0098335D01*
X0143067Y0098335D01*
X0143551Y0097851D01*
X0143551Y0096400D01*
X0143551Y0097367D02*
X0144519Y0098335D01*
X0144519Y0099347D02*
X0142584Y0101281D01*
X0142100Y0101281D01*
X0141616Y0100798D01*
X0141616Y0099830D01*
X0142100Y0099347D01*
X0144519Y0099347D02*
X0144519Y0101281D01*
X0144519Y0102293D02*
X0142584Y0104228D01*
X0142100Y0104228D01*
X0141616Y0103744D01*
X0141616Y0102777D01*
X0142100Y0102293D01*
X0144519Y0102293D02*
X0144519Y0104228D01*
X0124769Y0093798D02*
X0124769Y0092830D01*
X0124285Y0092347D01*
X0123317Y0092347D02*
X0122834Y0093314D01*
X0122834Y0093798D01*
X0123317Y0094281D01*
X0124285Y0094281D01*
X0124769Y0093798D01*
X0123317Y0092347D02*
X0121866Y0092347D01*
X0121866Y0094281D01*
X0122350Y0091335D02*
X0123317Y0091335D01*
X0123801Y0090851D01*
X0123801Y0089400D01*
X0123801Y0090367D02*
X0124769Y0091335D01*
X0124769Y0089400D02*
X0121866Y0089400D01*
X0121866Y0090851D01*
X0122350Y0091335D01*
X0128463Y0077602D02*
X0127979Y0077119D01*
X0127979Y0075184D01*
X0128463Y0074700D01*
X0129430Y0074700D01*
X0129914Y0075184D01*
X0130926Y0074700D02*
X0132861Y0074700D01*
X0131893Y0074700D02*
X0131893Y0077602D01*
X0130926Y0076635D01*
X0129914Y0077119D02*
X0129430Y0077602D01*
X0128463Y0077602D01*
X0133872Y0077119D02*
X0134356Y0077602D01*
X0135323Y0077602D01*
X0135807Y0077119D01*
X0135807Y0076635D01*
X0135323Y0076151D01*
X0135807Y0075667D01*
X0135807Y0075184D01*
X0135323Y0074700D01*
X0134356Y0074700D01*
X0133872Y0075184D01*
X0134840Y0076151D02*
X0135323Y0076151D01*
X0118200Y0076302D02*
X0117233Y0075819D01*
X0116265Y0074851D01*
X0117716Y0074851D01*
X0118200Y0074367D01*
X0118200Y0073884D01*
X0117716Y0073400D01*
X0116749Y0073400D01*
X0116265Y0073884D01*
X0116265Y0074851D01*
X0115254Y0074851D02*
X0114770Y0074367D01*
X0113319Y0074367D01*
X0113319Y0073400D02*
X0113319Y0076302D01*
X0114770Y0076302D01*
X0115254Y0075819D01*
X0115254Y0074851D01*
X0114286Y0074367D02*
X0115254Y0073400D01*
X0099200Y0072069D02*
X0098716Y0072552D01*
X0097749Y0072552D01*
X0097265Y0072069D01*
X0096254Y0072069D02*
X0095770Y0072552D01*
X0094802Y0072552D01*
X0094319Y0072069D01*
X0094319Y0070134D01*
X0094802Y0069650D01*
X0095770Y0069650D01*
X0096254Y0070134D01*
X0097265Y0069650D02*
X0099200Y0071585D01*
X0099200Y0072069D01*
X0099200Y0069650D02*
X0097265Y0069650D01*
X0099366Y0062511D02*
X0102269Y0062511D01*
X0102269Y0063478D02*
X0102269Y0061543D01*
X0102269Y0060531D02*
X0102269Y0058597D01*
X0102269Y0059564D02*
X0099366Y0059564D01*
X0100334Y0058597D01*
X0100817Y0057585D02*
X0101301Y0057101D01*
X0101301Y0055650D01*
X0101301Y0056617D02*
X0102269Y0057585D01*
X0100817Y0057585D02*
X0099850Y0057585D01*
X0099366Y0057101D01*
X0099366Y0055650D01*
X0102269Y0055650D01*
X0100334Y0061543D02*
X0099366Y0062511D01*
X0098520Y0042552D02*
X0099004Y0042069D01*
X0099004Y0041101D01*
X0098520Y0040617D01*
X0097069Y0040617D01*
X0097069Y0039650D02*
X0097069Y0042552D01*
X0098520Y0042552D01*
X0100015Y0041585D02*
X0100983Y0042552D01*
X0100983Y0039650D01*
X0101950Y0039650D02*
X0100015Y0039650D01*
X0099004Y0039650D02*
X0098036Y0040617D01*
X0102962Y0040134D02*
X0103445Y0039650D01*
X0104413Y0039650D01*
X0104897Y0040134D01*
X0104897Y0040617D01*
X0104413Y0041101D01*
X0103929Y0041101D01*
X0104413Y0041101D02*
X0104897Y0041585D01*
X0104897Y0042069D01*
X0104413Y0042552D01*
X0103445Y0042552D01*
X0102962Y0042069D01*
X0130819Y0045900D02*
X0130819Y0048802D01*
X0132270Y0048802D01*
X0132754Y0048319D01*
X0132754Y0047351D01*
X0132270Y0046867D01*
X0130819Y0046867D01*
X0131786Y0046867D02*
X0132754Y0045900D01*
X0133765Y0045900D02*
X0135700Y0045900D01*
X0134733Y0045900D02*
X0134733Y0048802D01*
X0133765Y0047835D01*
X0136712Y0047351D02*
X0138647Y0047351D01*
X0138163Y0045900D02*
X0138163Y0048802D01*
X0136712Y0047351D01*
X0141866Y0046543D02*
X0143317Y0046543D01*
X0142834Y0047511D01*
X0142834Y0047994D01*
X0143317Y0048478D01*
X0144285Y0048478D01*
X0144769Y0047994D01*
X0144769Y0047027D01*
X0144285Y0046543D01*
X0144769Y0045531D02*
X0144769Y0043597D01*
X0144769Y0044564D02*
X0141866Y0044564D01*
X0142834Y0043597D01*
X0143317Y0042585D02*
X0143801Y0042101D01*
X0143801Y0040650D01*
X0143801Y0041617D02*
X0144769Y0042585D01*
X0143317Y0042585D02*
X0142350Y0042585D01*
X0141866Y0042101D01*
X0141866Y0040650D01*
X0144769Y0040650D01*
X0141866Y0046543D02*
X0141866Y0048478D01*
X0133469Y0052491D02*
X0133469Y0053458D01*
X0132985Y0053942D01*
X0131050Y0053942D01*
X0130566Y0053458D01*
X0130566Y0052491D01*
X0131050Y0052007D01*
X0132985Y0052007D01*
X0133469Y0052491D01*
X0132501Y0052974D02*
X0133469Y0053942D01*
X0133469Y0054953D02*
X0131534Y0056888D01*
X0131050Y0056888D01*
X0130566Y0056405D01*
X0130566Y0055437D01*
X0131050Y0054953D01*
X0133469Y0054953D02*
X0133469Y0056888D01*
X0151866Y0048478D02*
X0152350Y0047511D01*
X0153317Y0046543D01*
X0153317Y0047994D01*
X0153801Y0048478D01*
X0154285Y0048478D01*
X0154769Y0047994D01*
X0154769Y0047027D01*
X0154285Y0046543D01*
X0153317Y0046543D01*
X0154769Y0045531D02*
X0154769Y0043597D01*
X0154769Y0044564D02*
X0151866Y0044564D01*
X0152834Y0043597D01*
X0152350Y0042585D02*
X0153317Y0042585D01*
X0153801Y0042101D01*
X0153801Y0040650D01*
X0153801Y0041617D02*
X0154769Y0042585D01*
X0154769Y0040650D02*
X0151866Y0040650D01*
X0151866Y0042101D01*
X0152350Y0042585D01*
X0161866Y0042101D02*
X0162350Y0042585D01*
X0163317Y0042585D01*
X0163801Y0042101D01*
X0163801Y0040650D01*
X0163801Y0041617D02*
X0164769Y0042585D01*
X0164769Y0043597D02*
X0164769Y0045531D01*
X0164769Y0044564D02*
X0161866Y0044564D01*
X0162834Y0043597D01*
X0161866Y0042101D02*
X0161866Y0040650D01*
X0164769Y0040650D01*
X0164769Y0046543D02*
X0164285Y0046543D01*
X0162350Y0048478D01*
X0161866Y0048478D01*
X0161866Y0046543D01*
X0171866Y0047027D02*
X0172350Y0046543D01*
X0172834Y0046543D01*
X0173317Y0047027D01*
X0173317Y0047994D01*
X0173801Y0048478D01*
X0174285Y0048478D01*
X0174769Y0047994D01*
X0174769Y0047027D01*
X0174285Y0046543D01*
X0173801Y0046543D01*
X0173317Y0047027D01*
X0173317Y0047994D02*
X0172834Y0048478D01*
X0172350Y0048478D01*
X0171866Y0047994D01*
X0171866Y0047027D01*
X0174769Y0045531D02*
X0174769Y0043597D01*
X0174769Y0044564D02*
X0171866Y0044564D01*
X0172834Y0043597D01*
X0173317Y0042585D02*
X0173801Y0042101D01*
X0173801Y0040650D01*
X0173801Y0041617D02*
X0174769Y0042585D01*
X0173317Y0042585D02*
X0172350Y0042585D01*
X0171866Y0042101D01*
X0171866Y0040650D01*
X0174769Y0040650D01*
X0189366Y0039601D02*
X0189366Y0038150D01*
X0192269Y0038150D01*
X0191301Y0038150D02*
X0191301Y0039601D01*
X0190817Y0040085D01*
X0189850Y0040085D01*
X0189366Y0039601D01*
X0190334Y0041097D02*
X0189366Y0042064D01*
X0192269Y0042064D01*
X0192269Y0041097D02*
X0192269Y0043031D01*
X0192269Y0044043D02*
X0190334Y0045978D01*
X0189850Y0045978D01*
X0189366Y0045494D01*
X0189366Y0044527D01*
X0189850Y0044043D01*
X0192269Y0044043D02*
X0192269Y0045978D01*
X0192269Y0040085D02*
X0191301Y0039117D01*
X0216506Y0029915D02*
X0216506Y0027013D01*
X0217958Y0027013D01*
X0218441Y0027497D01*
X0218441Y0029432D01*
X0217958Y0029915D01*
X0216506Y0029915D01*
X0219453Y0028948D02*
X0220420Y0029915D01*
X0220420Y0027013D01*
X0219453Y0027013D02*
X0221388Y0027013D01*
X0221735Y0045757D02*
X0219800Y0045757D01*
X0219316Y0046241D01*
X0219316Y0047208D01*
X0219800Y0047692D01*
X0221735Y0047692D01*
X0222219Y0047208D01*
X0222219Y0046241D01*
X0221735Y0045757D01*
X0221251Y0046724D02*
X0222219Y0047692D01*
X0222219Y0048703D02*
X0222219Y0050638D01*
X0222219Y0049671D02*
X0219316Y0049671D01*
X0220284Y0048703D01*
X0216035Y0057900D02*
X0214100Y0057900D01*
X0213616Y0058384D01*
X0213616Y0059351D01*
X0214100Y0059835D01*
X0214584Y0060847D02*
X0213616Y0061814D01*
X0216519Y0061814D01*
X0216519Y0060847D02*
X0216519Y0062781D01*
X0216035Y0063793D02*
X0214100Y0065728D01*
X0216035Y0065728D01*
X0216519Y0065244D01*
X0216519Y0064277D01*
X0216035Y0063793D01*
X0214100Y0063793D01*
X0213616Y0064277D01*
X0213616Y0065244D01*
X0214100Y0065728D01*
X0216035Y0059835D02*
X0216519Y0059351D01*
X0216519Y0058384D01*
X0216035Y0057900D01*
X0222850Y0074150D02*
X0224785Y0074150D01*
X0225269Y0074634D01*
X0225269Y0075601D01*
X0224785Y0076085D01*
X0224785Y0077097D02*
X0225269Y0077580D01*
X0225269Y0078548D01*
X0224785Y0079031D01*
X0222850Y0079031D01*
X0222366Y0078548D01*
X0222366Y0077580D01*
X0222850Y0077097D01*
X0223334Y0077097D01*
X0223817Y0077580D01*
X0223817Y0079031D01*
X0222850Y0076085D02*
X0222366Y0075601D01*
X0222366Y0074634D01*
X0222850Y0074150D01*
X0216950Y0082150D02*
X0215015Y0082150D01*
X0216950Y0084085D01*
X0216950Y0084569D01*
X0216466Y0085052D01*
X0215499Y0085052D01*
X0215015Y0084569D01*
X0214004Y0084569D02*
X0214004Y0083601D01*
X0213520Y0083117D01*
X0212069Y0083117D01*
X0212069Y0082150D02*
X0212069Y0085052D01*
X0213520Y0085052D01*
X0214004Y0084569D01*
X0213036Y0083117D02*
X0214004Y0082150D01*
X0228319Y0092150D02*
X0228319Y0095052D01*
X0229770Y0095052D01*
X0230254Y0094569D01*
X0230254Y0093601D01*
X0229770Y0093117D01*
X0228319Y0093117D01*
X0229286Y0093117D02*
X0230254Y0092150D01*
X0231265Y0092150D02*
X0233200Y0092150D01*
X0232233Y0092150D02*
X0232233Y0095052D01*
X0231265Y0094085D01*
X0193519Y0069244D02*
X0193519Y0068277D01*
X0193035Y0067793D01*
X0191100Y0069728D01*
X0193035Y0069728D01*
X0193519Y0069244D01*
X0193035Y0067793D02*
X0191100Y0067793D01*
X0190616Y0068277D01*
X0190616Y0069244D01*
X0191100Y0069728D01*
X0193519Y0066781D02*
X0193519Y0064847D01*
X0193519Y0065814D02*
X0190616Y0065814D01*
X0191584Y0064847D01*
X0191100Y0063835D02*
X0192067Y0063835D01*
X0192551Y0063351D01*
X0192551Y0061900D01*
X0192551Y0062867D02*
X0193519Y0063835D01*
X0193519Y0061900D02*
X0190616Y0061900D01*
X0190616Y0063351D01*
X0191100Y0063835D01*
X0144557Y0120950D02*
X0142622Y0120950D01*
X0143590Y0120950D02*
X0143590Y0123852D01*
X0142622Y0122885D01*
X0141611Y0123369D02*
X0141611Y0122401D01*
X0141127Y0121917D01*
X0139676Y0121917D01*
X0139676Y0120950D02*
X0139676Y0123852D01*
X0141127Y0123852D01*
X0141611Y0123369D01*
X0140643Y0121917D02*
X0141611Y0120950D01*
X0138664Y0121917D02*
X0138664Y0123852D01*
X0138664Y0121917D02*
X0137697Y0120950D01*
X0136729Y0121917D01*
X0136729Y0123852D01*
X0151052Y0141650D02*
X0152020Y0141650D01*
X0152504Y0142134D01*
X0153515Y0143101D02*
X0155450Y0143101D01*
X0154966Y0141650D02*
X0154966Y0144552D01*
X0153515Y0143101D01*
X0152504Y0144069D02*
X0152020Y0144552D01*
X0151052Y0144552D01*
X0150569Y0144069D01*
X0150569Y0142134D01*
X0151052Y0141650D01*
X0147716Y0155900D02*
X0146749Y0155900D01*
X0146265Y0156384D01*
X0146265Y0156867D01*
X0146749Y0157351D01*
X0147716Y0157351D01*
X0148200Y0156867D01*
X0148200Y0156384D01*
X0147716Y0155900D01*
X0147716Y0157351D02*
X0148200Y0157835D01*
X0148200Y0158319D01*
X0147716Y0158802D01*
X0146749Y0158802D01*
X0146265Y0158319D01*
X0146265Y0157835D01*
X0146749Y0157351D01*
X0145254Y0157351D02*
X0145254Y0158319D01*
X0144770Y0158802D01*
X0143319Y0158802D01*
X0143319Y0155900D01*
X0143319Y0156867D02*
X0144770Y0156867D01*
X0145254Y0157351D01*
X0144286Y0156867D02*
X0145254Y0155900D01*
X0154319Y0157134D02*
X0154802Y0156650D01*
X0155770Y0156650D01*
X0156254Y0157134D01*
X0157265Y0156650D02*
X0159200Y0156650D01*
X0158233Y0156650D02*
X0158233Y0159552D01*
X0157265Y0158585D01*
X0156254Y0159069D02*
X0155770Y0159552D01*
X0154802Y0159552D01*
X0154319Y0159069D01*
X0154319Y0157134D01*
X0160212Y0156650D02*
X0162147Y0156650D01*
X0161179Y0156650D02*
X0161179Y0159552D01*
X0160212Y0158585D01*
X0159235Y0179507D02*
X0157300Y0179507D01*
X0156816Y0179991D01*
X0156816Y0180958D01*
X0157300Y0181442D01*
X0157300Y0182453D02*
X0157784Y0182453D01*
X0158267Y0182937D01*
X0158267Y0183905D01*
X0158751Y0184388D01*
X0159235Y0184388D01*
X0159719Y0183905D01*
X0159719Y0182937D01*
X0159235Y0182453D01*
X0158751Y0182453D01*
X0158267Y0182937D01*
X0158267Y0183905D02*
X0157784Y0184388D01*
X0157300Y0184388D01*
X0156816Y0183905D01*
X0156816Y0182937D01*
X0157300Y0182453D01*
X0159235Y0181442D02*
X0159719Y0180958D01*
X0159719Y0179991D01*
X0159235Y0179507D01*
X0127719Y0179257D02*
X0124816Y0179257D01*
X0124816Y0180708D01*
X0125300Y0181192D01*
X0126267Y0181192D01*
X0126751Y0180708D01*
X0126751Y0179257D01*
X0126751Y0180224D02*
X0127719Y0181192D01*
X0127235Y0182203D02*
X0127719Y0182687D01*
X0127719Y0183655D01*
X0127235Y0184138D01*
X0125300Y0184138D01*
X0124816Y0183655D01*
X0124816Y0182687D01*
X0125300Y0182203D01*
X0125784Y0182203D01*
X0126267Y0182687D01*
X0126267Y0184138D01*
X0127300Y0154388D02*
X0126816Y0153905D01*
X0126816Y0152937D01*
X0127300Y0152453D01*
X0127300Y0154388D02*
X0127784Y0154388D01*
X0129719Y0152453D01*
X0129719Y0154388D01*
X0129719Y0151442D02*
X0129719Y0149507D01*
X0129719Y0150474D02*
X0126816Y0150474D01*
X0127784Y0149507D01*
X0127300Y0148495D02*
X0126816Y0148012D01*
X0126816Y0147044D01*
X0127300Y0146560D01*
X0129235Y0146560D01*
X0129719Y0147044D01*
X0129719Y0148012D01*
X0129235Y0148495D01*
X0058568Y0077781D02*
X0060503Y0075847D01*
X0060987Y0075847D01*
X0060987Y0074835D02*
X0060020Y0073867D01*
X0060020Y0074351D02*
X0060020Y0072900D01*
X0060987Y0072900D02*
X0058085Y0072900D01*
X0058085Y0074351D01*
X0058568Y0074835D01*
X0059536Y0074835D01*
X0060020Y0074351D01*
X0058085Y0075847D02*
X0058085Y0077781D01*
X0058568Y0077781D01*
X0033307Y0069119D02*
X0033307Y0068635D01*
X0032823Y0068151D01*
X0033307Y0067667D01*
X0033307Y0067184D01*
X0032823Y0066700D01*
X0031856Y0066700D01*
X0031372Y0067184D01*
X0030361Y0067184D02*
X0029877Y0066700D01*
X0028909Y0066700D01*
X0028426Y0067184D01*
X0028426Y0069119D01*
X0028909Y0069602D01*
X0029877Y0069602D01*
X0030361Y0069119D01*
X0031372Y0069119D02*
X0031856Y0069602D01*
X0032823Y0069602D01*
X0033307Y0069119D01*
X0032823Y0068151D02*
X0032340Y0068151D01*
D14*
X0102919Y0046500D03*
X0132919Y0042750D03*
X0116669Y0070250D03*
X0189169Y0127750D03*
X0189169Y0135250D03*
X0142919Y0152750D03*
X0217919Y0089000D03*
X0232919Y0089000D03*
D15*
X0196669Y0059000D03*
X0196669Y0044000D03*
X0177919Y0044000D03*
X0167919Y0044000D03*
X0157919Y0044000D03*
X0147919Y0044000D03*
X0105419Y0059000D03*
X0127919Y0092750D03*
X0147919Y0096500D03*
X0157919Y0096500D03*
X0167919Y0096500D03*
X0177919Y0096500D03*
X0131669Y0176500D03*
X0054169Y0081500D03*
D16*
X0034006Y0098100D02*
X0034006Y0098567D01*
X0035874Y0100435D01*
X0035874Y0100902D01*
X0034006Y0100902D01*
X0033112Y0100435D02*
X0032645Y0100902D01*
X0031711Y0100902D01*
X0031244Y0100435D01*
X0031244Y0098567D01*
X0031711Y0098100D01*
X0032645Y0098100D01*
X0033112Y0098567D01*
X0148919Y0077087D02*
X0148919Y0060913D01*
X0166919Y0060913D01*
X0166919Y0077087D01*
X0148919Y0077087D01*
D17*
X0148019Y0077987D02*
X0148019Y0060013D01*
X0167819Y0060013D01*
X0167819Y0077987D01*
X0148019Y0077987D01*
X0149719Y0064200D02*
X0149721Y0064284D01*
X0149727Y0064369D01*
X0149737Y0064452D01*
X0149751Y0064536D01*
X0149768Y0064618D01*
X0149790Y0064700D01*
X0149815Y0064780D01*
X0149844Y0064859D01*
X0149877Y0064937D01*
X0149913Y0065013D01*
X0149953Y0065088D01*
X0149997Y0065160D01*
X0150043Y0065231D01*
X0150093Y0065299D01*
X0150146Y0065364D01*
X0150202Y0065427D01*
X0150261Y0065488D01*
X0150323Y0065545D01*
X0150387Y0065600D01*
X0150454Y0065651D01*
X0150523Y0065700D01*
X0150595Y0065745D01*
X0150668Y0065786D01*
X0150743Y0065824D01*
X0150820Y0065859D01*
X0150899Y0065890D01*
X0150979Y0065917D01*
X0151060Y0065940D01*
X0151142Y0065960D01*
X0151225Y0065976D01*
X0151308Y0065988D01*
X0151393Y0065996D01*
X0151477Y0066000D01*
X0151561Y0066000D01*
X0151645Y0065996D01*
X0151730Y0065988D01*
X0151813Y0065976D01*
X0151896Y0065960D01*
X0151978Y0065940D01*
X0152059Y0065917D01*
X0152139Y0065890D01*
X0152218Y0065859D01*
X0152295Y0065824D01*
X0152370Y0065786D01*
X0152443Y0065745D01*
X0152515Y0065700D01*
X0152584Y0065651D01*
X0152651Y0065600D01*
X0152715Y0065545D01*
X0152777Y0065488D01*
X0152836Y0065427D01*
X0152892Y0065364D01*
X0152945Y0065299D01*
X0152995Y0065231D01*
X0153041Y0065160D01*
X0153085Y0065088D01*
X0153125Y0065013D01*
X0153161Y0064937D01*
X0153194Y0064859D01*
X0153223Y0064780D01*
X0153248Y0064700D01*
X0153270Y0064618D01*
X0153287Y0064536D01*
X0153301Y0064452D01*
X0153311Y0064369D01*
X0153317Y0064284D01*
X0153319Y0064200D01*
X0153317Y0064116D01*
X0153311Y0064031D01*
X0153301Y0063948D01*
X0153287Y0063864D01*
X0153270Y0063782D01*
X0153248Y0063700D01*
X0153223Y0063620D01*
X0153194Y0063541D01*
X0153161Y0063463D01*
X0153125Y0063387D01*
X0153085Y0063312D01*
X0153041Y0063240D01*
X0152995Y0063169D01*
X0152945Y0063101D01*
X0152892Y0063036D01*
X0152836Y0062973D01*
X0152777Y0062912D01*
X0152715Y0062855D01*
X0152651Y0062800D01*
X0152584Y0062749D01*
X0152515Y0062700D01*
X0152443Y0062655D01*
X0152370Y0062614D01*
X0152295Y0062576D01*
X0152218Y0062541D01*
X0152139Y0062510D01*
X0152059Y0062483D01*
X0151978Y0062460D01*
X0151896Y0062440D01*
X0151813Y0062424D01*
X0151730Y0062412D01*
X0151645Y0062404D01*
X0151561Y0062400D01*
X0151477Y0062400D01*
X0151393Y0062404D01*
X0151308Y0062412D01*
X0151225Y0062424D01*
X0151142Y0062440D01*
X0151060Y0062460D01*
X0150979Y0062483D01*
X0150899Y0062510D01*
X0150820Y0062541D01*
X0150743Y0062576D01*
X0150668Y0062614D01*
X0150595Y0062655D01*
X0150523Y0062700D01*
X0150454Y0062749D01*
X0150387Y0062800D01*
X0150323Y0062855D01*
X0150261Y0062912D01*
X0150202Y0062973D01*
X0150146Y0063036D01*
X0150093Y0063101D01*
X0150043Y0063169D01*
X0149997Y0063240D01*
X0149953Y0063312D01*
X0149913Y0063387D01*
X0149877Y0063463D01*
X0149844Y0063541D01*
X0149815Y0063620D01*
X0149790Y0063700D01*
X0149768Y0063782D01*
X0149751Y0063864D01*
X0149737Y0063948D01*
X0149727Y0064031D01*
X0149721Y0064116D01*
X0149719Y0064200D01*
X0124269Y0058350D02*
X0124269Y0055339D01*
X0124269Y0058350D02*
X0120939Y0058350D01*
X0124269Y0050259D02*
X0124269Y0047150D01*
X0120939Y0047150D01*
X0120419Y0034000D02*
X0115419Y0034000D01*
X0112919Y0031500D01*
X0110419Y0034000D01*
X0105419Y0034000D01*
X0102919Y0031500D01*
X0102919Y0016500D01*
X0105419Y0014000D01*
X0110419Y0014000D01*
X0112919Y0016500D01*
X0112919Y0031500D01*
X0120419Y0034000D02*
X0122919Y0031500D01*
X0122919Y0016500D01*
X0120419Y0014000D01*
X0115419Y0014000D01*
X0112919Y0016500D01*
X0122919Y0016500D02*
X0125419Y0014000D01*
X0130419Y0014000D01*
X0132919Y0016500D01*
X0132919Y0031500D01*
X0130419Y0034000D01*
X0125419Y0034000D01*
X0122919Y0031500D01*
X0132919Y0031500D02*
X0135419Y0034000D01*
X0140419Y0034000D01*
X0142919Y0031500D01*
X0142919Y0016500D01*
X0140419Y0014000D01*
X0135419Y0014000D01*
X0132919Y0016500D01*
X0142919Y0016500D02*
X0145419Y0014000D01*
X0150419Y0014000D01*
X0152919Y0016500D01*
X0152919Y0031500D01*
X0150419Y0034000D01*
X0145419Y0034000D01*
X0142919Y0031500D01*
X0152919Y0031500D02*
X0155419Y0034000D01*
X0160419Y0034000D01*
X0162919Y0031500D01*
X0162919Y0016500D01*
X0160419Y0014000D01*
X0155419Y0014000D01*
X0152919Y0016500D01*
X0162919Y0016500D02*
X0165419Y0014000D01*
X0170419Y0014000D01*
X0172919Y0016500D01*
X0172919Y0031500D01*
X0170419Y0034000D01*
X0165419Y0034000D01*
X0162919Y0031500D01*
X0172919Y0031500D02*
X0175419Y0034000D01*
X0180419Y0034000D01*
X0182919Y0031500D01*
X0182919Y0016500D01*
X0180419Y0014000D01*
X0175419Y0014000D01*
X0172919Y0016500D01*
X0182919Y0016500D02*
X0185419Y0014000D01*
X0190419Y0014000D01*
X0192919Y0016500D01*
X0192919Y0031500D01*
X0190419Y0034000D01*
X0185419Y0034000D01*
X0182919Y0031500D01*
X0208439Y0043400D02*
X0211769Y0043400D01*
X0211769Y0046509D01*
X0211769Y0051589D02*
X0211769Y0054600D01*
X0208439Y0054600D01*
D18*
X0240576Y0068232D02*
X0240576Y0034768D01*
X0260261Y0034768D01*
X0260261Y0068232D01*
X0240576Y0068232D01*
X0240576Y0094768D02*
X0260261Y0094768D01*
X0260261Y0128232D01*
X0240576Y0128232D01*
X0240576Y0094768D01*
X0256541Y0097500D02*
X0256543Y0097559D01*
X0256549Y0097617D01*
X0256559Y0097675D01*
X0256572Y0097732D01*
X0256590Y0097788D01*
X0256611Y0097843D01*
X0256635Y0097896D01*
X0256664Y0097947D01*
X0256695Y0097997D01*
X0256730Y0098044D01*
X0256768Y0098089D01*
X0256809Y0098131D01*
X0256852Y0098170D01*
X0256898Y0098207D01*
X0256947Y0098240D01*
X0256997Y0098270D01*
X0257049Y0098296D01*
X0257103Y0098319D01*
X0257159Y0098339D01*
X0257215Y0098354D01*
X0257273Y0098366D01*
X0257331Y0098374D01*
X0257390Y0098378D01*
X0257448Y0098378D01*
X0257507Y0098374D01*
X0257565Y0098366D01*
X0257623Y0098354D01*
X0257679Y0098339D01*
X0257735Y0098319D01*
X0257789Y0098296D01*
X0257841Y0098270D01*
X0257891Y0098240D01*
X0257940Y0098207D01*
X0257986Y0098170D01*
X0258029Y0098131D01*
X0258070Y0098089D01*
X0258108Y0098044D01*
X0258143Y0097997D01*
X0258174Y0097947D01*
X0258203Y0097896D01*
X0258227Y0097843D01*
X0258248Y0097788D01*
X0258266Y0097732D01*
X0258279Y0097675D01*
X0258289Y0097617D01*
X0258295Y0097559D01*
X0258297Y0097500D01*
X0258295Y0097441D01*
X0258289Y0097383D01*
X0258279Y0097325D01*
X0258266Y0097268D01*
X0258248Y0097212D01*
X0258227Y0097157D01*
X0258203Y0097104D01*
X0258174Y0097053D01*
X0258143Y0097003D01*
X0258108Y0096956D01*
X0258070Y0096911D01*
X0258029Y0096869D01*
X0257986Y0096830D01*
X0257940Y0096793D01*
X0257891Y0096760D01*
X0257841Y0096730D01*
X0257789Y0096704D01*
X0257735Y0096681D01*
X0257679Y0096661D01*
X0257623Y0096646D01*
X0257565Y0096634D01*
X0257507Y0096626D01*
X0257448Y0096622D01*
X0257390Y0096622D01*
X0257331Y0096626D01*
X0257273Y0096634D01*
X0257215Y0096646D01*
X0257159Y0096661D01*
X0257103Y0096681D01*
X0257049Y0096704D01*
X0256997Y0096730D01*
X0256947Y0096760D01*
X0256898Y0096793D01*
X0256852Y0096830D01*
X0256809Y0096869D01*
X0256768Y0096911D01*
X0256730Y0096956D01*
X0256695Y0097003D01*
X0256664Y0097053D01*
X0256635Y0097104D01*
X0256611Y0097157D01*
X0256590Y0097212D01*
X0256572Y0097268D01*
X0256559Y0097325D01*
X0256549Y0097383D01*
X0256543Y0097441D01*
X0256541Y0097500D01*
X0256541Y0037500D02*
X0256543Y0037559D01*
X0256549Y0037617D01*
X0256559Y0037675D01*
X0256572Y0037732D01*
X0256590Y0037788D01*
X0256611Y0037843D01*
X0256635Y0037896D01*
X0256664Y0037947D01*
X0256695Y0037997D01*
X0256730Y0038044D01*
X0256768Y0038089D01*
X0256809Y0038131D01*
X0256852Y0038170D01*
X0256898Y0038207D01*
X0256947Y0038240D01*
X0256997Y0038270D01*
X0257049Y0038296D01*
X0257103Y0038319D01*
X0257159Y0038339D01*
X0257215Y0038354D01*
X0257273Y0038366D01*
X0257331Y0038374D01*
X0257390Y0038378D01*
X0257448Y0038378D01*
X0257507Y0038374D01*
X0257565Y0038366D01*
X0257623Y0038354D01*
X0257679Y0038339D01*
X0257735Y0038319D01*
X0257789Y0038296D01*
X0257841Y0038270D01*
X0257891Y0038240D01*
X0257940Y0038207D01*
X0257986Y0038170D01*
X0258029Y0038131D01*
X0258070Y0038089D01*
X0258108Y0038044D01*
X0258143Y0037997D01*
X0258174Y0037947D01*
X0258203Y0037896D01*
X0258227Y0037843D01*
X0258248Y0037788D01*
X0258266Y0037732D01*
X0258279Y0037675D01*
X0258289Y0037617D01*
X0258295Y0037559D01*
X0258297Y0037500D01*
X0258295Y0037441D01*
X0258289Y0037383D01*
X0258279Y0037325D01*
X0258266Y0037268D01*
X0258248Y0037212D01*
X0258227Y0037157D01*
X0258203Y0037104D01*
X0258174Y0037053D01*
X0258143Y0037003D01*
X0258108Y0036956D01*
X0258070Y0036911D01*
X0258029Y0036869D01*
X0257986Y0036830D01*
X0257940Y0036793D01*
X0257891Y0036760D01*
X0257841Y0036730D01*
X0257789Y0036704D01*
X0257735Y0036681D01*
X0257679Y0036661D01*
X0257623Y0036646D01*
X0257565Y0036634D01*
X0257507Y0036626D01*
X0257448Y0036622D01*
X0257390Y0036622D01*
X0257331Y0036626D01*
X0257273Y0036634D01*
X0257215Y0036646D01*
X0257159Y0036661D01*
X0257103Y0036681D01*
X0257049Y0036704D01*
X0256997Y0036730D01*
X0256947Y0036760D01*
X0256898Y0036793D01*
X0256852Y0036830D01*
X0256809Y0036869D01*
X0256768Y0036911D01*
X0256730Y0036956D01*
X0256695Y0037003D01*
X0256664Y0037053D01*
X0256635Y0037104D01*
X0256611Y0037157D01*
X0256590Y0037212D01*
X0256572Y0037268D01*
X0256559Y0037325D01*
X0256549Y0037383D01*
X0256543Y0037441D01*
X0256541Y0037500D01*
X0092469Y0043800D02*
X0092469Y0059200D01*
X0058369Y0059200D01*
X0058369Y0043800D01*
X0092469Y0043800D01*
X0088505Y0056000D02*
X0088507Y0056075D01*
X0088513Y0056149D01*
X0088523Y0056223D01*
X0088536Y0056296D01*
X0088554Y0056369D01*
X0088575Y0056440D01*
X0088600Y0056511D01*
X0088629Y0056580D01*
X0088662Y0056647D01*
X0088698Y0056712D01*
X0088737Y0056776D01*
X0088779Y0056837D01*
X0088825Y0056896D01*
X0088874Y0056953D01*
X0088926Y0057006D01*
X0088980Y0057057D01*
X0089037Y0057106D01*
X0089097Y0057150D01*
X0089159Y0057192D01*
X0089223Y0057231D01*
X0089289Y0057266D01*
X0089356Y0057297D01*
X0089426Y0057325D01*
X0089496Y0057349D01*
X0089568Y0057370D01*
X0089641Y0057386D01*
X0089714Y0057399D01*
X0089789Y0057408D01*
X0089863Y0057413D01*
X0089938Y0057414D01*
X0090012Y0057411D01*
X0090087Y0057404D01*
X0090160Y0057393D01*
X0090234Y0057379D01*
X0090306Y0057360D01*
X0090377Y0057338D01*
X0090447Y0057312D01*
X0090516Y0057282D01*
X0090582Y0057249D01*
X0090647Y0057212D01*
X0090710Y0057172D01*
X0090771Y0057128D01*
X0090829Y0057082D01*
X0090885Y0057032D01*
X0090938Y0056980D01*
X0090989Y0056925D01*
X0091036Y0056867D01*
X0091080Y0056807D01*
X0091121Y0056744D01*
X0091159Y0056680D01*
X0091193Y0056614D01*
X0091224Y0056545D01*
X0091251Y0056476D01*
X0091274Y0056405D01*
X0091293Y0056333D01*
X0091309Y0056260D01*
X0091321Y0056186D01*
X0091329Y0056112D01*
X0091333Y0056037D01*
X0091333Y0055963D01*
X0091329Y0055888D01*
X0091321Y0055814D01*
X0091309Y0055740D01*
X0091293Y0055667D01*
X0091274Y0055595D01*
X0091251Y0055524D01*
X0091224Y0055455D01*
X0091193Y0055386D01*
X0091159Y0055320D01*
X0091121Y0055256D01*
X0091080Y0055193D01*
X0091036Y0055133D01*
X0090989Y0055075D01*
X0090938Y0055020D01*
X0090885Y0054968D01*
X0090829Y0054918D01*
X0090771Y0054872D01*
X0090710Y0054828D01*
X0090647Y0054788D01*
X0090582Y0054751D01*
X0090516Y0054718D01*
X0090447Y0054688D01*
X0090377Y0054662D01*
X0090306Y0054640D01*
X0090234Y0054621D01*
X0090160Y0054607D01*
X0090087Y0054596D01*
X0090012Y0054589D01*
X0089938Y0054586D01*
X0089863Y0054587D01*
X0089789Y0054592D01*
X0089714Y0054601D01*
X0089641Y0054614D01*
X0089568Y0054630D01*
X0089496Y0054651D01*
X0089426Y0054675D01*
X0089356Y0054703D01*
X0089289Y0054734D01*
X0089223Y0054769D01*
X0089159Y0054808D01*
X0089097Y0054850D01*
X0089037Y0054894D01*
X0088980Y0054943D01*
X0088926Y0054994D01*
X0088874Y0055047D01*
X0088825Y0055104D01*
X0088779Y0055163D01*
X0088737Y0055224D01*
X0088698Y0055288D01*
X0088662Y0055353D01*
X0088629Y0055420D01*
X0088600Y0055489D01*
X0088575Y0055560D01*
X0088554Y0055631D01*
X0088536Y0055704D01*
X0088523Y0055777D01*
X0088513Y0055851D01*
X0088507Y0055925D01*
X0088505Y0056000D01*
X0139907Y0165988D02*
X0139907Y0177012D01*
X0150930Y0177012D01*
X0150930Y0165988D01*
X0139907Y0165988D01*
D19*
X0149356Y0175437D03*
D20*
X0143627Y0143852D02*
X0141856Y0143852D01*
X0143627Y0143852D02*
X0143627Y0136175D01*
X0132210Y0136175D02*
X0132210Y0143852D01*
X0133982Y0143852D01*
M02*
