G75*
%MOIN*%
%OFA0B0*%
%FSLAX25Y25*%
%IPPOS*%
%LPD*%
%AMOC8*
5,1,8,0,0,1.08239X$1,22.5*
%
%ADD10C,0.00000*%
%ADD11C,0.06000*%
%ADD12R,0.04337X0.04731*%
%ADD13R,0.04731X0.04337*%
%ADD14R,0.04534X0.02959*%
%ADD15R,0.09061X0.10243*%
%ADD16R,0.08274X0.02369*%
%ADD17R,0.04337X0.06306*%
%ADD18R,0.06306X0.04337*%
%ADD19R,0.16148X0.16148*%
%ADD20R,0.05912X0.04337*%
%ADD21C,0.05943*%
%ADD22R,0.05912X0.05912*%
%ADD23R,0.04337X0.11424*%
%ADD24R,0.11424X0.04337*%
%ADD25R,0.01600X0.04300*%
%ADD26OC8,0.06400*%
%ADD27R,0.05900X0.01770*%
%ADD28R,0.01900X0.04703*%
%ADD29R,0.01770X0.04337*%
%ADD30R,0.06699X0.06306*%
%ADD31R,0.05124X0.05124*%
%ADD32R,0.05124X0.12211*%
%ADD33R,0.05124X0.06306*%
%ADD34R,0.12211X0.05124*%
%ADD35R,0.07369X0.15361*%
%ADD36R,0.15223X0.07014*%
%ADD37R,0.07369X0.15794*%
D10*
X0027919Y0011500D02*
X0277919Y0011500D01*
X0278161Y0011503D01*
X0278402Y0011512D01*
X0278643Y0011526D01*
X0278884Y0011547D01*
X0279124Y0011573D01*
X0279364Y0011605D01*
X0279603Y0011643D01*
X0279840Y0011686D01*
X0280077Y0011736D01*
X0280312Y0011791D01*
X0280546Y0011851D01*
X0280778Y0011918D01*
X0281009Y0011989D01*
X0281238Y0012067D01*
X0281465Y0012150D01*
X0281690Y0012238D01*
X0281913Y0012332D01*
X0282133Y0012431D01*
X0282351Y0012536D01*
X0282566Y0012645D01*
X0282779Y0012760D01*
X0282989Y0012880D01*
X0283195Y0013005D01*
X0283399Y0013135D01*
X0283600Y0013270D01*
X0283797Y0013410D01*
X0283991Y0013554D01*
X0284181Y0013703D01*
X0284367Y0013857D01*
X0284550Y0014015D01*
X0284729Y0014177D01*
X0284904Y0014344D01*
X0285075Y0014515D01*
X0285242Y0014690D01*
X0285404Y0014869D01*
X0285562Y0015052D01*
X0285716Y0015238D01*
X0285865Y0015428D01*
X0286009Y0015622D01*
X0286149Y0015819D01*
X0286284Y0016020D01*
X0286414Y0016224D01*
X0286539Y0016430D01*
X0286659Y0016640D01*
X0286774Y0016853D01*
X0286883Y0017068D01*
X0286988Y0017286D01*
X0287087Y0017506D01*
X0287181Y0017729D01*
X0287269Y0017954D01*
X0287352Y0018181D01*
X0287430Y0018410D01*
X0287501Y0018641D01*
X0287568Y0018873D01*
X0287628Y0019107D01*
X0287683Y0019342D01*
X0287733Y0019579D01*
X0287776Y0019816D01*
X0287814Y0020055D01*
X0287846Y0020295D01*
X0287872Y0020535D01*
X0287893Y0020776D01*
X0287907Y0021017D01*
X0287916Y0021258D01*
X0287919Y0021500D01*
X0287919Y0191500D01*
X0287916Y0191742D01*
X0287907Y0191983D01*
X0287893Y0192224D01*
X0287872Y0192465D01*
X0287846Y0192705D01*
X0287814Y0192945D01*
X0287776Y0193184D01*
X0287733Y0193421D01*
X0287683Y0193658D01*
X0287628Y0193893D01*
X0287568Y0194127D01*
X0287501Y0194359D01*
X0287430Y0194590D01*
X0287352Y0194819D01*
X0287269Y0195046D01*
X0287181Y0195271D01*
X0287087Y0195494D01*
X0286988Y0195714D01*
X0286883Y0195932D01*
X0286774Y0196147D01*
X0286659Y0196360D01*
X0286539Y0196570D01*
X0286414Y0196776D01*
X0286284Y0196980D01*
X0286149Y0197181D01*
X0286009Y0197378D01*
X0285865Y0197572D01*
X0285716Y0197762D01*
X0285562Y0197948D01*
X0285404Y0198131D01*
X0285242Y0198310D01*
X0285075Y0198485D01*
X0284904Y0198656D01*
X0284729Y0198823D01*
X0284550Y0198985D01*
X0284367Y0199143D01*
X0284181Y0199297D01*
X0283991Y0199446D01*
X0283797Y0199590D01*
X0283600Y0199730D01*
X0283399Y0199865D01*
X0283195Y0199995D01*
X0282989Y0200120D01*
X0282779Y0200240D01*
X0282566Y0200355D01*
X0282351Y0200464D01*
X0282133Y0200569D01*
X0281913Y0200668D01*
X0281690Y0200762D01*
X0281465Y0200850D01*
X0281238Y0200933D01*
X0281009Y0201011D01*
X0280778Y0201082D01*
X0280546Y0201149D01*
X0280312Y0201209D01*
X0280077Y0201264D01*
X0279840Y0201314D01*
X0279603Y0201357D01*
X0279364Y0201395D01*
X0279124Y0201427D01*
X0278884Y0201453D01*
X0278643Y0201474D01*
X0278402Y0201488D01*
X0278161Y0201497D01*
X0277919Y0201500D01*
X0027919Y0201500D01*
X0027677Y0201497D01*
X0027436Y0201488D01*
X0027195Y0201474D01*
X0026954Y0201453D01*
X0026714Y0201427D01*
X0026474Y0201395D01*
X0026235Y0201357D01*
X0025998Y0201314D01*
X0025761Y0201264D01*
X0025526Y0201209D01*
X0025292Y0201149D01*
X0025060Y0201082D01*
X0024829Y0201011D01*
X0024600Y0200933D01*
X0024373Y0200850D01*
X0024148Y0200762D01*
X0023925Y0200668D01*
X0023705Y0200569D01*
X0023487Y0200464D01*
X0023272Y0200355D01*
X0023059Y0200240D01*
X0022849Y0200120D01*
X0022643Y0199995D01*
X0022439Y0199865D01*
X0022238Y0199730D01*
X0022041Y0199590D01*
X0021847Y0199446D01*
X0021657Y0199297D01*
X0021471Y0199143D01*
X0021288Y0198985D01*
X0021109Y0198823D01*
X0020934Y0198656D01*
X0020763Y0198485D01*
X0020596Y0198310D01*
X0020434Y0198131D01*
X0020276Y0197948D01*
X0020122Y0197762D01*
X0019973Y0197572D01*
X0019829Y0197378D01*
X0019689Y0197181D01*
X0019554Y0196980D01*
X0019424Y0196776D01*
X0019299Y0196570D01*
X0019179Y0196360D01*
X0019064Y0196147D01*
X0018955Y0195932D01*
X0018850Y0195714D01*
X0018751Y0195494D01*
X0018657Y0195271D01*
X0018569Y0195046D01*
X0018486Y0194819D01*
X0018408Y0194590D01*
X0018337Y0194359D01*
X0018270Y0194127D01*
X0018210Y0193893D01*
X0018155Y0193658D01*
X0018105Y0193421D01*
X0018062Y0193184D01*
X0018024Y0192945D01*
X0017992Y0192705D01*
X0017966Y0192465D01*
X0017945Y0192224D01*
X0017931Y0191983D01*
X0017922Y0191742D01*
X0017919Y0191500D01*
X0017919Y0021500D01*
X0017922Y0021258D01*
X0017931Y0021017D01*
X0017945Y0020776D01*
X0017966Y0020535D01*
X0017992Y0020295D01*
X0018024Y0020055D01*
X0018062Y0019816D01*
X0018105Y0019579D01*
X0018155Y0019342D01*
X0018210Y0019107D01*
X0018270Y0018873D01*
X0018337Y0018641D01*
X0018408Y0018410D01*
X0018486Y0018181D01*
X0018569Y0017954D01*
X0018657Y0017729D01*
X0018751Y0017506D01*
X0018850Y0017286D01*
X0018955Y0017068D01*
X0019064Y0016853D01*
X0019179Y0016640D01*
X0019299Y0016430D01*
X0019424Y0016224D01*
X0019554Y0016020D01*
X0019689Y0015819D01*
X0019829Y0015622D01*
X0019973Y0015428D01*
X0020122Y0015238D01*
X0020276Y0015052D01*
X0020434Y0014869D01*
X0020596Y0014690D01*
X0020763Y0014515D01*
X0020934Y0014344D01*
X0021109Y0014177D01*
X0021288Y0014015D01*
X0021471Y0013857D01*
X0021657Y0013703D01*
X0021847Y0013554D01*
X0022041Y0013410D01*
X0022238Y0013270D01*
X0022439Y0013135D01*
X0022643Y0013005D01*
X0022849Y0012880D01*
X0023059Y0012760D01*
X0023272Y0012645D01*
X0023487Y0012536D01*
X0023705Y0012431D01*
X0023925Y0012332D01*
X0024148Y0012238D01*
X0024373Y0012150D01*
X0024600Y0012067D01*
X0024829Y0011989D01*
X0025060Y0011918D01*
X0025292Y0011851D01*
X0025526Y0011791D01*
X0025761Y0011736D01*
X0025998Y0011686D01*
X0026235Y0011643D01*
X0026474Y0011605D01*
X0026714Y0011573D01*
X0026954Y0011547D01*
X0027195Y0011526D01*
X0027436Y0011512D01*
X0027677Y0011503D01*
X0027919Y0011500D01*
D11*
X0072919Y0021500D03*
D12*
X0105419Y0055654D03*
X0105419Y0062346D03*
X0127919Y0089404D03*
X0127919Y0096096D03*
X0147919Y0093154D03*
X0147919Y0099846D03*
X0157919Y0099846D03*
X0157919Y0093154D03*
X0167919Y0093154D03*
X0167919Y0099846D03*
X0177919Y0099846D03*
X0177919Y0093154D03*
X0217919Y0109404D03*
X0217919Y0116096D03*
X0230419Y0078596D03*
X0230419Y0071904D03*
X0221669Y0061096D03*
X0221669Y0054404D03*
X0196669Y0055654D03*
X0196669Y0062346D03*
X0196669Y0047346D03*
X0196669Y0040654D03*
X0177919Y0040654D03*
X0177919Y0047346D03*
X0167919Y0047346D03*
X0167919Y0040654D03*
X0157919Y0040654D03*
X0157919Y0047346D03*
X0147919Y0047346D03*
X0147919Y0040654D03*
X0054169Y0078154D03*
X0054169Y0084846D03*
X0131669Y0158154D03*
X0131669Y0164846D03*
X0131669Y0173154D03*
X0131669Y0179846D03*
X0157919Y0174846D03*
X0157919Y0168154D03*
D13*
X0161265Y0152750D03*
X0154572Y0152750D03*
X0146265Y0152750D03*
X0139572Y0152750D03*
X0185822Y0135250D03*
X0192515Y0135250D03*
X0192515Y0127750D03*
X0185822Y0127750D03*
X0229572Y0131500D03*
X0236265Y0131500D03*
X0236265Y0089000D03*
X0229572Y0089000D03*
X0221265Y0089000D03*
X0214572Y0089000D03*
X0137515Y0080250D03*
X0130822Y0080250D03*
X0120015Y0070250D03*
X0113322Y0070250D03*
X0090015Y0070250D03*
X0083322Y0070250D03*
X0099572Y0046500D03*
X0106265Y0046500D03*
X0129572Y0042750D03*
X0136265Y0042750D03*
X0048765Y0099000D03*
X0042072Y0099000D03*
X0043765Y0069000D03*
X0037072Y0069000D03*
D14*
X0029749Y0077268D03*
X0029749Y0085732D03*
X0046088Y0085732D03*
X0046088Y0077268D03*
X0069749Y0077268D03*
X0069749Y0085732D03*
X0086088Y0085732D03*
X0086088Y0077268D03*
D15*
X0050793Y0058035D03*
X0029926Y0058035D03*
X0029926Y0024965D03*
X0050793Y0024965D03*
D16*
X0051777Y0035201D03*
X0051777Y0038350D03*
X0051777Y0041500D03*
X0051777Y0044650D03*
X0051777Y0047799D03*
D17*
X0052860Y0110083D03*
X0057860Y0110083D03*
X0062860Y0110083D03*
X0067860Y0110083D03*
X0072860Y0110083D03*
X0077860Y0110083D03*
X0082860Y0110083D03*
X0087860Y0110083D03*
X0092860Y0110083D03*
X0097860Y0110083D03*
X0102860Y0110083D03*
X0107860Y0110083D03*
X0112860Y0110083D03*
X0047860Y0110083D03*
X0047860Y0182917D03*
X0052860Y0182917D03*
X0057860Y0182917D03*
X0062860Y0182917D03*
X0067860Y0182917D03*
X0072860Y0182917D03*
X0077860Y0182917D03*
X0082860Y0182917D03*
X0087860Y0182917D03*
X0092860Y0182917D03*
X0097860Y0182917D03*
X0102860Y0182917D03*
X0107860Y0182917D03*
X0112860Y0182917D03*
D18*
X0119710Y0169059D03*
X0119710Y0164059D03*
X0119710Y0159059D03*
X0119710Y0154059D03*
X0119710Y0149059D03*
X0119710Y0144059D03*
X0119710Y0139059D03*
X0119710Y0134059D03*
X0119710Y0129059D03*
X0119710Y0124059D03*
D19*
X0076757Y0142445D03*
D20*
X0117338Y0056490D03*
X0117338Y0049010D03*
X0125999Y0052750D03*
X0204838Y0052740D03*
X0204838Y0045260D03*
X0213499Y0049000D03*
D21*
X0212919Y0019000D03*
X0222919Y0019000D03*
X0280419Y0036500D03*
X0280419Y0046500D03*
X0280419Y0056500D03*
X0280419Y0066500D03*
X0280419Y0096500D03*
X0280419Y0106500D03*
X0280419Y0116500D03*
X0280419Y0126500D03*
X0280419Y0161500D03*
X0280419Y0181500D03*
X0147919Y0194000D03*
X0137919Y0194000D03*
D22*
X0210438Y0034000D03*
X0225399Y0034000D03*
D23*
X0254169Y0172248D03*
X0254169Y0190752D03*
D24*
X0172171Y0126500D03*
X0153667Y0126500D03*
D25*
X0154080Y0080487D03*
X0151521Y0080487D03*
X0148962Y0080487D03*
X0156639Y0080487D03*
X0159198Y0080487D03*
X0161757Y0080487D03*
X0164316Y0080487D03*
X0166875Y0080487D03*
X0166875Y0057513D03*
X0164316Y0057513D03*
X0161757Y0057513D03*
X0159198Y0057513D03*
X0156639Y0057513D03*
X0154080Y0057513D03*
X0151521Y0057513D03*
X0148962Y0057513D03*
D26*
X0147919Y0029000D03*
X0157919Y0029000D03*
X0167919Y0029000D03*
X0177919Y0029000D03*
X0187919Y0029000D03*
X0187919Y0019000D03*
X0177919Y0019000D03*
X0167919Y0019000D03*
X0157919Y0019000D03*
X0147919Y0019000D03*
X0137919Y0019000D03*
X0127919Y0019000D03*
X0117919Y0019000D03*
X0107919Y0019000D03*
X0107919Y0029000D03*
X0117919Y0029000D03*
X0127919Y0029000D03*
X0137919Y0029000D03*
D27*
X0236025Y0037425D03*
X0236025Y0039984D03*
X0236025Y0042543D03*
X0236025Y0045102D03*
X0236025Y0047661D03*
X0236025Y0050220D03*
X0236025Y0052780D03*
X0236025Y0055339D03*
X0236025Y0057898D03*
X0236025Y0060457D03*
X0236025Y0063016D03*
X0236025Y0065575D03*
X0264812Y0065575D03*
X0264812Y0063016D03*
X0264812Y0060457D03*
X0264812Y0057898D03*
X0264812Y0055339D03*
X0264812Y0052780D03*
X0264812Y0050220D03*
X0264812Y0047661D03*
X0264812Y0045102D03*
X0264812Y0042543D03*
X0264812Y0039984D03*
X0264812Y0037425D03*
X0264812Y0097425D03*
X0264812Y0099984D03*
X0264812Y0102543D03*
X0264812Y0105102D03*
X0264812Y0107661D03*
X0264812Y0110220D03*
X0264812Y0112780D03*
X0264812Y0115339D03*
X0264812Y0117898D03*
X0264812Y0120457D03*
X0264812Y0123016D03*
X0264812Y0125575D03*
X0236025Y0125575D03*
X0236025Y0123016D03*
X0236025Y0120457D03*
X0236025Y0117898D03*
X0236025Y0115339D03*
X0236025Y0112780D03*
X0236025Y0110220D03*
X0236025Y0107661D03*
X0236025Y0105102D03*
X0236025Y0102543D03*
X0236025Y0099984D03*
X0236025Y0097425D03*
D28*
X0086669Y0062837D03*
X0084169Y0062837D03*
X0081669Y0062837D03*
X0079169Y0062837D03*
X0076669Y0062837D03*
X0074169Y0062837D03*
X0071669Y0062837D03*
X0069169Y0062837D03*
X0066669Y0062837D03*
X0064169Y0062837D03*
X0064169Y0040163D03*
X0066669Y0040163D03*
X0069169Y0040163D03*
X0071669Y0040163D03*
X0074169Y0040163D03*
X0076669Y0040163D03*
X0079169Y0040163D03*
X0081669Y0040163D03*
X0084169Y0040163D03*
X0086669Y0040163D03*
D29*
X0141580Y0163429D03*
X0144139Y0163429D03*
X0146698Y0163429D03*
X0149257Y0163429D03*
X0149257Y0179571D03*
X0146698Y0179571D03*
X0144139Y0179571D03*
X0141580Y0179571D03*
D30*
X0137919Y0144246D03*
D31*
X0141856Y0131451D03*
X0133982Y0131451D03*
D32*
X0182387Y0146953D03*
X0200419Y0146953D03*
X0218450Y0146953D03*
X0218450Y0191047D03*
X0200419Y0191047D03*
X0191403Y0191047D03*
X0182387Y0191047D03*
D33*
X0191403Y0144000D03*
D34*
X0178844Y0159984D03*
X0178844Y0169000D03*
X0178844Y0178016D03*
X0221993Y0178016D03*
X0221993Y0169000D03*
X0221993Y0159984D03*
D35*
X0218450Y0164492D03*
D36*
X0214523Y0150339D03*
D37*
X0218450Y0182957D03*
M02*
