G75*
%MOIN*%
%OFA0B0*%
%FSLAX25Y25*%
%IPPOS*%
%LPD*%
%AMOC8*
5,1,8,0,0,1.08239X$1,22.5*
%
%ADD10C,0.00000*%
%ADD11C,0.00300*%
%ADD12C,0.00400*%
%ADD13C,0.01000*%
D10*
X0027919Y0011500D02*
X0277919Y0011500D01*
X0278161Y0011503D01*
X0278402Y0011512D01*
X0278643Y0011526D01*
X0278884Y0011547D01*
X0279124Y0011573D01*
X0279364Y0011605D01*
X0279603Y0011643D01*
X0279840Y0011686D01*
X0280077Y0011736D01*
X0280312Y0011791D01*
X0280546Y0011851D01*
X0280778Y0011918D01*
X0281009Y0011989D01*
X0281238Y0012067D01*
X0281465Y0012150D01*
X0281690Y0012238D01*
X0281913Y0012332D01*
X0282133Y0012431D01*
X0282351Y0012536D01*
X0282566Y0012645D01*
X0282779Y0012760D01*
X0282989Y0012880D01*
X0283195Y0013005D01*
X0283399Y0013135D01*
X0283600Y0013270D01*
X0283797Y0013410D01*
X0283991Y0013554D01*
X0284181Y0013703D01*
X0284367Y0013857D01*
X0284550Y0014015D01*
X0284729Y0014177D01*
X0284904Y0014344D01*
X0285075Y0014515D01*
X0285242Y0014690D01*
X0285404Y0014869D01*
X0285562Y0015052D01*
X0285716Y0015238D01*
X0285865Y0015428D01*
X0286009Y0015622D01*
X0286149Y0015819D01*
X0286284Y0016020D01*
X0286414Y0016224D01*
X0286539Y0016430D01*
X0286659Y0016640D01*
X0286774Y0016853D01*
X0286883Y0017068D01*
X0286988Y0017286D01*
X0287087Y0017506D01*
X0287181Y0017729D01*
X0287269Y0017954D01*
X0287352Y0018181D01*
X0287430Y0018410D01*
X0287501Y0018641D01*
X0287568Y0018873D01*
X0287628Y0019107D01*
X0287683Y0019342D01*
X0287733Y0019579D01*
X0287776Y0019816D01*
X0287814Y0020055D01*
X0287846Y0020295D01*
X0287872Y0020535D01*
X0287893Y0020776D01*
X0287907Y0021017D01*
X0287916Y0021258D01*
X0287919Y0021500D01*
X0287919Y0191500D01*
X0287916Y0191742D01*
X0287907Y0191983D01*
X0287893Y0192224D01*
X0287872Y0192465D01*
X0287846Y0192705D01*
X0287814Y0192945D01*
X0287776Y0193184D01*
X0287733Y0193421D01*
X0287683Y0193658D01*
X0287628Y0193893D01*
X0287568Y0194127D01*
X0287501Y0194359D01*
X0287430Y0194590D01*
X0287352Y0194819D01*
X0287269Y0195046D01*
X0287181Y0195271D01*
X0287087Y0195494D01*
X0286988Y0195714D01*
X0286883Y0195932D01*
X0286774Y0196147D01*
X0286659Y0196360D01*
X0286539Y0196570D01*
X0286414Y0196776D01*
X0286284Y0196980D01*
X0286149Y0197181D01*
X0286009Y0197378D01*
X0285865Y0197572D01*
X0285716Y0197762D01*
X0285562Y0197948D01*
X0285404Y0198131D01*
X0285242Y0198310D01*
X0285075Y0198485D01*
X0284904Y0198656D01*
X0284729Y0198823D01*
X0284550Y0198985D01*
X0284367Y0199143D01*
X0284181Y0199297D01*
X0283991Y0199446D01*
X0283797Y0199590D01*
X0283600Y0199730D01*
X0283399Y0199865D01*
X0283195Y0199995D01*
X0282989Y0200120D01*
X0282779Y0200240D01*
X0282566Y0200355D01*
X0282351Y0200464D01*
X0282133Y0200569D01*
X0281913Y0200668D01*
X0281690Y0200762D01*
X0281465Y0200850D01*
X0281238Y0200933D01*
X0281009Y0201011D01*
X0280778Y0201082D01*
X0280546Y0201149D01*
X0280312Y0201209D01*
X0280077Y0201264D01*
X0279840Y0201314D01*
X0279603Y0201357D01*
X0279364Y0201395D01*
X0279124Y0201427D01*
X0278884Y0201453D01*
X0278643Y0201474D01*
X0278402Y0201488D01*
X0278161Y0201497D01*
X0277919Y0201500D01*
X0027919Y0201500D01*
X0027677Y0201497D01*
X0027436Y0201488D01*
X0027195Y0201474D01*
X0026954Y0201453D01*
X0026714Y0201427D01*
X0026474Y0201395D01*
X0026235Y0201357D01*
X0025998Y0201314D01*
X0025761Y0201264D01*
X0025526Y0201209D01*
X0025292Y0201149D01*
X0025060Y0201082D01*
X0024829Y0201011D01*
X0024600Y0200933D01*
X0024373Y0200850D01*
X0024148Y0200762D01*
X0023925Y0200668D01*
X0023705Y0200569D01*
X0023487Y0200464D01*
X0023272Y0200355D01*
X0023059Y0200240D01*
X0022849Y0200120D01*
X0022643Y0199995D01*
X0022439Y0199865D01*
X0022238Y0199730D01*
X0022041Y0199590D01*
X0021847Y0199446D01*
X0021657Y0199297D01*
X0021471Y0199143D01*
X0021288Y0198985D01*
X0021109Y0198823D01*
X0020934Y0198656D01*
X0020763Y0198485D01*
X0020596Y0198310D01*
X0020434Y0198131D01*
X0020276Y0197948D01*
X0020122Y0197762D01*
X0019973Y0197572D01*
X0019829Y0197378D01*
X0019689Y0197181D01*
X0019554Y0196980D01*
X0019424Y0196776D01*
X0019299Y0196570D01*
X0019179Y0196360D01*
X0019064Y0196147D01*
X0018955Y0195932D01*
X0018850Y0195714D01*
X0018751Y0195494D01*
X0018657Y0195271D01*
X0018569Y0195046D01*
X0018486Y0194819D01*
X0018408Y0194590D01*
X0018337Y0194359D01*
X0018270Y0194127D01*
X0018210Y0193893D01*
X0018155Y0193658D01*
X0018105Y0193421D01*
X0018062Y0193184D01*
X0018024Y0192945D01*
X0017992Y0192705D01*
X0017966Y0192465D01*
X0017945Y0192224D01*
X0017931Y0191983D01*
X0017922Y0191742D01*
X0017919Y0191500D01*
X0017919Y0021500D01*
X0017922Y0021258D01*
X0017931Y0021017D01*
X0017945Y0020776D01*
X0017966Y0020535D01*
X0017992Y0020295D01*
X0018024Y0020055D01*
X0018062Y0019816D01*
X0018105Y0019579D01*
X0018155Y0019342D01*
X0018210Y0019107D01*
X0018270Y0018873D01*
X0018337Y0018641D01*
X0018408Y0018410D01*
X0018486Y0018181D01*
X0018569Y0017954D01*
X0018657Y0017729D01*
X0018751Y0017506D01*
X0018850Y0017286D01*
X0018955Y0017068D01*
X0019064Y0016853D01*
X0019179Y0016640D01*
X0019299Y0016430D01*
X0019424Y0016224D01*
X0019554Y0016020D01*
X0019689Y0015819D01*
X0019829Y0015622D01*
X0019973Y0015428D01*
X0020122Y0015238D01*
X0020276Y0015052D01*
X0020434Y0014869D01*
X0020596Y0014690D01*
X0020763Y0014515D01*
X0020934Y0014344D01*
X0021109Y0014177D01*
X0021288Y0014015D01*
X0021471Y0013857D01*
X0021657Y0013703D01*
X0021847Y0013554D01*
X0022041Y0013410D01*
X0022238Y0013270D01*
X0022439Y0013135D01*
X0022643Y0013005D01*
X0022849Y0012880D01*
X0023059Y0012760D01*
X0023272Y0012645D01*
X0023487Y0012536D01*
X0023705Y0012431D01*
X0023925Y0012332D01*
X0024148Y0012238D01*
X0024373Y0012150D01*
X0024600Y0012067D01*
X0024829Y0011989D01*
X0025060Y0011918D01*
X0025292Y0011851D01*
X0025526Y0011791D01*
X0025761Y0011736D01*
X0025998Y0011686D01*
X0026235Y0011643D01*
X0026474Y0011605D01*
X0026714Y0011573D01*
X0026954Y0011547D01*
X0027195Y0011526D01*
X0027436Y0011512D01*
X0027677Y0011503D01*
X0027919Y0011500D01*
D11*
X0118268Y0077267D02*
X0118885Y0076650D01*
X0120119Y0076650D01*
X0120737Y0077267D01*
X0118268Y0079736D01*
X0118268Y0077267D01*
X0120737Y0077267D02*
X0120737Y0079736D01*
X0120119Y0080353D01*
X0118885Y0080353D01*
X0118268Y0079736D01*
X0121951Y0079119D02*
X0121951Y0076650D01*
X0121951Y0078502D02*
X0124420Y0078502D01*
X0124420Y0079119D02*
X0124420Y0076650D01*
X0124420Y0079119D02*
X0123185Y0080353D01*
X0121951Y0079119D01*
X0129317Y0076650D02*
X0131786Y0076650D01*
X0133000Y0076650D02*
X0133000Y0079119D01*
X0134235Y0080353D01*
X0135469Y0079119D01*
X0135469Y0076650D01*
X0135469Y0078502D02*
X0133000Y0078502D01*
X0131786Y0079119D02*
X0130552Y0080353D01*
X0130552Y0076650D01*
X0140367Y0076650D02*
X0142835Y0076650D01*
X0140367Y0079119D01*
X0140367Y0079736D01*
X0140984Y0080353D01*
X0142218Y0080353D01*
X0142835Y0079736D01*
X0144050Y0079119D02*
X0144050Y0076650D01*
X0144050Y0078502D02*
X0146519Y0078502D01*
X0146519Y0079119D02*
X0146519Y0076650D01*
X0146519Y0079119D02*
X0145284Y0080353D01*
X0144050Y0079119D01*
D12*
X0151351Y0070804D02*
X0151351Y0066700D01*
X0152719Y0066700D02*
X0149983Y0066700D01*
X0152719Y0069436D02*
X0151351Y0070804D01*
X0152035Y0057054D02*
X0150667Y0057054D01*
X0149983Y0056370D01*
X0152719Y0053634D01*
X0152035Y0052950D01*
X0150667Y0052950D01*
X0149983Y0053634D01*
X0149983Y0056370D01*
X0152035Y0057054D02*
X0152719Y0056370D01*
X0152719Y0053634D01*
D13*
X0073178Y0100085D02*
X0071343Y0098250D01*
X0064003Y0098250D01*
X0062169Y0100085D01*
X0062169Y0103755D01*
X0064003Y0105590D01*
X0067673Y0105590D01*
X0067673Y0101920D01*
X0071343Y0105590D02*
X0073178Y0103755D01*
X0073178Y0100085D01*
X0073178Y0109299D02*
X0062169Y0109299D01*
X0065838Y0109299D02*
X0065838Y0114804D01*
X0067673Y0116639D01*
X0071343Y0116639D01*
X0073178Y0114804D01*
X0073178Y0109299D01*
X0067673Y0120349D02*
X0064003Y0120349D01*
X0062169Y0122184D01*
X0062169Y0127688D01*
X0073178Y0127688D01*
X0069508Y0127688D02*
X0069508Y0122184D01*
X0067673Y0120349D01*
X0069508Y0131398D02*
X0064003Y0131398D01*
X0062169Y0133233D01*
X0062169Y0138738D01*
X0069508Y0138738D01*
X0069508Y0142448D02*
X0069508Y0144283D01*
X0062169Y0144283D01*
X0062169Y0142448D02*
X0062169Y0146118D01*
X0062169Y0149814D02*
X0069508Y0149814D01*
X0069508Y0155319D01*
X0067673Y0157154D01*
X0062169Y0157154D01*
X0064003Y0160863D02*
X0062169Y0162698D01*
X0062169Y0166368D01*
X0064003Y0168203D01*
X0067673Y0168203D01*
X0069508Y0166368D01*
X0069508Y0162698D01*
X0067673Y0160863D01*
X0064003Y0160863D01*
X0067673Y0171913D02*
X0067673Y0179252D01*
X0073178Y0182962D02*
X0073178Y0190302D01*
X0073178Y0186632D02*
X0062169Y0186632D01*
X0073178Y0144283D02*
X0075013Y0144283D01*
M02*
