G75*
%MOIN*%
%OFA0B0*%
%FSLAX25Y25*%
%IPPOS*%
%LPD*%
%AMOC8*
5,1,8,0,0,1.08239X$1,22.5*
%
%ADD10C,0.00000*%
%ADD11C,0.05400*%
%ADD12R,0.03937X0.04331*%
%ADD13R,0.04331X0.03937*%
%ADD14R,0.04134X0.02559*%
%ADD15R,0.08661X0.09843*%
%ADD16R,0.07874X0.01969*%
%ADD17R,0.03937X0.05906*%
%ADD18R,0.05906X0.03937*%
%ADD19R,0.23622X0.23622*%
%ADD20R,0.04800X0.08800*%
%ADD21R,0.14173X0.08661*%
%ADD22R,0.05512X0.03937*%
%ADD23C,0.05315*%
%ADD24R,0.05512X0.05512*%
%ADD25R,0.03937X0.11024*%
%ADD26R,0.01200X0.03900*%
%ADD27OC8,0.06000*%
%ADD28R,0.05500X0.01370*%
%ADD29R,0.01500X0.04303*%
%ADD30R,0.01370X0.03937*%
%ADD31C,0.01000*%
%ADD32C,0.02400*%
%ADD33C,0.04000*%
%ADD34C,0.10000*%
%ADD35C,0.01600*%
%ADD36C,0.02400*%
%ADD37C,0.05000*%
%ADD38C,0.03200*%
%ADD39C,0.01200*%
D10*
X0027919Y0011500D02*
X0277919Y0011500D01*
X0278161Y0011503D01*
X0278402Y0011512D01*
X0278643Y0011526D01*
X0278884Y0011547D01*
X0279124Y0011573D01*
X0279364Y0011605D01*
X0279603Y0011643D01*
X0279840Y0011686D01*
X0280077Y0011736D01*
X0280312Y0011791D01*
X0280546Y0011851D01*
X0280778Y0011918D01*
X0281009Y0011989D01*
X0281238Y0012067D01*
X0281465Y0012150D01*
X0281690Y0012238D01*
X0281913Y0012332D01*
X0282133Y0012431D01*
X0282351Y0012536D01*
X0282566Y0012645D01*
X0282779Y0012760D01*
X0282989Y0012880D01*
X0283195Y0013005D01*
X0283399Y0013135D01*
X0283600Y0013270D01*
X0283797Y0013410D01*
X0283991Y0013554D01*
X0284181Y0013703D01*
X0284367Y0013857D01*
X0284550Y0014015D01*
X0284729Y0014177D01*
X0284904Y0014344D01*
X0285075Y0014515D01*
X0285242Y0014690D01*
X0285404Y0014869D01*
X0285562Y0015052D01*
X0285716Y0015238D01*
X0285865Y0015428D01*
X0286009Y0015622D01*
X0286149Y0015819D01*
X0286284Y0016020D01*
X0286414Y0016224D01*
X0286539Y0016430D01*
X0286659Y0016640D01*
X0286774Y0016853D01*
X0286883Y0017068D01*
X0286988Y0017286D01*
X0287087Y0017506D01*
X0287181Y0017729D01*
X0287269Y0017954D01*
X0287352Y0018181D01*
X0287430Y0018410D01*
X0287501Y0018641D01*
X0287568Y0018873D01*
X0287628Y0019107D01*
X0287683Y0019342D01*
X0287733Y0019579D01*
X0287776Y0019816D01*
X0287814Y0020055D01*
X0287846Y0020295D01*
X0287872Y0020535D01*
X0287893Y0020776D01*
X0287907Y0021017D01*
X0287916Y0021258D01*
X0287919Y0021500D01*
X0287919Y0191500D01*
X0287916Y0191742D01*
X0287907Y0191983D01*
X0287893Y0192224D01*
X0287872Y0192465D01*
X0287846Y0192705D01*
X0287814Y0192945D01*
X0287776Y0193184D01*
X0287733Y0193421D01*
X0287683Y0193658D01*
X0287628Y0193893D01*
X0287568Y0194127D01*
X0287501Y0194359D01*
X0287430Y0194590D01*
X0287352Y0194819D01*
X0287269Y0195046D01*
X0287181Y0195271D01*
X0287087Y0195494D01*
X0286988Y0195714D01*
X0286883Y0195932D01*
X0286774Y0196147D01*
X0286659Y0196360D01*
X0286539Y0196570D01*
X0286414Y0196776D01*
X0286284Y0196980D01*
X0286149Y0197181D01*
X0286009Y0197378D01*
X0285865Y0197572D01*
X0285716Y0197762D01*
X0285562Y0197948D01*
X0285404Y0198131D01*
X0285242Y0198310D01*
X0285075Y0198485D01*
X0284904Y0198656D01*
X0284729Y0198823D01*
X0284550Y0198985D01*
X0284367Y0199143D01*
X0284181Y0199297D01*
X0283991Y0199446D01*
X0283797Y0199590D01*
X0283600Y0199730D01*
X0283399Y0199865D01*
X0283195Y0199995D01*
X0282989Y0200120D01*
X0282779Y0200240D01*
X0282566Y0200355D01*
X0282351Y0200464D01*
X0282133Y0200569D01*
X0281913Y0200668D01*
X0281690Y0200762D01*
X0281465Y0200850D01*
X0281238Y0200933D01*
X0281009Y0201011D01*
X0280778Y0201082D01*
X0280546Y0201149D01*
X0280312Y0201209D01*
X0280077Y0201264D01*
X0279840Y0201314D01*
X0279603Y0201357D01*
X0279364Y0201395D01*
X0279124Y0201427D01*
X0278884Y0201453D01*
X0278643Y0201474D01*
X0278402Y0201488D01*
X0278161Y0201497D01*
X0277919Y0201500D01*
X0027919Y0201500D01*
X0027677Y0201497D01*
X0027436Y0201488D01*
X0027195Y0201474D01*
X0026954Y0201453D01*
X0026714Y0201427D01*
X0026474Y0201395D01*
X0026235Y0201357D01*
X0025998Y0201314D01*
X0025761Y0201264D01*
X0025526Y0201209D01*
X0025292Y0201149D01*
X0025060Y0201082D01*
X0024829Y0201011D01*
X0024600Y0200933D01*
X0024373Y0200850D01*
X0024148Y0200762D01*
X0023925Y0200668D01*
X0023705Y0200569D01*
X0023487Y0200464D01*
X0023272Y0200355D01*
X0023059Y0200240D01*
X0022849Y0200120D01*
X0022643Y0199995D01*
X0022439Y0199865D01*
X0022238Y0199730D01*
X0022041Y0199590D01*
X0021847Y0199446D01*
X0021657Y0199297D01*
X0021471Y0199143D01*
X0021288Y0198985D01*
X0021109Y0198823D01*
X0020934Y0198656D01*
X0020763Y0198485D01*
X0020596Y0198310D01*
X0020434Y0198131D01*
X0020276Y0197948D01*
X0020122Y0197762D01*
X0019973Y0197572D01*
X0019829Y0197378D01*
X0019689Y0197181D01*
X0019554Y0196980D01*
X0019424Y0196776D01*
X0019299Y0196570D01*
X0019179Y0196360D01*
X0019064Y0196147D01*
X0018955Y0195932D01*
X0018850Y0195714D01*
X0018751Y0195494D01*
X0018657Y0195271D01*
X0018569Y0195046D01*
X0018486Y0194819D01*
X0018408Y0194590D01*
X0018337Y0194359D01*
X0018270Y0194127D01*
X0018210Y0193893D01*
X0018155Y0193658D01*
X0018105Y0193421D01*
X0018062Y0193184D01*
X0018024Y0192945D01*
X0017992Y0192705D01*
X0017966Y0192465D01*
X0017945Y0192224D01*
X0017931Y0191983D01*
X0017922Y0191742D01*
X0017919Y0191500D01*
X0017919Y0021500D01*
X0017922Y0021258D01*
X0017931Y0021017D01*
X0017945Y0020776D01*
X0017966Y0020535D01*
X0017992Y0020295D01*
X0018024Y0020055D01*
X0018062Y0019816D01*
X0018105Y0019579D01*
X0018155Y0019342D01*
X0018210Y0019107D01*
X0018270Y0018873D01*
X0018337Y0018641D01*
X0018408Y0018410D01*
X0018486Y0018181D01*
X0018569Y0017954D01*
X0018657Y0017729D01*
X0018751Y0017506D01*
X0018850Y0017286D01*
X0018955Y0017068D01*
X0019064Y0016853D01*
X0019179Y0016640D01*
X0019299Y0016430D01*
X0019424Y0016224D01*
X0019554Y0016020D01*
X0019689Y0015819D01*
X0019829Y0015622D01*
X0019973Y0015428D01*
X0020122Y0015238D01*
X0020276Y0015052D01*
X0020434Y0014869D01*
X0020596Y0014690D01*
X0020763Y0014515D01*
X0020934Y0014344D01*
X0021109Y0014177D01*
X0021288Y0014015D01*
X0021471Y0013857D01*
X0021657Y0013703D01*
X0021847Y0013554D01*
X0022041Y0013410D01*
X0022238Y0013270D01*
X0022439Y0013135D01*
X0022643Y0013005D01*
X0022849Y0012880D01*
X0023059Y0012760D01*
X0023272Y0012645D01*
X0023487Y0012536D01*
X0023705Y0012431D01*
X0023925Y0012332D01*
X0024148Y0012238D01*
X0024373Y0012150D01*
X0024600Y0012067D01*
X0024829Y0011989D01*
X0025060Y0011918D01*
X0025292Y0011851D01*
X0025526Y0011791D01*
X0025761Y0011736D01*
X0025998Y0011686D01*
X0026235Y0011643D01*
X0026474Y0011605D01*
X0026714Y0011573D01*
X0026954Y0011547D01*
X0027195Y0011526D01*
X0027436Y0011512D01*
X0027677Y0011503D01*
X0027919Y0011500D01*
D11*
X0072919Y0021500D03*
D12*
X0105419Y0055654D03*
X0105419Y0062346D03*
X0127919Y0089404D03*
X0127919Y0096096D03*
X0147919Y0093154D03*
X0147919Y0099846D03*
X0157919Y0099846D03*
X0157919Y0093154D03*
X0167919Y0093154D03*
X0167919Y0099846D03*
X0177919Y0099846D03*
X0177919Y0093154D03*
X0217919Y0109404D03*
X0217919Y0116096D03*
X0230419Y0078596D03*
X0230419Y0071904D03*
X0221669Y0061096D03*
X0221669Y0054404D03*
X0196669Y0055654D03*
X0196669Y0062346D03*
X0196669Y0047346D03*
X0196669Y0040654D03*
X0177919Y0040654D03*
X0177919Y0047346D03*
X0167919Y0047346D03*
X0167919Y0040654D03*
X0157919Y0040654D03*
X0157919Y0047346D03*
X0147919Y0047346D03*
X0147919Y0040654D03*
X0054169Y0078154D03*
X0054169Y0084846D03*
X0131669Y0158154D03*
X0131669Y0164846D03*
X0131669Y0173154D03*
X0131669Y0179846D03*
X0157919Y0174846D03*
X0157919Y0168154D03*
D13*
X0161265Y0152750D03*
X0154572Y0152750D03*
X0146265Y0152750D03*
X0139572Y0152750D03*
X0224572Y0131500D03*
X0231265Y0131500D03*
X0229572Y0089000D03*
X0236265Y0089000D03*
X0221265Y0089000D03*
X0214572Y0089000D03*
X0137515Y0080250D03*
X0130822Y0080250D03*
X0120015Y0070250D03*
X0113322Y0070250D03*
X0090015Y0070250D03*
X0083322Y0070250D03*
X0099572Y0046500D03*
X0106265Y0046500D03*
X0129572Y0042750D03*
X0136265Y0042750D03*
X0048765Y0099000D03*
X0042072Y0099000D03*
X0043765Y0069000D03*
X0037072Y0069000D03*
D14*
X0029749Y0077268D03*
X0029749Y0085732D03*
X0046088Y0085732D03*
X0046088Y0077268D03*
X0069749Y0077268D03*
X0069749Y0085732D03*
X0086088Y0085732D03*
X0086088Y0077268D03*
D15*
X0050793Y0058035D03*
X0029926Y0058035D03*
X0029926Y0024965D03*
X0050793Y0024965D03*
D16*
X0051777Y0035201D03*
X0051777Y0038350D03*
X0051777Y0041500D03*
X0051777Y0044650D03*
X0051777Y0047799D03*
D17*
X0052860Y0110083D03*
X0057860Y0110083D03*
X0062860Y0110083D03*
X0067860Y0110083D03*
X0072860Y0110083D03*
X0077860Y0110083D03*
X0082860Y0110083D03*
X0087860Y0110083D03*
X0092860Y0110083D03*
X0097860Y0110083D03*
X0102860Y0110083D03*
X0107860Y0110083D03*
X0112860Y0110083D03*
X0047860Y0110083D03*
X0047860Y0182917D03*
X0052860Y0182917D03*
X0057860Y0182917D03*
X0062860Y0182917D03*
X0067860Y0182917D03*
X0072860Y0182917D03*
X0077860Y0182917D03*
X0082860Y0182917D03*
X0087860Y0182917D03*
X0092860Y0182917D03*
X0097860Y0182917D03*
X0102860Y0182917D03*
X0107860Y0182917D03*
X0112860Y0182917D03*
D18*
X0119710Y0169059D03*
X0119710Y0164059D03*
X0119710Y0159059D03*
X0119710Y0154059D03*
X0119710Y0149059D03*
X0119710Y0144059D03*
X0119710Y0139059D03*
X0119710Y0134059D03*
X0119710Y0129059D03*
X0119710Y0124059D03*
D19*
X0078175Y0147681D03*
D20*
X0208819Y0164300D03*
X0217919Y0164300D03*
X0227019Y0164300D03*
D21*
X0217919Y0188701D03*
D22*
X0117338Y0056490D03*
X0117338Y0049010D03*
X0125999Y0052750D03*
X0204838Y0052740D03*
X0204838Y0045260D03*
X0213499Y0049000D03*
D23*
X0212919Y0019000D03*
X0222919Y0019000D03*
X0280419Y0036500D03*
X0280419Y0046500D03*
X0280419Y0056500D03*
X0280419Y0066500D03*
X0280419Y0096500D03*
X0280419Y0106500D03*
X0280419Y0116500D03*
X0280419Y0126500D03*
X0280419Y0161500D03*
X0280419Y0181500D03*
X0147919Y0194000D03*
X0137919Y0194000D03*
D24*
X0210438Y0034000D03*
X0225399Y0034000D03*
D25*
X0247919Y0154748D03*
X0247919Y0173252D03*
X0187919Y0173252D03*
X0187919Y0154748D03*
D26*
X0166875Y0080487D03*
X0164316Y0080487D03*
X0161757Y0080487D03*
X0159198Y0080487D03*
X0156639Y0080487D03*
X0154080Y0080487D03*
X0151521Y0080487D03*
X0148962Y0080487D03*
X0148962Y0057513D03*
X0151521Y0057513D03*
X0154080Y0057513D03*
X0156639Y0057513D03*
X0159198Y0057513D03*
X0161757Y0057513D03*
X0164316Y0057513D03*
X0166875Y0057513D03*
D27*
X0167919Y0029000D03*
X0177919Y0029000D03*
X0187919Y0029000D03*
X0187919Y0019000D03*
X0177919Y0019000D03*
X0167919Y0019000D03*
X0157919Y0019000D03*
X0147919Y0019000D03*
X0137919Y0019000D03*
X0127919Y0019000D03*
X0117919Y0019000D03*
X0107919Y0019000D03*
X0107919Y0029000D03*
X0117919Y0029000D03*
X0127919Y0029000D03*
X0137919Y0029000D03*
X0147919Y0029000D03*
X0157919Y0029000D03*
D28*
X0236025Y0037425D03*
X0236025Y0039984D03*
X0236025Y0042543D03*
X0236025Y0045102D03*
X0236025Y0047661D03*
X0236025Y0050220D03*
X0236025Y0052780D03*
X0236025Y0055339D03*
X0236025Y0057898D03*
X0236025Y0060457D03*
X0236025Y0063016D03*
X0236025Y0065575D03*
X0264812Y0065575D03*
X0264812Y0063016D03*
X0264812Y0060457D03*
X0264812Y0057898D03*
X0264812Y0055339D03*
X0264812Y0052780D03*
X0264812Y0050220D03*
X0264812Y0047661D03*
X0264812Y0045102D03*
X0264812Y0042543D03*
X0264812Y0039984D03*
X0264812Y0037425D03*
X0264812Y0097425D03*
X0264812Y0099984D03*
X0264812Y0102543D03*
X0264812Y0105102D03*
X0264812Y0107661D03*
X0264812Y0110220D03*
X0264812Y0112780D03*
X0264812Y0115339D03*
X0264812Y0117898D03*
X0264812Y0120457D03*
X0264812Y0123016D03*
X0264812Y0125575D03*
X0236025Y0125575D03*
X0236025Y0123016D03*
X0236025Y0120457D03*
X0236025Y0117898D03*
X0236025Y0115339D03*
X0236025Y0112780D03*
X0236025Y0110220D03*
X0236025Y0107661D03*
X0236025Y0105102D03*
X0236025Y0102543D03*
X0236025Y0099984D03*
X0236025Y0097425D03*
D29*
X0086669Y0062837D03*
X0084169Y0062837D03*
X0081669Y0062837D03*
X0079169Y0062837D03*
X0076669Y0062837D03*
X0074169Y0062837D03*
X0071669Y0062837D03*
X0069169Y0062837D03*
X0066669Y0062837D03*
X0064169Y0062837D03*
X0064169Y0040163D03*
X0066669Y0040163D03*
X0069169Y0040163D03*
X0071669Y0040163D03*
X0074169Y0040163D03*
X0076669Y0040163D03*
X0079169Y0040163D03*
X0081669Y0040163D03*
X0084169Y0040163D03*
X0086669Y0040163D03*
D30*
X0141580Y0163429D03*
X0144139Y0163429D03*
X0146698Y0163429D03*
X0149257Y0163429D03*
X0149257Y0179571D03*
X0146698Y0179571D03*
X0144139Y0179571D03*
X0141580Y0179571D03*
D31*
X0104628Y0016493D02*
X0022400Y0016493D01*
X0022615Y0016197D02*
X0021236Y0018095D01*
X0020511Y0020327D01*
X0020419Y0021500D01*
X0020419Y0025843D01*
X0024496Y0025843D01*
X0024496Y0019588D01*
X0025140Y0018943D01*
X0034713Y0018943D01*
X0035357Y0019588D01*
X0035357Y0025843D01*
X0041354Y0025843D01*
X0041647Y0026135D01*
X0041647Y0033717D01*
X0046421Y0033717D01*
X0046442Y0033638D01*
X0046640Y0033296D01*
X0046919Y0033016D01*
X0047261Y0032819D01*
X0047642Y0032717D01*
X0051777Y0032717D01*
X0055911Y0032717D01*
X0056293Y0032819D01*
X0056635Y0033016D01*
X0056914Y0033296D01*
X0057112Y0033638D01*
X0057214Y0034019D01*
X0057214Y0035201D01*
X0057214Y0036383D01*
X0057112Y0036764D01*
X0056914Y0037106D01*
X0056814Y0037206D01*
X0056814Y0039092D01*
X0060069Y0035837D01*
X0061006Y0034900D01*
X0063581Y0034900D01*
X0064831Y0036150D01*
X0065592Y0036911D01*
X0067874Y0036911D01*
X0067919Y0036955D01*
X0067963Y0036911D01*
X0070374Y0036911D01*
X0070419Y0036955D01*
X0070463Y0036911D01*
X0072874Y0036911D01*
X0072919Y0036955D01*
X0072963Y0036911D01*
X0074897Y0036911D01*
X0074998Y0036811D01*
X0075340Y0036613D01*
X0075721Y0036511D01*
X0076669Y0036511D01*
X0077616Y0036511D01*
X0077998Y0036613D01*
X0078340Y0036811D01*
X0078440Y0036911D01*
X0080374Y0036911D01*
X0080419Y0036955D01*
X0080463Y0036911D01*
X0082874Y0036911D01*
X0082919Y0036955D01*
X0082963Y0036911D01*
X0085374Y0036911D01*
X0085419Y0036955D01*
X0085463Y0036911D01*
X0087874Y0036911D01*
X0088519Y0037555D01*
X0088519Y0042337D01*
X0089131Y0042950D01*
X0090121Y0042950D01*
X0091469Y0044297D01*
X0091469Y0046203D01*
X0090121Y0047550D01*
X0088216Y0047550D01*
X0086869Y0046203D01*
X0086869Y0045213D01*
X0085070Y0043414D01*
X0082963Y0043414D01*
X0082919Y0043370D01*
X0082874Y0043414D01*
X0080463Y0043414D01*
X0080419Y0043370D01*
X0080374Y0043414D01*
X0078440Y0043414D01*
X0078340Y0043514D01*
X0077998Y0043712D01*
X0077616Y0043814D01*
X0076669Y0043814D01*
X0076669Y0040163D01*
X0076669Y0040163D01*
X0076669Y0043814D01*
X0075869Y0043814D01*
X0075869Y0044263D01*
X0076069Y0044463D01*
X0076069Y0046037D01*
X0072406Y0049699D01*
X0056354Y0049699D01*
X0056170Y0049883D01*
X0053677Y0049883D01*
X0053677Y0050929D01*
X0052944Y0051662D01*
X0052591Y0052014D01*
X0055579Y0052014D01*
X0056223Y0052659D01*
X0056223Y0063412D01*
X0055579Y0064057D01*
X0046069Y0064057D01*
X0046069Y0065931D01*
X0046386Y0065931D01*
X0047030Y0066576D01*
X0047030Y0071424D01*
X0046386Y0072068D01*
X0041144Y0072068D01*
X0040631Y0071555D01*
X0040438Y0071890D01*
X0040159Y0072169D01*
X0039816Y0072366D01*
X0039435Y0072468D01*
X0037556Y0072468D01*
X0037556Y0069484D01*
X0036588Y0069484D01*
X0036588Y0068516D01*
X0033407Y0068516D01*
X0033407Y0066834D01*
X0033509Y0066453D01*
X0033706Y0066110D01*
X0033986Y0065831D01*
X0034328Y0065634D01*
X0034709Y0065531D01*
X0036588Y0065531D01*
X0036588Y0068516D01*
X0037556Y0068516D01*
X0037556Y0065531D01*
X0039435Y0065531D01*
X0039816Y0065634D01*
X0040159Y0065831D01*
X0040438Y0066110D01*
X0040631Y0066445D01*
X0041144Y0065931D01*
X0042269Y0065931D01*
X0042269Y0051963D01*
X0043382Y0050850D01*
X0044948Y0049283D01*
X0041647Y0049283D01*
X0041647Y0056865D01*
X0041354Y0057157D01*
X0035357Y0057157D01*
X0035357Y0063412D01*
X0034713Y0064057D01*
X0025140Y0064057D01*
X0024496Y0063412D01*
X0024496Y0057157D01*
X0020419Y0057157D01*
X0020419Y0106500D01*
X0044523Y0106500D01*
X0044691Y0106209D01*
X0044970Y0105930D01*
X0045312Y0105732D01*
X0045694Y0105630D01*
X0047375Y0105630D01*
X0047375Y0109598D01*
X0048344Y0109598D01*
X0048344Y0105630D01*
X0050026Y0105630D01*
X0050407Y0105732D01*
X0050560Y0105820D01*
X0050560Y0102068D01*
X0046144Y0102068D01*
X0045631Y0101555D01*
X0045438Y0101890D01*
X0045159Y0102169D01*
X0044816Y0102366D01*
X0044435Y0102468D01*
X0042556Y0102468D01*
X0042556Y0099484D01*
X0041588Y0099484D01*
X0041588Y0098516D01*
X0038407Y0098516D01*
X0038407Y0096834D01*
X0038509Y0096453D01*
X0038706Y0096110D01*
X0038986Y0095831D01*
X0039328Y0095634D01*
X0039709Y0095531D01*
X0041588Y0095531D01*
X0041588Y0098516D01*
X0042556Y0098516D01*
X0042556Y0095531D01*
X0044435Y0095531D01*
X0044816Y0095634D01*
X0045159Y0095831D01*
X0045438Y0096110D01*
X0045631Y0096445D01*
X0046144Y0095931D01*
X0050560Y0095931D01*
X0050560Y0089187D01*
X0050375Y0088809D01*
X0050560Y0088271D01*
X0050560Y0087703D01*
X0050857Y0087405D01*
X0051100Y0086698D01*
X0051100Y0082225D01*
X0051744Y0081581D01*
X0055333Y0081581D01*
X0055171Y0081419D01*
X0051744Y0081419D01*
X0051100Y0080775D01*
X0051100Y0079754D01*
X0046311Y0079754D01*
X0046205Y0079647D01*
X0043565Y0079647D01*
X0042921Y0079003D01*
X0042921Y0078868D01*
X0032916Y0078868D01*
X0032916Y0079003D01*
X0032272Y0079647D01*
X0027227Y0079647D01*
X0026582Y0079003D01*
X0026582Y0075533D01*
X0027227Y0074888D01*
X0032272Y0074888D01*
X0032916Y0075533D01*
X0032916Y0075668D01*
X0042921Y0075668D01*
X0042921Y0075533D01*
X0043565Y0074888D01*
X0048610Y0074888D01*
X0049255Y0075533D01*
X0049255Y0076554D01*
X0051100Y0076554D01*
X0051100Y0075533D01*
X0051744Y0074888D01*
X0056593Y0074888D01*
X0057237Y0075533D01*
X0057237Y0078959D01*
X0059460Y0081182D01*
X0059460Y0106030D01*
X0060284Y0106030D01*
X0060360Y0106106D01*
X0060435Y0106030D01*
X0065284Y0106030D01*
X0065360Y0106106D01*
X0065435Y0106030D01*
X0070284Y0106030D01*
X0070360Y0106106D01*
X0070435Y0106030D01*
X0075284Y0106030D01*
X0075360Y0106106D01*
X0075435Y0106030D01*
X0075960Y0106030D01*
X0075960Y0097022D01*
X0078744Y0094238D01*
X0078744Y0093672D01*
X0080091Y0092325D01*
X0081996Y0092325D01*
X0083344Y0093672D01*
X0083344Y0095578D01*
X0081996Y0096925D01*
X0081431Y0096925D01*
X0079760Y0098596D01*
X0079760Y0106030D01*
X0080284Y0106030D01*
X0080360Y0106106D01*
X0080435Y0106030D01*
X0081260Y0106030D01*
X0081260Y0101521D01*
X0086244Y0096537D01*
X0086244Y0095547D01*
X0087591Y0094200D01*
X0089496Y0094200D01*
X0090069Y0094772D01*
X0090069Y0093413D01*
X0087256Y0090600D01*
X0066006Y0090600D01*
X0063506Y0088100D01*
X0062569Y0087163D01*
X0062569Y0082087D01*
X0065069Y0079587D01*
X0066006Y0078650D01*
X0066182Y0078650D01*
X0066182Y0077407D01*
X0069609Y0077407D01*
X0069609Y0077128D01*
X0066182Y0077128D01*
X0066182Y0075791D01*
X0066285Y0075409D01*
X0066482Y0075067D01*
X0066761Y0074788D01*
X0067103Y0074590D01*
X0067485Y0074488D01*
X0069610Y0074488D01*
X0069610Y0077128D01*
X0069889Y0077128D01*
X0069889Y0074488D01*
X0072014Y0074488D01*
X0072395Y0074590D01*
X0072737Y0074788D01*
X0073017Y0075067D01*
X0073214Y0075409D01*
X0073316Y0075791D01*
X0073316Y0077128D01*
X0069889Y0077128D01*
X0069889Y0077407D01*
X0073316Y0077407D01*
X0073316Y0078650D01*
X0081919Y0078650D01*
X0081919Y0078586D01*
X0082504Y0078000D01*
X0082521Y0078000D01*
X0082521Y0077407D01*
X0085948Y0077407D01*
X0085948Y0077128D01*
X0082521Y0077128D01*
X0082521Y0075791D01*
X0082623Y0075409D01*
X0082821Y0075067D01*
X0083100Y0074788D01*
X0083442Y0074590D01*
X0083823Y0074488D01*
X0085948Y0074488D01*
X0085948Y0077128D01*
X0086228Y0077128D01*
X0086228Y0077407D01*
X0089655Y0077407D01*
X0089655Y0078650D01*
X0091006Y0078650D01*
X0103819Y0065837D01*
X0103819Y0065612D01*
X0102994Y0065612D01*
X0102350Y0064967D01*
X0102350Y0059725D01*
X0102994Y0059081D01*
X0107843Y0059081D01*
X0108487Y0059725D01*
X0108487Y0064967D01*
X0107843Y0065612D01*
X0107019Y0065612D01*
X0107019Y0067163D01*
X0106081Y0068100D01*
X0092331Y0081850D01*
X0088919Y0081850D01*
X0088919Y0083661D01*
X0089255Y0083997D01*
X0089255Y0084132D01*
X0091564Y0084132D01*
X0094831Y0087400D01*
X0095769Y0088337D01*
X0095769Y0097637D01*
X0096631Y0096775D01*
X0096869Y0096537D01*
X0096869Y0095547D01*
X0098216Y0094200D01*
X0100121Y0094200D01*
X0101469Y0095547D01*
X0101469Y0096312D01*
X0104369Y0093412D01*
X0104369Y0092422D01*
X0105716Y0091075D01*
X0107621Y0091075D01*
X0108969Y0092422D01*
X0108969Y0094328D01*
X0107621Y0095675D01*
X0106631Y0095675D01*
X0104460Y0097847D01*
X0104460Y0106030D01*
X0105284Y0106030D01*
X0105360Y0106106D01*
X0105435Y0106030D01*
X0106260Y0106030D01*
X0106260Y0103396D01*
X0108119Y0101537D01*
X0108119Y0100547D01*
X0109466Y0099200D01*
X0111371Y0099200D01*
X0112719Y0100547D01*
X0112719Y0101937D01*
X0115619Y0099037D01*
X0115619Y0098047D01*
X0116966Y0096700D01*
X0118871Y0096700D01*
X0120219Y0098047D01*
X0120219Y0099953D01*
X0118871Y0101300D01*
X0117881Y0101300D01*
X0114460Y0104722D01*
X0114460Y0106030D01*
X0115284Y0106030D01*
X0115928Y0106674D01*
X0115928Y0113400D01*
X0126319Y0113400D01*
X0126319Y0099362D01*
X0125494Y0099362D01*
X0124850Y0098717D01*
X0124850Y0093475D01*
X0125494Y0092831D01*
X0130343Y0092831D01*
X0130987Y0093475D01*
X0130987Y0098717D01*
X0130343Y0099362D01*
X0129519Y0099362D01*
X0129519Y0113400D01*
X0201256Y0113400D01*
X0202319Y0112337D01*
X0202319Y0078163D01*
X0200856Y0076700D01*
X0158339Y0076700D01*
X0158339Y0077437D01*
X0160254Y0077437D01*
X0160478Y0077661D01*
X0160702Y0077437D01*
X0162813Y0077437D01*
X0163037Y0077661D01*
X0163261Y0077437D01*
X0165372Y0077437D01*
X0165596Y0077661D01*
X0165820Y0077437D01*
X0167931Y0077437D01*
X0168330Y0077836D01*
X0169466Y0076700D01*
X0171371Y0076700D01*
X0172719Y0078047D01*
X0172719Y0078896D01*
X0173119Y0079296D01*
X0173119Y0078047D01*
X0174466Y0076700D01*
X0176371Y0076700D01*
X0177719Y0078047D01*
X0177719Y0078896D01*
X0178119Y0079296D01*
X0178119Y0078047D01*
X0179466Y0076700D01*
X0181371Y0076700D01*
X0182719Y0078047D01*
X0182719Y0078896D01*
X0183119Y0079296D01*
X0183119Y0078047D01*
X0184466Y0076700D01*
X0186371Y0076700D01*
X0187719Y0078047D01*
X0187719Y0078896D01*
X0192119Y0083296D01*
X0192119Y0103454D01*
X0191123Y0104450D01*
X0184873Y0110700D01*
X0155964Y0110700D01*
X0154969Y0109704D01*
X0148376Y0103112D01*
X0145494Y0103112D01*
X0144850Y0102467D01*
X0144850Y0097225D01*
X0145494Y0096581D01*
X0150343Y0096581D01*
X0150987Y0097225D01*
X0150987Y0100914D01*
X0157373Y0107300D01*
X0162564Y0107300D01*
X0162469Y0107204D01*
X0158376Y0103112D01*
X0155494Y0103112D01*
X0154850Y0102467D01*
X0154850Y0097225D01*
X0155494Y0096581D01*
X0160343Y0096581D01*
X0160987Y0097225D01*
X0160987Y0100914D01*
X0164873Y0104800D01*
X0170064Y0104800D01*
X0168376Y0103112D01*
X0165494Y0103112D01*
X0164850Y0102467D01*
X0164850Y0097225D01*
X0165494Y0096581D01*
X0170343Y0096581D01*
X0170987Y0097225D01*
X0170987Y0100914D01*
X0172473Y0102400D01*
X0174850Y0102400D01*
X0174850Y0097225D01*
X0175494Y0096581D01*
X0179106Y0096581D01*
X0179294Y0096419D01*
X0175494Y0096419D01*
X0174850Y0095775D01*
X0174850Y0092489D01*
X0170561Y0088200D01*
X0169714Y0088200D01*
X0168719Y0087204D01*
X0166016Y0084502D01*
X0166016Y0088847D01*
X0167057Y0089888D01*
X0170343Y0089888D01*
X0170987Y0090533D01*
X0170987Y0095775D01*
X0170343Y0096419D01*
X0165494Y0096419D01*
X0164850Y0095775D01*
X0164850Y0092489D01*
X0162919Y0090558D01*
X0162461Y0091015D01*
X0160987Y0092489D01*
X0160987Y0095775D01*
X0160343Y0096419D01*
X0155494Y0096419D01*
X0154850Y0095775D01*
X0154850Y0090723D01*
X0154619Y0090954D01*
X0153623Y0091950D01*
X0151526Y0091950D01*
X0150987Y0092489D01*
X0150987Y0095775D01*
X0150343Y0096419D01*
X0145494Y0096419D01*
X0144850Y0095775D01*
X0144850Y0090533D01*
X0145494Y0089888D01*
X0148780Y0089888D01*
X0149318Y0089350D01*
X0130987Y0089350D01*
X0130987Y0092025D01*
X0130343Y0092669D01*
X0125494Y0092669D01*
X0124850Y0092025D01*
X0124850Y0089975D01*
X0109571Y0089975D01*
X0108871Y0090675D01*
X0106966Y0090675D01*
X0105619Y0089328D01*
X0105619Y0087422D01*
X0106319Y0086722D01*
X0106319Y0073153D01*
X0105619Y0072453D01*
X0105619Y0070547D01*
X0106966Y0069200D01*
X0108871Y0069200D01*
X0110057Y0070386D01*
X0110057Y0068141D01*
X0109369Y0067453D01*
X0109369Y0065547D01*
X0110716Y0064200D01*
X0112621Y0064200D01*
X0113969Y0065547D01*
X0113969Y0067181D01*
X0115943Y0067181D01*
X0116587Y0067826D01*
X0116587Y0072674D01*
X0115943Y0073318D01*
X0113269Y0073318D01*
X0113269Y0083597D01*
X0113321Y0083650D01*
X0128204Y0083650D01*
X0128078Y0083616D01*
X0127736Y0083419D01*
X0127456Y0083140D01*
X0127259Y0082797D01*
X0127157Y0082416D01*
X0127157Y0080734D01*
X0130338Y0080734D01*
X0130338Y0079766D01*
X0127157Y0079766D01*
X0127157Y0078084D01*
X0127259Y0077703D01*
X0127456Y0077360D01*
X0127736Y0077081D01*
X0128078Y0076884D01*
X0128459Y0076781D01*
X0130338Y0076781D01*
X0130338Y0079766D01*
X0131306Y0079766D01*
X0131306Y0076781D01*
X0133185Y0076781D01*
X0133566Y0076884D01*
X0133909Y0077081D01*
X0134188Y0077360D01*
X0134381Y0077695D01*
X0134894Y0077181D01*
X0140136Y0077181D01*
X0140780Y0077826D01*
X0140780Y0078754D01*
X0147262Y0078754D01*
X0147262Y0077575D01*
X0146844Y0077157D01*
X0143671Y0077157D01*
X0142814Y0076300D01*
X0141966Y0076300D01*
X0140619Y0074953D01*
X0140619Y0073963D01*
X0138506Y0071850D01*
X0123280Y0071850D01*
X0123280Y0072674D01*
X0122636Y0073318D01*
X0117394Y0073318D01*
X0116750Y0072674D01*
X0116750Y0067826D01*
X0117394Y0067181D01*
X0122636Y0067181D01*
X0123280Y0067826D01*
X0123280Y0068650D01*
X0139831Y0068650D01*
X0142881Y0071700D01*
X0143871Y0071700D01*
X0145219Y0073047D01*
X0145219Y0073757D01*
X0146844Y0073757D01*
X0148130Y0072471D01*
X0148889Y0071711D01*
X0149882Y0071300D01*
X0180856Y0071300D01*
X0182719Y0069437D01*
X0182719Y0032213D01*
X0183130Y0031221D01*
X0183819Y0030532D01*
X0183819Y0027302D01*
X0185219Y0025902D01*
X0185219Y0022098D01*
X0183819Y0020698D01*
X0183819Y0017302D01*
X0186220Y0014900D01*
X0189617Y0014900D01*
X0192019Y0017302D01*
X0192019Y0020698D01*
X0190619Y0022098D01*
X0190619Y0025902D01*
X0192019Y0027302D01*
X0192019Y0030698D01*
X0189617Y0033100D01*
X0188887Y0033100D01*
X0188119Y0033868D01*
X0188119Y0069437D01*
X0189981Y0071300D01*
X0203836Y0071300D01*
X0204802Y0070900D01*
X0205266Y0070900D01*
X0213119Y0063047D01*
X0213119Y0055547D01*
X0214466Y0054200D01*
X0216562Y0052104D01*
X0218600Y0052104D01*
X0218600Y0051783D01*
X0219244Y0051138D01*
X0221681Y0051138D01*
X0224804Y0048015D01*
X0224804Y0048011D01*
X0225479Y0047341D01*
X0226149Y0046670D01*
X0226153Y0046670D01*
X0226156Y0046668D01*
X0227107Y0046670D01*
X0228054Y0046670D01*
X0228057Y0046673D01*
X0228591Y0046675D01*
X0228119Y0046203D01*
X0228119Y0045803D01*
X0227621Y0046300D01*
X0225716Y0046300D01*
X0224369Y0044953D01*
X0224369Y0043928D01*
X0223871Y0044425D01*
X0221966Y0044425D01*
X0220619Y0043078D01*
X0220619Y0041172D01*
X0221966Y0039825D01*
X0222956Y0039825D01*
X0224397Y0038384D01*
X0232175Y0038384D01*
X0232175Y0036285D01*
X0232819Y0035640D01*
X0235123Y0035640D01*
X0235238Y0035525D01*
X0240267Y0035525D01*
X0241819Y0033973D01*
X0241819Y0031741D01*
X0232677Y0022600D01*
X0228099Y0022600D01*
X0228099Y0030144D01*
X0228610Y0030144D01*
X0229255Y0030788D01*
X0229255Y0037212D01*
X0228610Y0037856D01*
X0222187Y0037856D01*
X0221543Y0037212D01*
X0221543Y0030788D01*
X0222187Y0030144D01*
X0222699Y0030144D01*
X0222699Y0022757D01*
X0222171Y0022757D01*
X0220790Y0022185D01*
X0219733Y0021128D01*
X0219161Y0019747D01*
X0219161Y0018253D01*
X0219733Y0016872D01*
X0220790Y0015815D01*
X0222171Y0015243D01*
X0223666Y0015243D01*
X0224046Y0015400D01*
X0234885Y0015400D01*
X0236208Y0015948D01*
X0237221Y0016961D01*
X0248471Y0028211D01*
X0249019Y0029534D01*
X0249019Y0033973D01*
X0250590Y0035545D01*
X0251519Y0037787D01*
X0251519Y0130337D01*
X0252019Y0130837D01*
X0252019Y0137163D01*
X0251081Y0138100D01*
X0239519Y0149663D01*
X0239519Y0163337D01*
X0241081Y0164900D01*
X0253581Y0164900D01*
X0258581Y0169900D01*
X0285419Y0169900D01*
X0285419Y0136850D01*
X0262256Y0136850D01*
X0261319Y0135913D01*
X0261319Y0127072D01*
X0260962Y0126715D01*
X0260962Y0124434D01*
X0261101Y0124295D01*
X0260962Y0124156D01*
X0260962Y0122163D01*
X0260862Y0122063D01*
X0260665Y0121721D01*
X0260562Y0121339D01*
X0260562Y0120457D01*
X0262919Y0120457D01*
X0262919Y0120457D01*
X0260562Y0120457D01*
X0260562Y0119574D01*
X0260665Y0119193D01*
X0260673Y0119177D01*
X0260665Y0119162D01*
X0260562Y0118780D01*
X0260562Y0117898D01*
X0262919Y0117898D01*
X0262919Y0117898D01*
X0260562Y0117898D01*
X0260562Y0117015D01*
X0260665Y0116634D01*
X0260862Y0116292D01*
X0260962Y0116191D01*
X0260962Y0114198D01*
X0261101Y0114059D01*
X0260962Y0113920D01*
X0260962Y0111639D01*
X0261101Y0111500D01*
X0260962Y0111361D01*
X0260962Y0109080D01*
X0261101Y0108941D01*
X0260962Y0108802D01*
X0260962Y0106809D01*
X0260862Y0106708D01*
X0260665Y0106366D01*
X0260562Y0105985D01*
X0260562Y0105102D01*
X0260562Y0104220D01*
X0260665Y0103838D01*
X0260673Y0103823D01*
X0260665Y0103807D01*
X0260562Y0103426D01*
X0260562Y0102543D01*
X0260562Y0101661D01*
X0260665Y0101279D01*
X0260862Y0100937D01*
X0260962Y0100837D01*
X0260962Y0098844D01*
X0261101Y0098705D01*
X0260962Y0098566D01*
X0260962Y0096285D01*
X0261319Y0095928D01*
X0261319Y0087087D01*
X0262256Y0086150D01*
X0262919Y0086150D01*
X0262919Y0076850D01*
X0262256Y0076850D01*
X0261319Y0075913D01*
X0261319Y0067072D01*
X0260962Y0066715D01*
X0260962Y0064434D01*
X0261101Y0064295D01*
X0260962Y0064156D01*
X0260962Y0062163D01*
X0260862Y0062063D01*
X0260665Y0061721D01*
X0260562Y0061339D01*
X0260562Y0060457D01*
X0262919Y0060457D01*
X0262919Y0060457D01*
X0260562Y0060457D01*
X0260562Y0059574D01*
X0260665Y0059193D01*
X0260673Y0059177D01*
X0260665Y0059162D01*
X0260562Y0058780D01*
X0260562Y0057898D01*
X0262919Y0057898D01*
X0262919Y0057898D01*
X0260562Y0057898D01*
X0260562Y0057015D01*
X0260665Y0056634D01*
X0260862Y0056292D01*
X0260962Y0056191D01*
X0260962Y0054198D01*
X0261101Y0054059D01*
X0260962Y0053920D01*
X0260962Y0051639D01*
X0261101Y0051500D01*
X0260962Y0051361D01*
X0260962Y0049080D01*
X0261101Y0048941D01*
X0260962Y0048802D01*
X0260962Y0046809D01*
X0260862Y0046708D01*
X0260665Y0046366D01*
X0260562Y0045985D01*
X0260562Y0045102D01*
X0260562Y0044220D01*
X0260665Y0043838D01*
X0260673Y0043823D01*
X0260665Y0043807D01*
X0260562Y0043426D01*
X0260562Y0042543D01*
X0260562Y0041661D01*
X0260665Y0041279D01*
X0260862Y0040937D01*
X0260962Y0040837D01*
X0260962Y0038844D01*
X0261101Y0038705D01*
X0260962Y0038566D01*
X0260962Y0036285D01*
X0261319Y0035928D01*
X0261319Y0027087D01*
X0262256Y0026150D01*
X0262919Y0026150D01*
X0262919Y0014000D01*
X0027919Y0014000D01*
X0026745Y0014092D01*
X0024514Y0014817D01*
X0022615Y0016197D01*
X0023582Y0015494D02*
X0105626Y0015494D01*
X0106220Y0014900D02*
X0103819Y0017302D01*
X0103819Y0020698D01*
X0106220Y0023100D01*
X0109617Y0023100D01*
X0112019Y0020698D01*
X0112019Y0017302D01*
X0109617Y0014900D01*
X0106220Y0014900D01*
X0110211Y0015494D02*
X0115626Y0015494D01*
X0116220Y0014900D02*
X0119617Y0014900D01*
X0122019Y0017302D01*
X0122019Y0020698D01*
X0119617Y0023100D01*
X0116220Y0023100D01*
X0113819Y0020698D01*
X0113819Y0017302D01*
X0116220Y0014900D01*
X0114628Y0016493D02*
X0111209Y0016493D01*
X0112019Y0017491D02*
X0113819Y0017491D01*
X0113819Y0018490D02*
X0112019Y0018490D01*
X0112019Y0019488D02*
X0113819Y0019488D01*
X0113819Y0020487D02*
X0112019Y0020487D01*
X0111232Y0021485D02*
X0114605Y0021485D01*
X0115604Y0022484D02*
X0110233Y0022484D01*
X0109617Y0024900D02*
X0106220Y0024900D01*
X0103819Y0027302D01*
X0103819Y0030698D01*
X0106220Y0033100D01*
X0109617Y0033100D01*
X0112019Y0030698D01*
X0112019Y0027302D01*
X0109617Y0024900D01*
X0110196Y0025479D02*
X0115641Y0025479D01*
X0116220Y0024900D02*
X0119617Y0024900D01*
X0122019Y0027302D01*
X0122019Y0030698D01*
X0119617Y0033100D01*
X0116220Y0033100D01*
X0113819Y0030698D01*
X0113819Y0027302D01*
X0116220Y0024900D01*
X0114643Y0026478D02*
X0111195Y0026478D01*
X0112019Y0027476D02*
X0113819Y0027476D01*
X0113819Y0028475D02*
X0112019Y0028475D01*
X0112019Y0029473D02*
X0113819Y0029473D01*
X0113819Y0030472D02*
X0112019Y0030472D01*
X0111247Y0031470D02*
X0114591Y0031470D01*
X0115589Y0032469D02*
X0110248Y0032469D01*
X0105589Y0032469D02*
X0041647Y0032469D01*
X0041647Y0033467D02*
X0046540Y0033467D01*
X0046006Y0030986D02*
X0045362Y0030341D01*
X0045362Y0019588D01*
X0046006Y0018943D01*
X0055579Y0018943D01*
X0056223Y0019588D01*
X0056223Y0030341D01*
X0055579Y0030986D01*
X0046006Y0030986D01*
X0045492Y0030472D02*
X0041647Y0030472D01*
X0041647Y0031470D02*
X0104591Y0031470D01*
X0103819Y0030472D02*
X0056093Y0030472D01*
X0056223Y0029473D02*
X0103819Y0029473D01*
X0103819Y0028475D02*
X0056223Y0028475D01*
X0056223Y0027476D02*
X0103819Y0027476D01*
X0104643Y0026478D02*
X0056223Y0026478D01*
X0056223Y0025479D02*
X0071574Y0025479D01*
X0071306Y0025392D02*
X0070717Y0025092D01*
X0070182Y0024704D01*
X0069715Y0024236D01*
X0069326Y0023701D01*
X0069026Y0023112D01*
X0068822Y0022484D01*
X0056223Y0022484D01*
X0056223Y0023482D02*
X0069215Y0023482D01*
X0068822Y0022484D02*
X0068730Y0021900D01*
X0072519Y0021900D01*
X0072519Y0025689D01*
X0071935Y0025597D01*
X0071306Y0025392D01*
X0072519Y0025479D02*
X0073319Y0025479D01*
X0073319Y0025689D02*
X0073319Y0021900D01*
X0077108Y0021900D01*
X0077015Y0022484D01*
X0105604Y0022484D01*
X0104605Y0021485D02*
X0073319Y0021485D01*
X0073319Y0021100D02*
X0073319Y0021900D01*
X0072519Y0021900D01*
X0072519Y0021100D01*
X0073319Y0021100D01*
X0077108Y0021100D01*
X0077015Y0020516D01*
X0076811Y0019888D01*
X0076511Y0019299D01*
X0076122Y0018764D01*
X0075655Y0018296D01*
X0075120Y0017908D01*
X0074531Y0017608D01*
X0073902Y0017403D01*
X0073319Y0017311D01*
X0073319Y0021100D01*
X0073319Y0020487D02*
X0072519Y0020487D01*
X0072519Y0021100D02*
X0072519Y0017311D01*
X0071935Y0017403D01*
X0071306Y0017608D01*
X0070717Y0017908D01*
X0070182Y0018296D01*
X0069715Y0018764D01*
X0069326Y0019299D01*
X0069026Y0019888D01*
X0068822Y0020516D01*
X0068730Y0021100D01*
X0072519Y0021100D01*
X0072519Y0021485D02*
X0056223Y0021485D01*
X0056223Y0020487D02*
X0068832Y0020487D01*
X0069230Y0019488D02*
X0056124Y0019488D01*
X0056223Y0024481D02*
X0069960Y0024481D01*
X0072519Y0024481D02*
X0073319Y0024481D01*
X0073319Y0023482D02*
X0072519Y0023482D01*
X0072519Y0022484D02*
X0073319Y0022484D01*
X0073319Y0019488D02*
X0072519Y0019488D01*
X0072519Y0018490D02*
X0073319Y0018490D01*
X0073319Y0017491D02*
X0072519Y0017491D01*
X0071665Y0017491D02*
X0021675Y0017491D01*
X0021108Y0018490D02*
X0069989Y0018490D01*
X0074172Y0017491D02*
X0103819Y0017491D01*
X0103819Y0018490D02*
X0075848Y0018490D01*
X0076607Y0019488D02*
X0103819Y0019488D01*
X0103819Y0020487D02*
X0077005Y0020487D01*
X0077015Y0022484D02*
X0076811Y0023112D01*
X0076511Y0023701D01*
X0076122Y0024236D01*
X0075655Y0024704D01*
X0075120Y0025092D01*
X0074531Y0025392D01*
X0073902Y0025597D01*
X0073319Y0025689D01*
X0074263Y0025479D02*
X0105641Y0025479D01*
X0120196Y0025479D02*
X0125075Y0025479D01*
X0126055Y0024500D02*
X0123419Y0027136D01*
X0123419Y0028500D01*
X0127419Y0028500D01*
X0128419Y0028500D01*
X0128419Y0029500D01*
X0132419Y0029500D01*
X0132419Y0030864D01*
X0129783Y0033500D01*
X0128419Y0033500D01*
X0128419Y0029500D01*
X0127419Y0029500D01*
X0127419Y0033500D01*
X0126055Y0033500D01*
X0123419Y0030864D01*
X0123419Y0029500D01*
X0127419Y0029500D01*
X0127419Y0028500D01*
X0127419Y0024500D01*
X0126055Y0024500D01*
X0126055Y0023500D02*
X0123419Y0020864D01*
X0123419Y0019500D01*
X0127419Y0019500D01*
X0127419Y0023500D01*
X0126055Y0023500D01*
X0126037Y0023482D02*
X0076622Y0023482D01*
X0075878Y0024481D02*
X0185219Y0024481D01*
X0185219Y0025479D02*
X0180196Y0025479D01*
X0179617Y0024900D02*
X0182019Y0027302D01*
X0182019Y0030698D01*
X0179619Y0033098D01*
X0179619Y0037388D01*
X0180343Y0037388D01*
X0180987Y0038033D01*
X0180987Y0043275D01*
X0180343Y0043919D01*
X0175494Y0043919D01*
X0174850Y0043275D01*
X0174850Y0038033D01*
X0175494Y0037388D01*
X0176219Y0037388D01*
X0176219Y0033098D01*
X0173819Y0030698D01*
X0173819Y0027302D01*
X0176220Y0024900D01*
X0179617Y0024900D01*
X0179617Y0023100D02*
X0176220Y0023100D01*
X0173819Y0020698D01*
X0173819Y0017302D01*
X0176220Y0014900D01*
X0179617Y0014900D01*
X0182019Y0017302D01*
X0182019Y0020698D01*
X0179617Y0023100D01*
X0180233Y0022484D02*
X0185219Y0022484D01*
X0185219Y0023482D02*
X0129800Y0023482D01*
X0129783Y0023500D02*
X0128419Y0023500D01*
X0128419Y0019500D01*
X0132419Y0019500D01*
X0132419Y0020864D01*
X0129783Y0023500D01*
X0129783Y0024500D02*
X0132419Y0027136D01*
X0132419Y0028500D01*
X0128419Y0028500D01*
X0128419Y0024500D01*
X0129783Y0024500D01*
X0130762Y0025479D02*
X0135641Y0025479D01*
X0136220Y0024900D02*
X0139617Y0024900D01*
X0142019Y0027302D01*
X0142019Y0030698D01*
X0139819Y0032898D01*
X0139819Y0041883D01*
X0139530Y0042172D01*
X0139530Y0045174D01*
X0138886Y0045818D01*
X0133644Y0045818D01*
X0133000Y0045174D01*
X0133000Y0040326D01*
X0133644Y0039681D01*
X0136019Y0039681D01*
X0136019Y0032898D01*
X0133819Y0030698D01*
X0133819Y0027302D01*
X0136220Y0024900D01*
X0136220Y0023100D02*
X0133819Y0020698D01*
X0133819Y0017302D01*
X0136220Y0014900D01*
X0139617Y0014900D01*
X0142019Y0017302D01*
X0142019Y0020698D01*
X0139617Y0023100D01*
X0136220Y0023100D01*
X0135604Y0022484D02*
X0130799Y0022484D01*
X0131797Y0021485D02*
X0134605Y0021485D01*
X0133819Y0020487D02*
X0132419Y0020487D01*
X0133819Y0019488D02*
X0128419Y0019488D01*
X0128419Y0019500D02*
X0128419Y0018500D01*
X0132419Y0018500D01*
X0132419Y0017136D01*
X0129783Y0014500D01*
X0128419Y0014500D01*
X0128419Y0018500D01*
X0127419Y0018500D01*
X0127419Y0014500D01*
X0126055Y0014500D01*
X0123419Y0017136D01*
X0123419Y0018500D01*
X0127419Y0018500D01*
X0127419Y0019500D01*
X0128419Y0019500D01*
X0128419Y0020487D02*
X0127419Y0020487D01*
X0127419Y0021485D02*
X0128419Y0021485D01*
X0128419Y0022484D02*
X0127419Y0022484D01*
X0127419Y0023482D02*
X0128419Y0023482D01*
X0128419Y0025479D02*
X0127419Y0025479D01*
X0127419Y0026478D02*
X0128419Y0026478D01*
X0128419Y0027476D02*
X0127419Y0027476D01*
X0127419Y0028475D02*
X0128419Y0028475D01*
X0128419Y0029473D02*
X0133819Y0029473D01*
X0133819Y0028475D02*
X0132419Y0028475D01*
X0132419Y0027476D02*
X0133819Y0027476D01*
X0134643Y0026478D02*
X0131760Y0026478D01*
X0132419Y0030472D02*
X0133819Y0030472D01*
X0134591Y0031470D02*
X0131812Y0031470D01*
X0130814Y0032469D02*
X0135589Y0032469D01*
X0136019Y0033467D02*
X0129815Y0033467D01*
X0128419Y0033467D02*
X0127419Y0033467D01*
X0127419Y0032469D02*
X0128419Y0032469D01*
X0128419Y0031470D02*
X0127419Y0031470D01*
X0127419Y0030472D02*
X0128419Y0030472D01*
X0127419Y0029473D02*
X0122019Y0029473D01*
X0122019Y0028475D02*
X0123419Y0028475D01*
X0123419Y0027476D02*
X0122019Y0027476D01*
X0121195Y0026478D02*
X0124077Y0026478D01*
X0123419Y0030472D02*
X0122019Y0030472D01*
X0121247Y0031470D02*
X0124025Y0031470D01*
X0125023Y0032469D02*
X0120248Y0032469D01*
X0126022Y0033467D02*
X0057013Y0033467D01*
X0057214Y0034466D02*
X0136019Y0034466D01*
X0136019Y0035464D02*
X0064146Y0035464D01*
X0065144Y0036463D02*
X0136019Y0036463D01*
X0136019Y0037461D02*
X0088425Y0037461D01*
X0088519Y0038460D02*
X0136019Y0038460D01*
X0136019Y0039458D02*
X0088519Y0039458D01*
X0088519Y0040457D02*
X0126307Y0040457D01*
X0126307Y0040326D02*
X0126951Y0039681D01*
X0132193Y0039681D01*
X0132837Y0040326D01*
X0132837Y0045174D01*
X0132193Y0045818D01*
X0131472Y0045818D01*
X0131472Y0049964D01*
X0129855Y0051581D01*
X0129855Y0055174D01*
X0129211Y0055818D01*
X0122788Y0055818D01*
X0122143Y0055174D01*
X0122143Y0050326D01*
X0122788Y0049681D01*
X0126381Y0049681D01*
X0127672Y0048390D01*
X0127672Y0045818D01*
X0126951Y0045818D01*
X0126307Y0045174D01*
X0126307Y0040326D01*
X0126307Y0041455D02*
X0088519Y0041455D01*
X0088635Y0042454D02*
X0126307Y0042454D01*
X0126307Y0043452D02*
X0108907Y0043452D01*
X0108886Y0043431D02*
X0109530Y0044076D01*
X0109530Y0048924D01*
X0108886Y0049568D01*
X0107865Y0049568D01*
X0107865Y0052411D01*
X0108487Y0053033D01*
X0108487Y0054890D01*
X0113482Y0054890D01*
X0113482Y0054066D01*
X0114126Y0053422D01*
X0120549Y0053422D01*
X0121194Y0054066D01*
X0121194Y0058914D01*
X0120549Y0059559D01*
X0114126Y0059559D01*
X0113482Y0058914D01*
X0113482Y0058090D01*
X0108487Y0058090D01*
X0108487Y0058275D01*
X0107843Y0058919D01*
X0102994Y0058919D01*
X0102350Y0058275D01*
X0102350Y0053033D01*
X0102994Y0052388D01*
X0104665Y0052388D01*
X0104665Y0049568D01*
X0103644Y0049568D01*
X0103131Y0049055D01*
X0102938Y0049390D01*
X0102659Y0049669D01*
X0102316Y0049866D01*
X0101935Y0049968D01*
X0100056Y0049968D01*
X0100056Y0046984D01*
X0099088Y0046984D01*
X0099088Y0046016D01*
X0095907Y0046016D01*
X0095907Y0044334D01*
X0096009Y0043953D01*
X0096206Y0043610D01*
X0096486Y0043331D01*
X0096828Y0043134D01*
X0097209Y0043031D01*
X0099088Y0043031D01*
X0099088Y0046016D01*
X0100056Y0046016D01*
X0100056Y0043031D01*
X0101935Y0043031D01*
X0102316Y0043134D01*
X0102659Y0043331D01*
X0102938Y0043610D01*
X0103131Y0043945D01*
X0103644Y0043431D01*
X0108886Y0043431D01*
X0109530Y0044451D02*
X0126307Y0044451D01*
X0126582Y0045449D02*
X0109530Y0045449D01*
X0109530Y0046448D02*
X0113193Y0046448D01*
X0113184Y0046462D02*
X0113382Y0046120D01*
X0113661Y0045841D01*
X0114003Y0045644D01*
X0114384Y0045541D01*
X0116854Y0045541D01*
X0116854Y0048526D01*
X0117822Y0048526D01*
X0117822Y0049494D01*
X0116854Y0049494D01*
X0116854Y0052478D01*
X0114384Y0052478D01*
X0114003Y0052376D01*
X0113661Y0052179D01*
X0113382Y0051899D01*
X0113184Y0051557D01*
X0113082Y0051176D01*
X0113082Y0049494D01*
X0116854Y0049494D01*
X0116854Y0048526D01*
X0113082Y0048526D01*
X0113082Y0046844D01*
X0113184Y0046462D01*
X0113082Y0047446D02*
X0109530Y0047446D01*
X0109530Y0048445D02*
X0113082Y0048445D01*
X0113082Y0050442D02*
X0107865Y0050442D01*
X0107865Y0051440D02*
X0113153Y0051440D01*
X0114238Y0052439D02*
X0107894Y0052439D01*
X0108487Y0053437D02*
X0114111Y0053437D01*
X0113482Y0054436D02*
X0108487Y0054436D01*
X0106265Y0054807D02*
X0105419Y0055654D01*
X0105419Y0056490D01*
X0117338Y0056490D01*
X0121194Y0056433D02*
X0139473Y0056433D01*
X0140471Y0055434D02*
X0129595Y0055434D01*
X0129855Y0054436D02*
X0141470Y0054436D01*
X0142468Y0053437D02*
X0129855Y0053437D01*
X0129855Y0052439D02*
X0143467Y0052439D01*
X0143506Y0052400D02*
X0151081Y0052400D01*
X0152019Y0053337D01*
X0153121Y0054440D01*
X0153121Y0054463D01*
X0154939Y0054463D01*
X0154939Y0053425D01*
X0150987Y0049473D01*
X0150987Y0049967D01*
X0150343Y0050612D01*
X0145494Y0050612D01*
X0144850Y0049967D01*
X0144850Y0044725D01*
X0145494Y0044081D01*
X0150343Y0044081D01*
X0150987Y0044725D01*
X0150987Y0044800D01*
X0151123Y0044800D01*
X0152119Y0045796D01*
X0154850Y0048527D01*
X0154850Y0044725D01*
X0155494Y0044081D01*
X0160343Y0044081D01*
X0160987Y0044725D01*
X0160987Y0049967D01*
X0160898Y0050056D01*
X0160898Y0051963D01*
X0164850Y0048011D01*
X0164850Y0044725D01*
X0165494Y0044081D01*
X0170343Y0044081D01*
X0170987Y0044725D01*
X0170987Y0049800D01*
X0173061Y0049800D01*
X0174850Y0048011D01*
X0174850Y0044725D01*
X0175494Y0044081D01*
X0180343Y0044081D01*
X0180987Y0044725D01*
X0180987Y0049967D01*
X0180343Y0050612D01*
X0177057Y0050612D01*
X0174469Y0053200D01*
X0168623Y0053200D01*
X0167742Y0054081D01*
X0168054Y0054165D01*
X0168396Y0054362D01*
X0168676Y0054642D01*
X0168873Y0054984D01*
X0168975Y0055365D01*
X0168975Y0057513D01*
X0168975Y0059660D01*
X0168873Y0060042D01*
X0168676Y0060384D01*
X0168396Y0060663D01*
X0168054Y0060860D01*
X0167673Y0060963D01*
X0166875Y0060963D01*
X0166078Y0060963D01*
X0165696Y0060860D01*
X0165354Y0060663D01*
X0165254Y0060563D01*
X0163261Y0060563D01*
X0163037Y0060339D01*
X0162813Y0060563D01*
X0160702Y0060563D01*
X0160478Y0060339D01*
X0160254Y0060563D01*
X0158142Y0060563D01*
X0157919Y0060339D01*
X0157695Y0060563D01*
X0155680Y0060563D01*
X0155680Y0061001D01*
X0153269Y0063413D01*
X0152331Y0064350D01*
X0149571Y0064350D01*
X0148871Y0065050D01*
X0146966Y0065050D01*
X0145619Y0063703D01*
X0145619Y0061797D01*
X0146966Y0060450D01*
X0147794Y0060450D01*
X0147262Y0059918D01*
X0147262Y0059419D01*
X0142019Y0064663D01*
X0141081Y0065600D01*
X0130507Y0065600D01*
X0129937Y0065663D01*
X0129857Y0065600D01*
X0129756Y0065600D01*
X0129350Y0065194D01*
X0127607Y0063800D01*
X0126341Y0063800D01*
X0124994Y0062453D01*
X0124994Y0060547D01*
X0126341Y0059200D01*
X0128246Y0059200D01*
X0129594Y0060547D01*
X0129594Y0061291D01*
X0130980Y0062400D01*
X0135566Y0062400D01*
X0134994Y0061828D01*
X0134994Y0059922D01*
X0136341Y0058575D01*
X0137331Y0058575D01*
X0143506Y0052400D01*
X0144169Y0054000D02*
X0137294Y0060875D01*
X0135487Y0059429D02*
X0128475Y0059429D01*
X0129473Y0060427D02*
X0134994Y0060427D01*
X0134994Y0061426D02*
X0129762Y0061426D01*
X0127294Y0061500D02*
X0130419Y0064000D01*
X0140419Y0064000D01*
X0146906Y0057513D01*
X0148962Y0057513D01*
X0151521Y0057513D02*
X0151521Y0055102D01*
X0150419Y0054000D01*
X0144169Y0054000D01*
X0145325Y0050442D02*
X0130994Y0050442D01*
X0131472Y0049443D02*
X0144850Y0049443D01*
X0144850Y0048445D02*
X0131472Y0048445D01*
X0131472Y0047446D02*
X0144850Y0047446D01*
X0144850Y0046448D02*
X0131472Y0046448D01*
X0132562Y0045449D02*
X0133275Y0045449D01*
X0133000Y0044451D02*
X0132837Y0044451D01*
X0132837Y0043452D02*
X0133000Y0043452D01*
X0133000Y0042454D02*
X0132837Y0042454D01*
X0132837Y0041455D02*
X0133000Y0041455D01*
X0133000Y0040457D02*
X0132837Y0040457D01*
X0139819Y0040457D02*
X0144850Y0040457D01*
X0144850Y0041455D02*
X0139819Y0041455D01*
X0139530Y0042454D02*
X0144850Y0042454D01*
X0144850Y0043275D02*
X0144850Y0038033D01*
X0145494Y0037388D01*
X0146219Y0037388D01*
X0146219Y0033098D01*
X0143819Y0030698D01*
X0143819Y0027302D01*
X0146220Y0024900D01*
X0149617Y0024900D01*
X0152019Y0027302D01*
X0152019Y0030698D01*
X0149619Y0033098D01*
X0149619Y0037388D01*
X0150343Y0037388D01*
X0150987Y0038033D01*
X0150987Y0043275D01*
X0150343Y0043919D01*
X0145494Y0043919D01*
X0144850Y0043275D01*
X0145028Y0043452D02*
X0139530Y0043452D01*
X0139530Y0044451D02*
X0145125Y0044451D01*
X0144850Y0045449D02*
X0139255Y0045449D01*
X0139819Y0039458D02*
X0144850Y0039458D01*
X0144850Y0038460D02*
X0139819Y0038460D01*
X0139819Y0037461D02*
X0145421Y0037461D01*
X0146219Y0036463D02*
X0139819Y0036463D01*
X0139819Y0035464D02*
X0146219Y0035464D01*
X0146219Y0034466D02*
X0139819Y0034466D01*
X0139819Y0033467D02*
X0146219Y0033467D01*
X0145589Y0032469D02*
X0140248Y0032469D01*
X0141247Y0031470D02*
X0144591Y0031470D01*
X0143819Y0030472D02*
X0142019Y0030472D01*
X0142019Y0029473D02*
X0143819Y0029473D01*
X0143819Y0028475D02*
X0142019Y0028475D01*
X0142019Y0027476D02*
X0143819Y0027476D01*
X0144643Y0026478D02*
X0141195Y0026478D01*
X0140196Y0025479D02*
X0145641Y0025479D01*
X0146220Y0023100D02*
X0143819Y0020698D01*
X0143819Y0017302D01*
X0146220Y0014900D01*
X0149617Y0014900D01*
X0152019Y0017302D01*
X0152019Y0020698D01*
X0149617Y0023100D01*
X0146220Y0023100D01*
X0145604Y0022484D02*
X0140233Y0022484D01*
X0141232Y0021485D02*
X0144605Y0021485D01*
X0143819Y0020487D02*
X0142019Y0020487D01*
X0142019Y0019488D02*
X0143819Y0019488D01*
X0143819Y0018490D02*
X0142019Y0018490D01*
X0142019Y0017491D02*
X0143819Y0017491D01*
X0144628Y0016493D02*
X0141209Y0016493D01*
X0140211Y0015494D02*
X0145626Y0015494D01*
X0150211Y0015494D02*
X0155626Y0015494D01*
X0156220Y0014900D02*
X0153819Y0017302D01*
X0153819Y0020698D01*
X0156220Y0023100D01*
X0159617Y0023100D01*
X0162019Y0020698D01*
X0162019Y0017302D01*
X0159617Y0014900D01*
X0156220Y0014900D01*
X0154628Y0016493D02*
X0151209Y0016493D01*
X0152019Y0017491D02*
X0153819Y0017491D01*
X0153819Y0018490D02*
X0152019Y0018490D01*
X0152019Y0019488D02*
X0153819Y0019488D01*
X0153819Y0020487D02*
X0152019Y0020487D01*
X0151232Y0021485D02*
X0154605Y0021485D01*
X0155604Y0022484D02*
X0150233Y0022484D01*
X0150196Y0025479D02*
X0155641Y0025479D01*
X0156220Y0024900D02*
X0153819Y0027302D01*
X0153819Y0030698D01*
X0156219Y0033098D01*
X0156219Y0037388D01*
X0155494Y0037388D01*
X0154850Y0038033D01*
X0154850Y0043275D01*
X0155494Y0043919D01*
X0160343Y0043919D01*
X0160987Y0043275D01*
X0160987Y0038033D01*
X0160343Y0037388D01*
X0159619Y0037388D01*
X0159619Y0033098D01*
X0162019Y0030698D01*
X0162019Y0027302D01*
X0159617Y0024900D01*
X0156220Y0024900D01*
X0154643Y0026478D02*
X0151195Y0026478D01*
X0152019Y0027476D02*
X0153819Y0027476D01*
X0153819Y0028475D02*
X0152019Y0028475D01*
X0152019Y0029473D02*
X0153819Y0029473D01*
X0153819Y0030472D02*
X0152019Y0030472D01*
X0151247Y0031470D02*
X0154591Y0031470D01*
X0155589Y0032469D02*
X0150248Y0032469D01*
X0149619Y0033467D02*
X0156219Y0033467D01*
X0156219Y0034466D02*
X0149619Y0034466D01*
X0149619Y0035464D02*
X0156219Y0035464D01*
X0156219Y0036463D02*
X0149619Y0036463D01*
X0150416Y0037461D02*
X0155421Y0037461D01*
X0154850Y0038460D02*
X0150987Y0038460D01*
X0150987Y0039458D02*
X0154850Y0039458D01*
X0154850Y0040457D02*
X0150987Y0040457D01*
X0150987Y0041455D02*
X0154850Y0041455D01*
X0154850Y0042454D02*
X0150987Y0042454D01*
X0150809Y0043452D02*
X0155028Y0043452D01*
X0155125Y0044451D02*
X0150713Y0044451D01*
X0151772Y0045449D02*
X0154850Y0045449D01*
X0154850Y0046448D02*
X0152771Y0046448D01*
X0153769Y0047446D02*
X0154850Y0047446D01*
X0154850Y0048445D02*
X0154768Y0048445D01*
X0157919Y0047346D02*
X0159198Y0048626D01*
X0160987Y0048445D02*
X0164416Y0048445D01*
X0164850Y0047446D02*
X0160987Y0047446D01*
X0160987Y0046448D02*
X0164850Y0046448D01*
X0164850Y0045449D02*
X0160987Y0045449D01*
X0160713Y0044451D02*
X0165125Y0044451D01*
X0165494Y0043919D02*
X0164850Y0043275D01*
X0164850Y0038033D01*
X0165494Y0037388D01*
X0166219Y0037388D01*
X0166219Y0033098D01*
X0163819Y0030698D01*
X0163819Y0027302D01*
X0166220Y0024900D01*
X0169617Y0024900D01*
X0172019Y0027302D01*
X0172019Y0030698D01*
X0169619Y0033098D01*
X0169619Y0037388D01*
X0170343Y0037388D01*
X0170987Y0038033D01*
X0170987Y0043275D01*
X0170343Y0043919D01*
X0165494Y0043919D01*
X0165028Y0043452D02*
X0160809Y0043452D01*
X0160987Y0042454D02*
X0164850Y0042454D01*
X0164850Y0041455D02*
X0160987Y0041455D01*
X0160987Y0040457D02*
X0164850Y0040457D01*
X0164850Y0039458D02*
X0160987Y0039458D01*
X0160987Y0038460D02*
X0164850Y0038460D01*
X0165421Y0037461D02*
X0160416Y0037461D01*
X0159619Y0036463D02*
X0166219Y0036463D01*
X0166219Y0035464D02*
X0159619Y0035464D01*
X0159619Y0034466D02*
X0166219Y0034466D01*
X0166219Y0033467D02*
X0159619Y0033467D01*
X0160248Y0032469D02*
X0165589Y0032469D01*
X0164591Y0031470D02*
X0161247Y0031470D01*
X0162019Y0030472D02*
X0163819Y0030472D01*
X0163819Y0029473D02*
X0162019Y0029473D01*
X0162019Y0028475D02*
X0163819Y0028475D01*
X0163819Y0027476D02*
X0162019Y0027476D01*
X0161195Y0026478D02*
X0164643Y0026478D01*
X0165641Y0025479D02*
X0160196Y0025479D01*
X0160233Y0022484D02*
X0165604Y0022484D01*
X0166220Y0023100D02*
X0163819Y0020698D01*
X0163819Y0017302D01*
X0166220Y0014900D01*
X0169617Y0014900D01*
X0172019Y0017302D01*
X0172019Y0020698D01*
X0169617Y0023100D01*
X0166220Y0023100D01*
X0164605Y0021485D02*
X0161232Y0021485D01*
X0162019Y0020487D02*
X0163819Y0020487D01*
X0163819Y0019488D02*
X0162019Y0019488D01*
X0162019Y0018490D02*
X0163819Y0018490D01*
X0163819Y0017491D02*
X0162019Y0017491D01*
X0161209Y0016493D02*
X0164628Y0016493D01*
X0165626Y0015494D02*
X0160211Y0015494D01*
X0170211Y0015494D02*
X0175626Y0015494D01*
X0174628Y0016493D02*
X0171209Y0016493D01*
X0172019Y0017491D02*
X0173819Y0017491D01*
X0173819Y0018490D02*
X0172019Y0018490D01*
X0172019Y0019488D02*
X0173819Y0019488D01*
X0173819Y0020487D02*
X0172019Y0020487D01*
X0171232Y0021485D02*
X0174605Y0021485D01*
X0175604Y0022484D02*
X0170233Y0022484D01*
X0170196Y0025479D02*
X0175641Y0025479D01*
X0174643Y0026478D02*
X0171195Y0026478D01*
X0172019Y0027476D02*
X0173819Y0027476D01*
X0173819Y0028475D02*
X0172019Y0028475D01*
X0172019Y0029473D02*
X0173819Y0029473D01*
X0173819Y0030472D02*
X0172019Y0030472D01*
X0171247Y0031470D02*
X0174591Y0031470D01*
X0175589Y0032469D02*
X0170248Y0032469D01*
X0169619Y0033467D02*
X0176219Y0033467D01*
X0176219Y0034466D02*
X0169619Y0034466D01*
X0169619Y0035464D02*
X0176219Y0035464D01*
X0176219Y0036463D02*
X0169619Y0036463D01*
X0170416Y0037461D02*
X0175421Y0037461D01*
X0174850Y0038460D02*
X0170987Y0038460D01*
X0170987Y0039458D02*
X0174850Y0039458D01*
X0174850Y0040457D02*
X0170987Y0040457D01*
X0170987Y0041455D02*
X0174850Y0041455D01*
X0174850Y0042454D02*
X0170987Y0042454D01*
X0170809Y0043452D02*
X0175028Y0043452D01*
X0175125Y0044451D02*
X0170713Y0044451D01*
X0170987Y0045449D02*
X0174850Y0045449D01*
X0174850Y0046448D02*
X0170987Y0046448D01*
X0170987Y0047446D02*
X0174850Y0047446D01*
X0174416Y0048445D02*
X0170987Y0048445D01*
X0170987Y0049443D02*
X0173417Y0049443D01*
X0176229Y0051440D02*
X0182719Y0051440D01*
X0182719Y0050442D02*
X0180513Y0050442D01*
X0180987Y0049443D02*
X0182719Y0049443D01*
X0182719Y0048445D02*
X0180987Y0048445D01*
X0180987Y0047446D02*
X0182719Y0047446D01*
X0182719Y0046448D02*
X0180987Y0046448D01*
X0180987Y0045449D02*
X0182719Y0045449D01*
X0182719Y0044451D02*
X0180713Y0044451D01*
X0180809Y0043452D02*
X0182719Y0043452D01*
X0182719Y0042454D02*
X0180987Y0042454D01*
X0180987Y0041455D02*
X0182719Y0041455D01*
X0182719Y0040457D02*
X0180987Y0040457D01*
X0180987Y0039458D02*
X0182719Y0039458D01*
X0182719Y0038460D02*
X0180987Y0038460D01*
X0180416Y0037461D02*
X0182719Y0037461D01*
X0182719Y0036463D02*
X0179619Y0036463D01*
X0179619Y0035464D02*
X0182719Y0035464D01*
X0182719Y0034466D02*
X0179619Y0034466D01*
X0179619Y0033467D02*
X0182719Y0033467D01*
X0182719Y0032469D02*
X0180248Y0032469D01*
X0181247Y0031470D02*
X0183026Y0031470D01*
X0183819Y0030472D02*
X0182019Y0030472D01*
X0182019Y0029473D02*
X0183819Y0029473D01*
X0183819Y0028475D02*
X0182019Y0028475D01*
X0182019Y0027476D02*
X0183819Y0027476D01*
X0184643Y0026478D02*
X0181195Y0026478D01*
X0181232Y0021485D02*
X0184605Y0021485D01*
X0183819Y0020487D02*
X0182019Y0020487D01*
X0182019Y0019488D02*
X0183819Y0019488D01*
X0183819Y0018490D02*
X0182019Y0018490D01*
X0182019Y0017491D02*
X0183819Y0017491D01*
X0184628Y0016493D02*
X0181209Y0016493D01*
X0180211Y0015494D02*
X0185626Y0015494D01*
X0190211Y0015494D02*
X0211564Y0015494D01*
X0212171Y0015243D02*
X0213666Y0015243D01*
X0215047Y0015815D01*
X0216104Y0016872D01*
X0216676Y0018253D01*
X0216676Y0019747D01*
X0216104Y0021128D01*
X0215047Y0022185D01*
X0213666Y0022757D01*
X0213138Y0022757D01*
X0213138Y0030144D01*
X0213650Y0030144D01*
X0214294Y0030788D01*
X0214294Y0034038D01*
X0215788Y0035532D01*
X0216199Y0036524D01*
X0216199Y0045931D01*
X0216711Y0045931D01*
X0217355Y0046576D01*
X0217355Y0051424D01*
X0216711Y0052068D01*
X0210288Y0052068D01*
X0209643Y0051424D01*
X0209643Y0046576D01*
X0210288Y0045931D01*
X0210799Y0045931D01*
X0210799Y0038179D01*
X0210476Y0037856D01*
X0207227Y0037856D01*
X0206582Y0037212D01*
X0206582Y0030788D01*
X0207227Y0030144D01*
X0207738Y0030144D01*
X0207738Y0020943D01*
X0208149Y0019951D01*
X0209161Y0018939D01*
X0209161Y0018253D01*
X0209733Y0016872D01*
X0210790Y0015815D01*
X0212171Y0015243D01*
X0214273Y0015494D02*
X0221564Y0015494D01*
X0220112Y0016493D02*
X0215725Y0016493D01*
X0216361Y0017491D02*
X0219477Y0017491D01*
X0219161Y0018490D02*
X0216676Y0018490D01*
X0216676Y0019488D02*
X0219161Y0019488D01*
X0219467Y0020487D02*
X0216370Y0020487D01*
X0215747Y0021485D02*
X0220090Y0021485D01*
X0221510Y0022484D02*
X0214327Y0022484D01*
X0213138Y0023482D02*
X0222699Y0023482D01*
X0222699Y0024481D02*
X0213138Y0024481D01*
X0213138Y0025479D02*
X0222699Y0025479D01*
X0222699Y0026478D02*
X0213138Y0026478D01*
X0213138Y0027476D02*
X0222699Y0027476D01*
X0222699Y0028475D02*
X0213138Y0028475D01*
X0213138Y0029473D02*
X0222699Y0029473D01*
X0221860Y0030472D02*
X0213977Y0030472D01*
X0214294Y0031470D02*
X0221543Y0031470D01*
X0221543Y0032469D02*
X0214294Y0032469D01*
X0214294Y0033467D02*
X0221543Y0033467D01*
X0221543Y0034466D02*
X0214722Y0034466D01*
X0215721Y0035464D02*
X0221543Y0035464D01*
X0221543Y0036463D02*
X0216174Y0036463D01*
X0216199Y0037461D02*
X0221793Y0037461D01*
X0223323Y0039458D02*
X0216199Y0039458D01*
X0216199Y0038460D02*
X0224321Y0038460D01*
X0225059Y0039984D02*
X0222919Y0042125D01*
X0221334Y0040457D02*
X0216199Y0040457D01*
X0216199Y0041455D02*
X0220619Y0041455D01*
X0220619Y0042454D02*
X0216199Y0042454D01*
X0216199Y0043452D02*
X0220993Y0043452D01*
X0224369Y0044451D02*
X0216199Y0044451D01*
X0216199Y0045449D02*
X0224865Y0045449D01*
X0225372Y0047446D02*
X0217355Y0047446D01*
X0217355Y0048445D02*
X0224375Y0048445D01*
X0223376Y0049443D02*
X0217355Y0049443D01*
X0217355Y0050442D02*
X0222378Y0050442D01*
X0218942Y0051440D02*
X0217339Y0051440D01*
X0216227Y0052439D02*
X0208694Y0052439D01*
X0208694Y0053437D02*
X0215228Y0053437D01*
X0214230Y0054436D02*
X0208694Y0054436D01*
X0208694Y0055164D02*
X0208049Y0055809D01*
X0203373Y0055809D01*
X0202019Y0057163D01*
X0201081Y0058100D01*
X0199737Y0058100D01*
X0199737Y0058275D01*
X0199093Y0058919D01*
X0195504Y0058919D01*
X0195666Y0059081D01*
X0199093Y0059081D01*
X0199737Y0059725D01*
X0199737Y0064967D01*
X0199093Y0065612D01*
X0194244Y0065612D01*
X0193600Y0064967D01*
X0193600Y0061541D01*
X0190069Y0058009D01*
X0190069Y0053153D01*
X0189369Y0052453D01*
X0189369Y0050547D01*
X0190716Y0049200D01*
X0192621Y0049200D01*
X0193969Y0050547D01*
X0193969Y0052453D01*
X0193269Y0053153D01*
X0193269Y0056684D01*
X0193600Y0057015D01*
X0193600Y0053033D01*
X0194244Y0052388D01*
X0195915Y0052388D01*
X0195915Y0050612D01*
X0194244Y0050612D01*
X0193600Y0049967D01*
X0193600Y0044725D01*
X0194113Y0044212D01*
X0193779Y0044019D01*
X0193500Y0043740D01*
X0193302Y0043398D01*
X0193200Y0043016D01*
X0193200Y0041138D01*
X0196184Y0041138D01*
X0196184Y0040169D01*
X0193200Y0040169D01*
X0193200Y0038291D01*
X0193302Y0037909D01*
X0193500Y0037567D01*
X0193779Y0037288D01*
X0194121Y0037090D01*
X0194503Y0036988D01*
X0196184Y0036988D01*
X0196184Y0040169D01*
X0197153Y0040169D01*
X0197153Y0036988D01*
X0198835Y0036988D01*
X0199216Y0037090D01*
X0199558Y0037288D01*
X0199837Y0037567D01*
X0200035Y0037909D01*
X0200137Y0038291D01*
X0200137Y0040169D01*
X0197153Y0040169D01*
X0197153Y0041138D01*
X0200137Y0041138D01*
X0200137Y0043016D01*
X0200035Y0043398D01*
X0199837Y0043740D01*
X0199558Y0044019D01*
X0199224Y0044212D01*
X0199737Y0044725D01*
X0199737Y0049967D01*
X0199115Y0050589D01*
X0199115Y0052410D01*
X0199737Y0053033D01*
X0199737Y0054900D01*
X0199756Y0054900D01*
X0200982Y0053674D01*
X0200982Y0050316D01*
X0201626Y0049672D01*
X0208049Y0049672D01*
X0208694Y0050316D01*
X0208694Y0055164D01*
X0208424Y0055434D02*
X0213231Y0055434D01*
X0213119Y0056433D02*
X0202748Y0056433D01*
X0201750Y0057432D02*
X0213119Y0057432D01*
X0213119Y0058430D02*
X0199582Y0058430D01*
X0199440Y0059429D02*
X0213119Y0059429D01*
X0213119Y0060427D02*
X0199737Y0060427D01*
X0199737Y0061426D02*
X0213119Y0061426D01*
X0213119Y0062424D02*
X0199737Y0062424D01*
X0199737Y0063423D02*
X0212743Y0063423D01*
X0211745Y0064421D02*
X0199737Y0064421D01*
X0199285Y0065420D02*
X0210746Y0065420D01*
X0209748Y0066418D02*
X0188119Y0066418D01*
X0188119Y0065420D02*
X0194052Y0065420D01*
X0193600Y0064421D02*
X0188119Y0064421D01*
X0188119Y0063423D02*
X0193600Y0063423D01*
X0193600Y0062424D02*
X0188119Y0062424D01*
X0188119Y0061426D02*
X0193485Y0061426D01*
X0192486Y0060427D02*
X0188119Y0060427D01*
X0188119Y0059429D02*
X0191488Y0059429D01*
X0190489Y0058430D02*
X0188119Y0058430D01*
X0188119Y0057432D02*
X0190069Y0057432D01*
X0190069Y0056433D02*
X0188119Y0056433D01*
X0188119Y0055434D02*
X0190069Y0055434D01*
X0190069Y0054436D02*
X0188119Y0054436D01*
X0188119Y0053437D02*
X0190069Y0053437D01*
X0189369Y0052439D02*
X0188119Y0052439D01*
X0188119Y0051440D02*
X0189369Y0051440D01*
X0189474Y0050442D02*
X0188119Y0050442D01*
X0188119Y0049443D02*
X0190472Y0049443D01*
X0191669Y0051500D02*
X0191669Y0057346D01*
X0196669Y0062346D01*
X0197515Y0056500D02*
X0196669Y0055654D01*
X0197515Y0054807D01*
X0197515Y0048193D01*
X0196669Y0047346D01*
X0199737Y0047446D02*
X0200588Y0047446D01*
X0200582Y0047426D02*
X0200582Y0045744D01*
X0204354Y0045744D01*
X0204354Y0048728D01*
X0201884Y0048728D01*
X0201503Y0048626D01*
X0201161Y0048429D01*
X0200882Y0048149D01*
X0200684Y0047807D01*
X0200582Y0047426D01*
X0200582Y0046448D02*
X0199737Y0046448D01*
X0199737Y0045449D02*
X0204354Y0045449D01*
X0204354Y0045744D02*
X0204354Y0044776D01*
X0205322Y0044776D01*
X0205322Y0045744D01*
X0204354Y0045744D01*
X0204354Y0046448D02*
X0205322Y0046448D01*
X0205322Y0045744D02*
X0205322Y0048728D01*
X0207791Y0048728D01*
X0208173Y0048626D01*
X0208515Y0048429D01*
X0208794Y0048149D01*
X0208992Y0047807D01*
X0209094Y0047426D01*
X0209094Y0045744D01*
X0205322Y0045744D01*
X0205322Y0045449D02*
X0210799Y0045449D01*
X0210799Y0044451D02*
X0209094Y0044451D01*
X0209094Y0044776D02*
X0209094Y0043094D01*
X0208992Y0042712D01*
X0208794Y0042370D01*
X0208515Y0042091D01*
X0208173Y0041894D01*
X0207791Y0041791D01*
X0205322Y0041791D01*
X0205322Y0044776D01*
X0209094Y0044776D01*
X0209094Y0043452D02*
X0210799Y0043452D01*
X0210799Y0042454D02*
X0208842Y0042454D01*
X0210799Y0041455D02*
X0200137Y0041455D01*
X0200137Y0042454D02*
X0200833Y0042454D01*
X0200882Y0042370D02*
X0201161Y0042091D01*
X0201503Y0041894D01*
X0201884Y0041791D01*
X0204354Y0041791D01*
X0204354Y0044776D01*
X0200582Y0044776D01*
X0200582Y0043094D01*
X0200684Y0042712D01*
X0200882Y0042370D01*
X0200582Y0043452D02*
X0200003Y0043452D01*
X0199462Y0044451D02*
X0200582Y0044451D01*
X0204354Y0044451D02*
X0205322Y0044451D01*
X0205322Y0043452D02*
X0204354Y0043452D01*
X0204354Y0042454D02*
X0205322Y0042454D01*
X0206832Y0037461D02*
X0199732Y0037461D01*
X0200137Y0038460D02*
X0210799Y0038460D01*
X0210799Y0039458D02*
X0200137Y0039458D01*
X0197153Y0039458D02*
X0196184Y0039458D01*
X0196184Y0038460D02*
X0197153Y0038460D01*
X0197153Y0037461D02*
X0196184Y0037461D01*
X0193606Y0037461D02*
X0188119Y0037461D01*
X0188119Y0036463D02*
X0206582Y0036463D01*
X0206582Y0035464D02*
X0188119Y0035464D01*
X0188119Y0034466D02*
X0206582Y0034466D01*
X0206582Y0033467D02*
X0188520Y0033467D01*
X0190248Y0032469D02*
X0206582Y0032469D01*
X0206582Y0031470D02*
X0191247Y0031470D01*
X0192019Y0030472D02*
X0206899Y0030472D01*
X0207738Y0029473D02*
X0192019Y0029473D01*
X0192019Y0028475D02*
X0207738Y0028475D01*
X0207738Y0027476D02*
X0192019Y0027476D01*
X0191195Y0026478D02*
X0207738Y0026478D01*
X0207738Y0025479D02*
X0190619Y0025479D01*
X0190619Y0024481D02*
X0207738Y0024481D01*
X0207738Y0023482D02*
X0190619Y0023482D01*
X0190619Y0022484D02*
X0207738Y0022484D01*
X0207738Y0021485D02*
X0191232Y0021485D01*
X0192019Y0020487D02*
X0207927Y0020487D01*
X0208612Y0019488D02*
X0192019Y0019488D01*
X0192019Y0018490D02*
X0209161Y0018490D01*
X0209477Y0017491D02*
X0192019Y0017491D01*
X0191209Y0016493D02*
X0210112Y0016493D01*
X0222919Y0019000D02*
X0225399Y0021480D01*
X0228099Y0023482D02*
X0233560Y0023482D01*
X0234558Y0024481D02*
X0228099Y0024481D01*
X0228099Y0025479D02*
X0235557Y0025479D01*
X0236555Y0026478D02*
X0228099Y0026478D01*
X0228099Y0027476D02*
X0237554Y0027476D01*
X0238552Y0028475D02*
X0228099Y0028475D01*
X0228099Y0029473D02*
X0239551Y0029473D01*
X0240549Y0030472D02*
X0228938Y0030472D01*
X0229255Y0031470D02*
X0241548Y0031470D01*
X0241819Y0032469D02*
X0229255Y0032469D01*
X0229255Y0033467D02*
X0241819Y0033467D01*
X0241326Y0034466D02*
X0229255Y0034466D01*
X0229255Y0035464D02*
X0240328Y0035464D01*
X0241344Y0037425D02*
X0245419Y0039000D01*
X0250970Y0036463D02*
X0260962Y0036463D01*
X0260962Y0037461D02*
X0251384Y0037461D01*
X0251519Y0038460D02*
X0260962Y0038460D01*
X0260962Y0039458D02*
X0251519Y0039458D01*
X0251519Y0040457D02*
X0260962Y0040457D01*
X0260617Y0041455D02*
X0251519Y0041455D01*
X0251519Y0042454D02*
X0260562Y0042454D01*
X0260562Y0042543D02*
X0262919Y0042543D01*
X0262919Y0042543D01*
X0260562Y0042543D01*
X0260569Y0043452D02*
X0251519Y0043452D01*
X0251519Y0044451D02*
X0260562Y0044451D01*
X0260562Y0045102D02*
X0262919Y0045102D01*
X0262919Y0045102D01*
X0260562Y0045102D01*
X0260562Y0045449D02*
X0251519Y0045449D01*
X0251519Y0046448D02*
X0260712Y0046448D01*
X0260962Y0047446D02*
X0251519Y0047446D01*
X0251519Y0048445D02*
X0260962Y0048445D01*
X0260962Y0049443D02*
X0251519Y0049443D01*
X0251519Y0050442D02*
X0260962Y0050442D01*
X0261042Y0051440D02*
X0251519Y0051440D01*
X0251519Y0052439D02*
X0260962Y0052439D01*
X0260962Y0053437D02*
X0251519Y0053437D01*
X0251519Y0054436D02*
X0260962Y0054436D01*
X0260962Y0055434D02*
X0251519Y0055434D01*
X0251519Y0056433D02*
X0260780Y0056433D01*
X0260562Y0057432D02*
X0251519Y0057432D01*
X0251519Y0058430D02*
X0260562Y0058430D01*
X0260601Y0059429D02*
X0251519Y0059429D01*
X0251519Y0060427D02*
X0260562Y0060427D01*
X0260585Y0061426D02*
X0251519Y0061426D01*
X0251519Y0062424D02*
X0260962Y0062424D01*
X0260962Y0063423D02*
X0251519Y0063423D01*
X0251519Y0064421D02*
X0260975Y0064421D01*
X0260962Y0065420D02*
X0251519Y0065420D01*
X0251519Y0066418D02*
X0260962Y0066418D01*
X0261319Y0067417D02*
X0251519Y0067417D01*
X0251519Y0068415D02*
X0261319Y0068415D01*
X0261319Y0069414D02*
X0251519Y0069414D01*
X0251519Y0070412D02*
X0261319Y0070412D01*
X0261319Y0071411D02*
X0251519Y0071411D01*
X0251519Y0072409D02*
X0261319Y0072409D01*
X0261319Y0073408D02*
X0251519Y0073408D01*
X0251519Y0074406D02*
X0261319Y0074406D01*
X0261319Y0075405D02*
X0251519Y0075405D01*
X0251519Y0076403D02*
X0261809Y0076403D01*
X0262919Y0077402D02*
X0251519Y0077402D01*
X0251519Y0078400D02*
X0262919Y0078400D01*
X0262919Y0079399D02*
X0251519Y0079399D01*
X0251519Y0080397D02*
X0262919Y0080397D01*
X0262919Y0081396D02*
X0251519Y0081396D01*
X0251519Y0082394D02*
X0262919Y0082394D01*
X0262919Y0083393D02*
X0251519Y0083393D01*
X0251519Y0084391D02*
X0262919Y0084391D01*
X0262919Y0085390D02*
X0251519Y0085390D01*
X0251519Y0086388D02*
X0262018Y0086388D01*
X0261319Y0087387D02*
X0251519Y0087387D01*
X0251519Y0088385D02*
X0261319Y0088385D01*
X0261319Y0089384D02*
X0251519Y0089384D01*
X0251519Y0090382D02*
X0261319Y0090382D01*
X0261319Y0091381D02*
X0251519Y0091381D01*
X0251519Y0092379D02*
X0261319Y0092379D01*
X0261319Y0093378D02*
X0251519Y0093378D01*
X0251519Y0094376D02*
X0261319Y0094376D01*
X0261319Y0095375D02*
X0251519Y0095375D01*
X0251519Y0096373D02*
X0260962Y0096373D01*
X0260962Y0097372D02*
X0251519Y0097372D01*
X0251519Y0098370D02*
X0260962Y0098370D01*
X0260962Y0099369D02*
X0251519Y0099369D01*
X0251519Y0100368D02*
X0260962Y0100368D01*
X0260641Y0101366D02*
X0251519Y0101366D01*
X0251519Y0102365D02*
X0260562Y0102365D01*
X0260562Y0102543D02*
X0262919Y0102543D01*
X0262919Y0102543D01*
X0260562Y0102543D01*
X0260562Y0103363D02*
X0251519Y0103363D01*
X0251519Y0104362D02*
X0260562Y0104362D01*
X0260562Y0105102D02*
X0262919Y0105102D01*
X0262919Y0105102D01*
X0260562Y0105102D01*
X0260562Y0105360D02*
X0251519Y0105360D01*
X0251519Y0106359D02*
X0260662Y0106359D01*
X0260962Y0107357D02*
X0251519Y0107357D01*
X0251519Y0108356D02*
X0260962Y0108356D01*
X0260962Y0109354D02*
X0251519Y0109354D01*
X0251519Y0110353D02*
X0260962Y0110353D01*
X0260962Y0111351D02*
X0251519Y0111351D01*
X0251519Y0112350D02*
X0260962Y0112350D01*
X0260962Y0113348D02*
X0251519Y0113348D01*
X0251519Y0114347D02*
X0260962Y0114347D01*
X0260962Y0115345D02*
X0251519Y0115345D01*
X0251519Y0116344D02*
X0260832Y0116344D01*
X0260562Y0117342D02*
X0251519Y0117342D01*
X0251519Y0118341D02*
X0260562Y0118341D01*
X0260625Y0119339D02*
X0251519Y0119339D01*
X0251519Y0120338D02*
X0260562Y0120338D01*
X0260562Y0121336D02*
X0251519Y0121336D01*
X0251519Y0122335D02*
X0260962Y0122335D01*
X0260962Y0123333D02*
X0251519Y0123333D01*
X0251519Y0124332D02*
X0261065Y0124332D01*
X0260962Y0125330D02*
X0251519Y0125330D01*
X0251519Y0126329D02*
X0260962Y0126329D01*
X0261319Y0127327D02*
X0251519Y0127327D01*
X0251519Y0128326D02*
X0261319Y0128326D01*
X0261319Y0129324D02*
X0251519Y0129324D01*
X0251519Y0130323D02*
X0261319Y0130323D01*
X0261319Y0131321D02*
X0252019Y0131321D01*
X0252019Y0132320D02*
X0261319Y0132320D01*
X0261319Y0133318D02*
X0252019Y0133318D01*
X0252019Y0134317D02*
X0261319Y0134317D01*
X0261319Y0135315D02*
X0252019Y0135315D01*
X0252019Y0136314D02*
X0261720Y0136314D01*
X0262919Y0135250D02*
X0285419Y0135250D01*
X0285419Y0123100D01*
X0268506Y0123100D01*
X0268156Y0122750D01*
X0262919Y0122750D01*
X0262919Y0135250D01*
X0262919Y0134317D02*
X0285419Y0134317D01*
X0285419Y0133318D02*
X0262919Y0133318D01*
X0262919Y0132320D02*
X0285419Y0132320D01*
X0285419Y0131321D02*
X0262919Y0131321D01*
X0262919Y0130323D02*
X0285419Y0130323D01*
X0285419Y0129324D02*
X0262919Y0129324D01*
X0262919Y0128326D02*
X0285419Y0128326D01*
X0285419Y0127327D02*
X0262919Y0127327D01*
X0262919Y0126329D02*
X0285419Y0126329D01*
X0285419Y0125330D02*
X0262919Y0125330D01*
X0262919Y0124332D02*
X0285419Y0124332D01*
X0285419Y0123333D02*
X0262919Y0123333D01*
X0264812Y0123016D02*
X0264812Y0125575D01*
X0279493Y0125575D01*
X0280419Y0126500D01*
X0285419Y0121500D02*
X0285419Y0112750D01*
X0262919Y0112750D01*
X0262919Y0115250D01*
X0269169Y0115250D01*
X0269169Y0121500D01*
X0285419Y0121500D01*
X0285419Y0121336D02*
X0269169Y0121336D01*
X0269169Y0120338D02*
X0285419Y0120338D01*
X0285419Y0119339D02*
X0269169Y0119339D01*
X0269169Y0118341D02*
X0285419Y0118341D01*
X0285419Y0117342D02*
X0269169Y0117342D01*
X0269169Y0116344D02*
X0285419Y0116344D01*
X0285419Y0115345D02*
X0269169Y0115345D01*
X0266669Y0117750D02*
X0257919Y0117750D01*
X0257919Y0120250D01*
X0266669Y0120250D01*
X0266669Y0117750D01*
X0266669Y0118341D02*
X0257919Y0118341D01*
X0257919Y0119339D02*
X0266669Y0119339D01*
X0264812Y0115339D02*
X0264812Y0112780D01*
X0262919Y0113348D02*
X0285419Y0113348D01*
X0285419Y0114347D02*
X0262919Y0114347D01*
X0264812Y0115339D02*
X0279257Y0115339D01*
X0280419Y0116500D01*
X0285419Y0110250D02*
X0285419Y0101500D01*
X0269169Y0101500D01*
X0269169Y0107750D01*
X0262919Y0107750D01*
X0262919Y0110250D01*
X0285419Y0110250D01*
X0285419Y0109354D02*
X0262919Y0109354D01*
X0262919Y0108356D02*
X0285419Y0108356D01*
X0285419Y0107357D02*
X0269169Y0107357D01*
X0269169Y0106359D02*
X0285419Y0106359D01*
X0285419Y0105360D02*
X0269169Y0105360D01*
X0269169Y0104362D02*
X0285419Y0104362D01*
X0285419Y0103363D02*
X0269169Y0103363D01*
X0269169Y0102365D02*
X0285419Y0102365D01*
X0285419Y0099900D02*
X0285419Y0087750D01*
X0262919Y0087750D01*
X0262919Y0100250D01*
X0268156Y0100250D01*
X0268506Y0099900D01*
X0285419Y0099900D01*
X0285419Y0099369D02*
X0262919Y0099369D01*
X0262919Y0098370D02*
X0285419Y0098370D01*
X0285419Y0097372D02*
X0262919Y0097372D01*
X0262919Y0096373D02*
X0285419Y0096373D01*
X0285419Y0095375D02*
X0262919Y0095375D01*
X0262919Y0094376D02*
X0285419Y0094376D01*
X0285419Y0093378D02*
X0262919Y0093378D01*
X0262919Y0092379D02*
X0285419Y0092379D01*
X0285419Y0091381D02*
X0262919Y0091381D01*
X0262919Y0090382D02*
X0285419Y0090382D01*
X0285419Y0089384D02*
X0262919Y0089384D01*
X0262919Y0088385D02*
X0285419Y0088385D01*
X0280419Y0096500D02*
X0279493Y0097425D01*
X0264812Y0097425D01*
X0264812Y0099984D01*
X0266669Y0102750D02*
X0257919Y0102750D01*
X0257919Y0105250D01*
X0266669Y0105250D01*
X0266669Y0102750D01*
X0266669Y0103363D02*
X0257919Y0103363D01*
X0257919Y0104362D02*
X0266669Y0104362D01*
X0264812Y0107661D02*
X0264812Y0110220D01*
X0264812Y0107661D02*
X0279257Y0107661D01*
X0280419Y0106500D01*
X0250419Y0131500D02*
X0241669Y0131500D01*
X0225419Y0147750D01*
X0225419Y0169000D01*
X0255419Y0199000D01*
X0277919Y0199000D01*
X0279092Y0198908D01*
X0281324Y0198183D01*
X0283222Y0196803D01*
X0284601Y0194905D01*
X0285326Y0192673D01*
X0285419Y0191500D01*
X0285419Y0171500D01*
X0257919Y0171500D01*
X0252919Y0166500D01*
X0240419Y0166500D01*
X0237919Y0164000D01*
X0237919Y0149000D01*
X0250419Y0136500D01*
X0250419Y0131500D01*
X0250419Y0132320D02*
X0240849Y0132320D01*
X0239850Y0133318D02*
X0250419Y0133318D01*
X0250419Y0134317D02*
X0238852Y0134317D01*
X0237853Y0135315D02*
X0250419Y0135315D01*
X0250419Y0136314D02*
X0236855Y0136314D01*
X0235856Y0137312D02*
X0249606Y0137312D01*
X0248608Y0138311D02*
X0234858Y0138311D01*
X0233859Y0139309D02*
X0247609Y0139309D01*
X0246611Y0140308D02*
X0232861Y0140308D01*
X0231862Y0141306D02*
X0245612Y0141306D01*
X0244614Y0142305D02*
X0230864Y0142305D01*
X0229865Y0143303D02*
X0243615Y0143303D01*
X0242617Y0144302D02*
X0228867Y0144302D01*
X0227868Y0145301D02*
X0241618Y0145301D01*
X0240620Y0146299D02*
X0226870Y0146299D01*
X0227019Y0147400D02*
X0242919Y0137750D01*
X0245419Y0132750D01*
X0241993Y0125575D01*
X0236025Y0125575D01*
X0236025Y0123016D01*
X0234169Y0122750D02*
X0234169Y0125250D01*
X0241669Y0125250D01*
X0241669Y0122750D01*
X0234169Y0122750D01*
X0234169Y0123333D02*
X0241669Y0123333D01*
X0241669Y0124332D02*
X0234169Y0124332D01*
X0232314Y0124295D02*
X0232175Y0124156D01*
X0232175Y0122057D01*
X0232125Y0122057D01*
X0230219Y0123963D01*
X0230219Y0124953D01*
X0228871Y0126300D01*
X0226966Y0126300D01*
X0225619Y0124953D01*
X0225619Y0123047D01*
X0226966Y0121700D01*
X0227956Y0121700D01*
X0228356Y0121300D01*
X0226966Y0121300D01*
X0225619Y0119953D01*
X0225619Y0118303D01*
X0225121Y0118800D01*
X0223216Y0118800D01*
X0221869Y0117453D01*
X0221869Y0115547D01*
X0223216Y0114200D01*
X0224206Y0114200D01*
X0224667Y0113739D01*
X0231795Y0113739D01*
X0231775Y0113662D01*
X0231775Y0112780D01*
X0236025Y0112780D01*
X0236025Y0112779D01*
X0231775Y0112779D01*
X0231775Y0111897D01*
X0231877Y0111516D01*
X0232002Y0111300D01*
X0220987Y0111300D01*
X0220987Y0112025D01*
X0220474Y0112538D01*
X0220808Y0112731D01*
X0221087Y0113010D01*
X0221285Y0113352D01*
X0221387Y0113734D01*
X0221387Y0115612D01*
X0218403Y0115612D01*
X0218403Y0116581D01*
X0217434Y0116581D01*
X0217434Y0115612D01*
X0214450Y0115612D01*
X0214450Y0113734D01*
X0214552Y0113352D01*
X0214750Y0113010D01*
X0215029Y0112731D01*
X0215363Y0112538D01*
X0214850Y0112025D01*
X0214850Y0111704D01*
X0208519Y0111704D01*
X0208519Y0115883D01*
X0208519Y0136466D01*
X0219675Y0147622D01*
X0220547Y0148494D01*
X0221019Y0149633D01*
X0221019Y0159044D01*
X0221419Y0159444D01*
X0221419Y0169156D01*
X0221019Y0169556D01*
X0221019Y0169900D01*
X0224056Y0169900D01*
X0223819Y0169663D01*
X0223819Y0169456D01*
X0223519Y0169156D01*
X0223519Y0159444D01*
X0223819Y0159144D01*
X0223819Y0147087D01*
X0224756Y0146150D01*
X0239319Y0131587D01*
X0239319Y0127272D01*
X0239231Y0127360D01*
X0238325Y0127360D01*
X0238325Y0127693D01*
X0234530Y0131487D01*
X0234530Y0133924D01*
X0233886Y0134568D01*
X0228644Y0134568D01*
X0228131Y0134055D01*
X0227938Y0134390D01*
X0227659Y0134669D01*
X0227316Y0134866D01*
X0226935Y0134968D01*
X0225056Y0134968D01*
X0225056Y0131984D01*
X0224088Y0131984D01*
X0224088Y0131016D01*
X0220907Y0131016D01*
X0220907Y0129334D01*
X0221009Y0128953D01*
X0221206Y0128610D01*
X0221486Y0128331D01*
X0221828Y0128134D01*
X0222209Y0128031D01*
X0224088Y0128031D01*
X0224088Y0131016D01*
X0225056Y0131016D01*
X0225056Y0128031D01*
X0226935Y0128031D01*
X0227316Y0128134D01*
X0227659Y0128331D01*
X0227938Y0128610D01*
X0228131Y0128945D01*
X0228644Y0128431D01*
X0231081Y0128431D01*
X0232486Y0127026D01*
X0232175Y0126715D01*
X0232175Y0124434D01*
X0232314Y0124295D01*
X0232277Y0124332D02*
X0230219Y0124332D01*
X0229841Y0125330D02*
X0232175Y0125330D01*
X0232175Y0126329D02*
X0208519Y0126329D01*
X0208519Y0127327D02*
X0232185Y0127327D01*
X0231187Y0128326D02*
X0227649Y0128326D01*
X0225056Y0128326D02*
X0224088Y0128326D01*
X0224088Y0129324D02*
X0225056Y0129324D01*
X0225056Y0130323D02*
X0224088Y0130323D01*
X0224088Y0131321D02*
X0208519Y0131321D01*
X0208519Y0130323D02*
X0220907Y0130323D01*
X0220909Y0129324D02*
X0208519Y0129324D01*
X0208519Y0128326D02*
X0221495Y0128326D01*
X0220907Y0131984D02*
X0224088Y0131984D01*
X0224088Y0134968D01*
X0222209Y0134968D01*
X0221828Y0134866D01*
X0221486Y0134669D01*
X0221206Y0134390D01*
X0221009Y0134047D01*
X0220907Y0133666D01*
X0220907Y0131984D01*
X0220907Y0132320D02*
X0208519Y0132320D01*
X0208519Y0133318D02*
X0220907Y0133318D01*
X0221165Y0134317D02*
X0208519Y0134317D01*
X0208519Y0135315D02*
X0235590Y0135315D01*
X0234592Y0136314D02*
X0208519Y0136314D01*
X0209365Y0137312D02*
X0233593Y0137312D01*
X0232595Y0138311D02*
X0210364Y0138311D01*
X0211362Y0139309D02*
X0231596Y0139309D01*
X0230598Y0140308D02*
X0212361Y0140308D01*
X0213359Y0141306D02*
X0229599Y0141306D01*
X0228601Y0142305D02*
X0214358Y0142305D01*
X0215356Y0143303D02*
X0227602Y0143303D01*
X0226604Y0144302D02*
X0216355Y0144302D01*
X0217353Y0145301D02*
X0225605Y0145301D01*
X0224607Y0146299D02*
X0218352Y0146299D01*
X0219350Y0147298D02*
X0223819Y0147298D01*
X0223819Y0148296D02*
X0220349Y0148296D01*
X0220878Y0149295D02*
X0223819Y0149295D01*
X0223819Y0150293D02*
X0221019Y0150293D01*
X0221019Y0151292D02*
X0223819Y0151292D01*
X0223819Y0152290D02*
X0221019Y0152290D01*
X0221019Y0153289D02*
X0223819Y0153289D01*
X0223819Y0154287D02*
X0221019Y0154287D01*
X0221019Y0155286D02*
X0223819Y0155286D01*
X0223819Y0156284D02*
X0221019Y0156284D01*
X0221019Y0157283D02*
X0223819Y0157283D01*
X0223819Y0158281D02*
X0221019Y0158281D01*
X0221254Y0159280D02*
X0223683Y0159280D01*
X0223519Y0160278D02*
X0221419Y0160278D01*
X0221419Y0161277D02*
X0223519Y0161277D01*
X0223519Y0162275D02*
X0221419Y0162275D01*
X0221419Y0163274D02*
X0223519Y0163274D01*
X0223519Y0164272D02*
X0221419Y0164272D01*
X0221419Y0165271D02*
X0223519Y0165271D01*
X0223519Y0166269D02*
X0221419Y0166269D01*
X0221419Y0167268D02*
X0223519Y0167268D01*
X0223519Y0168266D02*
X0221419Y0168266D01*
X0221309Y0169265D02*
X0223628Y0169265D01*
X0225419Y0168266D02*
X0254685Y0168266D01*
X0253686Y0167268D02*
X0225419Y0167268D01*
X0225419Y0166269D02*
X0240188Y0166269D01*
X0239189Y0165271D02*
X0225419Y0165271D01*
X0225419Y0164272D02*
X0238191Y0164272D01*
X0237919Y0163274D02*
X0225419Y0163274D01*
X0225419Y0162275D02*
X0237919Y0162275D01*
X0237919Y0161277D02*
X0225419Y0161277D01*
X0225419Y0160278D02*
X0237919Y0160278D01*
X0237919Y0159280D02*
X0225419Y0159280D01*
X0225419Y0158281D02*
X0237919Y0158281D01*
X0237919Y0157283D02*
X0225419Y0157283D01*
X0225419Y0156284D02*
X0237919Y0156284D01*
X0237919Y0155286D02*
X0225419Y0155286D01*
X0225419Y0154287D02*
X0237919Y0154287D01*
X0237919Y0153289D02*
X0225419Y0153289D01*
X0225419Y0152290D02*
X0237919Y0152290D01*
X0237919Y0151292D02*
X0225419Y0151292D01*
X0225419Y0150293D02*
X0237919Y0150293D01*
X0237919Y0149295D02*
X0225419Y0149295D01*
X0225419Y0148296D02*
X0238623Y0148296D01*
X0239621Y0147298D02*
X0225871Y0147298D01*
X0227019Y0147400D02*
X0227019Y0164300D01*
X0227019Y0165600D01*
X0225683Y0169265D02*
X0255683Y0169265D01*
X0256682Y0170263D02*
X0226682Y0170263D01*
X0227680Y0171262D02*
X0257680Y0171262D01*
X0257946Y0169265D02*
X0285419Y0169265D01*
X0285419Y0168266D02*
X0256948Y0168266D01*
X0255949Y0167268D02*
X0285419Y0167268D01*
X0285419Y0166269D02*
X0254951Y0166269D01*
X0253952Y0165271D02*
X0278661Y0165271D01*
X0278823Y0165353D02*
X0278240Y0165056D01*
X0277710Y0164671D01*
X0277247Y0164208D01*
X0276863Y0163679D01*
X0276566Y0163096D01*
X0276363Y0162474D01*
X0276270Y0161886D01*
X0280033Y0161886D01*
X0280033Y0165648D01*
X0279445Y0165555D01*
X0278823Y0165353D01*
X0280033Y0165271D02*
X0280804Y0165271D01*
X0280804Y0165648D02*
X0280804Y0161886D01*
X0280033Y0161886D01*
X0280033Y0161114D01*
X0280804Y0161114D01*
X0280804Y0157352D01*
X0281392Y0157445D01*
X0282015Y0157647D01*
X0282598Y0157944D01*
X0283127Y0158329D01*
X0283590Y0158792D01*
X0283974Y0159321D01*
X0284271Y0159904D01*
X0284474Y0160526D01*
X0284567Y0161114D01*
X0280805Y0161114D01*
X0280805Y0161886D01*
X0284567Y0161886D01*
X0284474Y0162474D01*
X0284271Y0163096D01*
X0283974Y0163679D01*
X0283590Y0164208D01*
X0283127Y0164671D01*
X0282598Y0165056D01*
X0282015Y0165353D01*
X0281392Y0165555D01*
X0280804Y0165648D01*
X0280804Y0164272D02*
X0280033Y0164272D01*
X0280033Y0163274D02*
X0280804Y0163274D01*
X0280804Y0162275D02*
X0280033Y0162275D01*
X0280033Y0161277D02*
X0250992Y0161277D01*
X0251087Y0161181D02*
X0250808Y0161460D01*
X0250466Y0161658D01*
X0250085Y0161760D01*
X0248403Y0161760D01*
X0248403Y0155232D01*
X0251387Y0155232D01*
X0251387Y0160457D01*
X0251285Y0160839D01*
X0251087Y0161181D01*
X0251387Y0160278D02*
X0276444Y0160278D01*
X0276363Y0160526D02*
X0276566Y0159904D01*
X0276863Y0159321D01*
X0277247Y0158792D01*
X0277710Y0158329D01*
X0278240Y0157944D01*
X0278823Y0157647D01*
X0279445Y0157445D01*
X0280033Y0157352D01*
X0280033Y0161114D01*
X0276270Y0161114D01*
X0276363Y0160526D01*
X0276893Y0159280D02*
X0251387Y0159280D01*
X0251387Y0158281D02*
X0277776Y0158281D01*
X0280033Y0158281D02*
X0280804Y0158281D01*
X0280804Y0159280D02*
X0280033Y0159280D01*
X0280033Y0160278D02*
X0280804Y0160278D01*
X0280805Y0161277D02*
X0285419Y0161277D01*
X0285419Y0162275D02*
X0284505Y0162275D01*
X0284181Y0163274D02*
X0285419Y0163274D01*
X0285419Y0164272D02*
X0283526Y0164272D01*
X0282176Y0165271D02*
X0285419Y0165271D01*
X0285419Y0160278D02*
X0284393Y0160278D01*
X0283944Y0159280D02*
X0285419Y0159280D01*
X0285419Y0158281D02*
X0283061Y0158281D01*
X0285419Y0157283D02*
X0251387Y0157283D01*
X0251387Y0156284D02*
X0285419Y0156284D01*
X0285419Y0155286D02*
X0251387Y0155286D01*
X0251387Y0154264D02*
X0248403Y0154264D01*
X0248403Y0155232D01*
X0247434Y0155232D01*
X0247434Y0154264D01*
X0244450Y0154264D01*
X0244450Y0149039D01*
X0244552Y0148657D01*
X0244750Y0148315D01*
X0245029Y0148036D01*
X0245371Y0147838D01*
X0245753Y0147736D01*
X0247434Y0147736D01*
X0247434Y0154264D01*
X0248403Y0154264D01*
X0248403Y0147736D01*
X0250085Y0147736D01*
X0250466Y0147838D01*
X0250808Y0148036D01*
X0251087Y0148315D01*
X0251285Y0148657D01*
X0251387Y0149039D01*
X0251387Y0154264D01*
X0251387Y0153289D02*
X0285419Y0153289D01*
X0285419Y0154287D02*
X0248403Y0154287D01*
X0247434Y0154287D02*
X0239519Y0154287D01*
X0239519Y0153289D02*
X0244450Y0153289D01*
X0244450Y0152290D02*
X0239519Y0152290D01*
X0239519Y0151292D02*
X0244450Y0151292D01*
X0244450Y0150293D02*
X0239519Y0150293D01*
X0239887Y0149295D02*
X0244450Y0149295D01*
X0244769Y0148296D02*
X0240885Y0148296D01*
X0241884Y0147298D02*
X0285419Y0147298D01*
X0285419Y0148296D02*
X0251068Y0148296D01*
X0251387Y0149295D02*
X0285419Y0149295D01*
X0285419Y0150293D02*
X0251387Y0150293D01*
X0251387Y0151292D02*
X0285419Y0151292D01*
X0285419Y0152290D02*
X0251387Y0152290D01*
X0248403Y0152290D02*
X0247434Y0152290D01*
X0247434Y0151292D02*
X0248403Y0151292D01*
X0248403Y0150293D02*
X0247434Y0150293D01*
X0247434Y0149295D02*
X0248403Y0149295D01*
X0248403Y0148296D02*
X0247434Y0148296D01*
X0243881Y0145301D02*
X0285419Y0145301D01*
X0285419Y0146299D02*
X0242882Y0146299D01*
X0244879Y0144302D02*
X0285419Y0144302D01*
X0285419Y0143303D02*
X0245878Y0143303D01*
X0246876Y0142305D02*
X0285419Y0142305D01*
X0285419Y0141306D02*
X0247875Y0141306D01*
X0248873Y0140308D02*
X0285419Y0140308D01*
X0285419Y0139309D02*
X0249872Y0139309D01*
X0250870Y0138311D02*
X0285419Y0138311D01*
X0285419Y0137312D02*
X0251869Y0137312D01*
X0239319Y0131321D02*
X0234696Y0131321D01*
X0234530Y0132320D02*
X0238586Y0132320D01*
X0237587Y0133318D02*
X0234530Y0133318D01*
X0234138Y0134317D02*
X0236589Y0134317D01*
X0235695Y0130323D02*
X0239319Y0130323D01*
X0239319Y0129324D02*
X0236693Y0129324D01*
X0237692Y0128326D02*
X0239319Y0128326D01*
X0239319Y0127327D02*
X0239263Y0127327D01*
X0232175Y0123333D02*
X0230848Y0123333D01*
X0231847Y0122335D02*
X0232175Y0122335D01*
X0231462Y0120457D02*
X0227919Y0124000D01*
X0226331Y0122335D02*
X0208519Y0122335D01*
X0208519Y0123333D02*
X0225619Y0123333D01*
X0225619Y0124332D02*
X0208519Y0124332D01*
X0208519Y0125330D02*
X0225996Y0125330D01*
X0228320Y0121336D02*
X0208519Y0121336D01*
X0208519Y0120338D02*
X0226004Y0120338D01*
X0225619Y0119339D02*
X0220931Y0119339D01*
X0220808Y0119462D02*
X0220466Y0119660D01*
X0220085Y0119762D01*
X0218403Y0119762D01*
X0218403Y0116581D01*
X0221387Y0116581D01*
X0221387Y0118459D01*
X0221285Y0118841D01*
X0221087Y0119183D01*
X0220808Y0119462D01*
X0221387Y0118341D02*
X0222757Y0118341D01*
X0221869Y0117342D02*
X0221387Y0117342D01*
X0221869Y0116344D02*
X0218403Y0116344D01*
X0217434Y0116344D02*
X0208519Y0116344D01*
X0208519Y0117342D02*
X0214450Y0117342D01*
X0214450Y0116581D02*
X0214450Y0118459D01*
X0214552Y0118841D01*
X0214750Y0119183D01*
X0215029Y0119462D01*
X0215371Y0119660D01*
X0215753Y0119762D01*
X0217434Y0119762D01*
X0217434Y0116581D01*
X0214450Y0116581D01*
X0214450Y0115345D02*
X0208519Y0115345D01*
X0208519Y0114347D02*
X0214450Y0114347D01*
X0214555Y0113348D02*
X0208519Y0113348D01*
X0208519Y0112350D02*
X0215175Y0112350D01*
X0217919Y0109404D02*
X0218322Y0109000D01*
X0220905Y0106700D02*
X0227366Y0106700D01*
X0226869Y0106203D01*
X0226869Y0105803D01*
X0226371Y0106300D01*
X0224466Y0106300D01*
X0223119Y0104953D01*
X0223119Y0104553D01*
X0222621Y0105050D01*
X0220716Y0105050D01*
X0219369Y0103703D01*
X0219369Y0101797D01*
X0220716Y0100450D01*
X0221706Y0100450D01*
X0223772Y0098384D01*
X0232175Y0098384D01*
X0232175Y0096285D01*
X0232819Y0095640D01*
X0235123Y0095640D01*
X0235238Y0095525D01*
X0239319Y0095525D01*
X0239319Y0091636D01*
X0238886Y0092068D01*
X0233644Y0092068D01*
X0233000Y0091424D01*
X0233000Y0086576D01*
X0233644Y0085931D01*
X0238886Y0085931D01*
X0239319Y0086364D01*
X0239319Y0067272D01*
X0239231Y0067360D01*
X0238325Y0067360D01*
X0238325Y0067693D01*
X0238286Y0067732D01*
X0238284Y0067787D01*
X0237618Y0068400D01*
X0236978Y0069040D01*
X0236923Y0069040D01*
X0233487Y0072204D01*
X0233487Y0074525D01*
X0232974Y0075038D01*
X0233308Y0075231D01*
X0233587Y0075510D01*
X0233785Y0075852D01*
X0233887Y0076234D01*
X0233887Y0078112D01*
X0230903Y0078112D01*
X0230903Y0079081D01*
X0229934Y0079081D01*
X0229934Y0078112D01*
X0226950Y0078112D01*
X0226950Y0076234D01*
X0227052Y0075852D01*
X0227250Y0075510D01*
X0227529Y0075231D01*
X0227863Y0075038D01*
X0227350Y0074525D01*
X0227350Y0069283D01*
X0227994Y0068638D01*
X0230569Y0068638D01*
X0232406Y0066946D01*
X0232175Y0066715D01*
X0232175Y0064434D01*
X0232314Y0064295D01*
X0232175Y0064156D01*
X0232175Y0063256D01*
X0225219Y0070213D01*
X0225219Y0071203D01*
X0223871Y0072550D01*
X0221966Y0072550D01*
X0220619Y0071203D01*
X0220619Y0069297D01*
X0221966Y0067950D01*
X0222956Y0067950D01*
X0228356Y0062550D01*
X0227591Y0062550D01*
X0226244Y0061203D01*
X0226244Y0059297D01*
X0227591Y0057950D01*
X0229206Y0057950D01*
X0229606Y0057550D01*
X0229466Y0057550D01*
X0228119Y0056203D01*
X0228119Y0054297D01*
X0229466Y0052950D01*
X0231371Y0052950D01*
X0231775Y0053354D01*
X0231775Y0052780D01*
X0236025Y0052780D01*
X0236025Y0052779D01*
X0231775Y0052779D01*
X0231775Y0051897D01*
X0231877Y0051516D01*
X0232010Y0051285D01*
X0228052Y0051273D01*
X0224737Y0054588D01*
X0224737Y0057025D01*
X0224224Y0057538D01*
X0224558Y0057731D01*
X0224837Y0058010D01*
X0225035Y0058352D01*
X0225137Y0058734D01*
X0225137Y0060612D01*
X0222153Y0060612D01*
X0222153Y0061581D01*
X0221184Y0061581D01*
X0221184Y0060612D01*
X0218200Y0060612D01*
X0218200Y0058734D01*
X0218302Y0058352D01*
X0218500Y0058010D01*
X0218779Y0057731D01*
X0219113Y0057538D01*
X0218600Y0057025D01*
X0218600Y0056704D01*
X0218468Y0056704D01*
X0217719Y0057453D01*
X0217719Y0064953D01*
X0208519Y0074153D01*
X0208519Y0107104D01*
X0214850Y0107104D01*
X0214850Y0106783D01*
X0215494Y0106138D01*
X0220343Y0106138D01*
X0220905Y0106700D01*
X0220563Y0106359D02*
X0227025Y0106359D01*
X0229169Y0105250D02*
X0229316Y0105102D01*
X0236025Y0105102D01*
X0236025Y0102543D02*
X0226462Y0102543D01*
X0225419Y0104000D01*
X0223526Y0105360D02*
X0208519Y0105360D01*
X0208519Y0104362D02*
X0220027Y0104362D01*
X0219369Y0103363D02*
X0208519Y0103363D01*
X0208519Y0102365D02*
X0219369Y0102365D01*
X0219800Y0101366D02*
X0208519Y0101366D01*
X0208519Y0100368D02*
X0209783Y0100368D01*
X0209369Y0099953D02*
X0210716Y0101300D01*
X0212621Y0101300D01*
X0213021Y0100900D01*
X0214956Y0100900D01*
X0216069Y0099787D01*
X0223165Y0092691D01*
X0223165Y0092068D01*
X0223886Y0092068D01*
X0224530Y0091424D01*
X0224530Y0090900D01*
X0226307Y0090900D01*
X0226307Y0091424D01*
X0226951Y0092068D01*
X0232193Y0092068D01*
X0232837Y0091424D01*
X0232837Y0086576D01*
X0232193Y0085931D01*
X0226951Y0085931D01*
X0226307Y0086576D01*
X0226307Y0087100D01*
X0224530Y0087100D01*
X0224530Y0086576D01*
X0223886Y0085931D01*
X0218644Y0085931D01*
X0218131Y0086445D01*
X0217938Y0086110D01*
X0217659Y0085831D01*
X0217316Y0085634D01*
X0216935Y0085531D01*
X0215056Y0085531D01*
X0215056Y0088516D01*
X0214088Y0088516D01*
X0210907Y0088516D01*
X0210907Y0086834D01*
X0211009Y0086453D01*
X0211206Y0086110D01*
X0211486Y0085831D01*
X0211828Y0085634D01*
X0212209Y0085531D01*
X0214088Y0085531D01*
X0214088Y0088516D01*
X0214088Y0089484D01*
X0210907Y0089484D01*
X0210907Y0091166D01*
X0211009Y0091547D01*
X0211206Y0091890D01*
X0211486Y0092169D01*
X0211828Y0092366D01*
X0212209Y0092468D01*
X0214088Y0092468D01*
X0214088Y0089484D01*
X0215056Y0089484D01*
X0215056Y0092468D01*
X0216935Y0092468D01*
X0217316Y0092366D01*
X0217659Y0092169D01*
X0217938Y0091890D01*
X0218131Y0091555D01*
X0218529Y0091953D01*
X0213382Y0097100D01*
X0213021Y0097100D01*
X0212621Y0096700D01*
X0210716Y0096700D01*
X0209369Y0098047D01*
X0209369Y0099953D01*
X0209369Y0099369D02*
X0208519Y0099369D01*
X0208519Y0098370D02*
X0209369Y0098370D01*
X0210044Y0097372D02*
X0208519Y0097372D01*
X0208519Y0096373D02*
X0214108Y0096373D01*
X0215107Y0095375D02*
X0208519Y0095375D01*
X0208519Y0094376D02*
X0216105Y0094376D01*
X0217104Y0093378D02*
X0208519Y0093378D01*
X0208519Y0092379D02*
X0211877Y0092379D01*
X0210964Y0091381D02*
X0208519Y0091381D01*
X0208519Y0090382D02*
X0210907Y0090382D01*
X0210907Y0088385D02*
X0208519Y0088385D01*
X0208519Y0087387D02*
X0210907Y0087387D01*
X0211046Y0086388D02*
X0208519Y0086388D01*
X0208519Y0085390D02*
X0239319Y0085390D01*
X0239319Y0084391D02*
X0208519Y0084391D01*
X0208519Y0083393D02*
X0239319Y0083393D01*
X0239319Y0082394D02*
X0208519Y0082394D01*
X0208519Y0081396D02*
X0227084Y0081396D01*
X0227052Y0081341D02*
X0226950Y0080959D01*
X0226950Y0079081D01*
X0229934Y0079081D01*
X0229934Y0082262D01*
X0228253Y0082262D01*
X0227871Y0082160D01*
X0227529Y0081962D01*
X0227250Y0081683D01*
X0227052Y0081341D01*
X0226950Y0080397D02*
X0208519Y0080397D01*
X0208519Y0079399D02*
X0226950Y0079399D01*
X0226950Y0077402D02*
X0208519Y0077402D01*
X0208519Y0078400D02*
X0229934Y0078400D01*
X0230903Y0078400D02*
X0239319Y0078400D01*
X0239319Y0077402D02*
X0233887Y0077402D01*
X0233887Y0076403D02*
X0239319Y0076403D01*
X0239319Y0075405D02*
X0233482Y0075405D01*
X0233487Y0074406D02*
X0239319Y0074406D01*
X0239319Y0073408D02*
X0233487Y0073408D01*
X0233487Y0072409D02*
X0239319Y0072409D01*
X0239319Y0071411D02*
X0234349Y0071411D01*
X0235433Y0070412D02*
X0239319Y0070412D01*
X0239319Y0069414D02*
X0236517Y0069414D01*
X0237603Y0068415D02*
X0239319Y0068415D01*
X0239319Y0067417D02*
X0238325Y0067417D01*
X0236025Y0065575D02*
X0241993Y0065575D01*
X0245419Y0066500D01*
X0242919Y0065250D02*
X0242919Y0062750D01*
X0234169Y0062750D01*
X0234169Y0065250D01*
X0242919Y0065250D01*
X0242919Y0064421D02*
X0234169Y0064421D01*
X0234169Y0063423D02*
X0242919Y0063423D01*
X0236025Y0063016D02*
X0236025Y0065575D01*
X0232175Y0065420D02*
X0230012Y0065420D01*
X0229013Y0066418D02*
X0232175Y0066418D01*
X0231895Y0067417D02*
X0228015Y0067417D01*
X0227016Y0068415D02*
X0230811Y0068415D01*
X0227350Y0069414D02*
X0226018Y0069414D01*
X0225219Y0070412D02*
X0227350Y0070412D01*
X0227350Y0071411D02*
X0225011Y0071411D01*
X0224012Y0072409D02*
X0227350Y0072409D01*
X0227350Y0073408D02*
X0209264Y0073408D01*
X0208519Y0074406D02*
X0227350Y0074406D01*
X0227355Y0075405D02*
X0208519Y0075405D01*
X0208519Y0076403D02*
X0226950Y0076403D01*
X0229934Y0079399D02*
X0230903Y0079399D01*
X0230903Y0079081D02*
X0230903Y0082262D01*
X0232585Y0082262D01*
X0232966Y0082160D01*
X0233308Y0081962D01*
X0233587Y0081683D01*
X0233785Y0081341D01*
X0233887Y0080959D01*
X0233887Y0079081D01*
X0230903Y0079081D01*
X0230903Y0080397D02*
X0229934Y0080397D01*
X0229934Y0081396D02*
X0230903Y0081396D01*
X0233753Y0081396D02*
X0239319Y0081396D01*
X0239319Y0080397D02*
X0233887Y0080397D01*
X0233887Y0079399D02*
X0239319Y0079399D01*
X0233187Y0086388D02*
X0232650Y0086388D01*
X0232837Y0087387D02*
X0233000Y0087387D01*
X0233000Y0088385D02*
X0232837Y0088385D01*
X0232837Y0089384D02*
X0233000Y0089384D01*
X0233000Y0090382D02*
X0232837Y0090382D01*
X0232837Y0091381D02*
X0233000Y0091381D01*
X0239319Y0092379D02*
X0223165Y0092379D01*
X0222478Y0093378D02*
X0239319Y0093378D01*
X0239319Y0094376D02*
X0221479Y0094376D01*
X0220481Y0095375D02*
X0239319Y0095375D01*
X0241344Y0097425D02*
X0245419Y0099000D01*
X0236025Y0099984D02*
X0224434Y0099984D01*
X0221669Y0102750D01*
X0221788Y0100368D02*
X0215488Y0100368D01*
X0216487Y0099369D02*
X0222787Y0099369D01*
X0219482Y0096373D02*
X0232175Y0096373D01*
X0232175Y0097372D02*
X0218484Y0097372D01*
X0217485Y0098370D02*
X0232175Y0098370D01*
X0226307Y0091381D02*
X0224530Y0091381D01*
X0224343Y0086388D02*
X0226494Y0086388D01*
X0218187Y0086388D02*
X0218098Y0086388D01*
X0215056Y0086388D02*
X0214088Y0086388D01*
X0214088Y0087387D02*
X0215056Y0087387D01*
X0215056Y0088385D02*
X0214088Y0088385D01*
X0214088Y0089384D02*
X0208519Y0089384D01*
X0214088Y0090382D02*
X0215056Y0090382D01*
X0215056Y0091381D02*
X0214088Y0091381D01*
X0214088Y0092379D02*
X0215056Y0092379D01*
X0217267Y0092379D02*
X0218102Y0092379D01*
X0202319Y0092379D02*
X0192119Y0092379D01*
X0192119Y0091381D02*
X0202319Y0091381D01*
X0202319Y0090382D02*
X0192119Y0090382D01*
X0192119Y0089384D02*
X0202319Y0089384D01*
X0202319Y0088385D02*
X0192119Y0088385D01*
X0192119Y0087387D02*
X0202319Y0087387D01*
X0202319Y0086388D02*
X0192119Y0086388D01*
X0192119Y0085390D02*
X0202319Y0085390D01*
X0202319Y0084391D02*
X0192119Y0084391D01*
X0192119Y0083393D02*
X0202319Y0083393D01*
X0202319Y0082394D02*
X0191217Y0082394D01*
X0190219Y0081396D02*
X0202319Y0081396D01*
X0202319Y0080397D02*
X0189220Y0080397D01*
X0188222Y0079399D02*
X0202319Y0079399D01*
X0202319Y0078400D02*
X0187719Y0078400D01*
X0187073Y0077402D02*
X0201558Y0077402D01*
X0202822Y0076403D02*
X0205419Y0076403D01*
X0205419Y0075405D02*
X0201823Y0075405D01*
X0200825Y0074406D02*
X0205419Y0074406D01*
X0205419Y0074000D02*
X0200419Y0074000D01*
X0205419Y0079000D01*
X0205419Y0074000D01*
X0205754Y0070412D02*
X0189093Y0070412D01*
X0188119Y0069414D02*
X0206752Y0069414D01*
X0207751Y0068415D02*
X0188119Y0068415D01*
X0188119Y0067417D02*
X0208749Y0067417D01*
X0212259Y0070412D02*
X0220619Y0070412D01*
X0220619Y0069414D02*
X0213258Y0069414D01*
X0214256Y0068415D02*
X0221501Y0068415D01*
X0223489Y0067417D02*
X0215255Y0067417D01*
X0216253Y0066418D02*
X0224488Y0066418D01*
X0225486Y0065420D02*
X0217252Y0065420D01*
X0217719Y0064421D02*
X0218738Y0064421D01*
X0218779Y0064462D02*
X0218500Y0064183D01*
X0218302Y0063841D01*
X0218200Y0063459D01*
X0218200Y0061581D01*
X0221184Y0061581D01*
X0221184Y0064762D01*
X0219503Y0064762D01*
X0219121Y0064660D01*
X0218779Y0064462D01*
X0218200Y0063423D02*
X0217719Y0063423D01*
X0217719Y0062424D02*
X0218200Y0062424D01*
X0217719Y0061426D02*
X0221184Y0061426D01*
X0222153Y0061426D02*
X0226466Y0061426D01*
X0226244Y0060427D02*
X0225137Y0060427D01*
X0225137Y0059429D02*
X0226244Y0059429D01*
X0227111Y0058430D02*
X0225056Y0058430D01*
X0224330Y0057432D02*
X0229347Y0057432D01*
X0228349Y0056433D02*
X0224737Y0056433D01*
X0224737Y0055434D02*
X0228119Y0055434D01*
X0228119Y0054436D02*
X0224889Y0054436D01*
X0225887Y0053437D02*
X0228978Y0053437D01*
X0227884Y0051440D02*
X0231920Y0051440D01*
X0231775Y0052439D02*
X0226886Y0052439D01*
X0230330Y0055339D02*
X0230419Y0055250D01*
X0230330Y0055339D02*
X0236025Y0055339D01*
X0236025Y0057898D02*
X0231521Y0057898D01*
X0229169Y0060250D01*
X0228544Y0060250D01*
X0227465Y0062424D02*
X0225137Y0062424D01*
X0225137Y0061581D02*
X0225137Y0063459D01*
X0225035Y0063841D01*
X0224837Y0064183D01*
X0224558Y0064462D01*
X0224216Y0064660D01*
X0223835Y0064762D01*
X0222153Y0064762D01*
X0222153Y0061581D01*
X0225137Y0061581D01*
X0225137Y0063423D02*
X0227483Y0063423D01*
X0226485Y0064421D02*
X0224599Y0064421D01*
X0222153Y0064421D02*
X0221184Y0064421D01*
X0221184Y0063423D02*
X0222153Y0063423D01*
X0222153Y0062424D02*
X0221184Y0062424D01*
X0218200Y0060427D02*
X0217719Y0060427D01*
X0217719Y0059429D02*
X0218200Y0059429D01*
X0218281Y0058430D02*
X0217719Y0058430D01*
X0217740Y0057432D02*
X0219007Y0057432D01*
X0209660Y0051440D02*
X0208694Y0051440D01*
X0208694Y0050442D02*
X0209643Y0050442D01*
X0209643Y0049443D02*
X0199737Y0049443D01*
X0199737Y0048445D02*
X0201189Y0048445D01*
X0200982Y0050442D02*
X0199263Y0050442D01*
X0199115Y0051440D02*
X0200982Y0051440D01*
X0200982Y0052439D02*
X0199144Y0052439D01*
X0199737Y0053437D02*
X0200982Y0053437D01*
X0200220Y0054436D02*
X0199737Y0054436D01*
X0200419Y0056500D02*
X0197515Y0056500D01*
X0200419Y0056500D02*
X0204178Y0052740D01*
X0204838Y0052740D01*
X0204354Y0048445D02*
X0205322Y0048445D01*
X0205322Y0047446D02*
X0204354Y0047446D01*
X0208487Y0048445D02*
X0209643Y0048445D01*
X0209643Y0047446D02*
X0209088Y0047446D01*
X0209094Y0046448D02*
X0209771Y0046448D01*
X0217227Y0046448D02*
X0228364Y0046448D01*
X0230419Y0045250D02*
X0230566Y0045102D01*
X0236025Y0045102D01*
X0236025Y0042543D02*
X0228125Y0042543D01*
X0226669Y0044000D01*
X0225059Y0039984D02*
X0236025Y0039984D01*
X0232175Y0037461D02*
X0229005Y0037461D01*
X0229255Y0036463D02*
X0232175Y0036463D01*
X0246737Y0026478D02*
X0261928Y0026478D01*
X0261319Y0027476D02*
X0247736Y0027476D01*
X0248580Y0028475D02*
X0261319Y0028475D01*
X0261319Y0029473D02*
X0248993Y0029473D01*
X0249019Y0030472D02*
X0261319Y0030472D01*
X0261319Y0031470D02*
X0249019Y0031470D01*
X0249019Y0032469D02*
X0261319Y0032469D01*
X0261319Y0033467D02*
X0249019Y0033467D01*
X0249511Y0034466D02*
X0261319Y0034466D01*
X0261319Y0035464D02*
X0250510Y0035464D01*
X0257919Y0042750D02*
X0257919Y0045250D01*
X0266669Y0045250D01*
X0266669Y0042750D01*
X0257919Y0042750D01*
X0257919Y0043452D02*
X0266669Y0043452D01*
X0266669Y0044451D02*
X0257919Y0044451D01*
X0262919Y0047750D02*
X0262919Y0050250D01*
X0285419Y0050250D01*
X0285419Y0041500D01*
X0269169Y0041500D01*
X0269169Y0047750D01*
X0262919Y0047750D01*
X0262919Y0048445D02*
X0285419Y0048445D01*
X0285419Y0049443D02*
X0262919Y0049443D01*
X0264812Y0050220D02*
X0264812Y0047661D01*
X0279257Y0047661D01*
X0280419Y0046500D01*
X0285419Y0046448D02*
X0269169Y0046448D01*
X0269169Y0047446D02*
X0285419Y0047446D01*
X0285419Y0045449D02*
X0269169Y0045449D01*
X0269169Y0044451D02*
X0285419Y0044451D01*
X0285419Y0043452D02*
X0269169Y0043452D01*
X0269169Y0042454D02*
X0285419Y0042454D01*
X0285419Y0039900D02*
X0285419Y0027750D01*
X0262919Y0027750D01*
X0262919Y0040250D01*
X0268156Y0040250D01*
X0268506Y0039900D01*
X0285419Y0039900D01*
X0285419Y0039458D02*
X0262919Y0039458D01*
X0262919Y0038460D02*
X0285419Y0038460D01*
X0285419Y0037461D02*
X0262919Y0037461D01*
X0262919Y0036463D02*
X0285419Y0036463D01*
X0285419Y0035464D02*
X0262919Y0035464D01*
X0262919Y0034466D02*
X0285419Y0034466D01*
X0285419Y0033467D02*
X0262919Y0033467D01*
X0262919Y0032469D02*
X0285419Y0032469D01*
X0285419Y0031470D02*
X0262919Y0031470D01*
X0262919Y0030472D02*
X0285419Y0030472D01*
X0285419Y0029473D02*
X0262919Y0029473D01*
X0262919Y0028475D02*
X0285419Y0028475D01*
X0280419Y0036500D02*
X0279493Y0037425D01*
X0264812Y0037425D01*
X0264812Y0039984D01*
X0264812Y0052780D02*
X0264812Y0055339D01*
X0279257Y0055339D01*
X0280419Y0056500D01*
X0285419Y0056433D02*
X0269169Y0056433D01*
X0269169Y0055434D02*
X0285419Y0055434D01*
X0285419Y0054436D02*
X0262919Y0054436D01*
X0262919Y0055250D02*
X0269169Y0055250D01*
X0269169Y0061500D01*
X0285419Y0061500D01*
X0285419Y0052750D01*
X0262919Y0052750D01*
X0262919Y0055250D01*
X0262919Y0053437D02*
X0285419Y0053437D01*
X0285419Y0057432D02*
X0269169Y0057432D01*
X0269169Y0058430D02*
X0285419Y0058430D01*
X0285419Y0059429D02*
X0269169Y0059429D01*
X0269169Y0060427D02*
X0285419Y0060427D01*
X0285419Y0061426D02*
X0269169Y0061426D01*
X0268156Y0062750D02*
X0262919Y0062750D01*
X0262919Y0075250D01*
X0285419Y0075250D01*
X0285419Y0063100D01*
X0268506Y0063100D01*
X0268156Y0062750D01*
X0266669Y0060250D02*
X0257919Y0060250D01*
X0257919Y0057750D01*
X0266669Y0057750D01*
X0266669Y0060250D01*
X0266669Y0059429D02*
X0257919Y0059429D01*
X0257919Y0058430D02*
X0266669Y0058430D01*
X0264812Y0063016D02*
X0264812Y0065575D01*
X0279493Y0065575D01*
X0280419Y0066500D01*
X0285419Y0066418D02*
X0262919Y0066418D01*
X0262919Y0065420D02*
X0285419Y0065420D01*
X0285419Y0064421D02*
X0262919Y0064421D01*
X0262919Y0063423D02*
X0285419Y0063423D01*
X0285419Y0067417D02*
X0262919Y0067417D01*
X0262919Y0068415D02*
X0285419Y0068415D01*
X0285419Y0069414D02*
X0262919Y0069414D01*
X0262919Y0070412D02*
X0285419Y0070412D01*
X0285419Y0071411D02*
X0262919Y0071411D01*
X0262919Y0072409D02*
X0285419Y0072409D01*
X0285419Y0073408D02*
X0262919Y0073408D01*
X0262919Y0074406D02*
X0285419Y0074406D01*
X0236025Y0060457D02*
X0232712Y0060457D01*
X0222919Y0070250D01*
X0220827Y0071411D02*
X0211261Y0071411D01*
X0210262Y0072409D02*
X0221825Y0072409D01*
X0231010Y0064421D02*
X0232188Y0064421D01*
X0232175Y0063423D02*
X0232009Y0063423D01*
X0205419Y0077402D02*
X0203820Y0077402D01*
X0204819Y0078400D02*
X0205419Y0078400D01*
X0190419Y0074000D02*
X0180419Y0074000D01*
X0185419Y0069000D01*
X0190419Y0074000D01*
X0189826Y0073408D02*
X0181011Y0073408D01*
X0182009Y0072409D02*
X0188828Y0072409D01*
X0187829Y0071411D02*
X0183008Y0071411D01*
X0184006Y0070412D02*
X0186831Y0070412D01*
X0185832Y0069414D02*
X0185005Y0069414D01*
X0182719Y0069414D02*
X0140595Y0069414D01*
X0141593Y0070412D02*
X0181744Y0070412D01*
X0182719Y0068415D02*
X0123280Y0068415D01*
X0122871Y0067417D02*
X0182719Y0067417D01*
X0182719Y0066418D02*
X0113969Y0066418D01*
X0113841Y0065420D02*
X0129575Y0065420D01*
X0128384Y0064421D02*
X0112842Y0064421D01*
X0110495Y0064421D02*
X0108487Y0064421D01*
X0108487Y0063423D02*
X0125964Y0063423D01*
X0124994Y0062424D02*
X0108487Y0062424D01*
X0108487Y0061426D02*
X0124994Y0061426D01*
X0125114Y0060427D02*
X0108487Y0060427D01*
X0108190Y0059429D02*
X0113996Y0059429D01*
X0113482Y0058430D02*
X0108332Y0058430D01*
X0106265Y0054807D02*
X0106265Y0046500D01*
X0106934Y0047169D01*
X0109011Y0049443D02*
X0116854Y0049443D01*
X0117822Y0049443D02*
X0126619Y0049443D01*
X0127617Y0048445D02*
X0121594Y0048445D01*
X0121594Y0048526D02*
X0121594Y0046844D01*
X0121492Y0046462D01*
X0121294Y0046120D01*
X0121015Y0045841D01*
X0120673Y0045644D01*
X0120291Y0045541D01*
X0117822Y0045541D01*
X0117822Y0048526D01*
X0121594Y0048526D01*
X0121594Y0049494D02*
X0117822Y0049494D01*
X0117822Y0052478D01*
X0120291Y0052478D01*
X0120673Y0052376D01*
X0121015Y0052179D01*
X0121294Y0051899D01*
X0121492Y0051557D01*
X0121594Y0051176D01*
X0121594Y0049494D01*
X0121594Y0050442D02*
X0122143Y0050442D01*
X0122143Y0051440D02*
X0121523Y0051440D01*
X0122143Y0052439D02*
X0120438Y0052439D01*
X0120565Y0053437D02*
X0122143Y0053437D01*
X0122143Y0054436D02*
X0121194Y0054436D01*
X0121194Y0055434D02*
X0122404Y0055434D01*
X0121194Y0057432D02*
X0138474Y0057432D01*
X0137476Y0058430D02*
X0121194Y0058430D01*
X0120680Y0059429D02*
X0126112Y0059429D01*
X0129996Y0051440D02*
X0152955Y0051440D01*
X0151956Y0050442D02*
X0150513Y0050442D01*
X0151120Y0052439D02*
X0153953Y0052439D01*
X0154939Y0053437D02*
X0152119Y0053437D01*
X0153117Y0054436D02*
X0154939Y0054436D01*
X0154080Y0057513D02*
X0154080Y0060339D01*
X0151669Y0062750D01*
X0147919Y0062750D01*
X0149500Y0064421D02*
X0182719Y0064421D01*
X0182719Y0063423D02*
X0153259Y0063423D01*
X0154257Y0062424D02*
X0182719Y0062424D01*
X0182719Y0061426D02*
X0155256Y0061426D01*
X0157830Y0060427D02*
X0158007Y0060427D01*
X0160389Y0060427D02*
X0160566Y0060427D01*
X0162948Y0060427D02*
X0163125Y0060427D01*
X0166875Y0060427D02*
X0166875Y0060427D01*
X0166875Y0060963D02*
X0166875Y0057513D01*
X0166875Y0057513D01*
X0166875Y0060963D01*
X0166875Y0059429D02*
X0166875Y0059429D01*
X0166875Y0058430D02*
X0166875Y0058430D01*
X0166875Y0057513D02*
X0168975Y0057513D01*
X0166875Y0057513D01*
X0166875Y0057513D01*
X0168975Y0057432D02*
X0182719Y0057432D01*
X0182719Y0058430D02*
X0168975Y0058430D01*
X0168975Y0059429D02*
X0182719Y0059429D01*
X0182719Y0060427D02*
X0168632Y0060427D01*
X0168975Y0056433D02*
X0182719Y0056433D01*
X0182719Y0055434D02*
X0168975Y0055434D01*
X0168470Y0054436D02*
X0182719Y0054436D01*
X0182719Y0053437D02*
X0168385Y0053437D01*
X0163417Y0049443D02*
X0160987Y0049443D01*
X0160898Y0050442D02*
X0162419Y0050442D01*
X0161420Y0051440D02*
X0160898Y0051440D01*
X0148765Y0046500D02*
X0147919Y0047346D01*
X0147262Y0059429D02*
X0147253Y0059429D01*
X0147771Y0060427D02*
X0146254Y0060427D01*
X0145990Y0061426D02*
X0145256Y0061426D01*
X0145619Y0062424D02*
X0144257Y0062424D01*
X0143259Y0063423D02*
X0145619Y0063423D01*
X0146337Y0064421D02*
X0142260Y0064421D01*
X0141262Y0065420D02*
X0182719Y0065420D01*
X0193269Y0056433D02*
X0193600Y0056433D01*
X0193600Y0055434D02*
X0193269Y0055434D01*
X0193269Y0054436D02*
X0193600Y0054436D01*
X0193600Y0053437D02*
X0193269Y0053437D01*
X0193969Y0052439D02*
X0194194Y0052439D01*
X0193969Y0051440D02*
X0195915Y0051440D01*
X0194075Y0050442D02*
X0193863Y0050442D01*
X0193600Y0049443D02*
X0192865Y0049443D01*
X0193600Y0048445D02*
X0188119Y0048445D01*
X0188119Y0047446D02*
X0193600Y0047446D01*
X0193600Y0046448D02*
X0188119Y0046448D01*
X0188119Y0045449D02*
X0193600Y0045449D01*
X0193875Y0044451D02*
X0188119Y0044451D01*
X0188119Y0043452D02*
X0193334Y0043452D01*
X0193200Y0042454D02*
X0188119Y0042454D01*
X0188119Y0041455D02*
X0193200Y0041455D01*
X0193200Y0039458D02*
X0188119Y0039458D01*
X0188119Y0038460D02*
X0193200Y0038460D01*
X0196184Y0040457D02*
X0188119Y0040457D01*
X0197153Y0040457D02*
X0210799Y0040457D01*
X0182719Y0052439D02*
X0175230Y0052439D01*
X0149614Y0071411D02*
X0142592Y0071411D01*
X0144580Y0072409D02*
X0148191Y0072409D01*
X0147193Y0073408D02*
X0145219Y0073408D01*
X0142919Y0074000D02*
X0139169Y0070250D01*
X0120015Y0070250D01*
X0123280Y0072409D02*
X0139065Y0072409D01*
X0140064Y0073408D02*
X0113269Y0073408D01*
X0113269Y0074406D02*
X0140619Y0074406D01*
X0141071Y0075405D02*
X0113269Y0075405D01*
X0113269Y0076403D02*
X0142918Y0076403D01*
X0140356Y0077402D02*
X0147089Y0077402D01*
X0147262Y0078400D02*
X0140780Y0078400D01*
X0137919Y0080654D02*
X0137515Y0080250D01*
X0134674Y0077402D02*
X0134212Y0077402D01*
X0131306Y0077402D02*
X0130338Y0077402D01*
X0130338Y0078400D02*
X0131306Y0078400D01*
X0131306Y0079399D02*
X0130338Y0079399D01*
X0130338Y0080397D02*
X0113269Y0080397D01*
X0113269Y0079399D02*
X0127157Y0079399D01*
X0127157Y0078400D02*
X0113269Y0078400D01*
X0113269Y0077402D02*
X0127433Y0077402D01*
X0127157Y0081396D02*
X0113269Y0081396D01*
X0113269Y0082394D02*
X0127157Y0082394D01*
X0127710Y0083393D02*
X0113269Y0083393D01*
X0111669Y0085250D02*
X0111669Y0070250D01*
X0113322Y0070250D01*
X0111669Y0070250D02*
X0111669Y0066500D01*
X0109369Y0066418D02*
X0107019Y0066418D01*
X0106765Y0067417D02*
X0109369Y0067417D01*
X0110057Y0068415D02*
X0105766Y0068415D01*
X0106752Y0069414D02*
X0104768Y0069414D01*
X0105754Y0070412D02*
X0103769Y0070412D01*
X0102771Y0071411D02*
X0105619Y0071411D01*
X0105619Y0072409D02*
X0101772Y0072409D01*
X0100774Y0073408D02*
X0106319Y0073408D01*
X0106319Y0074406D02*
X0099775Y0074406D01*
X0098777Y0075405D02*
X0106319Y0075405D01*
X0106319Y0076403D02*
X0097778Y0076403D01*
X0096780Y0077402D02*
X0106319Y0077402D01*
X0106319Y0078400D02*
X0095781Y0078400D01*
X0094783Y0079399D02*
X0106319Y0079399D01*
X0106319Y0080397D02*
X0093784Y0080397D01*
X0092786Y0081396D02*
X0106319Y0081396D01*
X0106319Y0082394D02*
X0088919Y0082394D01*
X0088919Y0083393D02*
X0106319Y0083393D01*
X0106319Y0084391D02*
X0091823Y0084391D01*
X0092821Y0085390D02*
X0106319Y0085390D01*
X0106319Y0086388D02*
X0093820Y0086388D01*
X0094818Y0087387D02*
X0105654Y0087387D01*
X0105619Y0088385D02*
X0095769Y0088385D01*
X0095769Y0089384D02*
X0105675Y0089384D01*
X0106673Y0090382D02*
X0095769Y0090382D01*
X0095769Y0091381D02*
X0105410Y0091381D01*
X0104411Y0092379D02*
X0095769Y0092379D01*
X0095769Y0093378D02*
X0104369Y0093378D01*
X0103404Y0094376D02*
X0100298Y0094376D01*
X0101296Y0095375D02*
X0102406Y0095375D01*
X0102860Y0097184D02*
X0106669Y0093375D01*
X0108969Y0093378D02*
X0124948Y0093378D01*
X0124850Y0094376D02*
X0108920Y0094376D01*
X0107921Y0095375D02*
X0124850Y0095375D01*
X0124850Y0096373D02*
X0105933Y0096373D01*
X0104934Y0097372D02*
X0116294Y0097372D01*
X0115619Y0098370D02*
X0104460Y0098370D01*
X0104460Y0099369D02*
X0109297Y0099369D01*
X0108298Y0100368D02*
X0104460Y0100368D01*
X0104460Y0101366D02*
X0108119Y0101366D01*
X0107291Y0102365D02*
X0104460Y0102365D01*
X0104460Y0103363D02*
X0106293Y0103363D01*
X0106260Y0104362D02*
X0104460Y0104362D01*
X0104460Y0105360D02*
X0106260Y0105360D01*
X0107860Y0104059D02*
X0110419Y0101500D01*
X0112719Y0101366D02*
X0113290Y0101366D01*
X0112539Y0100368D02*
X0114288Y0100368D01*
X0115287Y0099369D02*
X0111540Y0099369D01*
X0112860Y0104059D02*
X0117919Y0099000D01*
X0119543Y0097372D02*
X0124850Y0097372D01*
X0124850Y0098370D02*
X0120219Y0098370D01*
X0120219Y0099369D02*
X0126319Y0099369D01*
X0126319Y0100368D02*
X0119804Y0100368D01*
X0117815Y0101366D02*
X0126319Y0101366D01*
X0126319Y0102365D02*
X0116817Y0102365D01*
X0115818Y0103363D02*
X0126319Y0103363D01*
X0126319Y0104362D02*
X0114820Y0104362D01*
X0114460Y0105360D02*
X0126319Y0105360D01*
X0126319Y0106359D02*
X0115612Y0106359D01*
X0115928Y0107357D02*
X0126319Y0107357D01*
X0126319Y0108356D02*
X0115928Y0108356D01*
X0115928Y0109354D02*
X0126319Y0109354D01*
X0126319Y0110353D02*
X0115928Y0110353D01*
X0115928Y0111351D02*
X0126319Y0111351D01*
X0126319Y0112350D02*
X0115928Y0112350D01*
X0115928Y0113348D02*
X0126319Y0113348D01*
X0129519Y0113348D02*
X0201308Y0113348D01*
X0202306Y0112350D02*
X0129519Y0112350D01*
X0129519Y0111351D02*
X0202319Y0111351D01*
X0202319Y0110353D02*
X0185220Y0110353D01*
X0186219Y0109354D02*
X0202319Y0109354D01*
X0202319Y0108356D02*
X0187217Y0108356D01*
X0188216Y0107357D02*
X0202319Y0107357D01*
X0202319Y0106359D02*
X0189214Y0106359D01*
X0190213Y0105360D02*
X0202319Y0105360D01*
X0202319Y0104362D02*
X0191211Y0104362D01*
X0192119Y0103363D02*
X0202319Y0103363D01*
X0202319Y0102365D02*
X0192119Y0102365D01*
X0192119Y0101366D02*
X0202319Y0101366D01*
X0202319Y0100368D02*
X0192119Y0100368D01*
X0192119Y0099369D02*
X0202319Y0099369D01*
X0202319Y0098370D02*
X0192119Y0098370D01*
X0192119Y0097372D02*
X0202319Y0097372D01*
X0202319Y0096373D02*
X0192119Y0096373D01*
X0192119Y0095375D02*
X0202319Y0095375D01*
X0202319Y0094376D02*
X0192119Y0094376D01*
X0192119Y0093378D02*
X0202319Y0093378D01*
X0208519Y0106359D02*
X0215274Y0106359D01*
X0220987Y0111351D02*
X0231972Y0111351D01*
X0231775Y0112350D02*
X0220662Y0112350D01*
X0221283Y0113348D02*
X0231775Y0113348D01*
X0236025Y0115339D02*
X0225330Y0115339D01*
X0224169Y0116500D01*
X0225581Y0118341D02*
X0225619Y0118341D01*
X0227919Y0119000D02*
X0229021Y0117898D01*
X0236025Y0117898D01*
X0236025Y0120457D02*
X0231462Y0120457D01*
X0223069Y0114347D02*
X0221387Y0114347D01*
X0221387Y0115345D02*
X0222071Y0115345D01*
X0218403Y0117342D02*
X0217434Y0117342D01*
X0217434Y0118341D02*
X0218403Y0118341D01*
X0218403Y0119339D02*
X0217434Y0119339D01*
X0214906Y0119339D02*
X0208519Y0119339D01*
X0208519Y0118341D02*
X0214450Y0118341D01*
X0205419Y0118341D02*
X0202259Y0118341D01*
X0201261Y0117342D02*
X0205419Y0117342D01*
X0205419Y0116344D02*
X0200575Y0116344D01*
X0200419Y0116500D02*
X0205419Y0121500D01*
X0205419Y0111500D01*
X0200419Y0116500D01*
X0201573Y0115345D02*
X0205419Y0115345D01*
X0205419Y0114347D02*
X0202572Y0114347D01*
X0203570Y0113348D02*
X0205419Y0113348D01*
X0205419Y0112350D02*
X0204569Y0112350D01*
X0205822Y0109404D02*
X0205419Y0107750D01*
X0205419Y0119339D02*
X0203258Y0119339D01*
X0204256Y0120338D02*
X0205419Y0120338D01*
X0205419Y0121336D02*
X0205255Y0121336D01*
X0202319Y0121336D02*
X0134133Y0121336D01*
X0133871Y0121075D02*
X0135219Y0122422D01*
X0135219Y0124328D01*
X0133871Y0125675D01*
X0132881Y0125675D01*
X0127897Y0130659D01*
X0123763Y0130659D01*
X0123763Y0131483D01*
X0123687Y0131559D01*
X0123763Y0131635D01*
X0123763Y0136483D01*
X0123687Y0136559D01*
X0123763Y0136635D01*
X0123763Y0141483D01*
X0123687Y0141559D01*
X0123763Y0141635D01*
X0123763Y0146483D01*
X0123687Y0146559D01*
X0123763Y0146635D01*
X0123763Y0151483D01*
X0123687Y0151559D01*
X0123763Y0151635D01*
X0123763Y0156483D01*
X0123687Y0156559D01*
X0123763Y0156635D01*
X0123763Y0161483D01*
X0123687Y0161559D01*
X0123763Y0161635D01*
X0123763Y0166483D01*
X0123687Y0166559D01*
X0123763Y0166635D01*
X0123763Y0167459D01*
X0124890Y0167459D01*
X0125381Y0167950D01*
X0126371Y0167950D01*
X0127719Y0169297D01*
X0127719Y0171203D01*
X0126371Y0172550D01*
X0124466Y0172550D01*
X0123581Y0171665D01*
X0123118Y0172128D01*
X0116302Y0172128D01*
X0115657Y0171483D01*
X0115657Y0166635D01*
X0115733Y0166559D01*
X0115657Y0166483D01*
X0115657Y0165659D01*
X0115219Y0165659D01*
X0115219Y0167453D01*
X0114503Y0168168D01*
X0114460Y0172816D01*
X0114460Y0178865D01*
X0115284Y0178865D01*
X0115928Y0179509D01*
X0115928Y0186326D01*
X0115284Y0186970D01*
X0110435Y0186970D01*
X0110360Y0186894D01*
X0110284Y0186970D01*
X0109507Y0186970D01*
X0109508Y0187077D01*
X0110381Y0187950D01*
X0111371Y0187950D01*
X0112719Y0189297D01*
X0112719Y0191203D01*
X0111371Y0192550D01*
X0109466Y0192550D01*
X0108119Y0191203D01*
X0108119Y0190213D01*
X0106796Y0188890D01*
X0106329Y0188437D01*
X0106329Y0188423D01*
X0106319Y0188413D01*
X0106319Y0187762D01*
X0106306Y0186970D01*
X0105435Y0186970D01*
X0105360Y0186894D01*
X0105284Y0186970D01*
X0104460Y0186970D01*
X0104460Y0189722D01*
X0099519Y0194663D01*
X0098581Y0195600D01*
X0089571Y0195600D01*
X0088871Y0196300D01*
X0086966Y0196300D01*
X0085619Y0194953D01*
X0085619Y0193047D01*
X0086816Y0191850D01*
X0079571Y0191850D01*
X0078871Y0192550D01*
X0076966Y0192550D01*
X0075619Y0191203D01*
X0075619Y0189297D01*
X0076966Y0187950D01*
X0078871Y0187950D01*
X0079571Y0188650D01*
X0094756Y0188650D01*
X0096260Y0187146D01*
X0096260Y0186970D01*
X0095435Y0186970D01*
X0095360Y0186894D01*
X0095284Y0186970D01*
X0090435Y0186970D01*
X0090360Y0186894D01*
X0090284Y0186970D01*
X0085435Y0186970D01*
X0085360Y0186894D01*
X0085284Y0186970D01*
X0080435Y0186970D01*
X0080360Y0186894D01*
X0080284Y0186970D01*
X0075435Y0186970D01*
X0075360Y0186894D01*
X0075284Y0186970D01*
X0070435Y0186970D01*
X0070360Y0186894D01*
X0070284Y0186970D01*
X0065435Y0186970D01*
X0065360Y0186894D01*
X0065284Y0186970D01*
X0060435Y0186970D01*
X0060360Y0186894D01*
X0060284Y0186970D01*
X0055435Y0186970D01*
X0055360Y0186894D01*
X0055284Y0186970D01*
X0050849Y0186970D01*
X0050749Y0187070D01*
X0050407Y0187268D01*
X0050026Y0187370D01*
X0048344Y0187370D01*
X0048344Y0183402D01*
X0047375Y0183402D01*
X0047375Y0187370D01*
X0045694Y0187370D01*
X0045419Y0187296D01*
X0045419Y0199000D01*
X0161319Y0199000D01*
X0161319Y0177146D01*
X0160987Y0177146D01*
X0160987Y0177467D01*
X0160343Y0178112D01*
X0155494Y0178112D01*
X0154850Y0177467D01*
X0154850Y0176300D01*
X0148871Y0176300D01*
X0148669Y0176502D01*
X0150398Y0176502D01*
X0151042Y0177147D01*
X0151042Y0178669D01*
X0151157Y0178784D01*
X0151157Y0184698D01*
X0148569Y0187287D01*
X0147456Y0188400D01*
X0141206Y0188400D01*
X0139819Y0189787D01*
X0139819Y0190720D01*
X0140047Y0190815D01*
X0141104Y0191872D01*
X0141676Y0193253D01*
X0141676Y0194747D01*
X0141104Y0196128D01*
X0140047Y0197185D01*
X0138666Y0197757D01*
X0137171Y0197757D01*
X0135790Y0197185D01*
X0134733Y0196128D01*
X0134161Y0194747D01*
X0134161Y0193253D01*
X0134733Y0191872D01*
X0135790Y0190815D01*
X0136019Y0190720D01*
X0136019Y0188213D01*
X0137132Y0187100D01*
X0139632Y0184600D01*
X0145882Y0184600D01*
X0147357Y0183124D01*
X0147357Y0182639D01*
X0145557Y0182639D01*
X0145469Y0182550D01*
X0145369Y0182550D01*
X0145280Y0182639D01*
X0142998Y0182639D01*
X0142860Y0182501D01*
X0142721Y0182639D01*
X0140439Y0182639D01*
X0139795Y0181995D01*
X0139795Y0181471D01*
X0134737Y0181471D01*
X0134737Y0182467D01*
X0134093Y0183112D01*
X0129244Y0183112D01*
X0128600Y0182467D01*
X0128600Y0177225D01*
X0129244Y0176581D01*
X0134093Y0176581D01*
X0134737Y0177225D01*
X0134737Y0177671D01*
X0139795Y0177671D01*
X0139795Y0177147D01*
X0140439Y0176502D01*
X0142721Y0176502D01*
X0142860Y0176641D01*
X0142998Y0176502D01*
X0143148Y0176502D01*
X0143148Y0176462D01*
X0143148Y0175518D01*
X0143156Y0175510D01*
X0143156Y0175500D01*
X0143828Y0174838D01*
X0145090Y0173576D01*
X0142439Y0170925D01*
X0142439Y0166498D01*
X0140439Y0166498D01*
X0139795Y0165853D01*
X0139795Y0163139D01*
X0138506Y0161850D01*
X0137569Y0160913D01*
X0137569Y0155818D01*
X0136951Y0155818D01*
X0136307Y0155174D01*
X0136307Y0150326D01*
X0136951Y0149681D01*
X0142193Y0149681D01*
X0142837Y0150326D01*
X0142837Y0155174D01*
X0142193Y0155818D01*
X0140769Y0155818D01*
X0140769Y0159587D01*
X0141542Y0160361D01*
X0142721Y0160361D01*
X0142860Y0160499D01*
X0142998Y0160361D01*
X0144992Y0160361D01*
X0145092Y0160260D01*
X0145434Y0160063D01*
X0145816Y0159961D01*
X0146698Y0159961D01*
X0146698Y0163429D01*
X0146698Y0163429D01*
X0146698Y0159961D01*
X0147581Y0159961D01*
X0147962Y0160063D01*
X0148304Y0160260D01*
X0148404Y0160361D01*
X0150398Y0160361D01*
X0151042Y0161005D01*
X0151042Y0161529D01*
X0153135Y0161529D01*
X0153706Y0162100D01*
X0154819Y0163213D01*
X0154819Y0164998D01*
X0155029Y0164788D01*
X0155371Y0164590D01*
X0155753Y0164488D01*
X0157434Y0164488D01*
X0157434Y0167669D01*
X0155002Y0167669D01*
X0153871Y0168800D01*
X0151966Y0168800D01*
X0150619Y0167453D01*
X0150619Y0166277D01*
X0150398Y0166498D01*
X0148404Y0166498D01*
X0148304Y0166598D01*
X0147962Y0166795D01*
X0147581Y0166898D01*
X0146698Y0166898D01*
X0145839Y0166898D01*
X0145839Y0169516D01*
X0148023Y0171700D01*
X0155342Y0171700D01*
X0155029Y0171519D01*
X0154750Y0171240D01*
X0154552Y0170898D01*
X0154450Y0170516D01*
X0154450Y0168638D01*
X0157434Y0168638D01*
X0157434Y0167669D01*
X0158403Y0167669D01*
X0158403Y0164488D01*
X0160085Y0164488D01*
X0160466Y0164590D01*
X0160808Y0164788D01*
X0161087Y0165067D01*
X0161285Y0165409D01*
X0161387Y0165791D01*
X0161387Y0167669D01*
X0158403Y0167669D01*
X0158403Y0168638D01*
X0161387Y0168638D01*
X0161387Y0170516D01*
X0161285Y0170898D01*
X0161087Y0171240D01*
X0160808Y0171519D01*
X0160474Y0171712D01*
X0160987Y0172225D01*
X0160987Y0172546D01*
X0161319Y0172546D01*
X0161319Y0170837D01*
X0166319Y0165837D01*
X0167256Y0164900D01*
X0198581Y0164900D01*
X0199519Y0165837D01*
X0203581Y0169900D01*
X0205497Y0169900D01*
X0205218Y0169621D01*
X0205021Y0169279D01*
X0204919Y0168897D01*
X0204919Y0164800D01*
X0208319Y0164800D01*
X0208319Y0163800D01*
X0209319Y0163800D01*
X0209319Y0164800D01*
X0212719Y0164800D01*
X0212719Y0168897D01*
X0212616Y0169279D01*
X0212419Y0169621D01*
X0212140Y0169900D01*
X0214819Y0169900D01*
X0214819Y0169556D01*
X0214419Y0169156D01*
X0214419Y0159444D01*
X0214819Y0159044D01*
X0214819Y0151534D01*
X0202791Y0139506D01*
X0202319Y0138367D01*
X0202319Y0120663D01*
X0201256Y0119600D01*
X0115453Y0119600D01*
X0109675Y0125378D01*
X0108535Y0125850D01*
X0086771Y0125850D01*
X0087719Y0126797D01*
X0087719Y0128703D01*
X0086371Y0130050D01*
X0085381Y0130050D01*
X0083581Y0131850D01*
X0062331Y0131850D01*
X0059460Y0134722D01*
X0059460Y0178865D01*
X0060284Y0178865D01*
X0060360Y0178940D01*
X0060435Y0178865D01*
X0061319Y0178865D01*
X0061319Y0178153D01*
X0060619Y0177453D01*
X0060619Y0175547D01*
X0061966Y0174200D01*
X0063871Y0174200D01*
X0065219Y0175547D01*
X0065219Y0177453D01*
X0064519Y0178153D01*
X0064519Y0178865D01*
X0065284Y0178865D01*
X0065360Y0178940D01*
X0065435Y0178865D01*
X0066260Y0178865D01*
X0066260Y0173430D01*
X0066231Y0173399D01*
X0066246Y0173080D01*
X0065619Y0172453D01*
X0065619Y0170547D01*
X0066966Y0169200D01*
X0068871Y0169200D01*
X0070219Y0170547D01*
X0070219Y0172453D01*
X0069460Y0173212D01*
X0069460Y0178865D01*
X0070284Y0178865D01*
X0070360Y0178940D01*
X0070435Y0178865D01*
X0071260Y0178865D01*
X0071260Y0175896D01*
X0079369Y0167787D01*
X0079369Y0166797D01*
X0080716Y0165450D01*
X0082621Y0165450D01*
X0083969Y0166797D01*
X0083969Y0168703D01*
X0082621Y0170050D01*
X0081631Y0170050D01*
X0074460Y0177222D01*
X0074460Y0178865D01*
X0075284Y0178865D01*
X0075360Y0178940D01*
X0075435Y0178865D01*
X0080284Y0178865D01*
X0080360Y0178940D01*
X0080435Y0178865D01*
X0081260Y0178865D01*
X0081260Y0175896D01*
X0105619Y0151537D01*
X0105619Y0150547D01*
X0106966Y0149200D01*
X0108871Y0149200D01*
X0110069Y0150397D01*
X0110069Y0130653D01*
X0109369Y0129953D01*
X0109369Y0128047D01*
X0110716Y0126700D01*
X0112621Y0126700D01*
X0113921Y0128000D01*
X0115657Y0128000D01*
X0115657Y0127049D01*
X0115557Y0126949D01*
X0115359Y0126607D01*
X0115257Y0126225D01*
X0115257Y0124543D01*
X0119226Y0124543D01*
X0119226Y0123575D01*
X0120194Y0123575D01*
X0120194Y0124543D01*
X0124163Y0124543D01*
X0124163Y0126225D01*
X0124060Y0126607D01*
X0123863Y0126949D01*
X0123763Y0127049D01*
X0123763Y0127459D01*
X0126572Y0127459D01*
X0130619Y0123412D01*
X0130619Y0122422D01*
X0131966Y0121075D01*
X0133871Y0121075D01*
X0135131Y0122335D02*
X0202319Y0122335D01*
X0202319Y0123333D02*
X0135219Y0123333D01*
X0135214Y0124332D02*
X0202319Y0124332D01*
X0202319Y0125330D02*
X0134216Y0125330D01*
X0132228Y0126329D02*
X0202319Y0126329D01*
X0202319Y0127327D02*
X0131229Y0127327D01*
X0130230Y0128326D02*
X0202319Y0128326D01*
X0202319Y0129324D02*
X0129232Y0129324D01*
X0128233Y0130323D02*
X0202319Y0130323D01*
X0202319Y0131321D02*
X0123763Y0131321D01*
X0123763Y0132320D02*
X0202319Y0132320D01*
X0202319Y0133318D02*
X0130490Y0133318D01*
X0130121Y0132950D02*
X0131469Y0134297D01*
X0131469Y0134863D01*
X0133569Y0136963D01*
X0133569Y0154888D01*
X0134093Y0154888D01*
X0134737Y0155533D01*
X0134737Y0160775D01*
X0134093Y0161419D01*
X0129244Y0161419D01*
X0128600Y0160775D01*
X0128600Y0155533D01*
X0129244Y0154888D01*
X0129769Y0154888D01*
X0129769Y0138537D01*
X0128782Y0137550D01*
X0128216Y0137550D01*
X0126869Y0136203D01*
X0126869Y0134297D01*
X0128216Y0132950D01*
X0130121Y0132950D01*
X0131469Y0134317D02*
X0202319Y0134317D01*
X0202319Y0135315D02*
X0131921Y0135315D01*
X0132920Y0136314D02*
X0202319Y0136314D01*
X0202319Y0137312D02*
X0133569Y0137312D01*
X0133569Y0138311D02*
X0202319Y0138311D01*
X0202709Y0139309D02*
X0133569Y0139309D01*
X0133569Y0140308D02*
X0203593Y0140308D01*
X0204591Y0141306D02*
X0133569Y0141306D01*
X0133569Y0142305D02*
X0205590Y0142305D01*
X0206588Y0143303D02*
X0133569Y0143303D01*
X0133569Y0144302D02*
X0207587Y0144302D01*
X0208585Y0145301D02*
X0133569Y0145301D01*
X0133569Y0146299D02*
X0209584Y0146299D01*
X0210582Y0147298D02*
X0133569Y0147298D01*
X0133569Y0148296D02*
X0184769Y0148296D01*
X0184750Y0148315D02*
X0185029Y0148036D01*
X0185371Y0147838D01*
X0185753Y0147736D01*
X0187434Y0147736D01*
X0187434Y0154264D01*
X0184450Y0154264D01*
X0184450Y0149039D01*
X0184552Y0148657D01*
X0184750Y0148315D01*
X0184450Y0149295D02*
X0163677Y0149295D01*
X0163628Y0149281D02*
X0164009Y0149384D01*
X0164351Y0149581D01*
X0164631Y0149860D01*
X0164828Y0150203D01*
X0164930Y0150584D01*
X0164930Y0152266D01*
X0161749Y0152266D01*
X0161749Y0149281D01*
X0163628Y0149281D01*
X0164852Y0150293D02*
X0184450Y0150293D01*
X0184450Y0151292D02*
X0164930Y0151292D01*
X0164930Y0153234D02*
X0164930Y0154916D01*
X0164828Y0155297D01*
X0164631Y0155640D01*
X0164351Y0155919D01*
X0164009Y0156116D01*
X0163628Y0156218D01*
X0161749Y0156218D01*
X0161749Y0153234D01*
X0164930Y0153234D01*
X0164930Y0153289D02*
X0184450Y0153289D01*
X0184450Y0152290D02*
X0161749Y0152290D01*
X0161749Y0152266D02*
X0161749Y0153234D01*
X0160781Y0153234D01*
X0160781Y0156218D01*
X0158902Y0156218D01*
X0158521Y0156116D01*
X0158179Y0155919D01*
X0157899Y0155640D01*
X0157706Y0155305D01*
X0157193Y0155818D01*
X0151951Y0155818D01*
X0151307Y0155174D01*
X0151307Y0154350D01*
X0149530Y0154350D01*
X0149530Y0155174D01*
X0148886Y0155818D01*
X0143644Y0155818D01*
X0143000Y0155174D01*
X0143000Y0150326D01*
X0143644Y0149681D01*
X0148886Y0149681D01*
X0149530Y0150326D01*
X0149530Y0151150D01*
X0151307Y0151150D01*
X0151307Y0150326D01*
X0151951Y0149681D01*
X0157193Y0149681D01*
X0157706Y0150195D01*
X0157899Y0149860D01*
X0158179Y0149581D01*
X0158521Y0149384D01*
X0158902Y0149281D01*
X0160781Y0149281D01*
X0160781Y0152266D01*
X0161749Y0152266D01*
X0161749Y0151292D02*
X0160781Y0151292D01*
X0160781Y0150293D02*
X0161749Y0150293D01*
X0161749Y0149295D02*
X0160781Y0149295D01*
X0158853Y0149295D02*
X0133569Y0149295D01*
X0133569Y0150293D02*
X0136340Y0150293D01*
X0136307Y0151292D02*
X0133569Y0151292D01*
X0133569Y0152290D02*
X0136307Y0152290D01*
X0136307Y0153289D02*
X0133569Y0153289D01*
X0133569Y0154287D02*
X0136307Y0154287D01*
X0136418Y0155286D02*
X0134490Y0155286D01*
X0134737Y0156284D02*
X0137569Y0156284D01*
X0137569Y0157283D02*
X0134737Y0157283D01*
X0134737Y0158281D02*
X0137569Y0158281D01*
X0137569Y0159280D02*
X0134737Y0159280D01*
X0134737Y0160278D02*
X0137569Y0160278D01*
X0137933Y0161277D02*
X0134235Y0161277D01*
X0134093Y0161581D02*
X0134737Y0162225D01*
X0134737Y0167467D01*
X0134093Y0168112D01*
X0133569Y0168112D01*
X0133569Y0169888D01*
X0134093Y0169888D01*
X0134737Y0170533D01*
X0134737Y0175775D01*
X0134093Y0176419D01*
X0129244Y0176419D01*
X0128600Y0175775D01*
X0128600Y0170533D01*
X0129244Y0169888D01*
X0129769Y0169888D01*
X0129769Y0168112D01*
X0129244Y0168112D01*
X0128600Y0167467D01*
X0128600Y0162225D01*
X0129244Y0161581D01*
X0134093Y0161581D01*
X0134737Y0162275D02*
X0138931Y0162275D01*
X0139795Y0163274D02*
X0134737Y0163274D01*
X0134737Y0164272D02*
X0139795Y0164272D01*
X0139795Y0165271D02*
X0134737Y0165271D01*
X0134737Y0166269D02*
X0140211Y0166269D01*
X0142439Y0167268D02*
X0134737Y0167268D01*
X0133569Y0168266D02*
X0142439Y0168266D01*
X0142439Y0169265D02*
X0133569Y0169265D01*
X0134468Y0170263D02*
X0142439Y0170263D01*
X0142776Y0171262D02*
X0134737Y0171262D01*
X0134737Y0172260D02*
X0143775Y0172260D01*
X0144773Y0173259D02*
X0134737Y0173259D01*
X0134737Y0174257D02*
X0144409Y0174257D01*
X0143403Y0175256D02*
X0134737Y0175256D01*
X0134257Y0176254D02*
X0143148Y0176254D01*
X0139795Y0177253D02*
X0134737Y0177253D01*
X0131944Y0179571D02*
X0131669Y0179846D01*
X0128600Y0180248D02*
X0115928Y0180248D01*
X0115928Y0181247D02*
X0128600Y0181247D01*
X0128600Y0182245D02*
X0115928Y0182245D01*
X0115928Y0183244D02*
X0147238Y0183244D01*
X0146239Y0184242D02*
X0115928Y0184242D01*
X0115928Y0185241D02*
X0138991Y0185241D01*
X0137992Y0186239D02*
X0115928Y0186239D01*
X0112656Y0189235D02*
X0136019Y0189235D01*
X0136019Y0188237D02*
X0111658Y0188237D01*
X0109669Y0187238D02*
X0136994Y0187238D01*
X0140371Y0189235D02*
X0161319Y0189235D01*
X0161319Y0188237D02*
X0147619Y0188237D01*
X0148618Y0187238D02*
X0161319Y0187238D01*
X0161319Y0186239D02*
X0149616Y0186239D01*
X0150615Y0185241D02*
X0161319Y0185241D01*
X0161319Y0184242D02*
X0151157Y0184242D01*
X0151157Y0183244D02*
X0161319Y0183244D01*
X0161319Y0182245D02*
X0151157Y0182245D01*
X0151157Y0181247D02*
X0161319Y0181247D01*
X0161319Y0180248D02*
X0151157Y0180248D01*
X0151157Y0179250D02*
X0161319Y0179250D01*
X0161319Y0178251D02*
X0151042Y0178251D01*
X0151042Y0177253D02*
X0154850Y0177253D01*
X0160987Y0177253D02*
X0161319Y0177253D01*
X0162919Y0177253D02*
X0231409Y0177253D01*
X0232407Y0178251D02*
X0162919Y0178251D01*
X0162919Y0179250D02*
X0233406Y0179250D01*
X0234404Y0180248D02*
X0162919Y0180248D01*
X0162919Y0181247D02*
X0235403Y0181247D01*
X0236401Y0182245D02*
X0162919Y0182245D01*
X0162919Y0183244D02*
X0237400Y0183244D01*
X0238398Y0184242D02*
X0162919Y0184242D01*
X0162919Y0185241D02*
X0239397Y0185241D01*
X0240395Y0186239D02*
X0162919Y0186239D01*
X0162919Y0187238D02*
X0241394Y0187238D01*
X0242392Y0188237D02*
X0162919Y0188237D01*
X0162919Y0189235D02*
X0243391Y0189235D01*
X0244389Y0190234D02*
X0162919Y0190234D01*
X0162919Y0191232D02*
X0245388Y0191232D01*
X0246386Y0192231D02*
X0162919Y0192231D01*
X0162919Y0193229D02*
X0247385Y0193229D01*
X0248383Y0194228D02*
X0162919Y0194228D01*
X0162919Y0195226D02*
X0249382Y0195226D01*
X0250380Y0196225D02*
X0162919Y0196225D01*
X0162919Y0197223D02*
X0251379Y0197223D01*
X0252377Y0198222D02*
X0162919Y0198222D01*
X0162919Y0199000D02*
X0252919Y0199000D01*
X0252919Y0198763D01*
X0225656Y0171500D01*
X0202919Y0171500D01*
X0197919Y0166500D01*
X0167919Y0166500D01*
X0162919Y0171500D01*
X0162919Y0199000D01*
X0161319Y0198222D02*
X0045419Y0198222D01*
X0045419Y0197223D02*
X0135881Y0197223D01*
X0134829Y0196225D02*
X0088947Y0196225D01*
X0086891Y0196225D02*
X0045419Y0196225D01*
X0045419Y0195226D02*
X0085892Y0195226D01*
X0085619Y0194228D02*
X0045419Y0194228D01*
X0045419Y0193229D02*
X0085619Y0193229D01*
X0086435Y0192231D02*
X0079191Y0192231D01*
X0077919Y0190250D02*
X0095419Y0190250D01*
X0097860Y0187809D01*
X0097860Y0182917D01*
X0092860Y0182917D02*
X0092860Y0176559D01*
X0107919Y0161500D01*
X0108544Y0161500D01*
X0111669Y0160250D02*
X0111669Y0129000D01*
X0113249Y0127327D02*
X0115657Y0127327D01*
X0115285Y0126329D02*
X0087250Y0126329D01*
X0087719Y0127327D02*
X0110089Y0127327D01*
X0109369Y0128326D02*
X0087719Y0128326D01*
X0087097Y0129324D02*
X0109369Y0129324D01*
X0109739Y0130323D02*
X0085108Y0130323D01*
X0084110Y0131321D02*
X0110069Y0131321D01*
X0110069Y0132320D02*
X0061861Y0132320D01*
X0060863Y0133318D02*
X0110069Y0133318D01*
X0110069Y0134317D02*
X0059864Y0134317D01*
X0059460Y0135315D02*
X0064959Y0135315D01*
X0064966Y0135291D02*
X0065163Y0134949D01*
X0065442Y0134670D01*
X0065784Y0134472D01*
X0066166Y0134370D01*
X0077675Y0134370D01*
X0077675Y0147181D01*
X0078674Y0147181D01*
X0078674Y0134370D01*
X0090183Y0134370D01*
X0090565Y0134472D01*
X0090907Y0134670D01*
X0091186Y0134949D01*
X0091383Y0135291D01*
X0091486Y0135673D01*
X0091486Y0147181D01*
X0078675Y0147181D01*
X0078675Y0148181D01*
X0091486Y0148181D01*
X0091486Y0159690D01*
X0091383Y0160071D01*
X0091186Y0160413D01*
X0090907Y0160692D01*
X0090565Y0160890D01*
X0090183Y0160992D01*
X0078674Y0160992D01*
X0078674Y0148181D01*
X0077675Y0148181D01*
X0077675Y0160992D01*
X0066166Y0160992D01*
X0065784Y0160890D01*
X0065442Y0160692D01*
X0065163Y0160413D01*
X0064966Y0160071D01*
X0064863Y0159690D01*
X0064863Y0148181D01*
X0077674Y0148181D01*
X0077674Y0147181D01*
X0064863Y0147181D01*
X0064863Y0135673D01*
X0064966Y0135291D01*
X0064863Y0136314D02*
X0059460Y0136314D01*
X0059460Y0137312D02*
X0064863Y0137312D01*
X0064863Y0138311D02*
X0059460Y0138311D01*
X0059460Y0139309D02*
X0064863Y0139309D01*
X0064863Y0140308D02*
X0059460Y0140308D01*
X0059460Y0141306D02*
X0064863Y0141306D01*
X0064863Y0142305D02*
X0059460Y0142305D01*
X0059460Y0143303D02*
X0064863Y0143303D01*
X0064863Y0144302D02*
X0059460Y0144302D01*
X0059460Y0145301D02*
X0064863Y0145301D01*
X0064863Y0146299D02*
X0059460Y0146299D01*
X0059460Y0147298D02*
X0077674Y0147298D01*
X0077675Y0148296D02*
X0078674Y0148296D01*
X0078675Y0147298D02*
X0110069Y0147298D01*
X0110069Y0148296D02*
X0091486Y0148296D01*
X0091486Y0149295D02*
X0106871Y0149295D01*
X0105873Y0150293D02*
X0091486Y0150293D01*
X0091486Y0151292D02*
X0105619Y0151292D01*
X0104866Y0152290D02*
X0091486Y0152290D01*
X0091486Y0153289D02*
X0103867Y0153289D01*
X0102869Y0154287D02*
X0091486Y0154287D01*
X0091486Y0155286D02*
X0101870Y0155286D01*
X0100872Y0156284D02*
X0091486Y0156284D01*
X0091486Y0157283D02*
X0099873Y0157283D01*
X0098875Y0158281D02*
X0091486Y0158281D01*
X0091486Y0159280D02*
X0097876Y0159280D01*
X0096878Y0160278D02*
X0091264Y0160278D01*
X0093882Y0163274D02*
X0059460Y0163274D01*
X0059460Y0164272D02*
X0092884Y0164272D01*
X0091885Y0165271D02*
X0059460Y0165271D01*
X0059460Y0166269D02*
X0079897Y0166269D01*
X0079369Y0167268D02*
X0059460Y0167268D01*
X0059460Y0168266D02*
X0078890Y0168266D01*
X0077891Y0169265D02*
X0068936Y0169265D01*
X0069935Y0170263D02*
X0076893Y0170263D01*
X0075894Y0171262D02*
X0070219Y0171262D01*
X0070219Y0172260D02*
X0074896Y0172260D01*
X0073897Y0173259D02*
X0069460Y0173259D01*
X0069460Y0174257D02*
X0072899Y0174257D01*
X0071900Y0175256D02*
X0069460Y0175256D01*
X0069460Y0176254D02*
X0071260Y0176254D01*
X0071260Y0177253D02*
X0069460Y0177253D01*
X0069460Y0178251D02*
X0071260Y0178251D01*
X0072860Y0176559D02*
X0081669Y0167750D01*
X0083406Y0169265D02*
X0087891Y0169265D01*
X0086893Y0170263D02*
X0081418Y0170263D01*
X0080420Y0171262D02*
X0085894Y0171262D01*
X0084896Y0172260D02*
X0079421Y0172260D01*
X0078422Y0173259D02*
X0083897Y0173259D01*
X0082899Y0174257D02*
X0077424Y0174257D01*
X0076425Y0175256D02*
X0081900Y0175256D01*
X0081260Y0176254D02*
X0075427Y0176254D01*
X0074460Y0177253D02*
X0081260Y0177253D01*
X0081260Y0178251D02*
X0074460Y0178251D01*
X0072860Y0176559D02*
X0072860Y0182917D01*
X0067860Y0182917D02*
X0067860Y0172809D01*
X0067919Y0171500D01*
X0065619Y0171262D02*
X0059460Y0171262D01*
X0059460Y0172260D02*
X0065619Y0172260D01*
X0066238Y0173259D02*
X0059460Y0173259D01*
X0059460Y0174257D02*
X0061909Y0174257D01*
X0060910Y0175256D02*
X0059460Y0175256D01*
X0059460Y0176254D02*
X0060619Y0176254D01*
X0060619Y0177253D02*
X0059460Y0177253D01*
X0059460Y0178251D02*
X0061319Y0178251D01*
X0062919Y0176500D02*
X0062919Y0182858D01*
X0062860Y0182917D01*
X0057860Y0182917D02*
X0057860Y0134059D01*
X0061669Y0130250D01*
X0082919Y0130250D01*
X0085419Y0127750D01*
X0083119Y0127787D02*
X0082256Y0128650D01*
X0061006Y0128650D01*
X0060069Y0129587D01*
X0056260Y0133396D01*
X0056260Y0178865D01*
X0055435Y0178865D01*
X0055360Y0178940D01*
X0055284Y0178865D01*
X0050849Y0178865D01*
X0050749Y0178764D01*
X0050407Y0178567D01*
X0050026Y0178465D01*
X0048344Y0178465D01*
X0048344Y0182433D01*
X0047375Y0182433D01*
X0047375Y0178465D01*
X0045694Y0178465D01*
X0045419Y0178538D01*
X0045419Y0114462D01*
X0045694Y0114535D01*
X0047375Y0114535D01*
X0047375Y0110567D01*
X0048344Y0110567D01*
X0048344Y0114535D01*
X0049760Y0114535D01*
X0049760Y0117058D01*
X0050231Y0118197D01*
X0057413Y0125378D01*
X0058552Y0125850D01*
X0084066Y0125850D01*
X0083119Y0126797D01*
X0083119Y0127787D01*
X0083119Y0127327D02*
X0045419Y0127327D01*
X0045419Y0126329D02*
X0083587Y0126329D01*
X0082580Y0128326D02*
X0045419Y0128326D01*
X0045419Y0129324D02*
X0060332Y0129324D01*
X0059333Y0130323D02*
X0045419Y0130323D01*
X0045419Y0131321D02*
X0058334Y0131321D01*
X0057336Y0132320D02*
X0045419Y0132320D01*
X0045419Y0133318D02*
X0056337Y0133318D01*
X0056260Y0134317D02*
X0045419Y0134317D01*
X0045419Y0135315D02*
X0056260Y0135315D01*
X0056260Y0136314D02*
X0045419Y0136314D01*
X0045419Y0137312D02*
X0056260Y0137312D01*
X0056260Y0138311D02*
X0045419Y0138311D01*
X0045419Y0139309D02*
X0056260Y0139309D01*
X0056260Y0140308D02*
X0045419Y0140308D01*
X0045419Y0141306D02*
X0056260Y0141306D01*
X0056260Y0142305D02*
X0045419Y0142305D01*
X0045419Y0143303D02*
X0056260Y0143303D01*
X0056260Y0144302D02*
X0045419Y0144302D01*
X0045419Y0145301D02*
X0056260Y0145301D01*
X0056260Y0146299D02*
X0045419Y0146299D01*
X0045419Y0147298D02*
X0056260Y0147298D01*
X0056260Y0148296D02*
X0045419Y0148296D01*
X0045419Y0149295D02*
X0056260Y0149295D01*
X0056260Y0150293D02*
X0045419Y0150293D01*
X0045419Y0151292D02*
X0056260Y0151292D01*
X0056260Y0152290D02*
X0045419Y0152290D01*
X0045419Y0153289D02*
X0056260Y0153289D01*
X0056260Y0154287D02*
X0045419Y0154287D01*
X0045419Y0155286D02*
X0056260Y0155286D01*
X0056260Y0156284D02*
X0045419Y0156284D01*
X0045419Y0157283D02*
X0056260Y0157283D01*
X0056260Y0158281D02*
X0045419Y0158281D01*
X0045419Y0159280D02*
X0056260Y0159280D01*
X0056260Y0160278D02*
X0045419Y0160278D01*
X0045419Y0161277D02*
X0056260Y0161277D01*
X0056260Y0162275D02*
X0045419Y0162275D01*
X0045419Y0163274D02*
X0056260Y0163274D01*
X0056260Y0164272D02*
X0045419Y0164272D01*
X0045419Y0165271D02*
X0056260Y0165271D01*
X0056260Y0166269D02*
X0045419Y0166269D01*
X0045419Y0167268D02*
X0056260Y0167268D01*
X0056260Y0168266D02*
X0045419Y0168266D01*
X0045419Y0169265D02*
X0056260Y0169265D01*
X0056260Y0170263D02*
X0045419Y0170263D01*
X0045419Y0171262D02*
X0056260Y0171262D01*
X0056260Y0172260D02*
X0045419Y0172260D01*
X0045419Y0173259D02*
X0056260Y0173259D01*
X0056260Y0174257D02*
X0045419Y0174257D01*
X0045419Y0175256D02*
X0056260Y0175256D01*
X0056260Y0176254D02*
X0045419Y0176254D01*
X0045419Y0177253D02*
X0056260Y0177253D01*
X0056260Y0178251D02*
X0045419Y0178251D01*
X0047375Y0179250D02*
X0048344Y0179250D01*
X0048344Y0180248D02*
X0047375Y0180248D01*
X0047375Y0181247D02*
X0048344Y0181247D01*
X0048344Y0182245D02*
X0047375Y0182245D01*
X0047375Y0184242D02*
X0048344Y0184242D01*
X0048344Y0185241D02*
X0047375Y0185241D01*
X0047375Y0186239D02*
X0048344Y0186239D01*
X0048344Y0187238D02*
X0047375Y0187238D01*
X0045419Y0188237D02*
X0076679Y0188237D01*
X0075681Y0189235D02*
X0045419Y0189235D01*
X0045419Y0190234D02*
X0075619Y0190234D01*
X0075648Y0191232D02*
X0045419Y0191232D01*
X0045419Y0192231D02*
X0076646Y0192231D01*
X0079158Y0188237D02*
X0095169Y0188237D01*
X0096168Y0187238D02*
X0050459Y0187238D01*
X0064519Y0178251D02*
X0066260Y0178251D01*
X0066260Y0177253D02*
X0065219Y0177253D01*
X0065219Y0176254D02*
X0066260Y0176254D01*
X0066260Y0175256D02*
X0064927Y0175256D01*
X0063929Y0174257D02*
X0066260Y0174257D01*
X0065903Y0170263D02*
X0059460Y0170263D01*
X0059460Y0169265D02*
X0066901Y0169265D01*
X0059460Y0162275D02*
X0094881Y0162275D01*
X0095879Y0161277D02*
X0059460Y0161277D01*
X0059460Y0160278D02*
X0065085Y0160278D01*
X0064863Y0159280D02*
X0059460Y0159280D01*
X0059460Y0158281D02*
X0064863Y0158281D01*
X0064863Y0157283D02*
X0059460Y0157283D01*
X0059460Y0156284D02*
X0064863Y0156284D01*
X0064863Y0155286D02*
X0059460Y0155286D01*
X0059460Y0154287D02*
X0064863Y0154287D01*
X0064863Y0153289D02*
X0059460Y0153289D01*
X0059460Y0152290D02*
X0064863Y0152290D01*
X0064863Y0151292D02*
X0059460Y0151292D01*
X0059460Y0150293D02*
X0064863Y0150293D01*
X0064863Y0149295D02*
X0059460Y0149295D01*
X0059460Y0148296D02*
X0064863Y0148296D01*
X0077675Y0149295D02*
X0078674Y0149295D01*
X0078674Y0150293D02*
X0077675Y0150293D01*
X0077675Y0151292D02*
X0078674Y0151292D01*
X0078674Y0152290D02*
X0077675Y0152290D01*
X0077675Y0153289D02*
X0078674Y0153289D01*
X0078674Y0154287D02*
X0077675Y0154287D01*
X0077675Y0155286D02*
X0078674Y0155286D01*
X0078674Y0156284D02*
X0077675Y0156284D01*
X0077675Y0157283D02*
X0078674Y0157283D01*
X0078674Y0158281D02*
X0077675Y0158281D01*
X0077675Y0159280D02*
X0078674Y0159280D01*
X0078674Y0160278D02*
X0077675Y0160278D01*
X0083441Y0166269D02*
X0090887Y0166269D01*
X0089888Y0167268D02*
X0083969Y0167268D01*
X0083969Y0168266D02*
X0088890Y0168266D01*
X0087860Y0176559D02*
X0107919Y0156500D01*
X0107919Y0151500D02*
X0082860Y0176559D01*
X0082860Y0182917D01*
X0087860Y0182917D02*
X0087860Y0176559D01*
X0102860Y0182917D02*
X0102860Y0189059D01*
X0097919Y0194000D01*
X0087919Y0194000D01*
X0098955Y0195226D02*
X0134359Y0195226D01*
X0134161Y0194228D02*
X0099954Y0194228D01*
X0100952Y0193229D02*
X0134171Y0193229D01*
X0134584Y0192231D02*
X0111691Y0192231D01*
X0112689Y0191232D02*
X0135373Y0191232D01*
X0136019Y0190234D02*
X0112719Y0190234D01*
X0110419Y0190250D02*
X0107919Y0187750D01*
X0107860Y0183941D01*
X0107860Y0182917D01*
X0112860Y0182917D02*
X0112860Y0172809D01*
X0112919Y0166500D01*
X0115219Y0166269D02*
X0115657Y0166269D01*
X0115657Y0167268D02*
X0115219Y0167268D01*
X0115657Y0168266D02*
X0114502Y0168266D01*
X0114493Y0169265D02*
X0115657Y0169265D01*
X0115657Y0170263D02*
X0114483Y0170263D01*
X0114474Y0171262D02*
X0115657Y0171262D01*
X0114465Y0172260D02*
X0124176Y0172260D01*
X0125419Y0170250D02*
X0124228Y0169059D01*
X0119710Y0169059D01*
X0119710Y0168291D01*
X0123763Y0167268D02*
X0128600Y0167268D01*
X0128600Y0166269D02*
X0123763Y0166269D01*
X0123763Y0165271D02*
X0128600Y0165271D01*
X0128600Y0164272D02*
X0123763Y0164272D01*
X0123763Y0163274D02*
X0128600Y0163274D01*
X0128600Y0162275D02*
X0123763Y0162275D01*
X0123763Y0161277D02*
X0129102Y0161277D01*
X0128600Y0160278D02*
X0123763Y0160278D01*
X0123763Y0159280D02*
X0128600Y0159280D01*
X0128600Y0158281D02*
X0123763Y0158281D01*
X0123763Y0157283D02*
X0128600Y0157283D01*
X0128600Y0156284D02*
X0123763Y0156284D01*
X0123763Y0155286D02*
X0128847Y0155286D01*
X0129769Y0154287D02*
X0123763Y0154287D01*
X0123763Y0153289D02*
X0129769Y0153289D01*
X0129769Y0152290D02*
X0123763Y0152290D01*
X0123763Y0151292D02*
X0129769Y0151292D01*
X0129769Y0150293D02*
X0123763Y0150293D01*
X0123763Y0149295D02*
X0129769Y0149295D01*
X0129769Y0148296D02*
X0123763Y0148296D01*
X0123763Y0147298D02*
X0129769Y0147298D01*
X0129769Y0146299D02*
X0123763Y0146299D01*
X0123763Y0145301D02*
X0129769Y0145301D01*
X0129769Y0144302D02*
X0123763Y0144302D01*
X0123763Y0143303D02*
X0129769Y0143303D01*
X0129769Y0142305D02*
X0123763Y0142305D01*
X0123763Y0141306D02*
X0129769Y0141306D01*
X0129769Y0140308D02*
X0123763Y0140308D01*
X0123763Y0139309D02*
X0129769Y0139309D01*
X0129543Y0138311D02*
X0123763Y0138311D01*
X0123763Y0137312D02*
X0127978Y0137312D01*
X0126980Y0136314D02*
X0123763Y0136314D01*
X0123763Y0135315D02*
X0126869Y0135315D01*
X0126869Y0134317D02*
X0123763Y0134317D01*
X0123763Y0133318D02*
X0127848Y0133318D01*
X0127235Y0129059D02*
X0132919Y0123375D01*
X0130619Y0123333D02*
X0124163Y0123333D01*
X0124163Y0123575D02*
X0124163Y0121893D01*
X0124060Y0121512D01*
X0123863Y0121170D01*
X0123584Y0120890D01*
X0123242Y0120693D01*
X0122860Y0120591D01*
X0120194Y0120591D01*
X0120194Y0123575D01*
X0124163Y0123575D01*
X0124163Y0122335D02*
X0130706Y0122335D01*
X0131705Y0121336D02*
X0123959Y0121336D01*
X0120194Y0121336D02*
X0119226Y0121336D01*
X0119226Y0120591D02*
X0119226Y0123575D01*
X0115257Y0123575D01*
X0115257Y0121893D01*
X0115359Y0121512D01*
X0115557Y0121170D01*
X0115836Y0120890D01*
X0116178Y0120693D01*
X0116560Y0120591D01*
X0119226Y0120591D01*
X0119226Y0122335D02*
X0120194Y0122335D01*
X0120194Y0123333D02*
X0119226Y0123333D01*
X0119226Y0124332D02*
X0110721Y0124332D01*
X0109722Y0125330D02*
X0115257Y0125330D01*
X0115257Y0123333D02*
X0111719Y0123333D01*
X0112718Y0122335D02*
X0115257Y0122335D01*
X0115461Y0121336D02*
X0113716Y0121336D01*
X0114715Y0120338D02*
X0201994Y0120338D01*
X0224088Y0132320D02*
X0225056Y0132320D01*
X0225056Y0133318D02*
X0224088Y0133318D01*
X0224088Y0134317D02*
X0225056Y0134317D01*
X0227980Y0134317D02*
X0228392Y0134317D01*
X0211581Y0148296D02*
X0191068Y0148296D01*
X0191087Y0148315D02*
X0191285Y0148657D01*
X0191387Y0149039D01*
X0191387Y0154264D01*
X0188403Y0154264D01*
X0188403Y0155232D01*
X0191387Y0155232D01*
X0191387Y0160457D01*
X0191285Y0160839D01*
X0191087Y0161181D01*
X0190808Y0161460D01*
X0190466Y0161658D01*
X0190085Y0161760D01*
X0188403Y0161760D01*
X0188403Y0155232D01*
X0187434Y0155232D01*
X0187434Y0154264D01*
X0188403Y0154264D01*
X0188403Y0147736D01*
X0190085Y0147736D01*
X0190466Y0147838D01*
X0190808Y0148036D01*
X0191087Y0148315D01*
X0191387Y0149295D02*
X0212579Y0149295D01*
X0213578Y0150293D02*
X0191387Y0150293D01*
X0191387Y0151292D02*
X0214576Y0151292D01*
X0214819Y0152290D02*
X0191387Y0152290D01*
X0191387Y0153289D02*
X0214819Y0153289D01*
X0214819Y0154287D02*
X0188403Y0154287D01*
X0187434Y0154287D02*
X0164930Y0154287D01*
X0164831Y0155286D02*
X0184450Y0155286D01*
X0184450Y0155232D02*
X0184450Y0160457D01*
X0184552Y0160839D01*
X0184750Y0161181D01*
X0185029Y0161460D01*
X0185371Y0161658D01*
X0185753Y0161760D01*
X0187434Y0161760D01*
X0187434Y0155232D01*
X0184450Y0155232D01*
X0184450Y0156284D02*
X0140769Y0156284D01*
X0140769Y0157283D02*
X0184450Y0157283D01*
X0184450Y0158281D02*
X0140769Y0158281D01*
X0140769Y0159280D02*
X0184450Y0159280D01*
X0184450Y0160278D02*
X0148322Y0160278D01*
X0146698Y0160278D02*
X0146698Y0160278D01*
X0146698Y0161277D02*
X0146698Y0161277D01*
X0146698Y0162275D02*
X0146698Y0162275D01*
X0146698Y0163274D02*
X0146698Y0163274D01*
X0146698Y0163429D02*
X0146698Y0166898D01*
X0146698Y0163429D01*
X0146698Y0163429D01*
X0146698Y0164272D02*
X0146698Y0164272D01*
X0146698Y0165271D02*
X0146698Y0165271D01*
X0146698Y0166269D02*
X0146698Y0166269D01*
X0145839Y0167268D02*
X0150619Y0167268D01*
X0151432Y0168266D02*
X0145839Y0168266D01*
X0145839Y0169265D02*
X0154450Y0169265D01*
X0154450Y0170263D02*
X0146586Y0170263D01*
X0147585Y0171262D02*
X0154772Y0171262D01*
X0154405Y0168266D02*
X0157434Y0168266D01*
X0158403Y0168266D02*
X0163890Y0168266D01*
X0164888Y0167268D02*
X0161387Y0167268D01*
X0161387Y0166269D02*
X0165887Y0166269D01*
X0166885Y0165271D02*
X0161205Y0165271D01*
X0158403Y0165271D02*
X0157434Y0165271D01*
X0157434Y0166269D02*
X0158403Y0166269D01*
X0158403Y0167268D02*
X0157434Y0167268D01*
X0154819Y0164272D02*
X0208319Y0164272D01*
X0208319Y0163800D02*
X0204919Y0163800D01*
X0204919Y0159703D01*
X0205021Y0159321D01*
X0205218Y0158979D01*
X0205498Y0158700D01*
X0205840Y0158502D01*
X0206221Y0158400D01*
X0208319Y0158400D01*
X0208319Y0163800D01*
X0208319Y0163274D02*
X0209319Y0163274D01*
X0209319Y0163800D02*
X0209319Y0158400D01*
X0211416Y0158400D01*
X0211798Y0158502D01*
X0212140Y0158700D01*
X0212419Y0158979D01*
X0212616Y0159321D01*
X0212719Y0159703D01*
X0212719Y0163800D01*
X0209319Y0163800D01*
X0209319Y0164272D02*
X0214419Y0164272D01*
X0214419Y0163274D02*
X0212719Y0163274D01*
X0212719Y0162275D02*
X0214419Y0162275D01*
X0214419Y0161277D02*
X0212719Y0161277D01*
X0212719Y0160278D02*
X0214419Y0160278D01*
X0214583Y0159280D02*
X0212592Y0159280D01*
X0214819Y0158281D02*
X0191387Y0158281D01*
X0191387Y0157283D02*
X0214819Y0157283D01*
X0214819Y0156284D02*
X0191387Y0156284D01*
X0191387Y0155286D02*
X0214819Y0155286D01*
X0209319Y0159280D02*
X0208319Y0159280D01*
X0208319Y0160278D02*
X0209319Y0160278D01*
X0209319Y0161277D02*
X0208319Y0161277D01*
X0208319Y0162275D02*
X0209319Y0162275D01*
X0204919Y0162275D02*
X0153881Y0162275D01*
X0154819Y0163274D02*
X0204919Y0163274D01*
X0204919Y0165271D02*
X0198952Y0165271D01*
X0199519Y0165837D02*
X0199519Y0165837D01*
X0199951Y0166269D02*
X0204919Y0166269D01*
X0204919Y0167268D02*
X0200949Y0167268D01*
X0201948Y0168266D02*
X0204919Y0168266D01*
X0205017Y0169265D02*
X0202946Y0169265D01*
X0201682Y0170263D02*
X0164155Y0170263D01*
X0163157Y0171262D02*
X0202680Y0171262D01*
X0200683Y0169265D02*
X0165154Y0169265D01*
X0166152Y0168266D02*
X0199685Y0168266D01*
X0198686Y0167268D02*
X0167151Y0167268D01*
X0162891Y0169265D02*
X0161387Y0169265D01*
X0161387Y0170263D02*
X0161893Y0170263D01*
X0161319Y0171262D02*
X0161065Y0171262D01*
X0160987Y0172260D02*
X0161319Y0172260D01*
X0162919Y0172260D02*
X0226416Y0172260D01*
X0227415Y0173259D02*
X0162919Y0173259D01*
X0162919Y0174257D02*
X0228413Y0174257D01*
X0229412Y0175256D02*
X0162919Y0175256D01*
X0162919Y0176254D02*
X0230410Y0176254D01*
X0231674Y0175256D02*
X0285419Y0175256D01*
X0285419Y0176254D02*
X0232673Y0176254D01*
X0233671Y0177253D02*
X0285419Y0177253D01*
X0285419Y0178251D02*
X0234670Y0178251D01*
X0235669Y0179250D02*
X0285419Y0179250D01*
X0285419Y0180248D02*
X0236667Y0180248D01*
X0237666Y0181247D02*
X0285419Y0181247D01*
X0285419Y0182245D02*
X0238664Y0182245D01*
X0239663Y0183244D02*
X0285419Y0183244D01*
X0285419Y0184242D02*
X0240661Y0184242D01*
X0241660Y0185241D02*
X0285419Y0185241D01*
X0285419Y0186239D02*
X0242658Y0186239D01*
X0243657Y0187238D02*
X0285419Y0187238D01*
X0285419Y0188237D02*
X0244655Y0188237D01*
X0245654Y0189235D02*
X0285419Y0189235D01*
X0285419Y0190234D02*
X0246652Y0190234D01*
X0247651Y0191232D02*
X0285419Y0191232D01*
X0285361Y0192231D02*
X0248649Y0192231D01*
X0249648Y0193229D02*
X0285146Y0193229D01*
X0284821Y0194228D02*
X0250646Y0194228D01*
X0251645Y0195226D02*
X0284368Y0195226D01*
X0283642Y0196225D02*
X0252643Y0196225D01*
X0253642Y0197223D02*
X0282644Y0197223D01*
X0281203Y0198222D02*
X0254640Y0198222D01*
X0247919Y0176500D02*
X0247919Y0173252D01*
X0246167Y0171500D01*
X0240454Y0164272D02*
X0277311Y0164272D01*
X0276656Y0163274D02*
X0239519Y0163274D01*
X0239519Y0162275D02*
X0276332Y0162275D01*
X0285419Y0172260D02*
X0228679Y0172260D01*
X0229677Y0173259D02*
X0285419Y0173259D01*
X0285419Y0174257D02*
X0230676Y0174257D01*
X0239519Y0161277D02*
X0244846Y0161277D01*
X0244750Y0161181D02*
X0244552Y0160839D01*
X0244450Y0160457D01*
X0244450Y0155232D01*
X0247434Y0155232D01*
X0247434Y0161760D01*
X0245753Y0161760D01*
X0245371Y0161658D01*
X0245029Y0161460D01*
X0244750Y0161181D01*
X0244450Y0160278D02*
X0239519Y0160278D01*
X0239519Y0159280D02*
X0244450Y0159280D01*
X0244450Y0158281D02*
X0239519Y0158281D01*
X0239519Y0157283D02*
X0244450Y0157283D01*
X0244450Y0156284D02*
X0239519Y0156284D01*
X0239519Y0155286D02*
X0244450Y0155286D01*
X0247434Y0155286D02*
X0248403Y0155286D01*
X0248403Y0156284D02*
X0247434Y0156284D01*
X0247434Y0157283D02*
X0248403Y0157283D01*
X0248403Y0158281D02*
X0247434Y0158281D01*
X0247434Y0159280D02*
X0248403Y0159280D01*
X0248403Y0160278D02*
X0247434Y0160278D01*
X0247434Y0161277D02*
X0248403Y0161277D01*
X0248403Y0153289D02*
X0247434Y0153289D01*
X0214419Y0165271D02*
X0212719Y0165271D01*
X0212719Y0166269D02*
X0214419Y0166269D01*
X0214419Y0167268D02*
X0212719Y0167268D01*
X0212719Y0168266D02*
X0214419Y0168266D01*
X0214528Y0169265D02*
X0212620Y0169265D01*
X0204919Y0161277D02*
X0190992Y0161277D01*
X0191387Y0160278D02*
X0204919Y0160278D01*
X0205045Y0159280D02*
X0191387Y0159280D01*
X0188403Y0159280D02*
X0187434Y0159280D01*
X0187434Y0160278D02*
X0188403Y0160278D01*
X0188403Y0161277D02*
X0187434Y0161277D01*
X0184846Y0161277D02*
X0151042Y0161277D01*
X0145074Y0160278D02*
X0141460Y0160278D01*
X0139169Y0160250D02*
X0141580Y0162661D01*
X0141580Y0163429D01*
X0139169Y0160250D02*
X0139169Y0154404D01*
X0139572Y0152750D01*
X0142837Y0152290D02*
X0143000Y0152290D01*
X0143000Y0151292D02*
X0142837Y0151292D01*
X0142805Y0150293D02*
X0143032Y0150293D01*
X0143000Y0153289D02*
X0142837Y0153289D01*
X0142837Y0154287D02*
X0143000Y0154287D01*
X0143111Y0155286D02*
X0142726Y0155286D01*
X0146265Y0152750D02*
X0154572Y0152750D01*
X0151418Y0155286D02*
X0149419Y0155286D01*
X0149498Y0150293D02*
X0151340Y0150293D01*
X0160781Y0153289D02*
X0161749Y0153289D01*
X0161749Y0154287D02*
X0160781Y0154287D01*
X0160781Y0155286D02*
X0161749Y0155286D01*
X0187434Y0155286D02*
X0188403Y0155286D01*
X0188403Y0156284D02*
X0187434Y0156284D01*
X0187434Y0157283D02*
X0188403Y0157283D01*
X0188403Y0158281D02*
X0187434Y0158281D01*
X0187434Y0153289D02*
X0188403Y0153289D01*
X0188403Y0152290D02*
X0187434Y0152290D01*
X0187434Y0151292D02*
X0188403Y0151292D01*
X0188403Y0150293D02*
X0187434Y0150293D01*
X0187434Y0149295D02*
X0188403Y0149295D01*
X0188403Y0148296D02*
X0187434Y0148296D01*
X0187919Y0173252D02*
X0187919Y0176500D01*
X0161319Y0190234D02*
X0139819Y0190234D01*
X0140465Y0191232D02*
X0145373Y0191232D01*
X0145790Y0190815D02*
X0147171Y0190243D01*
X0148666Y0190243D01*
X0150047Y0190815D01*
X0151104Y0191872D01*
X0151676Y0193253D01*
X0151676Y0194747D01*
X0151104Y0196128D01*
X0150047Y0197185D01*
X0148666Y0197757D01*
X0147171Y0197757D01*
X0145790Y0197185D01*
X0144733Y0196128D01*
X0144161Y0194747D01*
X0144161Y0193253D01*
X0144733Y0191872D01*
X0145790Y0190815D01*
X0144584Y0192231D02*
X0141253Y0192231D01*
X0141666Y0193229D02*
X0144171Y0193229D01*
X0144161Y0194228D02*
X0141676Y0194228D01*
X0141478Y0195226D02*
X0144359Y0195226D01*
X0144829Y0196225D02*
X0141008Y0196225D01*
X0139956Y0197223D02*
X0145881Y0197223D01*
X0149956Y0197223D02*
X0161319Y0197223D01*
X0161319Y0196225D02*
X0151008Y0196225D01*
X0151478Y0195226D02*
X0161319Y0195226D01*
X0161319Y0194228D02*
X0151676Y0194228D01*
X0151666Y0193229D02*
X0161319Y0193229D01*
X0161319Y0192231D02*
X0151253Y0192231D01*
X0150465Y0191232D02*
X0161319Y0191232D01*
X0146698Y0179571D02*
X0144139Y0179571D01*
X0140045Y0182245D02*
X0134737Y0182245D01*
X0128600Y0179250D02*
X0115669Y0179250D01*
X0114460Y0178251D02*
X0128600Y0178251D01*
X0128600Y0177253D02*
X0114460Y0177253D01*
X0114460Y0176254D02*
X0129080Y0176254D01*
X0128600Y0175256D02*
X0114460Y0175256D01*
X0114460Y0174257D02*
X0128600Y0174257D01*
X0128600Y0173259D02*
X0114460Y0173259D01*
X0115478Y0164059D02*
X0111669Y0160250D01*
X0115478Y0164059D02*
X0119710Y0164059D01*
X0126688Y0168266D02*
X0129769Y0168266D01*
X0129769Y0169265D02*
X0127686Y0169265D01*
X0127719Y0170263D02*
X0128869Y0170263D01*
X0128600Y0171262D02*
X0127659Y0171262D01*
X0128600Y0172260D02*
X0126661Y0172260D01*
X0106310Y0187238D02*
X0104460Y0187238D01*
X0104460Y0188237D02*
X0106319Y0188237D01*
X0107141Y0189235D02*
X0104460Y0189235D01*
X0103948Y0190234D02*
X0108119Y0190234D01*
X0108148Y0191232D02*
X0102949Y0191232D01*
X0101951Y0192231D02*
X0109146Y0192231D01*
X0109964Y0150293D02*
X0110069Y0150293D01*
X0110069Y0149295D02*
X0108966Y0149295D01*
X0110069Y0146299D02*
X0091486Y0146299D01*
X0091486Y0145301D02*
X0110069Y0145301D01*
X0110069Y0144302D02*
X0091486Y0144302D01*
X0091486Y0143303D02*
X0110069Y0143303D01*
X0110069Y0142305D02*
X0091486Y0142305D01*
X0091486Y0141306D02*
X0110069Y0141306D01*
X0110069Y0140308D02*
X0091486Y0140308D01*
X0091486Y0139309D02*
X0110069Y0139309D01*
X0110069Y0138311D02*
X0091486Y0138311D01*
X0091486Y0137312D02*
X0110069Y0137312D01*
X0110069Y0136314D02*
X0091486Y0136314D01*
X0091390Y0135315D02*
X0110069Y0135315D01*
X0119710Y0129059D02*
X0127235Y0129059D01*
X0126704Y0127327D02*
X0123763Y0127327D01*
X0124135Y0126329D02*
X0127702Y0126329D01*
X0128701Y0125330D02*
X0124163Y0125330D01*
X0120194Y0124332D02*
X0129699Y0124332D01*
X0127919Y0116500D02*
X0127919Y0096096D01*
X0130987Y0096373D02*
X0145449Y0096373D01*
X0144850Y0095375D02*
X0130987Y0095375D01*
X0130987Y0094376D02*
X0144850Y0094376D01*
X0144850Y0093378D02*
X0130890Y0093378D01*
X0130632Y0092379D02*
X0144850Y0092379D01*
X0144850Y0091381D02*
X0130987Y0091381D01*
X0130987Y0090382D02*
X0145000Y0090382D01*
X0149284Y0089384D02*
X0130987Y0089384D01*
X0127919Y0089404D02*
X0127919Y0087750D01*
X0150419Y0087750D01*
X0154169Y0084000D01*
X0154169Y0080576D01*
X0154080Y0080487D01*
X0151521Y0080487D02*
X0151521Y0082898D01*
X0149169Y0085250D01*
X0111669Y0085250D01*
X0107919Y0088375D02*
X0107919Y0071500D01*
X0109085Y0069414D02*
X0110057Y0069414D01*
X0105419Y0066500D02*
X0105419Y0062346D01*
X0102350Y0062424D02*
X0088519Y0062424D01*
X0088519Y0061426D02*
X0102350Y0061426D01*
X0102350Y0060427D02*
X0088519Y0060427D01*
X0088519Y0060230D02*
X0088519Y0065445D01*
X0087874Y0066089D01*
X0085463Y0066089D01*
X0085419Y0066045D01*
X0085374Y0066089D01*
X0083269Y0066089D01*
X0083269Y0067181D01*
X0085943Y0067181D01*
X0086456Y0067695D01*
X0086649Y0067360D01*
X0086929Y0067081D01*
X0087271Y0066884D01*
X0087652Y0066781D01*
X0089531Y0066781D01*
X0089531Y0069766D01*
X0090499Y0069766D01*
X0090499Y0066781D01*
X0092378Y0066781D01*
X0092759Y0066884D01*
X0093101Y0067081D01*
X0093381Y0067360D01*
X0093578Y0067703D01*
X0093680Y0068084D01*
X0093680Y0069766D01*
X0090499Y0069766D01*
X0090499Y0070734D01*
X0089531Y0070734D01*
X0089531Y0073718D01*
X0087652Y0073718D01*
X0087271Y0073616D01*
X0086929Y0073419D01*
X0086649Y0073140D01*
X0086456Y0072805D01*
X0085943Y0073318D01*
X0080701Y0073318D01*
X0080057Y0072674D01*
X0080057Y0069125D01*
X0077719Y0071463D01*
X0077719Y0072453D01*
X0076371Y0073800D01*
X0074466Y0073800D01*
X0073119Y0072453D01*
X0073119Y0070547D01*
X0074466Y0069200D01*
X0075456Y0069200D01*
X0077569Y0067087D01*
X0077569Y0066089D01*
X0075940Y0066089D01*
X0075840Y0066189D01*
X0075498Y0066387D01*
X0075116Y0066489D01*
X0074169Y0066489D01*
X0074169Y0062838D01*
X0074169Y0062838D01*
X0074169Y0066489D01*
X0073221Y0066489D01*
X0072840Y0066387D01*
X0072498Y0066189D01*
X0072397Y0066089D01*
X0070463Y0066089D01*
X0070419Y0066045D01*
X0070374Y0066089D01*
X0067963Y0066089D01*
X0067919Y0066045D01*
X0067874Y0066089D01*
X0065463Y0066089D01*
X0065419Y0066045D01*
X0065374Y0066089D01*
X0062963Y0066089D01*
X0062319Y0065445D01*
X0062319Y0060230D01*
X0062963Y0059586D01*
X0065374Y0059586D01*
X0065419Y0059630D01*
X0065463Y0059586D01*
X0067874Y0059586D01*
X0067919Y0059630D01*
X0067963Y0059586D01*
X0070374Y0059586D01*
X0070419Y0059630D01*
X0070463Y0059586D01*
X0072397Y0059586D01*
X0072498Y0059486D01*
X0072840Y0059288D01*
X0073221Y0059186D01*
X0074169Y0059186D01*
X0075116Y0059186D01*
X0075498Y0059288D01*
X0075840Y0059486D01*
X0075940Y0059586D01*
X0077874Y0059586D01*
X0077919Y0059630D01*
X0077963Y0059586D01*
X0080069Y0059586D01*
X0080069Y0051903D01*
X0079369Y0051203D01*
X0079369Y0049297D01*
X0080716Y0047950D01*
X0082621Y0047950D01*
X0083969Y0049297D01*
X0083969Y0051203D01*
X0083269Y0051903D01*
X0083269Y0059586D01*
X0085374Y0059586D01*
X0085419Y0059630D01*
X0085463Y0059586D01*
X0087874Y0059586D01*
X0088519Y0060230D01*
X0088519Y0063423D02*
X0102350Y0063423D01*
X0102350Y0064421D02*
X0088519Y0064421D01*
X0088519Y0065420D02*
X0102802Y0065420D01*
X0103238Y0066418D02*
X0083269Y0066418D01*
X0081669Y0068596D02*
X0083322Y0070250D01*
X0081669Y0068596D02*
X0081669Y0062837D01*
X0081669Y0050250D01*
X0083969Y0050442D02*
X0104665Y0050442D01*
X0104665Y0051440D02*
X0083731Y0051440D01*
X0083269Y0052439D02*
X0102944Y0052439D01*
X0102350Y0053437D02*
X0083269Y0053437D01*
X0083269Y0054436D02*
X0102350Y0054436D01*
X0102350Y0055434D02*
X0083269Y0055434D01*
X0083269Y0056433D02*
X0102350Y0056433D01*
X0102350Y0057432D02*
X0083269Y0057432D01*
X0083269Y0058430D02*
X0102506Y0058430D01*
X0102647Y0059429D02*
X0083269Y0059429D01*
X0080069Y0059429D02*
X0075741Y0059429D01*
X0074169Y0059429D02*
X0074169Y0059429D01*
X0074169Y0059186D02*
X0074169Y0062837D01*
X0074169Y0062837D01*
X0074169Y0059186D01*
X0074169Y0060427D02*
X0074169Y0060427D01*
X0074169Y0061426D02*
X0074169Y0061426D01*
X0074169Y0062424D02*
X0074169Y0062424D01*
X0074169Y0063423D02*
X0074169Y0063423D01*
X0074169Y0064421D02*
X0074169Y0064421D01*
X0074169Y0065420D02*
X0074169Y0065420D01*
X0074169Y0066418D02*
X0074169Y0066418D01*
X0075380Y0066418D02*
X0077569Y0066418D01*
X0077239Y0067417D02*
X0047030Y0067417D01*
X0047030Y0068415D02*
X0076241Y0068415D01*
X0074252Y0069414D02*
X0047030Y0069414D01*
X0047030Y0070412D02*
X0073254Y0070412D01*
X0073119Y0071411D02*
X0047030Y0071411D01*
X0044169Y0068596D02*
X0043765Y0069000D01*
X0040657Y0066418D02*
X0040615Y0066418D01*
X0042269Y0065420D02*
X0020419Y0065420D01*
X0020419Y0066418D02*
X0033529Y0066418D01*
X0033407Y0067417D02*
X0020419Y0067417D01*
X0020419Y0068415D02*
X0033407Y0068415D01*
X0033407Y0069484D02*
X0036588Y0069484D01*
X0036588Y0072468D01*
X0034709Y0072468D01*
X0034328Y0072366D01*
X0033986Y0072169D01*
X0033706Y0071890D01*
X0033509Y0071547D01*
X0033407Y0071166D01*
X0033407Y0069484D01*
X0033407Y0070412D02*
X0020419Y0070412D01*
X0020419Y0069414D02*
X0036588Y0069414D01*
X0036588Y0070412D02*
X0037556Y0070412D01*
X0037556Y0071411D02*
X0036588Y0071411D01*
X0036588Y0072409D02*
X0037556Y0072409D01*
X0039656Y0072409D02*
X0073119Y0072409D01*
X0074074Y0073408D02*
X0020419Y0073408D01*
X0020419Y0074406D02*
X0095250Y0074406D01*
X0096248Y0073408D02*
X0093113Y0073408D01*
X0093101Y0073419D02*
X0092759Y0073616D01*
X0092378Y0073718D01*
X0090499Y0073718D01*
X0090499Y0070734D01*
X0093680Y0070734D01*
X0093680Y0072416D01*
X0093578Y0072797D01*
X0093381Y0073140D01*
X0093101Y0073419D01*
X0093680Y0072409D02*
X0097247Y0072409D01*
X0098245Y0071411D02*
X0093680Y0071411D01*
X0093680Y0069414D02*
X0100242Y0069414D01*
X0099244Y0070412D02*
X0090499Y0070412D01*
X0090499Y0069414D02*
X0089531Y0069414D01*
X0089531Y0068415D02*
X0090499Y0068415D01*
X0090499Y0067417D02*
X0089531Y0067417D01*
X0086617Y0067417D02*
X0086178Y0067417D01*
X0089531Y0071411D02*
X0090499Y0071411D01*
X0090499Y0072409D02*
X0089531Y0072409D01*
X0089531Y0073408D02*
X0090499Y0073408D01*
X0089076Y0074788D02*
X0089355Y0075067D01*
X0089553Y0075409D01*
X0089655Y0075791D01*
X0089655Y0077128D01*
X0086228Y0077128D01*
X0086228Y0074488D01*
X0088352Y0074488D01*
X0088734Y0074590D01*
X0089076Y0074788D01*
X0089550Y0075405D02*
X0094251Y0075405D01*
X0093253Y0076403D02*
X0089655Y0076403D01*
X0089655Y0078400D02*
X0091256Y0078400D01*
X0092254Y0077402D02*
X0086228Y0077402D01*
X0085948Y0077402D02*
X0069889Y0077402D01*
X0069609Y0077402D02*
X0057237Y0077402D01*
X0057237Y0078400D02*
X0066182Y0078400D01*
X0065257Y0079399D02*
X0057677Y0079399D01*
X0058675Y0080397D02*
X0064259Y0080397D01*
X0063260Y0081396D02*
X0059460Y0081396D01*
X0059460Y0082394D02*
X0062569Y0082394D01*
X0062569Y0083393D02*
X0059460Y0083393D01*
X0059460Y0084391D02*
X0062569Y0084391D01*
X0062569Y0085390D02*
X0059460Y0085390D01*
X0059460Y0086388D02*
X0062569Y0086388D01*
X0062793Y0087387D02*
X0059460Y0087387D01*
X0059460Y0088385D02*
X0063791Y0088385D01*
X0064790Y0089384D02*
X0059460Y0089384D01*
X0059460Y0090382D02*
X0065788Y0090382D01*
X0066669Y0089000D02*
X0064169Y0086500D01*
X0064169Y0082750D01*
X0066669Y0080250D01*
X0091669Y0080250D01*
X0105419Y0066500D01*
X0108035Y0065420D02*
X0109496Y0065420D01*
X0116178Y0067417D02*
X0117159Y0067417D01*
X0116750Y0068415D02*
X0116587Y0068415D01*
X0116587Y0069414D02*
X0116750Y0069414D01*
X0116750Y0070412D02*
X0116587Y0070412D01*
X0116587Y0071411D02*
X0116750Y0071411D01*
X0116750Y0072409D02*
X0116587Y0072409D01*
X0102239Y0067417D02*
X0093413Y0067417D01*
X0093680Y0068415D02*
X0101241Y0068415D01*
X0086918Y0073408D02*
X0076764Y0073408D01*
X0077719Y0072409D02*
X0080057Y0072409D01*
X0080057Y0071411D02*
X0077771Y0071411D01*
X0078769Y0070412D02*
X0080057Y0070412D01*
X0080057Y0069414D02*
X0079768Y0069414D01*
X0079169Y0067750D02*
X0075419Y0071500D01*
X0073211Y0075405D02*
X0082626Y0075405D01*
X0082521Y0076403D02*
X0073316Y0076403D01*
X0073316Y0078400D02*
X0082104Y0078400D01*
X0085948Y0076403D02*
X0086228Y0076403D01*
X0086228Y0075405D02*
X0085948Y0075405D01*
X0079169Y0067750D02*
X0079169Y0062837D01*
X0080069Y0058430D02*
X0056223Y0058430D01*
X0056223Y0057432D02*
X0080069Y0057432D01*
X0080069Y0056433D02*
X0056223Y0056433D01*
X0056223Y0055434D02*
X0080069Y0055434D01*
X0080069Y0054436D02*
X0056223Y0054436D01*
X0056223Y0053437D02*
X0080069Y0053437D01*
X0080069Y0052439D02*
X0056004Y0052439D01*
X0053165Y0051440D02*
X0079606Y0051440D01*
X0079369Y0050442D02*
X0053677Y0050442D01*
X0051777Y0044650D02*
X0064769Y0044650D01*
X0066669Y0042750D01*
X0066669Y0040163D01*
X0069169Y0040163D02*
X0071669Y0040163D01*
X0069169Y0040163D02*
X0069169Y0044000D01*
X0064169Y0040163D02*
X0064169Y0037750D01*
X0062919Y0036500D01*
X0061669Y0036500D01*
X0056669Y0041500D01*
X0051777Y0041500D01*
X0056814Y0038460D02*
X0057446Y0038460D01*
X0056814Y0037461D02*
X0058445Y0037461D01*
X0059443Y0036463D02*
X0057192Y0036463D01*
X0057214Y0035464D02*
X0060442Y0035464D01*
X0057214Y0035201D02*
X0051777Y0035201D01*
X0051777Y0035201D01*
X0057214Y0035201D01*
X0051777Y0035201D02*
X0051777Y0032717D01*
X0051777Y0035201D01*
X0051777Y0035201D01*
X0051777Y0034466D02*
X0051777Y0034466D01*
X0051777Y0033467D02*
X0051777Y0033467D01*
X0045362Y0029473D02*
X0041647Y0029473D01*
X0041647Y0028475D02*
X0045362Y0028475D01*
X0045362Y0027476D02*
X0041647Y0027476D01*
X0041647Y0026478D02*
X0045362Y0026478D01*
X0045362Y0025479D02*
X0035357Y0025479D01*
X0035357Y0024481D02*
X0045362Y0024481D01*
X0045362Y0023482D02*
X0035357Y0023482D01*
X0035357Y0022484D02*
X0045362Y0022484D01*
X0045362Y0021485D02*
X0035357Y0021485D01*
X0035357Y0020487D02*
X0045362Y0020487D01*
X0045461Y0019488D02*
X0035258Y0019488D01*
X0024595Y0019488D02*
X0020783Y0019488D01*
X0020498Y0020487D02*
X0024496Y0020487D01*
X0024496Y0021485D02*
X0020420Y0021485D01*
X0020419Y0022484D02*
X0024496Y0022484D01*
X0024496Y0023482D02*
X0020419Y0023482D01*
X0020419Y0024481D02*
X0024496Y0024481D01*
X0024496Y0025479D02*
X0020419Y0025479D01*
X0025504Y0014496D02*
X0262919Y0014496D01*
X0262919Y0015494D02*
X0235112Y0015494D01*
X0236752Y0016493D02*
X0262919Y0016493D01*
X0262919Y0017491D02*
X0237751Y0017491D01*
X0238749Y0018490D02*
X0262919Y0018490D01*
X0262919Y0019488D02*
X0239748Y0019488D01*
X0240746Y0020487D02*
X0262919Y0020487D01*
X0262919Y0021485D02*
X0241745Y0021485D01*
X0242743Y0022484D02*
X0262919Y0022484D01*
X0262919Y0023482D02*
X0243742Y0023482D01*
X0244740Y0024481D02*
X0262919Y0024481D01*
X0262919Y0025479D02*
X0245739Y0025479D01*
X0183764Y0077402D02*
X0182073Y0077402D01*
X0182719Y0078400D02*
X0183119Y0078400D01*
X0178764Y0077402D02*
X0177073Y0077402D01*
X0177719Y0078400D02*
X0178119Y0078400D01*
X0173764Y0077402D02*
X0172073Y0077402D01*
X0172719Y0078400D02*
X0173119Y0078400D01*
X0168764Y0077402D02*
X0158339Y0077402D01*
X0156639Y0075220D02*
X0155419Y0074000D01*
X0148962Y0080487D02*
X0148796Y0080654D01*
X0154192Y0091381D02*
X0154850Y0091381D01*
X0154850Y0092379D02*
X0151097Y0092379D01*
X0150987Y0093378D02*
X0154850Y0093378D01*
X0154850Y0094376D02*
X0150987Y0094376D01*
X0150987Y0095375D02*
X0154850Y0095375D01*
X0155449Y0096373D02*
X0150388Y0096373D01*
X0150987Y0097372D02*
X0154850Y0097372D01*
X0154850Y0098370D02*
X0150987Y0098370D01*
X0150987Y0099369D02*
X0154850Y0099369D01*
X0154850Y0100368D02*
X0150987Y0100368D01*
X0151439Y0101366D02*
X0154850Y0101366D01*
X0154850Y0102365D02*
X0152437Y0102365D01*
X0153436Y0103363D02*
X0158627Y0103363D01*
X0159626Y0104362D02*
X0154434Y0104362D01*
X0155433Y0105360D02*
X0160625Y0105360D01*
X0161623Y0106359D02*
X0156431Y0106359D01*
X0153620Y0108356D02*
X0129519Y0108356D01*
X0129519Y0109354D02*
X0154619Y0109354D01*
X0155617Y0110353D02*
X0129519Y0110353D01*
X0129519Y0107357D02*
X0152622Y0107357D01*
X0151623Y0106359D02*
X0129519Y0106359D01*
X0129519Y0105360D02*
X0150625Y0105360D01*
X0149626Y0104362D02*
X0129519Y0104362D01*
X0129519Y0103363D02*
X0148627Y0103363D01*
X0147919Y0100250D02*
X0147919Y0099846D01*
X0144850Y0099369D02*
X0129519Y0099369D01*
X0129519Y0100368D02*
X0144850Y0100368D01*
X0144850Y0101366D02*
X0129519Y0101366D01*
X0129519Y0102365D02*
X0144850Y0102365D01*
X0144850Y0098370D02*
X0130987Y0098370D01*
X0130987Y0097372D02*
X0144850Y0097372D01*
X0157919Y0099846D02*
X0157919Y0100250D01*
X0160987Y0100368D02*
X0164850Y0100368D01*
X0164850Y0101366D02*
X0161439Y0101366D01*
X0162437Y0102365D02*
X0164850Y0102365D01*
X0163436Y0103363D02*
X0168627Y0103363D01*
X0169626Y0104362D02*
X0164434Y0104362D01*
X0162469Y0107204D02*
X0162469Y0107204D01*
X0167919Y0100250D02*
X0167919Y0099846D01*
X0170987Y0099369D02*
X0174850Y0099369D01*
X0174850Y0098370D02*
X0170987Y0098370D01*
X0170987Y0097372D02*
X0174850Y0097372D01*
X0175449Y0096373D02*
X0170388Y0096373D01*
X0170987Y0095375D02*
X0174850Y0095375D01*
X0174850Y0094376D02*
X0170987Y0094376D01*
X0170987Y0093378D02*
X0174850Y0093378D01*
X0174740Y0092379D02*
X0170987Y0092379D01*
X0170987Y0091381D02*
X0173742Y0091381D01*
X0172743Y0090382D02*
X0170837Y0090382D01*
X0171745Y0089384D02*
X0166553Y0089384D01*
X0166016Y0088385D02*
X0170746Y0088385D01*
X0168901Y0087387D02*
X0166016Y0087387D01*
X0166016Y0086388D02*
X0167903Y0086388D01*
X0166904Y0085390D02*
X0166016Y0085390D01*
X0163742Y0091381D02*
X0162095Y0091381D01*
X0162461Y0091015D02*
X0162461Y0091015D01*
X0161097Y0092379D02*
X0164740Y0092379D01*
X0164850Y0093378D02*
X0160987Y0093378D01*
X0160987Y0094376D02*
X0164850Y0094376D01*
X0164850Y0095375D02*
X0160987Y0095375D01*
X0160388Y0096373D02*
X0165449Y0096373D01*
X0164850Y0097372D02*
X0160987Y0097372D01*
X0160987Y0098370D02*
X0164850Y0098370D01*
X0164850Y0099369D02*
X0160987Y0099369D01*
X0170987Y0100368D02*
X0174850Y0100368D01*
X0174850Y0101366D02*
X0171439Y0101366D01*
X0172437Y0102365D02*
X0174850Y0102365D01*
X0171669Y0104000D02*
X0181669Y0104000D01*
X0235389Y0110220D02*
X0237294Y0109000D01*
X0236025Y0110220D02*
X0235389Y0110220D01*
X0127919Y0087750D02*
X0126044Y0088375D01*
X0107919Y0088375D01*
X0109164Y0090382D02*
X0124850Y0090382D01*
X0124850Y0091381D02*
X0107927Y0091381D01*
X0108926Y0092379D02*
X0125205Y0092379D01*
X0112860Y0104059D02*
X0112860Y0110083D01*
X0107860Y0110083D02*
X0107860Y0104059D01*
X0102860Y0110083D02*
X0102860Y0097184D01*
X0099169Y0096500D02*
X0097294Y0098375D01*
X0097294Y0102125D01*
X0092919Y0106500D01*
X0092919Y0110024D01*
X0092860Y0110083D01*
X0097860Y0110083D02*
X0097860Y0111441D01*
X0087860Y0110083D02*
X0087860Y0101559D01*
X0091669Y0097750D01*
X0091669Y0092750D01*
X0087919Y0089000D01*
X0066669Y0089000D01*
X0069749Y0085732D02*
X0086088Y0085732D01*
X0090901Y0085732D01*
X0094169Y0089000D01*
X0094169Y0100875D01*
X0095769Y0097372D02*
X0096034Y0097372D01*
X0095769Y0096373D02*
X0096869Y0096373D01*
X0097041Y0095375D02*
X0095769Y0095375D01*
X0095769Y0094376D02*
X0098039Y0094376D01*
X0090069Y0094376D02*
X0089673Y0094376D01*
X0090034Y0093378D02*
X0083049Y0093378D01*
X0083344Y0094376D02*
X0087414Y0094376D01*
X0086416Y0095375D02*
X0083344Y0095375D01*
X0082548Y0096373D02*
X0086244Y0096373D01*
X0085409Y0097372D02*
X0080984Y0097372D01*
X0079985Y0098370D02*
X0084410Y0098370D01*
X0083412Y0099369D02*
X0079760Y0099369D01*
X0079760Y0100368D02*
X0082413Y0100368D01*
X0081415Y0101366D02*
X0079760Y0101366D01*
X0079760Y0102365D02*
X0081260Y0102365D01*
X0081260Y0103363D02*
X0079760Y0103363D01*
X0079760Y0104362D02*
X0081260Y0104362D01*
X0081260Y0105360D02*
X0079760Y0105360D01*
X0075960Y0105360D02*
X0059460Y0105360D01*
X0059460Y0104362D02*
X0075960Y0104362D01*
X0075960Y0103363D02*
X0059460Y0103363D01*
X0059460Y0102365D02*
X0075960Y0102365D01*
X0075960Y0101366D02*
X0059460Y0101366D01*
X0059460Y0100368D02*
X0075960Y0100368D01*
X0075960Y0099369D02*
X0059460Y0099369D01*
X0059460Y0098370D02*
X0075960Y0098370D01*
X0075960Y0097372D02*
X0059460Y0097372D01*
X0059460Y0096373D02*
X0076608Y0096373D01*
X0077607Y0095375D02*
X0059460Y0095375D01*
X0059460Y0094376D02*
X0078605Y0094376D01*
X0079038Y0093378D02*
X0059460Y0093378D01*
X0059460Y0092379D02*
X0080036Y0092379D01*
X0082051Y0092379D02*
X0089035Y0092379D01*
X0088037Y0091381D02*
X0059460Y0091381D01*
X0051100Y0086388D02*
X0049655Y0086388D01*
X0049655Y0085872D02*
X0049655Y0087209D01*
X0049553Y0087591D01*
X0049355Y0087933D01*
X0049076Y0088212D01*
X0048734Y0088410D01*
X0048352Y0088512D01*
X0046228Y0088512D01*
X0046228Y0085872D01*
X0049655Y0085872D01*
X0049655Y0085592D02*
X0046228Y0085592D01*
X0046228Y0082953D01*
X0048352Y0082953D01*
X0048734Y0083055D01*
X0049076Y0083252D01*
X0049355Y0083532D01*
X0049553Y0083874D01*
X0049655Y0084255D01*
X0049655Y0085592D01*
X0049655Y0085390D02*
X0051100Y0085390D01*
X0051100Y0084391D02*
X0049655Y0084391D01*
X0049216Y0083393D02*
X0051100Y0083393D01*
X0051100Y0082394D02*
X0020419Y0082394D01*
X0020419Y0081396D02*
X0051721Y0081396D01*
X0051100Y0080397D02*
X0020419Y0080397D01*
X0020419Y0079399D02*
X0026978Y0079399D01*
X0026582Y0078400D02*
X0020419Y0078400D01*
X0020419Y0077402D02*
X0026582Y0077402D01*
X0026582Y0076403D02*
X0020419Y0076403D01*
X0020419Y0075405D02*
X0026710Y0075405D01*
X0029749Y0077268D02*
X0046088Y0077268D01*
X0046974Y0078154D01*
X0054169Y0078154D01*
X0057860Y0081844D01*
X0057860Y0110083D01*
X0050560Y0105360D02*
X0020419Y0105360D01*
X0020419Y0104362D02*
X0050560Y0104362D01*
X0050560Y0103363D02*
X0020419Y0103363D01*
X0020419Y0102365D02*
X0039325Y0102365D01*
X0039328Y0102366D02*
X0038986Y0102169D01*
X0038706Y0101890D01*
X0038509Y0101547D01*
X0038407Y0101166D01*
X0038407Y0099484D01*
X0041588Y0099484D01*
X0041588Y0102468D01*
X0039709Y0102468D01*
X0039328Y0102366D01*
X0038460Y0101366D02*
X0020419Y0101366D01*
X0020419Y0100368D02*
X0038407Y0100368D01*
X0038407Y0098370D02*
X0020419Y0098370D01*
X0020419Y0097372D02*
X0038407Y0097372D01*
X0038555Y0096373D02*
X0020419Y0096373D01*
X0020419Y0095375D02*
X0050560Y0095375D01*
X0050560Y0094376D02*
X0020419Y0094376D01*
X0020419Y0093378D02*
X0050560Y0093378D01*
X0050560Y0092379D02*
X0020419Y0092379D01*
X0020419Y0091381D02*
X0050560Y0091381D01*
X0050560Y0090382D02*
X0020419Y0090382D01*
X0020419Y0089384D02*
X0050560Y0089384D01*
X0050520Y0088385D02*
X0048776Y0088385D01*
X0049607Y0087387D02*
X0050864Y0087387D01*
X0046228Y0087387D02*
X0045948Y0087387D01*
X0045948Y0088385D02*
X0046228Y0088385D01*
X0045948Y0088512D02*
X0043823Y0088512D01*
X0043442Y0088410D01*
X0043100Y0088212D01*
X0042821Y0087933D01*
X0042623Y0087591D01*
X0042521Y0087209D01*
X0042521Y0085872D01*
X0045948Y0085872D01*
X0045948Y0085592D01*
X0046228Y0085592D01*
X0046228Y0085872D01*
X0045948Y0085872D01*
X0045948Y0088512D01*
X0045948Y0086388D02*
X0046228Y0086388D01*
X0045948Y0085592D02*
X0042521Y0085592D01*
X0042521Y0084255D01*
X0042623Y0083874D01*
X0042821Y0083532D01*
X0043100Y0083252D01*
X0043442Y0083055D01*
X0043823Y0082953D01*
X0045948Y0082953D01*
X0045948Y0085592D01*
X0045948Y0085390D02*
X0046228Y0085390D01*
X0046228Y0084391D02*
X0045948Y0084391D01*
X0045948Y0083393D02*
X0046228Y0083393D01*
X0042960Y0083393D02*
X0032878Y0083393D01*
X0033017Y0083532D02*
X0032737Y0083252D01*
X0032395Y0083055D01*
X0032014Y0082953D01*
X0029889Y0082953D01*
X0029889Y0085592D01*
X0029610Y0085592D01*
X0029610Y0082953D01*
X0027485Y0082953D01*
X0027103Y0083055D01*
X0026761Y0083252D01*
X0026482Y0083532D01*
X0026285Y0083874D01*
X0026182Y0084255D01*
X0026182Y0085592D01*
X0029609Y0085592D01*
X0029609Y0085872D01*
X0026182Y0085872D01*
X0026182Y0087209D01*
X0026285Y0087591D01*
X0026482Y0087933D01*
X0026761Y0088212D01*
X0027103Y0088410D01*
X0027485Y0088512D01*
X0029610Y0088512D01*
X0029610Y0085872D01*
X0029889Y0085872D01*
X0029889Y0088512D01*
X0032014Y0088512D01*
X0032395Y0088410D01*
X0032737Y0088212D01*
X0033017Y0087933D01*
X0033214Y0087591D01*
X0033316Y0087209D01*
X0033316Y0085872D01*
X0029889Y0085872D01*
X0029889Y0085592D01*
X0033316Y0085592D01*
X0033316Y0084255D01*
X0033214Y0083874D01*
X0033017Y0083532D01*
X0033316Y0084391D02*
X0042521Y0084391D01*
X0042521Y0085390D02*
X0033316Y0085390D01*
X0033316Y0086388D02*
X0042521Y0086388D01*
X0042569Y0087387D02*
X0033269Y0087387D01*
X0032437Y0088385D02*
X0043400Y0088385D01*
X0042556Y0096373D02*
X0041588Y0096373D01*
X0041588Y0097372D02*
X0042556Y0097372D01*
X0042556Y0098370D02*
X0041588Y0098370D01*
X0041588Y0099369D02*
X0020419Y0099369D01*
X0020419Y0106359D02*
X0044604Y0106359D01*
X0047375Y0106359D02*
X0048344Y0106359D01*
X0048344Y0107357D02*
X0047375Y0107357D01*
X0047375Y0108356D02*
X0048344Y0108356D01*
X0048344Y0109354D02*
X0047375Y0109354D01*
X0047375Y0111351D02*
X0048344Y0111351D01*
X0048344Y0112350D02*
X0047375Y0112350D01*
X0047375Y0113348D02*
X0048344Y0113348D01*
X0048344Y0114347D02*
X0047375Y0114347D01*
X0045419Y0115345D02*
X0049760Y0115345D01*
X0049760Y0116344D02*
X0045419Y0116344D01*
X0045419Y0117342D02*
X0049877Y0117342D01*
X0050375Y0118341D02*
X0045419Y0118341D01*
X0045419Y0119339D02*
X0051374Y0119339D01*
X0052372Y0120338D02*
X0045419Y0120338D01*
X0045419Y0121336D02*
X0053371Y0121336D01*
X0054369Y0122335D02*
X0045419Y0122335D01*
X0045419Y0123333D02*
X0055368Y0123333D01*
X0056366Y0124332D02*
X0045419Y0124332D01*
X0045419Y0125330D02*
X0057365Y0125330D01*
X0072860Y0112691D02*
X0072860Y0110083D01*
X0082860Y0110083D02*
X0082860Y0102184D01*
X0088544Y0096500D01*
X0069889Y0076403D02*
X0069610Y0076403D01*
X0069610Y0075405D02*
X0069889Y0075405D01*
X0066287Y0075405D02*
X0057109Y0075405D01*
X0057237Y0076403D02*
X0066182Y0076403D01*
X0072957Y0066418D02*
X0046873Y0066418D01*
X0046069Y0065420D02*
X0062319Y0065420D01*
X0062319Y0064421D02*
X0046069Y0064421D01*
X0042269Y0064421D02*
X0020419Y0064421D01*
X0020419Y0063423D02*
X0024506Y0063423D01*
X0024496Y0062424D02*
X0020419Y0062424D01*
X0020419Y0061426D02*
X0024496Y0061426D01*
X0024496Y0060427D02*
X0020419Y0060427D01*
X0020419Y0059429D02*
X0024496Y0059429D01*
X0024496Y0058430D02*
X0020419Y0058430D01*
X0020419Y0057432D02*
X0024496Y0057432D01*
X0035357Y0057432D02*
X0042269Y0057432D01*
X0042269Y0058430D02*
X0035357Y0058430D01*
X0035357Y0059429D02*
X0042269Y0059429D01*
X0042269Y0060427D02*
X0035357Y0060427D01*
X0035357Y0061426D02*
X0042269Y0061426D01*
X0042269Y0062424D02*
X0035357Y0062424D01*
X0035347Y0063423D02*
X0042269Y0063423D01*
X0037556Y0066418D02*
X0036588Y0066418D01*
X0036588Y0067417D02*
X0037556Y0067417D01*
X0037556Y0068415D02*
X0036588Y0068415D01*
X0033472Y0071411D02*
X0020419Y0071411D01*
X0020419Y0072409D02*
X0034488Y0072409D01*
X0032788Y0075405D02*
X0043049Y0075405D01*
X0043317Y0079399D02*
X0032520Y0079399D01*
X0029889Y0083393D02*
X0029610Y0083393D01*
X0029610Y0084391D02*
X0029889Y0084391D01*
X0029889Y0085390D02*
X0029610Y0085390D01*
X0029610Y0086388D02*
X0029889Y0086388D01*
X0029889Y0087387D02*
X0029610Y0087387D01*
X0029610Y0088385D02*
X0029889Y0088385D01*
X0027061Y0088385D02*
X0020419Y0088385D01*
X0020419Y0087387D02*
X0026230Y0087387D01*
X0026182Y0086388D02*
X0020419Y0086388D01*
X0020419Y0085390D02*
X0026182Y0085390D01*
X0026182Y0084391D02*
X0020419Y0084391D01*
X0020419Y0083393D02*
X0026621Y0083393D01*
X0045590Y0096373D02*
X0045702Y0096373D01*
X0042556Y0100368D02*
X0041588Y0100368D01*
X0041588Y0101366D02*
X0042556Y0101366D01*
X0042556Y0102365D02*
X0041588Y0102365D01*
X0044819Y0102365D02*
X0050560Y0102365D01*
X0051100Y0076403D02*
X0049255Y0076403D01*
X0049127Y0075405D02*
X0051228Y0075405D01*
X0056213Y0063423D02*
X0062319Y0063423D01*
X0062319Y0062424D02*
X0056223Y0062424D01*
X0056223Y0061426D02*
X0062319Y0061426D01*
X0062319Y0060427D02*
X0056223Y0060427D01*
X0056223Y0059429D02*
X0072596Y0059429D01*
X0072662Y0049443D02*
X0079369Y0049443D01*
X0080221Y0048445D02*
X0073661Y0048445D01*
X0074659Y0047446D02*
X0088112Y0047446D01*
X0087114Y0046448D02*
X0075658Y0046448D01*
X0076069Y0045449D02*
X0086869Y0045449D01*
X0086107Y0044451D02*
X0076056Y0044451D01*
X0076669Y0043452D02*
X0076669Y0043452D01*
X0076669Y0042454D02*
X0076669Y0042454D01*
X0076669Y0041455D02*
X0076669Y0041455D01*
X0076669Y0040457D02*
X0076669Y0040457D01*
X0076669Y0040162D02*
X0076669Y0036511D01*
X0076669Y0040162D01*
X0076669Y0040162D01*
X0076669Y0039458D02*
X0076669Y0039458D01*
X0076669Y0038460D02*
X0076669Y0038460D01*
X0076669Y0037461D02*
X0076669Y0037461D01*
X0078402Y0043452D02*
X0085108Y0043452D01*
X0086669Y0042750D02*
X0089169Y0045250D01*
X0091469Y0045449D02*
X0095907Y0045449D01*
X0095907Y0044451D02*
X0091469Y0044451D01*
X0090624Y0043452D02*
X0096365Y0043452D01*
X0099088Y0043452D02*
X0100056Y0043452D01*
X0100056Y0044451D02*
X0099088Y0044451D01*
X0099088Y0045449D02*
X0100056Y0045449D01*
X0099088Y0046448D02*
X0091223Y0046448D01*
X0090225Y0047446D02*
X0095907Y0047446D01*
X0095907Y0046984D02*
X0099088Y0046984D01*
X0099088Y0049968D01*
X0097209Y0049968D01*
X0096828Y0049866D01*
X0096486Y0049669D01*
X0096206Y0049390D01*
X0096009Y0049047D01*
X0095907Y0048666D01*
X0095907Y0046984D01*
X0095907Y0048445D02*
X0083116Y0048445D01*
X0083969Y0049443D02*
X0096260Y0049443D01*
X0099088Y0049443D02*
X0100056Y0049443D01*
X0100056Y0048445D02*
X0099088Y0048445D01*
X0099088Y0047446D02*
X0100056Y0047446D01*
X0102884Y0049443D02*
X0103519Y0049443D01*
X0103623Y0043452D02*
X0102780Y0043452D01*
X0116854Y0046448D02*
X0117822Y0046448D01*
X0117822Y0047446D02*
X0116854Y0047446D01*
X0116854Y0048445D02*
X0117822Y0048445D01*
X0117822Y0050442D02*
X0116854Y0050442D01*
X0116854Y0051440D02*
X0117822Y0051440D01*
X0117822Y0052439D02*
X0116854Y0052439D01*
X0121594Y0047446D02*
X0127672Y0047446D01*
X0127672Y0046448D02*
X0121483Y0046448D01*
X0120233Y0022484D02*
X0125038Y0022484D01*
X0124040Y0021485D02*
X0121232Y0021485D01*
X0122019Y0020487D02*
X0123419Y0020487D01*
X0122019Y0019488D02*
X0127419Y0019488D01*
X0127419Y0018490D02*
X0128419Y0018490D01*
X0128419Y0017491D02*
X0127419Y0017491D01*
X0127419Y0016493D02*
X0128419Y0016493D01*
X0128419Y0015494D02*
X0127419Y0015494D01*
X0125061Y0015494D02*
X0120211Y0015494D01*
X0121209Y0016493D02*
X0124062Y0016493D01*
X0123419Y0017491D02*
X0122019Y0017491D01*
X0122019Y0018490D02*
X0123419Y0018490D01*
X0130777Y0015494D02*
X0135626Y0015494D01*
X0134628Y0016493D02*
X0131775Y0016493D01*
X0132419Y0017491D02*
X0133819Y0017491D01*
X0133819Y0018490D02*
X0132419Y0018490D01*
X0086669Y0040163D02*
X0086669Y0042750D01*
X0044788Y0049443D02*
X0041647Y0049443D01*
X0041647Y0050442D02*
X0043790Y0050442D01*
X0042791Y0051440D02*
X0041647Y0051440D01*
X0041647Y0052439D02*
X0042269Y0052439D01*
X0042269Y0053437D02*
X0041647Y0053437D01*
X0041647Y0054436D02*
X0042269Y0054436D01*
X0042269Y0055434D02*
X0041647Y0055434D01*
X0041647Y0056433D02*
X0042269Y0056433D01*
X0077675Y0135315D02*
X0078674Y0135315D01*
X0078674Y0136314D02*
X0077675Y0136314D01*
X0077675Y0137312D02*
X0078674Y0137312D01*
X0078674Y0138311D02*
X0077675Y0138311D01*
X0077675Y0139309D02*
X0078674Y0139309D01*
X0078674Y0140308D02*
X0077675Y0140308D01*
X0077675Y0141306D02*
X0078674Y0141306D01*
X0078674Y0142305D02*
X0077675Y0142305D01*
X0077675Y0143303D02*
X0078674Y0143303D01*
X0078674Y0144302D02*
X0077675Y0144302D01*
X0077675Y0145301D02*
X0078674Y0145301D01*
X0078674Y0146299D02*
X0077675Y0146299D01*
X0217619Y0189000D02*
X0217919Y0188701D01*
D32*
X0217919Y0186500D03*
X0212919Y0186500D03*
X0212919Y0181500D03*
X0217919Y0181500D03*
X0222919Y0181500D03*
X0227919Y0181500D03*
X0227919Y0186500D03*
X0227919Y0191500D03*
X0222919Y0191500D03*
X0222919Y0186500D03*
X0217919Y0191500D03*
X0212919Y0191500D03*
X0207919Y0191500D03*
X0207919Y0186500D03*
X0207919Y0181500D03*
X0197919Y0176500D03*
X0182919Y0176500D03*
X0167919Y0176500D03*
X0152919Y0166500D03*
X0167919Y0161500D03*
X0167919Y0151500D03*
X0202919Y0151500D03*
X0202919Y0161500D03*
X0217919Y0139000D03*
X0222919Y0139000D03*
X0227919Y0139000D03*
X0227919Y0124000D03*
X0227919Y0119000D03*
X0224169Y0116500D03*
X0229169Y0105250D03*
X0225419Y0104000D03*
X0221669Y0102750D03*
X0211669Y0099000D03*
X0236669Y0081500D03*
X0236669Y0076500D03*
X0236669Y0071500D03*
X0222919Y0070250D03*
X0228544Y0060250D03*
X0230419Y0055250D03*
X0230419Y0045250D03*
X0226669Y0044000D03*
X0222919Y0042125D03*
X0252919Y0041500D03*
X0257919Y0041500D03*
X0257919Y0036500D03*
X0252919Y0036500D03*
X0252919Y0046500D03*
X0257919Y0046500D03*
X0257919Y0056500D03*
X0257919Y0061500D03*
X0252919Y0061500D03*
X0252919Y0056500D03*
X0252919Y0066500D03*
X0257919Y0066500D03*
X0257919Y0096500D03*
X0257919Y0101500D03*
X0252919Y0101500D03*
X0252919Y0096500D03*
X0252919Y0106500D03*
X0257919Y0106500D03*
X0257919Y0116500D03*
X0252919Y0116500D03*
X0252919Y0121500D03*
X0257919Y0121500D03*
X0257919Y0126500D03*
X0252919Y0126500D03*
X0257919Y0146500D03*
X0272919Y0146500D03*
X0257919Y0161500D03*
X0237919Y0191500D03*
X0227919Y0196500D03*
X0222919Y0196500D03*
X0217919Y0196500D03*
X0212919Y0196500D03*
X0207919Y0196500D03*
X0197919Y0191500D03*
X0182919Y0191500D03*
X0167919Y0191500D03*
X0125419Y0170250D03*
X0112919Y0166500D03*
X0108544Y0161500D03*
X0107919Y0156500D03*
X0107919Y0151500D03*
X0102919Y0151500D03*
X0087919Y0156500D03*
X0081669Y0167750D03*
X0067919Y0171500D03*
X0062919Y0176500D03*
X0050419Y0171500D03*
X0050419Y0156500D03*
X0050419Y0141500D03*
X0050419Y0126500D03*
X0085419Y0127750D03*
X0097919Y0115250D03*
X0106669Y0116500D03*
X0111669Y0129000D03*
X0102919Y0136500D03*
X0087919Y0141500D03*
X0129169Y0135250D03*
X0142919Y0126500D03*
X0132919Y0123375D03*
X0132919Y0111500D03*
X0122919Y0111500D03*
X0110419Y0101500D03*
X0117919Y0099000D03*
X0106669Y0093375D03*
X0107919Y0088375D03*
X0111669Y0085250D03*
X0125419Y0081500D03*
X0107919Y0071500D03*
X0111669Y0066500D03*
X0127294Y0061500D03*
X0137294Y0060875D03*
X0147919Y0062750D03*
X0152919Y0069000D03*
X0142919Y0074000D03*
X0170419Y0079000D03*
X0175419Y0079000D03*
X0180419Y0079000D03*
X0185419Y0079000D03*
X0202919Y0064000D03*
X0191669Y0051500D03*
X0202919Y0016500D03*
X0089169Y0045250D03*
X0081669Y0050250D03*
X0069169Y0044000D03*
X0075419Y0071500D03*
X0057919Y0071500D03*
X0037919Y0081500D03*
X0022919Y0081500D03*
X0022919Y0066500D03*
X0022919Y0096500D03*
X0081044Y0094625D03*
X0088544Y0096500D03*
X0094169Y0100875D03*
X0099169Y0096500D03*
X0157919Y0126500D03*
X0172919Y0126500D03*
X0187919Y0126500D03*
X0110419Y0190250D03*
X0087919Y0194000D03*
X0080419Y0196500D03*
X0077919Y0190250D03*
X0065419Y0196500D03*
X0050419Y0196500D03*
D33*
X0059169Y0122750D02*
X0107919Y0122750D01*
X0114169Y0116500D01*
X0127919Y0116500D01*
X0205419Y0116500D01*
X0205419Y0107750D01*
X0205419Y0074000D01*
X0205419Y0116500D02*
X0205419Y0137750D01*
X0217919Y0150250D01*
X0217919Y0164300D01*
X0217919Y0188701D01*
X0217619Y0189000D02*
X0200419Y0189000D01*
X0187919Y0176500D01*
X0227019Y0165600D02*
X0232919Y0171500D01*
X0246167Y0171500D01*
X0247919Y0176500D02*
X0252919Y0181500D01*
X0280419Y0181500D01*
X0059169Y0122750D02*
X0052860Y0116441D01*
X0052860Y0110083D01*
D34*
X0245419Y0099000D02*
X0245419Y0089000D01*
X0245419Y0066500D01*
X0245419Y0039000D01*
X0245419Y0099000D02*
X0245419Y0132750D01*
D35*
X0214169Y0099000D02*
X0211669Y0099000D01*
X0214169Y0099000D02*
X0221265Y0091904D01*
X0221265Y0089000D01*
X0229572Y0089000D01*
X0236265Y0089000D02*
X0245419Y0089000D01*
X0241344Y0097425D02*
X0236025Y0097425D01*
X0236025Y0037425D02*
X0241344Y0037425D01*
X0148796Y0080654D02*
X0137919Y0080654D01*
X0125999Y0052750D02*
X0129572Y0049177D01*
X0129572Y0042750D01*
X0136265Y0042750D02*
X0137919Y0041096D01*
X0137919Y0029000D01*
X0074169Y0045250D02*
X0071619Y0047799D01*
X0051777Y0047799D01*
X0051777Y0050142D01*
X0051044Y0050875D01*
X0046044Y0050875D01*
X0044169Y0052750D01*
X0044169Y0068596D01*
X0077860Y0097809D02*
X0081044Y0094625D01*
X0077860Y0097809D02*
X0077860Y0110083D01*
X0072860Y0112691D02*
X0078544Y0118375D01*
X0104794Y0118375D01*
X0106669Y0116500D01*
X0097919Y0115250D02*
X0097860Y0111441D01*
X0129169Y0135250D02*
X0131669Y0137750D01*
X0131669Y0158154D01*
X0131669Y0164846D02*
X0131669Y0173154D01*
X0131944Y0179571D02*
X0141580Y0179571D01*
X0149257Y0179571D02*
X0149257Y0183911D01*
X0146669Y0186500D01*
X0140419Y0186500D01*
X0137919Y0189000D01*
X0137919Y0194000D01*
X0152919Y0166500D02*
X0152919Y0164000D01*
X0152348Y0163429D01*
X0149257Y0163429D01*
D36*
X0147919Y0174000D02*
X0157072Y0174000D01*
X0157919Y0174846D02*
X0187919Y0174846D01*
X0147919Y0174000D02*
X0145448Y0176470D01*
X0145419Y0180250D01*
X0231265Y0131500D02*
X0236025Y0126740D01*
X0236025Y0125575D01*
X0237294Y0109000D02*
X0218322Y0109000D01*
X0217919Y0109404D02*
X0205822Y0109404D01*
X0205419Y0074000D02*
X0215419Y0064000D01*
X0215419Y0056500D01*
X0217515Y0054404D01*
X0221669Y0054404D01*
X0227102Y0048970D01*
X0237294Y0049000D01*
X0236025Y0049644D01*
X0236025Y0065575D02*
X0236025Y0066740D01*
X0230419Y0071904D01*
X0054169Y0084846D02*
X0052860Y0088656D01*
X0052860Y0099000D01*
X0048765Y0099000D01*
X0052860Y0099000D02*
X0052860Y0110083D01*
D37*
X0222919Y0019000D02*
X0234169Y0019000D01*
X0245419Y0030250D01*
X0245419Y0039000D01*
D38*
X0225399Y0034000D02*
X0225399Y0021480D01*
X0212919Y0019000D02*
X0210438Y0021480D01*
X0210438Y0034000D01*
X0213499Y0037061D01*
X0213499Y0049000D01*
X0187919Y0030250D02*
X0185419Y0032750D01*
X0185419Y0074000D01*
X0205419Y0074000D01*
X0185419Y0074000D02*
X0155419Y0074000D01*
X0150419Y0074000D01*
X0148962Y0075457D01*
X0187919Y0030250D02*
X0187919Y0029000D01*
X0187919Y0019000D01*
D39*
X0177919Y0029000D02*
X0177919Y0040654D01*
X0177919Y0047346D02*
X0173765Y0051500D01*
X0167919Y0051500D01*
X0164316Y0055102D01*
X0164316Y0057513D01*
X0161757Y0057513D02*
X0161757Y0053508D01*
X0167919Y0047346D01*
X0167919Y0040654D02*
X0167919Y0029000D01*
X0157919Y0029000D02*
X0157919Y0040654D01*
X0150419Y0046500D02*
X0148765Y0046500D01*
X0150419Y0046500D02*
X0156639Y0052720D01*
X0156639Y0057513D01*
X0159198Y0057513D02*
X0159198Y0048626D01*
X0147919Y0040654D02*
X0147919Y0029000D01*
X0142919Y0074000D02*
X0144375Y0075457D01*
X0148962Y0075457D01*
X0148962Y0080487D01*
X0156639Y0080487D02*
X0156639Y0075220D01*
X0159198Y0080487D02*
X0159198Y0083970D01*
X0152919Y0090250D01*
X0150822Y0090250D01*
X0147919Y0093154D01*
X0157919Y0093154D02*
X0161757Y0089315D01*
X0161757Y0080487D01*
X0164316Y0080487D02*
X0164316Y0089551D01*
X0167919Y0093154D01*
X0170419Y0086500D02*
X0171265Y0086500D01*
X0177919Y0093154D01*
X0180822Y0097346D02*
X0182919Y0095250D01*
X0182919Y0091500D01*
X0170419Y0079000D01*
X0166875Y0080487D02*
X0166875Y0082957D01*
X0170419Y0086500D01*
X0175419Y0079000D02*
X0185419Y0089000D01*
X0185419Y0100250D01*
X0181669Y0104000D01*
X0182919Y0106500D02*
X0187919Y0101500D01*
X0187919Y0086500D01*
X0180419Y0079000D01*
X0185419Y0079000D02*
X0190419Y0084000D01*
X0190419Y0102750D01*
X0184169Y0109000D01*
X0156669Y0109000D01*
X0147919Y0100250D01*
X0157919Y0100250D02*
X0164169Y0106500D01*
X0182919Y0106500D01*
X0177919Y0099846D02*
X0180822Y0097346D01*
X0171669Y0104000D02*
X0167919Y0100250D01*
X0236025Y0107661D02*
X0236025Y0110220D01*
X0236025Y0050220D02*
X0236025Y0049644D01*
X0236025Y0047661D01*
X0144139Y0163429D02*
X0144139Y0170220D01*
X0147919Y0174000D01*
X0146698Y0179571D02*
X0145419Y0180250D01*
X0157072Y0174000D02*
X0157919Y0174846D01*
X0187919Y0174846D02*
X0187919Y0173252D01*
X0074169Y0045250D02*
X0074169Y0040163D01*
M02*
