G75*
%MOIN*%
%OFA0B0*%
%FSLAX25Y25*%
%IPPOS*%
%LPD*%
%AMOC8*
5,1,8,0,0,1.08239X$1,22.5*
%
%ADD10C,0.00000*%
%ADD11C,0.05600*%
%ADD12R,0.05906X0.05118*%
%ADD13C,0.01000*%
%ADD14C,0.05543*%
%ADD15OC8,0.06000*%
%ADD16C,0.02400*%
%ADD17C,0.01600*%
%ADD18C,0.01200*%
D10*
X0027919Y0011500D02*
X0277919Y0011500D01*
X0278161Y0011503D01*
X0278402Y0011512D01*
X0278643Y0011526D01*
X0278884Y0011547D01*
X0279124Y0011573D01*
X0279364Y0011605D01*
X0279603Y0011643D01*
X0279840Y0011686D01*
X0280077Y0011736D01*
X0280312Y0011791D01*
X0280546Y0011851D01*
X0280778Y0011918D01*
X0281009Y0011989D01*
X0281238Y0012067D01*
X0281465Y0012150D01*
X0281690Y0012238D01*
X0281913Y0012332D01*
X0282133Y0012431D01*
X0282351Y0012536D01*
X0282566Y0012645D01*
X0282779Y0012760D01*
X0282989Y0012880D01*
X0283195Y0013005D01*
X0283399Y0013135D01*
X0283600Y0013270D01*
X0283797Y0013410D01*
X0283991Y0013554D01*
X0284181Y0013703D01*
X0284367Y0013857D01*
X0284550Y0014015D01*
X0284729Y0014177D01*
X0284904Y0014344D01*
X0285075Y0014515D01*
X0285242Y0014690D01*
X0285404Y0014869D01*
X0285562Y0015052D01*
X0285716Y0015238D01*
X0285865Y0015428D01*
X0286009Y0015622D01*
X0286149Y0015819D01*
X0286284Y0016020D01*
X0286414Y0016224D01*
X0286539Y0016430D01*
X0286659Y0016640D01*
X0286774Y0016853D01*
X0286883Y0017068D01*
X0286988Y0017286D01*
X0287087Y0017506D01*
X0287181Y0017729D01*
X0287269Y0017954D01*
X0287352Y0018181D01*
X0287430Y0018410D01*
X0287501Y0018641D01*
X0287568Y0018873D01*
X0287628Y0019107D01*
X0287683Y0019342D01*
X0287733Y0019579D01*
X0287776Y0019816D01*
X0287814Y0020055D01*
X0287846Y0020295D01*
X0287872Y0020535D01*
X0287893Y0020776D01*
X0287907Y0021017D01*
X0287916Y0021258D01*
X0287919Y0021500D01*
X0287919Y0191500D01*
X0287916Y0191742D01*
X0287907Y0191983D01*
X0287893Y0192224D01*
X0287872Y0192465D01*
X0287846Y0192705D01*
X0287814Y0192945D01*
X0287776Y0193184D01*
X0287733Y0193421D01*
X0287683Y0193658D01*
X0287628Y0193893D01*
X0287568Y0194127D01*
X0287501Y0194359D01*
X0287430Y0194590D01*
X0287352Y0194819D01*
X0287269Y0195046D01*
X0287181Y0195271D01*
X0287087Y0195494D01*
X0286988Y0195714D01*
X0286883Y0195932D01*
X0286774Y0196147D01*
X0286659Y0196360D01*
X0286539Y0196570D01*
X0286414Y0196776D01*
X0286284Y0196980D01*
X0286149Y0197181D01*
X0286009Y0197378D01*
X0285865Y0197572D01*
X0285716Y0197762D01*
X0285562Y0197948D01*
X0285404Y0198131D01*
X0285242Y0198310D01*
X0285075Y0198485D01*
X0284904Y0198656D01*
X0284729Y0198823D01*
X0284550Y0198985D01*
X0284367Y0199143D01*
X0284181Y0199297D01*
X0283991Y0199446D01*
X0283797Y0199590D01*
X0283600Y0199730D01*
X0283399Y0199865D01*
X0283195Y0199995D01*
X0282989Y0200120D01*
X0282779Y0200240D01*
X0282566Y0200355D01*
X0282351Y0200464D01*
X0282133Y0200569D01*
X0281913Y0200668D01*
X0281690Y0200762D01*
X0281465Y0200850D01*
X0281238Y0200933D01*
X0281009Y0201011D01*
X0280778Y0201082D01*
X0280546Y0201149D01*
X0280312Y0201209D01*
X0280077Y0201264D01*
X0279840Y0201314D01*
X0279603Y0201357D01*
X0279364Y0201395D01*
X0279124Y0201427D01*
X0278884Y0201453D01*
X0278643Y0201474D01*
X0278402Y0201488D01*
X0278161Y0201497D01*
X0277919Y0201500D01*
X0027919Y0201500D01*
X0027677Y0201497D01*
X0027436Y0201488D01*
X0027195Y0201474D01*
X0026954Y0201453D01*
X0026714Y0201427D01*
X0026474Y0201395D01*
X0026235Y0201357D01*
X0025998Y0201314D01*
X0025761Y0201264D01*
X0025526Y0201209D01*
X0025292Y0201149D01*
X0025060Y0201082D01*
X0024829Y0201011D01*
X0024600Y0200933D01*
X0024373Y0200850D01*
X0024148Y0200762D01*
X0023925Y0200668D01*
X0023705Y0200569D01*
X0023487Y0200464D01*
X0023272Y0200355D01*
X0023059Y0200240D01*
X0022849Y0200120D01*
X0022643Y0199995D01*
X0022439Y0199865D01*
X0022238Y0199730D01*
X0022041Y0199590D01*
X0021847Y0199446D01*
X0021657Y0199297D01*
X0021471Y0199143D01*
X0021288Y0198985D01*
X0021109Y0198823D01*
X0020934Y0198656D01*
X0020763Y0198485D01*
X0020596Y0198310D01*
X0020434Y0198131D01*
X0020276Y0197948D01*
X0020122Y0197762D01*
X0019973Y0197572D01*
X0019829Y0197378D01*
X0019689Y0197181D01*
X0019554Y0196980D01*
X0019424Y0196776D01*
X0019299Y0196570D01*
X0019179Y0196360D01*
X0019064Y0196147D01*
X0018955Y0195932D01*
X0018850Y0195714D01*
X0018751Y0195494D01*
X0018657Y0195271D01*
X0018569Y0195046D01*
X0018486Y0194819D01*
X0018408Y0194590D01*
X0018337Y0194359D01*
X0018270Y0194127D01*
X0018210Y0193893D01*
X0018155Y0193658D01*
X0018105Y0193421D01*
X0018062Y0193184D01*
X0018024Y0192945D01*
X0017992Y0192705D01*
X0017966Y0192465D01*
X0017945Y0192224D01*
X0017931Y0191983D01*
X0017922Y0191742D01*
X0017919Y0191500D01*
X0017919Y0021500D01*
X0017922Y0021258D01*
X0017931Y0021017D01*
X0017945Y0020776D01*
X0017966Y0020535D01*
X0017992Y0020295D01*
X0018024Y0020055D01*
X0018062Y0019816D01*
X0018105Y0019579D01*
X0018155Y0019342D01*
X0018210Y0019107D01*
X0018270Y0018873D01*
X0018337Y0018641D01*
X0018408Y0018410D01*
X0018486Y0018181D01*
X0018569Y0017954D01*
X0018657Y0017729D01*
X0018751Y0017506D01*
X0018850Y0017286D01*
X0018955Y0017068D01*
X0019064Y0016853D01*
X0019179Y0016640D01*
X0019299Y0016430D01*
X0019424Y0016224D01*
X0019554Y0016020D01*
X0019689Y0015819D01*
X0019829Y0015622D01*
X0019973Y0015428D01*
X0020122Y0015238D01*
X0020276Y0015052D01*
X0020434Y0014869D01*
X0020596Y0014690D01*
X0020763Y0014515D01*
X0020934Y0014344D01*
X0021109Y0014177D01*
X0021288Y0014015D01*
X0021471Y0013857D01*
X0021657Y0013703D01*
X0021847Y0013554D01*
X0022041Y0013410D01*
X0022238Y0013270D01*
X0022439Y0013135D01*
X0022643Y0013005D01*
X0022849Y0012880D01*
X0023059Y0012760D01*
X0023272Y0012645D01*
X0023487Y0012536D01*
X0023705Y0012431D01*
X0023925Y0012332D01*
X0024148Y0012238D01*
X0024373Y0012150D01*
X0024600Y0012067D01*
X0024829Y0011989D01*
X0025060Y0011918D01*
X0025292Y0011851D01*
X0025526Y0011791D01*
X0025761Y0011736D01*
X0025998Y0011686D01*
X0026235Y0011643D01*
X0026474Y0011605D01*
X0026714Y0011573D01*
X0026954Y0011547D01*
X0027195Y0011526D01*
X0027436Y0011512D01*
X0027677Y0011503D01*
X0027919Y0011500D01*
D11*
X0072919Y0021500D03*
D12*
X0122919Y0054807D03*
X0122919Y0061500D03*
X0132919Y0061500D03*
X0132919Y0054807D03*
X0142919Y0054807D03*
X0142919Y0061500D03*
X0142919Y0068193D03*
X0132919Y0068193D03*
X0122919Y0068193D03*
D13*
X0105343Y0015494D02*
X0021905Y0015494D01*
X0021908Y0015490D02*
X0020345Y0017641D01*
X0019523Y0020170D01*
X0019419Y0021500D01*
X0019419Y0106500D01*
X0045419Y0106500D01*
X0045419Y0200000D01*
X0277919Y0200000D01*
X0279248Y0199895D01*
X0281778Y0199074D01*
X0283929Y0197510D01*
X0285492Y0195359D01*
X0286314Y0192830D01*
X0286419Y0191500D01*
X0286419Y0136500D01*
X0262919Y0136500D01*
X0262919Y0013000D01*
X0027919Y0013000D01*
X0026589Y0013105D01*
X0024060Y0013926D01*
X0021908Y0015490D01*
X0021179Y0016493D02*
X0104345Y0016493D01*
X0103619Y0017219D02*
X0106137Y0014700D01*
X0109700Y0014700D01*
X0112219Y0017219D01*
X0112219Y0020781D01*
X0110800Y0022200D01*
X0112173Y0022200D01*
X0113619Y0020754D01*
X0113619Y0017219D01*
X0116137Y0014700D01*
X0119700Y0014700D01*
X0122219Y0017219D01*
X0122219Y0020781D01*
X0119700Y0023300D01*
X0116164Y0023300D01*
X0113664Y0025800D01*
X0110800Y0025800D01*
X0112219Y0027219D01*
X0112219Y0030781D01*
X0109719Y0033281D01*
X0109719Y0040500D01*
X0110123Y0040500D01*
X0110923Y0039700D01*
X0116119Y0034504D01*
X0116119Y0033281D01*
X0113619Y0030781D01*
X0113619Y0027219D01*
X0116137Y0024700D01*
X0119700Y0024700D01*
X0122219Y0027219D01*
X0122219Y0030781D01*
X0119719Y0033281D01*
X0119719Y0035996D01*
X0113469Y0042246D01*
X0113469Y0050636D01*
X0113556Y0050723D01*
X0114858Y0051591D01*
X0130819Y0035630D01*
X0130819Y0032464D01*
X0129783Y0033500D01*
X0128419Y0033500D01*
X0128419Y0029500D01*
X0127419Y0029500D01*
X0127419Y0033500D01*
X0126055Y0033500D01*
X0123419Y0030864D01*
X0123419Y0029500D01*
X0127419Y0029500D01*
X0127419Y0028500D01*
X0128419Y0028500D01*
X0128419Y0024500D01*
X0129783Y0024500D01*
X0130819Y0025536D01*
X0130819Y0023130D01*
X0132049Y0021900D01*
X0133619Y0020330D01*
X0133619Y0017219D01*
X0136137Y0014700D01*
X0139700Y0014700D01*
X0142219Y0017219D01*
X0142219Y0020781D01*
X0139700Y0023300D01*
X0136588Y0023300D01*
X0135019Y0024870D01*
X0135019Y0025819D01*
X0136137Y0024700D01*
X0139700Y0024700D01*
X0142219Y0027219D01*
X0142219Y0030781D01*
X0139700Y0033300D01*
X0136137Y0033300D01*
X0135019Y0032181D01*
X0135019Y0037370D01*
X0121640Y0050748D01*
X0122419Y0050748D01*
X0122419Y0054307D01*
X0123419Y0054307D01*
X0123419Y0054700D01*
X0123664Y0054700D01*
X0124271Y0055307D01*
X0127371Y0055307D01*
X0127371Y0057564D01*
X0127269Y0057945D01*
X0127072Y0058287D01*
X0127064Y0058295D01*
X0127171Y0058402D01*
X0127171Y0059000D01*
X0127791Y0059000D01*
X0128666Y0059362D01*
X0128666Y0058402D01*
X0128773Y0058295D01*
X0128766Y0058287D01*
X0128568Y0057945D01*
X0128466Y0057564D01*
X0128466Y0055307D01*
X0131566Y0055307D01*
X0132173Y0054700D01*
X0132419Y0054700D01*
X0132419Y0054307D01*
X0133419Y0054307D01*
X0133419Y0054700D01*
X0133664Y0054700D01*
X0134271Y0055307D01*
X0137371Y0055307D01*
X0137371Y0057564D01*
X0137269Y0057945D01*
X0137072Y0058287D01*
X0137064Y0058295D01*
X0137144Y0058375D01*
X0137791Y0058375D01*
X0138666Y0058737D01*
X0138666Y0058402D01*
X0138773Y0058295D01*
X0138766Y0058287D01*
X0138568Y0057945D01*
X0138466Y0057564D01*
X0138466Y0055307D01*
X0141566Y0055307D01*
X0142173Y0054700D01*
X0142419Y0054700D01*
X0142419Y0054307D01*
X0143419Y0054307D01*
X0143419Y0054700D01*
X0143664Y0054700D01*
X0144271Y0055307D01*
X0147371Y0055307D01*
X0147371Y0057564D01*
X0147269Y0057945D01*
X0147072Y0058287D01*
X0147064Y0058295D01*
X0147171Y0058402D01*
X0147171Y0060354D01*
X0147421Y0060250D01*
X0148416Y0060250D01*
X0149335Y0060631D01*
X0150038Y0061334D01*
X0150419Y0062253D01*
X0150419Y0063247D01*
X0150038Y0064166D01*
X0149335Y0064869D01*
X0148416Y0065250D01*
X0147421Y0065250D01*
X0147171Y0065146D01*
X0147171Y0071290D01*
X0146410Y0072052D01*
X0144719Y0072052D01*
X0144719Y0072264D01*
X0145038Y0072584D01*
X0145419Y0073503D01*
X0145419Y0074497D01*
X0145038Y0075416D01*
X0144335Y0076119D01*
X0143416Y0076500D01*
X0142421Y0076500D01*
X0141502Y0076119D01*
X0140799Y0075416D01*
X0140419Y0074497D01*
X0140419Y0073503D01*
X0140799Y0072584D01*
X0141119Y0072264D01*
X0141119Y0072052D01*
X0139427Y0072052D01*
X0138666Y0071290D01*
X0138666Y0069993D01*
X0137171Y0069993D01*
X0137171Y0071290D01*
X0136410Y0072052D01*
X0129427Y0072052D01*
X0128666Y0071290D01*
X0128666Y0069993D01*
X0127171Y0069993D01*
X0127171Y0071290D01*
X0126410Y0072052D01*
X0119427Y0072052D01*
X0118666Y0071290D01*
X0118666Y0065095D01*
X0118915Y0064846D01*
X0118666Y0064598D01*
X0118666Y0058402D01*
X0118773Y0058295D01*
X0118766Y0058287D01*
X0118568Y0057945D01*
X0118466Y0057564D01*
X0118466Y0055307D01*
X0121566Y0055307D01*
X0122173Y0054700D01*
X0122419Y0054700D01*
X0122419Y0054307D01*
X0118466Y0054307D01*
X0118466Y0053923D01*
X0117669Y0054720D01*
X0117669Y0064414D01*
X0117519Y0064564D01*
X0117519Y0069870D01*
X0105019Y0082370D01*
X0103938Y0083450D01*
X0109933Y0083450D01*
X0110252Y0083131D01*
X0111171Y0082750D01*
X0112166Y0082750D01*
X0113085Y0083131D01*
X0113788Y0083834D01*
X0114169Y0084753D01*
X0114169Y0085747D01*
X0113788Y0086666D01*
X0113085Y0087369D01*
X0112166Y0087750D01*
X0111171Y0087750D01*
X0110252Y0087369D01*
X0110177Y0087294D01*
X0110419Y0087878D01*
X0110419Y0088872D01*
X0110076Y0089700D01*
X0180923Y0089700D01*
X0221119Y0049504D01*
X0221119Y0043861D01*
X0220799Y0043541D01*
X0220419Y0042622D01*
X0220419Y0041628D01*
X0220761Y0040800D01*
X0196164Y0040800D01*
X0193469Y0043496D01*
X0193469Y0049764D01*
X0193788Y0050084D01*
X0194169Y0051003D01*
X0194169Y0051997D01*
X0193788Y0052916D01*
X0193085Y0053619D01*
X0192166Y0054000D01*
X0191171Y0054000D01*
X0190252Y0053619D01*
X0189549Y0052916D01*
X0189169Y0051997D01*
X0189169Y0051003D01*
X0189549Y0050084D01*
X0189869Y0049764D01*
X0189869Y0042004D01*
X0190923Y0040950D01*
X0194673Y0037200D01*
X0229914Y0037200D01*
X0230969Y0038254D01*
X0235969Y0043254D01*
X0235969Y0063496D01*
X0234914Y0064550D01*
X0230969Y0068496D01*
X0230969Y0090996D01*
X0221714Y0100250D01*
X0222166Y0100250D01*
X0223085Y0100631D01*
X0223788Y0101334D01*
X0224013Y0101876D01*
X0224921Y0101500D01*
X0225916Y0101500D01*
X0226835Y0101881D01*
X0227538Y0102584D01*
X0227763Y0103126D01*
X0228671Y0102750D01*
X0229666Y0102750D01*
X0230585Y0103131D01*
X0231288Y0103834D01*
X0231669Y0104753D01*
X0231669Y0105747D01*
X0231288Y0106666D01*
X0230585Y0107369D01*
X0229666Y0107750D01*
X0229214Y0107750D01*
X0223023Y0113941D01*
X0223255Y0114172D01*
X0223671Y0114000D01*
X0224666Y0114000D01*
X0225585Y0114381D01*
X0226288Y0115084D01*
X0226669Y0116003D01*
X0226669Y0116812D01*
X0227421Y0116500D01*
X0228416Y0116500D01*
X0229335Y0116881D01*
X0230038Y0117584D01*
X0230419Y0118503D01*
X0230419Y0119497D01*
X0230038Y0120416D01*
X0229335Y0121119D01*
X0228919Y0121292D01*
X0228919Y0121708D01*
X0229335Y0121881D01*
X0230038Y0122584D01*
X0230419Y0123503D01*
X0230419Y0124497D01*
X0230038Y0125416D01*
X0229335Y0126119D01*
X0228416Y0126500D01*
X0227421Y0126500D01*
X0226502Y0126119D01*
X0226183Y0125800D01*
X0226164Y0125800D01*
X0203664Y0148300D01*
X0158664Y0148300D01*
X0114914Y0192050D01*
X0112154Y0192050D01*
X0111835Y0192369D01*
X0110916Y0192750D01*
X0109921Y0192750D01*
X0109002Y0192369D01*
X0108299Y0191666D01*
X0107919Y0190747D01*
X0107919Y0189753D01*
X0108299Y0188834D01*
X0109002Y0188131D01*
X0109921Y0187750D01*
X0110916Y0187750D01*
X0111835Y0188131D01*
X0112154Y0188450D01*
X0113423Y0188450D01*
X0129823Y0172050D01*
X0127154Y0172050D01*
X0126835Y0172369D01*
X0125916Y0172750D01*
X0124921Y0172750D01*
X0124002Y0172369D01*
X0123299Y0171666D01*
X0122919Y0170747D01*
X0122919Y0169753D01*
X0123299Y0168834D01*
X0123833Y0168300D01*
X0114654Y0168300D01*
X0114335Y0168619D01*
X0113416Y0169000D01*
X0112421Y0169000D01*
X0111502Y0168619D01*
X0111242Y0168359D01*
X0108482Y0168359D01*
X0107428Y0167305D01*
X0093423Y0153300D01*
X0092369Y0152246D01*
X0092369Y0102611D01*
X0092049Y0102291D01*
X0091669Y0101372D01*
X0091669Y0100378D01*
X0092049Y0099459D01*
X0092752Y0098756D01*
X0093549Y0098426D01*
X0093423Y0098300D01*
X0090279Y0098300D01*
X0089960Y0098619D01*
X0089041Y0099000D01*
X0088046Y0099000D01*
X0087219Y0098657D01*
X0087219Y0126014D01*
X0087538Y0126334D01*
X0087919Y0127253D01*
X0087919Y0128247D01*
X0087538Y0129166D01*
X0086835Y0129869D01*
X0085916Y0130250D01*
X0084921Y0130250D01*
X0084002Y0129869D01*
X0083469Y0129336D01*
X0083469Y0166014D01*
X0083788Y0166334D01*
X0084169Y0167253D01*
X0084169Y0168247D01*
X0083788Y0169166D01*
X0083085Y0169869D01*
X0082166Y0170250D01*
X0081171Y0170250D01*
X0080252Y0169869D01*
X0079719Y0169336D01*
X0079719Y0183254D01*
X0087964Y0191500D01*
X0088416Y0191500D01*
X0089335Y0191881D01*
X0090038Y0192584D01*
X0090419Y0193503D01*
X0090419Y0194497D01*
X0090038Y0195416D01*
X0089335Y0196119D01*
X0088416Y0196500D01*
X0087421Y0196500D01*
X0086502Y0196119D01*
X0085799Y0195416D01*
X0085419Y0194497D01*
X0085419Y0194046D01*
X0077219Y0185846D01*
X0077219Y0187004D01*
X0077964Y0187750D01*
X0078416Y0187750D01*
X0079335Y0188131D01*
X0080038Y0188834D01*
X0080419Y0189753D01*
X0080419Y0190747D01*
X0080038Y0191666D01*
X0079335Y0192369D01*
X0078416Y0192750D01*
X0077421Y0192750D01*
X0076502Y0192369D01*
X0075799Y0191666D01*
X0075419Y0190747D01*
X0075419Y0190296D01*
X0074673Y0189550D01*
X0073619Y0188496D01*
X0073619Y0083346D01*
X0069719Y0087246D01*
X0069719Y0169764D01*
X0070038Y0170084D01*
X0070419Y0171003D01*
X0070419Y0171997D01*
X0070038Y0172916D01*
X0069335Y0173619D01*
X0068416Y0174000D01*
X0067421Y0174000D01*
X0066502Y0173619D01*
X0065799Y0172916D01*
X0065419Y0171997D01*
X0065419Y0171003D01*
X0065799Y0170084D01*
X0066119Y0169764D01*
X0066119Y0085754D01*
X0088619Y0063254D01*
X0088619Y0047728D01*
X0087752Y0047369D01*
X0087049Y0046666D01*
X0086669Y0045747D01*
X0086669Y0044753D01*
X0087049Y0043834D01*
X0087752Y0043131D01*
X0088671Y0042750D01*
X0089666Y0042750D01*
X0090585Y0043131D01*
X0091288Y0043834D01*
X0091669Y0044753D01*
X0091669Y0045204D01*
X0092219Y0045754D01*
X0092219Y0064654D01*
X0092369Y0064504D01*
X0092369Y0029504D01*
X0103619Y0018254D01*
X0103619Y0017219D01*
X0103619Y0017491D02*
X0074495Y0017491D01*
X0074569Y0017515D02*
X0075172Y0017822D01*
X0075720Y0018220D01*
X0076198Y0018699D01*
X0076596Y0019246D01*
X0076904Y0019849D01*
X0077113Y0020493D01*
X0077209Y0021100D01*
X0073319Y0021100D01*
X0073319Y0021900D01*
X0077209Y0021900D01*
X0077113Y0022507D01*
X0076904Y0023151D01*
X0076596Y0023754D01*
X0076198Y0024301D01*
X0075720Y0024780D01*
X0075172Y0025178D01*
X0074569Y0025485D01*
X0073926Y0025694D01*
X0073319Y0025790D01*
X0073319Y0021900D01*
X0072519Y0021900D01*
X0072519Y0025790D01*
X0071912Y0025694D01*
X0071268Y0025485D01*
X0070665Y0025178D01*
X0070117Y0024780D01*
X0069639Y0024301D01*
X0069241Y0023754D01*
X0068934Y0023151D01*
X0068724Y0022507D01*
X0068628Y0021900D01*
X0072519Y0021900D01*
X0072519Y0021100D01*
X0073319Y0021100D01*
X0073319Y0017210D01*
X0073926Y0017306D01*
X0074569Y0017515D01*
X0073319Y0017491D02*
X0072519Y0017491D01*
X0072519Y0017210D02*
X0072519Y0021100D01*
X0068628Y0021100D01*
X0068724Y0020493D01*
X0068934Y0019849D01*
X0069241Y0019246D01*
X0069639Y0018699D01*
X0070117Y0018220D01*
X0070665Y0017822D01*
X0071268Y0017515D01*
X0071912Y0017306D01*
X0072519Y0017210D01*
X0071342Y0017491D02*
X0020454Y0017491D01*
X0020069Y0018490D02*
X0069848Y0018490D01*
X0069118Y0019488D02*
X0019745Y0019488D01*
X0019498Y0020487D02*
X0068727Y0020487D01*
X0068721Y0022484D02*
X0019419Y0022484D01*
X0019419Y0023482D02*
X0069103Y0023482D01*
X0069818Y0024481D02*
X0019419Y0024481D01*
X0019419Y0025479D02*
X0071257Y0025479D01*
X0072519Y0025479D02*
X0073319Y0025479D01*
X0073319Y0024481D02*
X0072519Y0024481D01*
X0072519Y0023482D02*
X0073319Y0023482D01*
X0073319Y0022484D02*
X0072519Y0022484D01*
X0072519Y0021485D02*
X0019420Y0021485D01*
X0019419Y0026478D02*
X0095395Y0026478D01*
X0094397Y0027476D02*
X0019419Y0027476D01*
X0019419Y0028475D02*
X0093398Y0028475D01*
X0092400Y0029473D02*
X0019419Y0029473D01*
X0019419Y0030472D02*
X0092369Y0030472D01*
X0092369Y0031470D02*
X0019419Y0031470D01*
X0019419Y0032469D02*
X0092369Y0032469D01*
X0092369Y0033467D02*
X0019419Y0033467D01*
X0019419Y0034466D02*
X0092369Y0034466D01*
X0092369Y0035464D02*
X0019419Y0035464D01*
X0019419Y0036463D02*
X0092369Y0036463D01*
X0092369Y0037461D02*
X0019419Y0037461D01*
X0019419Y0038460D02*
X0092369Y0038460D01*
X0092369Y0039458D02*
X0019419Y0039458D01*
X0019419Y0040457D02*
X0092369Y0040457D01*
X0092369Y0041455D02*
X0019419Y0041455D01*
X0019419Y0042454D02*
X0067179Y0042454D01*
X0067049Y0042584D02*
X0067752Y0041881D01*
X0068671Y0041500D01*
X0069666Y0041500D01*
X0070585Y0041881D01*
X0071288Y0042584D01*
X0071669Y0043503D01*
X0071669Y0043954D01*
X0073664Y0045950D01*
X0079914Y0045950D01*
X0081714Y0047750D01*
X0082166Y0047750D01*
X0083085Y0048131D01*
X0083788Y0048834D01*
X0084169Y0049753D01*
X0084169Y0050747D01*
X0083788Y0051666D01*
X0083085Y0052369D01*
X0082166Y0052750D01*
X0081171Y0052750D01*
X0080252Y0052369D01*
X0079549Y0051666D01*
X0079169Y0050747D01*
X0079169Y0050296D01*
X0078423Y0049550D01*
X0072173Y0049550D01*
X0071119Y0048496D01*
X0069123Y0046500D01*
X0068671Y0046500D01*
X0067752Y0046119D01*
X0067049Y0045416D01*
X0066669Y0044497D01*
X0066669Y0043503D01*
X0067049Y0042584D01*
X0066689Y0043452D02*
X0019419Y0043452D01*
X0019419Y0044451D02*
X0066669Y0044451D01*
X0067082Y0045449D02*
X0019419Y0045449D01*
X0019419Y0046448D02*
X0068546Y0046448D01*
X0070069Y0047446D02*
X0019419Y0047446D01*
X0019419Y0048445D02*
X0071068Y0048445D01*
X0072066Y0049443D02*
X0019419Y0049443D01*
X0019419Y0050442D02*
X0079169Y0050442D01*
X0079456Y0051440D02*
X0019419Y0051440D01*
X0019419Y0052439D02*
X0080420Y0052439D01*
X0082917Y0052439D02*
X0088619Y0052439D01*
X0088619Y0053437D02*
X0019419Y0053437D01*
X0019419Y0054436D02*
X0088619Y0054436D01*
X0088619Y0055434D02*
X0019419Y0055434D01*
X0019419Y0056433D02*
X0088619Y0056433D01*
X0088619Y0057432D02*
X0019419Y0057432D01*
X0019419Y0058430D02*
X0088619Y0058430D01*
X0088619Y0059429D02*
X0019419Y0059429D01*
X0019419Y0060427D02*
X0088619Y0060427D01*
X0088619Y0061426D02*
X0019419Y0061426D01*
X0019419Y0062424D02*
X0088619Y0062424D01*
X0088450Y0063423D02*
X0019419Y0063423D01*
X0019419Y0064421D02*
X0087452Y0064421D01*
X0086453Y0065420D02*
X0019419Y0065420D01*
X0019419Y0066418D02*
X0085455Y0066418D01*
X0084456Y0067417D02*
X0019419Y0067417D01*
X0019419Y0068415D02*
X0083458Y0068415D01*
X0082459Y0069414D02*
X0076868Y0069414D01*
X0076835Y0069381D02*
X0077538Y0070084D01*
X0077919Y0071003D01*
X0077919Y0071997D01*
X0077538Y0072916D01*
X0076835Y0073619D01*
X0075916Y0074000D01*
X0075464Y0074000D01*
X0064719Y0084746D01*
X0064719Y0174764D01*
X0065038Y0175084D01*
X0065419Y0176003D01*
X0065419Y0176997D01*
X0065038Y0177916D01*
X0064335Y0178619D01*
X0063416Y0179000D01*
X0062421Y0179000D01*
X0061502Y0178619D01*
X0060799Y0177916D01*
X0060419Y0176997D01*
X0060419Y0176003D01*
X0060799Y0175084D01*
X0061119Y0174764D01*
X0061119Y0083254D01*
X0072919Y0071454D01*
X0072919Y0071003D01*
X0073299Y0070084D01*
X0074002Y0069381D01*
X0074921Y0069000D01*
X0075916Y0069000D01*
X0076835Y0069381D01*
X0077674Y0070412D02*
X0081461Y0070412D01*
X0080462Y0071411D02*
X0077919Y0071411D01*
X0077748Y0072409D02*
X0079464Y0072409D01*
X0078465Y0073408D02*
X0077046Y0073408D01*
X0077467Y0074406D02*
X0075058Y0074406D01*
X0074059Y0075405D02*
X0076468Y0075405D01*
X0075470Y0076403D02*
X0073061Y0076403D01*
X0072062Y0077402D02*
X0074471Y0077402D01*
X0073473Y0078400D02*
X0071064Y0078400D01*
X0070065Y0079399D02*
X0072474Y0079399D01*
X0071476Y0080397D02*
X0069067Y0080397D01*
X0068068Y0081396D02*
X0070477Y0081396D01*
X0069479Y0082394D02*
X0067070Y0082394D01*
X0066071Y0083393D02*
X0068480Y0083393D01*
X0067482Y0084391D02*
X0065073Y0084391D01*
X0064719Y0085390D02*
X0066483Y0085390D01*
X0066119Y0086388D02*
X0064719Y0086388D01*
X0064719Y0087387D02*
X0066119Y0087387D01*
X0066119Y0088385D02*
X0064719Y0088385D01*
X0064719Y0089384D02*
X0066119Y0089384D01*
X0066119Y0090382D02*
X0064719Y0090382D01*
X0064719Y0091381D02*
X0066119Y0091381D01*
X0066119Y0092379D02*
X0064719Y0092379D01*
X0064719Y0093378D02*
X0066119Y0093378D01*
X0066119Y0094376D02*
X0064719Y0094376D01*
X0064719Y0095375D02*
X0066119Y0095375D01*
X0066119Y0096373D02*
X0064719Y0096373D01*
X0064719Y0097372D02*
X0066119Y0097372D01*
X0066119Y0098370D02*
X0064719Y0098370D01*
X0064719Y0099369D02*
X0066119Y0099369D01*
X0066119Y0100368D02*
X0064719Y0100368D01*
X0064719Y0101366D02*
X0066119Y0101366D01*
X0066119Y0102365D02*
X0064719Y0102365D01*
X0064719Y0103363D02*
X0066119Y0103363D01*
X0066119Y0104362D02*
X0064719Y0104362D01*
X0064719Y0105360D02*
X0066119Y0105360D01*
X0066119Y0106359D02*
X0064719Y0106359D01*
X0064719Y0107357D02*
X0066119Y0107357D01*
X0066119Y0108356D02*
X0064719Y0108356D01*
X0064719Y0109354D02*
X0066119Y0109354D01*
X0066119Y0110353D02*
X0064719Y0110353D01*
X0064719Y0111351D02*
X0066119Y0111351D01*
X0066119Y0112350D02*
X0064719Y0112350D01*
X0064719Y0113348D02*
X0066119Y0113348D01*
X0066119Y0114347D02*
X0064719Y0114347D01*
X0064719Y0115345D02*
X0066119Y0115345D01*
X0066119Y0116344D02*
X0064719Y0116344D01*
X0064719Y0117342D02*
X0066119Y0117342D01*
X0066119Y0118341D02*
X0064719Y0118341D01*
X0064719Y0119339D02*
X0066119Y0119339D01*
X0066119Y0120338D02*
X0064719Y0120338D01*
X0064719Y0121336D02*
X0066119Y0121336D01*
X0066119Y0122335D02*
X0064719Y0122335D01*
X0064719Y0123333D02*
X0066119Y0123333D01*
X0066119Y0124332D02*
X0064719Y0124332D01*
X0064719Y0125330D02*
X0066119Y0125330D01*
X0066119Y0126329D02*
X0064719Y0126329D01*
X0064719Y0127327D02*
X0066119Y0127327D01*
X0066119Y0128326D02*
X0064719Y0128326D01*
X0064719Y0129324D02*
X0066119Y0129324D01*
X0066119Y0130323D02*
X0064719Y0130323D01*
X0064719Y0131321D02*
X0066119Y0131321D01*
X0066119Y0132320D02*
X0064719Y0132320D01*
X0064719Y0133318D02*
X0066119Y0133318D01*
X0066119Y0134317D02*
X0064719Y0134317D01*
X0064719Y0135315D02*
X0066119Y0135315D01*
X0066119Y0136314D02*
X0064719Y0136314D01*
X0064719Y0137312D02*
X0066119Y0137312D01*
X0066119Y0138311D02*
X0064719Y0138311D01*
X0064719Y0139309D02*
X0066119Y0139309D01*
X0066119Y0140308D02*
X0064719Y0140308D01*
X0064719Y0141306D02*
X0066119Y0141306D01*
X0066119Y0142305D02*
X0064719Y0142305D01*
X0064719Y0143303D02*
X0066119Y0143303D01*
X0066119Y0144302D02*
X0064719Y0144302D01*
X0064719Y0145301D02*
X0066119Y0145301D01*
X0066119Y0146299D02*
X0064719Y0146299D01*
X0064719Y0147298D02*
X0066119Y0147298D01*
X0066119Y0148296D02*
X0064719Y0148296D01*
X0064719Y0149295D02*
X0066119Y0149295D01*
X0066119Y0150293D02*
X0064719Y0150293D01*
X0064719Y0151292D02*
X0066119Y0151292D01*
X0066119Y0152290D02*
X0064719Y0152290D01*
X0064719Y0153289D02*
X0066119Y0153289D01*
X0066119Y0154287D02*
X0064719Y0154287D01*
X0064719Y0155286D02*
X0066119Y0155286D01*
X0066119Y0156284D02*
X0064719Y0156284D01*
X0064719Y0157283D02*
X0066119Y0157283D01*
X0066119Y0158281D02*
X0064719Y0158281D01*
X0064719Y0159280D02*
X0066119Y0159280D01*
X0066119Y0160278D02*
X0064719Y0160278D01*
X0064719Y0161277D02*
X0066119Y0161277D01*
X0066119Y0162275D02*
X0064719Y0162275D01*
X0064719Y0163274D02*
X0066119Y0163274D01*
X0066119Y0164272D02*
X0064719Y0164272D01*
X0064719Y0165271D02*
X0066119Y0165271D01*
X0066119Y0166269D02*
X0064719Y0166269D01*
X0064719Y0167268D02*
X0066119Y0167268D01*
X0066119Y0168266D02*
X0064719Y0168266D01*
X0064719Y0169265D02*
X0066119Y0169265D01*
X0065725Y0170263D02*
X0064719Y0170263D01*
X0064719Y0171262D02*
X0065419Y0171262D01*
X0065528Y0172260D02*
X0064719Y0172260D01*
X0064719Y0173259D02*
X0066142Y0173259D01*
X0064719Y0174257D02*
X0073619Y0174257D01*
X0073619Y0173259D02*
X0069695Y0173259D01*
X0070310Y0172260D02*
X0073619Y0172260D01*
X0073619Y0171262D02*
X0070419Y0171262D01*
X0070112Y0170263D02*
X0073619Y0170263D01*
X0073619Y0169265D02*
X0069719Y0169265D01*
X0069719Y0168266D02*
X0073619Y0168266D01*
X0073619Y0167268D02*
X0069719Y0167268D01*
X0069719Y0166269D02*
X0073619Y0166269D01*
X0073619Y0165271D02*
X0069719Y0165271D01*
X0069719Y0164272D02*
X0073619Y0164272D01*
X0073619Y0163274D02*
X0069719Y0163274D01*
X0069719Y0162275D02*
X0073619Y0162275D01*
X0073619Y0161277D02*
X0069719Y0161277D01*
X0069719Y0160278D02*
X0073619Y0160278D01*
X0073619Y0159280D02*
X0069719Y0159280D01*
X0069719Y0158281D02*
X0073619Y0158281D01*
X0073619Y0157283D02*
X0069719Y0157283D01*
X0069719Y0156284D02*
X0073619Y0156284D01*
X0073619Y0155286D02*
X0069719Y0155286D01*
X0069719Y0154287D02*
X0073619Y0154287D01*
X0073619Y0153289D02*
X0069719Y0153289D01*
X0069719Y0152290D02*
X0073619Y0152290D01*
X0073619Y0151292D02*
X0069719Y0151292D01*
X0069719Y0150293D02*
X0073619Y0150293D01*
X0073619Y0149295D02*
X0069719Y0149295D01*
X0069719Y0148296D02*
X0073619Y0148296D01*
X0073619Y0147298D02*
X0069719Y0147298D01*
X0069719Y0146299D02*
X0073619Y0146299D01*
X0073619Y0145301D02*
X0069719Y0145301D01*
X0069719Y0144302D02*
X0073619Y0144302D01*
X0073619Y0143303D02*
X0069719Y0143303D01*
X0069719Y0142305D02*
X0073619Y0142305D01*
X0073619Y0141306D02*
X0069719Y0141306D01*
X0069719Y0140308D02*
X0073619Y0140308D01*
X0073619Y0139309D02*
X0069719Y0139309D01*
X0069719Y0138311D02*
X0073619Y0138311D01*
X0073619Y0137312D02*
X0069719Y0137312D01*
X0069719Y0136314D02*
X0073619Y0136314D01*
X0073619Y0135315D02*
X0069719Y0135315D01*
X0069719Y0134317D02*
X0073619Y0134317D01*
X0073619Y0133318D02*
X0069719Y0133318D01*
X0069719Y0132320D02*
X0073619Y0132320D01*
X0073619Y0131321D02*
X0069719Y0131321D01*
X0069719Y0130323D02*
X0073619Y0130323D01*
X0073619Y0129324D02*
X0069719Y0129324D01*
X0069719Y0128326D02*
X0073619Y0128326D01*
X0073619Y0127327D02*
X0069719Y0127327D01*
X0069719Y0126329D02*
X0073619Y0126329D01*
X0073619Y0125330D02*
X0069719Y0125330D01*
X0069719Y0124332D02*
X0073619Y0124332D01*
X0073619Y0123333D02*
X0069719Y0123333D01*
X0069719Y0122335D02*
X0073619Y0122335D01*
X0073619Y0121336D02*
X0069719Y0121336D01*
X0069719Y0120338D02*
X0073619Y0120338D01*
X0073619Y0119339D02*
X0069719Y0119339D01*
X0069719Y0118341D02*
X0073619Y0118341D01*
X0073619Y0117342D02*
X0069719Y0117342D01*
X0069719Y0116344D02*
X0073619Y0116344D01*
X0073619Y0115345D02*
X0069719Y0115345D01*
X0069719Y0114347D02*
X0073619Y0114347D01*
X0073619Y0113348D02*
X0069719Y0113348D01*
X0069719Y0112350D02*
X0073619Y0112350D01*
X0073619Y0111351D02*
X0069719Y0111351D01*
X0069719Y0110353D02*
X0073619Y0110353D01*
X0073619Y0109354D02*
X0069719Y0109354D01*
X0069719Y0108356D02*
X0073619Y0108356D01*
X0073619Y0107357D02*
X0069719Y0107357D01*
X0069719Y0106359D02*
X0073619Y0106359D01*
X0073619Y0105360D02*
X0069719Y0105360D01*
X0069719Y0104362D02*
X0073619Y0104362D01*
X0073619Y0103363D02*
X0069719Y0103363D01*
X0069719Y0102365D02*
X0073619Y0102365D01*
X0073619Y0101366D02*
X0069719Y0101366D01*
X0069719Y0100368D02*
X0073619Y0100368D01*
X0073619Y0099369D02*
X0069719Y0099369D01*
X0069719Y0098370D02*
X0073619Y0098370D01*
X0073619Y0097372D02*
X0069719Y0097372D01*
X0069719Y0096373D02*
X0073619Y0096373D01*
X0073619Y0095375D02*
X0069719Y0095375D01*
X0069719Y0094376D02*
X0073619Y0094376D01*
X0073619Y0093378D02*
X0069719Y0093378D01*
X0069719Y0092379D02*
X0073619Y0092379D01*
X0073619Y0091381D02*
X0069719Y0091381D01*
X0069719Y0090382D02*
X0073619Y0090382D01*
X0073619Y0089384D02*
X0069719Y0089384D01*
X0069719Y0088385D02*
X0073619Y0088385D01*
X0073619Y0087387D02*
X0069719Y0087387D01*
X0070576Y0086388D02*
X0073619Y0086388D01*
X0073619Y0085390D02*
X0071574Y0085390D01*
X0072573Y0084391D02*
X0073619Y0084391D01*
X0073619Y0083393D02*
X0073571Y0083393D01*
X0075419Y0084000D02*
X0094169Y0065250D01*
X0094169Y0030250D01*
X0105419Y0019000D01*
X0107919Y0019000D01*
X0112219Y0019488D02*
X0113619Y0019488D01*
X0113619Y0018490D02*
X0112219Y0018490D01*
X0112219Y0017491D02*
X0113619Y0017491D01*
X0114345Y0016493D02*
X0111492Y0016493D01*
X0110494Y0015494D02*
X0115343Y0015494D01*
X0117919Y0019000D02*
X0112919Y0024000D01*
X0105419Y0024000D01*
X0097919Y0031500D01*
X0097919Y0066500D01*
X0077919Y0086500D01*
X0077919Y0184000D01*
X0087919Y0194000D01*
X0089685Y0192231D02*
X0108864Y0192231D01*
X0108119Y0191232D02*
X0087696Y0191232D01*
X0086698Y0190234D02*
X0107919Y0190234D01*
X0108133Y0189235D02*
X0085699Y0189235D01*
X0084701Y0188237D02*
X0108897Y0188237D01*
X0110419Y0190250D02*
X0114169Y0190250D01*
X0157919Y0146500D01*
X0202919Y0146500D01*
X0225419Y0124000D01*
X0227919Y0124000D01*
X0228829Y0126329D02*
X0262919Y0126329D01*
X0262919Y0127327D02*
X0224637Y0127327D01*
X0225635Y0126329D02*
X0227008Y0126329D01*
X0230074Y0125330D02*
X0262919Y0125330D01*
X0262919Y0124332D02*
X0230419Y0124332D01*
X0230348Y0123333D02*
X0262919Y0123333D01*
X0262919Y0122335D02*
X0229789Y0122335D01*
X0228919Y0121336D02*
X0262919Y0121336D01*
X0262919Y0120338D02*
X0230070Y0120338D01*
X0230419Y0119339D02*
X0262919Y0119339D01*
X0262919Y0118341D02*
X0230351Y0118341D01*
X0229796Y0117342D02*
X0262919Y0117342D01*
X0262919Y0116344D02*
X0226669Y0116344D01*
X0226396Y0115345D02*
X0262919Y0115345D01*
X0262919Y0114347D02*
X0225503Y0114347D01*
X0223616Y0113348D02*
X0262919Y0113348D01*
X0262919Y0112350D02*
X0224615Y0112350D01*
X0225613Y0111351D02*
X0262919Y0111351D01*
X0262919Y0110353D02*
X0226612Y0110353D01*
X0227610Y0109354D02*
X0262919Y0109354D01*
X0262919Y0108356D02*
X0228609Y0108356D01*
X0230597Y0107357D02*
X0262919Y0107357D01*
X0262919Y0106359D02*
X0231415Y0106359D01*
X0231669Y0105360D02*
X0262919Y0105360D01*
X0262919Y0104362D02*
X0231507Y0104362D01*
X0230817Y0103363D02*
X0262919Y0103363D01*
X0262919Y0102365D02*
X0227319Y0102365D01*
X0225419Y0104000D02*
X0192919Y0136500D01*
X0152919Y0136500D01*
X0132919Y0156500D01*
X0107919Y0156500D01*
X0106164Y0158281D02*
X0103495Y0158281D01*
X0102497Y0157283D02*
X0105537Y0157283D01*
X0105419Y0156997D02*
X0105419Y0156003D01*
X0105799Y0155084D01*
X0106502Y0154381D01*
X0107421Y0154000D01*
X0106502Y0153619D01*
X0105799Y0152916D01*
X0105419Y0151997D01*
X0105419Y0151003D01*
X0105799Y0150084D01*
X0106502Y0149381D01*
X0107421Y0149000D01*
X0108416Y0149000D01*
X0109335Y0149381D01*
X0109654Y0149700D01*
X0133423Y0149700D01*
X0149869Y0133254D01*
X0150923Y0132200D01*
X0189673Y0132200D01*
X0208573Y0113300D01*
X0149914Y0113300D01*
X0134914Y0128300D01*
X0114914Y0128300D01*
X0114169Y0129046D01*
X0114169Y0129497D01*
X0113788Y0130416D01*
X0113085Y0131119D01*
X0112166Y0131500D01*
X0111171Y0131500D01*
X0110688Y0131300D01*
X0112538Y0133150D01*
X0126483Y0133150D01*
X0126502Y0133131D01*
X0127421Y0132750D01*
X0128416Y0132750D01*
X0129335Y0133131D01*
X0130038Y0133834D01*
X0130419Y0134753D01*
X0130419Y0135747D01*
X0130038Y0136666D01*
X0129335Y0137369D01*
X0128416Y0137750D01*
X0127421Y0137750D01*
X0126502Y0137369D01*
X0126483Y0137350D01*
X0110799Y0137350D01*
X0109569Y0136120D01*
X0095969Y0122520D01*
X0095969Y0150754D01*
X0106094Y0160880D01*
X0106424Y0160084D01*
X0107127Y0159381D01*
X0108046Y0159000D01*
X0108169Y0159000D01*
X0107421Y0159000D01*
X0106502Y0158619D01*
X0105799Y0157916D01*
X0105419Y0156997D01*
X0105419Y0156284D02*
X0101498Y0156284D01*
X0100500Y0155286D02*
X0105716Y0155286D01*
X0106728Y0154287D02*
X0099501Y0154287D01*
X0098503Y0153289D02*
X0106172Y0153289D01*
X0105540Y0152290D02*
X0097504Y0152290D01*
X0096506Y0151292D02*
X0105419Y0151292D01*
X0105713Y0150293D02*
X0095969Y0150293D01*
X0095969Y0149295D02*
X0106710Y0149295D01*
X0109127Y0149295D02*
X0133828Y0149295D01*
X0134827Y0148296D02*
X0095969Y0148296D01*
X0095969Y0147298D02*
X0135825Y0147298D01*
X0136824Y0146299D02*
X0095969Y0146299D01*
X0095969Y0145301D02*
X0137822Y0145301D01*
X0138821Y0144302D02*
X0095969Y0144302D01*
X0095969Y0143303D02*
X0139820Y0143303D01*
X0140818Y0142305D02*
X0095969Y0142305D01*
X0095969Y0141306D02*
X0141817Y0141306D01*
X0142815Y0140308D02*
X0095969Y0140308D01*
X0095969Y0139309D02*
X0143814Y0139309D01*
X0144812Y0138311D02*
X0095969Y0138311D01*
X0095969Y0137312D02*
X0110761Y0137312D01*
X0109763Y0136314D02*
X0095969Y0136314D01*
X0095969Y0135315D02*
X0108764Y0135315D01*
X0107766Y0134317D02*
X0095969Y0134317D01*
X0095969Y0133318D02*
X0106767Y0133318D01*
X0105769Y0132320D02*
X0095969Y0132320D01*
X0095969Y0131321D02*
X0104770Y0131321D01*
X0103772Y0130323D02*
X0095969Y0130323D01*
X0095969Y0129324D02*
X0102773Y0129324D01*
X0101775Y0128326D02*
X0095969Y0128326D01*
X0095969Y0127327D02*
X0100776Y0127327D01*
X0099778Y0126329D02*
X0095969Y0126329D01*
X0095969Y0125330D02*
X0098779Y0125330D01*
X0097781Y0124332D02*
X0095969Y0124332D01*
X0095969Y0123333D02*
X0096782Y0123333D01*
X0100019Y0120630D02*
X0109369Y0129980D01*
X0109169Y0129497D01*
X0109169Y0128503D01*
X0109549Y0127584D01*
X0110252Y0126881D01*
X0111171Y0126500D01*
X0111623Y0126500D01*
X0113423Y0124700D01*
X0130761Y0124700D01*
X0130419Y0123872D01*
X0130419Y0122878D01*
X0130799Y0121959D01*
X0131502Y0121256D01*
X0132421Y0120875D01*
X0133416Y0120875D01*
X0133474Y0120899D01*
X0146119Y0108254D01*
X0146919Y0107454D01*
X0146919Y0107350D01*
X0118788Y0107350D01*
X0109169Y0116970D01*
X0109169Y0116997D01*
X0108788Y0117916D01*
X0108085Y0118619D01*
X0107166Y0119000D01*
X0106171Y0119000D01*
X0105252Y0118619D01*
X0104549Y0117916D01*
X0104169Y0116997D01*
X0104169Y0116003D01*
X0104549Y0115084D01*
X0105252Y0114381D01*
X0106171Y0114000D01*
X0106199Y0114000D01*
X0115819Y0104380D01*
X0116899Y0103300D01*
X0112154Y0103300D01*
X0111835Y0103619D01*
X0110916Y0104000D01*
X0109921Y0104000D01*
X0109002Y0103619D01*
X0108299Y0102916D01*
X0107919Y0101997D01*
X0107919Y0101003D01*
X0108003Y0100800D01*
X0096669Y0100800D01*
X0096669Y0101372D01*
X0096288Y0102291D01*
X0095969Y0102611D01*
X0095969Y0113664D01*
X0096502Y0113131D01*
X0097421Y0112750D01*
X0098416Y0112750D01*
X0099335Y0113131D01*
X0100038Y0113834D01*
X0100419Y0114753D01*
X0100419Y0115747D01*
X0100038Y0116666D01*
X0100019Y0116686D01*
X0100019Y0120630D01*
X0100019Y0120338D02*
X0134035Y0120338D01*
X0135034Y0119339D02*
X0100019Y0119339D01*
X0100019Y0118341D02*
X0104974Y0118341D01*
X0104311Y0117342D02*
X0100019Y0117342D01*
X0100172Y0116344D02*
X0104169Y0116344D01*
X0104441Y0115345D02*
X0100419Y0115345D01*
X0100250Y0114347D02*
X0105334Y0114347D01*
X0106851Y0113348D02*
X0099552Y0113348D01*
X0096285Y0113348D02*
X0095969Y0113348D01*
X0095969Y0112350D02*
X0107849Y0112350D01*
X0108848Y0111351D02*
X0095969Y0111351D01*
X0095969Y0110353D02*
X0109846Y0110353D01*
X0110845Y0109354D02*
X0095969Y0109354D01*
X0095969Y0108356D02*
X0111843Y0108356D01*
X0112842Y0107357D02*
X0095969Y0107357D01*
X0095969Y0106359D02*
X0113840Y0106359D01*
X0114839Y0105360D02*
X0095969Y0105360D01*
X0095969Y0104362D02*
X0115837Y0104362D01*
X0116836Y0103363D02*
X0112091Y0103363D01*
X0110419Y0101500D02*
X0186669Y0101500D01*
X0217919Y0070250D01*
X0222919Y0070250D01*
X0229169Y0067750D02*
X0234169Y0062750D01*
X0234169Y0044000D01*
X0229169Y0039000D01*
X0195419Y0039000D01*
X0191669Y0042750D01*
X0191669Y0051500D01*
X0193986Y0052439D02*
X0218184Y0052439D01*
X0217186Y0053437D02*
X0193267Y0053437D01*
X0194169Y0051440D02*
X0219183Y0051440D01*
X0220181Y0050442D02*
X0193936Y0050442D01*
X0193469Y0049443D02*
X0221119Y0049443D01*
X0221119Y0048445D02*
X0193469Y0048445D01*
X0193469Y0047446D02*
X0221119Y0047446D01*
X0221119Y0046448D02*
X0193469Y0046448D01*
X0193469Y0045449D02*
X0221119Y0045449D01*
X0221119Y0044451D02*
X0193469Y0044451D01*
X0193512Y0043452D02*
X0220762Y0043452D01*
X0220419Y0042454D02*
X0194510Y0042454D01*
X0195509Y0041455D02*
X0220490Y0041455D01*
X0222919Y0042125D02*
X0222919Y0050250D01*
X0181669Y0091500D01*
X0108544Y0091500D01*
X0106669Y0093375D01*
X0107919Y0096500D02*
X0110419Y0094000D01*
X0182919Y0094000D01*
X0226669Y0050250D01*
X0226669Y0044000D01*
X0229169Y0046500D02*
X0230419Y0045250D01*
X0229169Y0046500D02*
X0229169Y0051500D01*
X0184169Y0096500D01*
X0111669Y0096500D01*
X0109169Y0099000D01*
X0096669Y0099000D01*
X0094169Y0096500D01*
X0088544Y0096500D01*
X0090209Y0098370D02*
X0093494Y0098370D01*
X0092139Y0099369D02*
X0087219Y0099369D01*
X0087219Y0100368D02*
X0091673Y0100368D01*
X0091669Y0101366D02*
X0087219Y0101366D01*
X0087219Y0102365D02*
X0092123Y0102365D01*
X0092369Y0103363D02*
X0087219Y0103363D01*
X0087219Y0104362D02*
X0092369Y0104362D01*
X0092369Y0105360D02*
X0087219Y0105360D01*
X0087219Y0106359D02*
X0092369Y0106359D01*
X0092369Y0107357D02*
X0087219Y0107357D01*
X0087219Y0108356D02*
X0092369Y0108356D01*
X0092369Y0109354D02*
X0087219Y0109354D01*
X0087219Y0110353D02*
X0092369Y0110353D01*
X0092369Y0111351D02*
X0087219Y0111351D01*
X0087219Y0112350D02*
X0092369Y0112350D01*
X0092369Y0113348D02*
X0087219Y0113348D01*
X0087219Y0114347D02*
X0092369Y0114347D01*
X0092369Y0115345D02*
X0087219Y0115345D01*
X0087219Y0116344D02*
X0092369Y0116344D01*
X0092369Y0117342D02*
X0087219Y0117342D01*
X0087219Y0118341D02*
X0092369Y0118341D01*
X0092369Y0119339D02*
X0087219Y0119339D01*
X0087219Y0120338D02*
X0092369Y0120338D01*
X0092369Y0121336D02*
X0087219Y0121336D01*
X0087219Y0122335D02*
X0092369Y0122335D01*
X0092369Y0123333D02*
X0087219Y0123333D01*
X0087219Y0124332D02*
X0092369Y0124332D01*
X0092369Y0125330D02*
X0087219Y0125330D01*
X0087533Y0126329D02*
X0092369Y0126329D01*
X0092369Y0127327D02*
X0087919Y0127327D01*
X0087886Y0128326D02*
X0092369Y0128326D01*
X0092369Y0129324D02*
X0087380Y0129324D01*
X0085419Y0127750D02*
X0085419Y0095250D01*
X0092294Y0088375D01*
X0107919Y0088375D01*
X0110419Y0088385D02*
X0182238Y0088385D01*
X0183236Y0087387D02*
X0113043Y0087387D01*
X0113903Y0086388D02*
X0184235Y0086388D01*
X0185233Y0085390D02*
X0114169Y0085390D01*
X0114019Y0084391D02*
X0186232Y0084391D01*
X0187230Y0083393D02*
X0113347Y0083393D01*
X0111669Y0085250D02*
X0090419Y0085250D01*
X0083544Y0092125D01*
X0083544Y0097125D01*
X0081669Y0099000D01*
X0081669Y0167750D01*
X0083689Y0169265D02*
X0123121Y0169265D01*
X0122919Y0170263D02*
X0079719Y0170263D01*
X0079719Y0171262D02*
X0123132Y0171262D01*
X0123893Y0172260D02*
X0079719Y0172260D01*
X0079719Y0173259D02*
X0128614Y0173259D01*
X0127616Y0174257D02*
X0079719Y0174257D01*
X0079719Y0175256D02*
X0126617Y0175256D01*
X0125619Y0176254D02*
X0079719Y0176254D01*
X0079719Y0177253D02*
X0124620Y0177253D01*
X0123622Y0178251D02*
X0079719Y0178251D01*
X0079719Y0179250D02*
X0122623Y0179250D01*
X0121625Y0180248D02*
X0079719Y0180248D01*
X0079719Y0181247D02*
X0120626Y0181247D01*
X0119628Y0182245D02*
X0079719Y0182245D01*
X0079719Y0183244D02*
X0118629Y0183244D01*
X0117631Y0184242D02*
X0080707Y0184242D01*
X0081705Y0185241D02*
X0116632Y0185241D01*
X0115634Y0186239D02*
X0082704Y0186239D01*
X0083702Y0187238D02*
X0114635Y0187238D01*
X0113637Y0188237D02*
X0111941Y0188237D01*
X0115732Y0191232D02*
X0134928Y0191232D01*
X0134467Y0191694D02*
X0135612Y0190548D01*
X0137109Y0189928D01*
X0138729Y0189928D01*
X0140225Y0190548D01*
X0141370Y0191694D01*
X0141990Y0193190D01*
X0141990Y0194810D01*
X0141370Y0196306D01*
X0140225Y0197452D01*
X0138729Y0198072D01*
X0137109Y0198072D01*
X0135612Y0197452D01*
X0134467Y0196306D01*
X0133847Y0194810D01*
X0133847Y0193190D01*
X0134467Y0191694D01*
X0134244Y0192231D02*
X0111974Y0192231D01*
X0116731Y0190234D02*
X0136372Y0190234D01*
X0139465Y0190234D02*
X0146372Y0190234D01*
X0147109Y0189928D02*
X0145612Y0190548D01*
X0144467Y0191694D01*
X0143847Y0193190D01*
X0143847Y0194810D01*
X0144467Y0196306D01*
X0145612Y0197452D01*
X0147109Y0198072D01*
X0148729Y0198072D01*
X0150225Y0197452D01*
X0151370Y0196306D01*
X0151574Y0195814D01*
X0153788Y0193600D01*
X0155019Y0192370D01*
X0155019Y0167936D01*
X0155038Y0167916D01*
X0155419Y0166997D01*
X0155419Y0166003D01*
X0155038Y0165084D01*
X0154335Y0164381D01*
X0153416Y0164000D01*
X0152421Y0164000D01*
X0151502Y0164381D01*
X0150799Y0165084D01*
X0150419Y0166003D01*
X0150419Y0166997D01*
X0150799Y0167916D01*
X0150819Y0167936D01*
X0150819Y0190630D01*
X0150563Y0190886D01*
X0150225Y0190548D01*
X0148729Y0189928D01*
X0147109Y0189928D01*
X0149465Y0190234D02*
X0150819Y0190234D01*
X0150819Y0189235D02*
X0117729Y0189235D01*
X0118728Y0188237D02*
X0150819Y0188237D01*
X0150819Y0187238D02*
X0119726Y0187238D01*
X0120725Y0186239D02*
X0150819Y0186239D01*
X0150819Y0185241D02*
X0121723Y0185241D01*
X0122722Y0184242D02*
X0150819Y0184242D01*
X0150819Y0183244D02*
X0123720Y0183244D01*
X0124719Y0182245D02*
X0150819Y0182245D01*
X0150819Y0181247D02*
X0125717Y0181247D01*
X0126716Y0180248D02*
X0150819Y0180248D01*
X0150819Y0179250D02*
X0127714Y0179250D01*
X0128713Y0178251D02*
X0150819Y0178251D01*
X0150819Y0177253D02*
X0129711Y0177253D01*
X0130710Y0176254D02*
X0150819Y0176254D01*
X0150819Y0175256D02*
X0131708Y0175256D01*
X0132707Y0174257D02*
X0150819Y0174257D01*
X0150819Y0173259D02*
X0133705Y0173259D01*
X0134704Y0172260D02*
X0150819Y0172260D01*
X0150819Y0171262D02*
X0135702Y0171262D01*
X0136701Y0170263D02*
X0150819Y0170263D01*
X0150819Y0169265D02*
X0137699Y0169265D01*
X0138698Y0168266D02*
X0150819Y0168266D01*
X0150531Y0167268D02*
X0139696Y0167268D01*
X0140695Y0166269D02*
X0150419Y0166269D01*
X0150722Y0165271D02*
X0141693Y0165271D01*
X0142692Y0164272D02*
X0151764Y0164272D01*
X0154073Y0164272D02*
X0277153Y0164272D01*
X0277160Y0164283D02*
X0276765Y0163739D01*
X0276460Y0163140D01*
X0276252Y0162500D01*
X0276155Y0161886D01*
X0280033Y0161886D01*
X0280033Y0165764D01*
X0279418Y0165666D01*
X0278779Y0165459D01*
X0278180Y0165153D01*
X0277636Y0164758D01*
X0277160Y0164283D01*
X0276528Y0163274D02*
X0143690Y0163274D01*
X0144689Y0162275D02*
X0276216Y0162275D01*
X0276155Y0161114D02*
X0276252Y0160500D01*
X0276460Y0159860D01*
X0276765Y0159261D01*
X0277160Y0158717D01*
X0277636Y0158242D01*
X0278180Y0157847D01*
X0278779Y0157541D01*
X0279418Y0157334D01*
X0280033Y0157236D01*
X0280033Y0161114D01*
X0280804Y0161114D01*
X0280804Y0157236D01*
X0281419Y0157334D01*
X0282058Y0157541D01*
X0282657Y0157847D01*
X0283201Y0158242D01*
X0283677Y0158717D01*
X0284072Y0159261D01*
X0284377Y0159860D01*
X0284585Y0160500D01*
X0284682Y0161114D01*
X0280805Y0161114D01*
X0280805Y0161886D01*
X0284682Y0161886D01*
X0284585Y0162500D01*
X0284377Y0163140D01*
X0284072Y0163739D01*
X0283677Y0164283D01*
X0283201Y0164758D01*
X0282657Y0165153D01*
X0282058Y0165459D01*
X0281419Y0165666D01*
X0280804Y0165764D01*
X0280804Y0161886D01*
X0280033Y0161886D01*
X0280033Y0161114D01*
X0276155Y0161114D01*
X0276324Y0160278D02*
X0146686Y0160278D01*
X0147684Y0159280D02*
X0276756Y0159280D01*
X0277596Y0158281D02*
X0148683Y0158281D01*
X0149682Y0157283D02*
X0279740Y0157283D01*
X0280033Y0157283D02*
X0280804Y0157283D01*
X0281098Y0157283D02*
X0286419Y0157283D01*
X0286419Y0158281D02*
X0283241Y0158281D01*
X0284081Y0159280D02*
X0286419Y0159280D01*
X0286419Y0160278D02*
X0284513Y0160278D01*
X0284621Y0162275D02*
X0286419Y0162275D01*
X0286419Y0161277D02*
X0280805Y0161277D01*
X0280033Y0161277D02*
X0145687Y0161277D01*
X0150680Y0156284D02*
X0286419Y0156284D01*
X0286419Y0155286D02*
X0151679Y0155286D01*
X0152677Y0154287D02*
X0286419Y0154287D01*
X0286419Y0153289D02*
X0153676Y0153289D01*
X0154674Y0152290D02*
X0286419Y0152290D01*
X0286419Y0151292D02*
X0155673Y0151292D01*
X0156671Y0150293D02*
X0286419Y0150293D01*
X0286419Y0149295D02*
X0157670Y0149295D01*
X0156669Y0144000D02*
X0200419Y0144000D01*
X0225419Y0119000D01*
X0227919Y0119000D01*
X0224169Y0116500D02*
X0222919Y0116500D01*
X0197919Y0141500D01*
X0155419Y0141500D01*
X0130419Y0166500D01*
X0112919Y0166500D01*
X0112860Y0166559D01*
X0109228Y0166559D01*
X0094169Y0151500D01*
X0094169Y0100875D01*
X0096215Y0102365D02*
X0108071Y0102365D01*
X0107919Y0101366D02*
X0096669Y0101366D01*
X0095969Y0103363D02*
X0108746Y0103363D01*
X0107919Y0096500D02*
X0099169Y0096500D01*
X0110207Y0089384D02*
X0181239Y0089384D01*
X0180916Y0081500D02*
X0179921Y0081500D01*
X0179002Y0081119D01*
X0178299Y0080416D01*
X0177919Y0079497D01*
X0177919Y0079187D01*
X0177919Y0079187D01*
X0177919Y0079497D01*
X0177538Y0080416D01*
X0176835Y0081119D01*
X0175916Y0081500D01*
X0174921Y0081500D01*
X0174002Y0081119D01*
X0173299Y0080416D01*
X0172919Y0079497D01*
X0172919Y0079187D01*
X0172919Y0079187D01*
X0172919Y0079497D01*
X0172538Y0080416D01*
X0171835Y0081119D01*
X0170916Y0081500D01*
X0169921Y0081500D01*
X0169002Y0081119D01*
X0168299Y0080416D01*
X0167919Y0079497D01*
X0167919Y0079187D01*
X0151019Y0062287D01*
X0151019Y0031981D01*
X0149700Y0033300D01*
X0146137Y0033300D01*
X0143619Y0030781D01*
X0143619Y0027219D01*
X0146137Y0024700D01*
X0149700Y0024700D01*
X0151019Y0026019D01*
X0151019Y0024787D01*
X0149532Y0023300D01*
X0146137Y0023300D01*
X0143619Y0020781D01*
X0143619Y0017219D01*
X0146137Y0014700D01*
X0149700Y0014700D01*
X0152219Y0017219D01*
X0152219Y0020613D01*
X0153706Y0022100D01*
X0154819Y0023213D01*
X0154819Y0026019D01*
X0156137Y0024700D01*
X0159700Y0024700D01*
X0161019Y0026019D01*
X0161019Y0024787D01*
X0159532Y0023300D01*
X0156137Y0023300D01*
X0153619Y0020781D01*
X0153619Y0017219D01*
X0156137Y0014700D01*
X0159700Y0014700D01*
X0162219Y0017219D01*
X0162219Y0020613D01*
X0163706Y0022100D01*
X0164819Y0023213D01*
X0164819Y0026019D01*
X0166137Y0024700D01*
X0169700Y0024700D01*
X0171019Y0026019D01*
X0171019Y0024787D01*
X0169532Y0023300D01*
X0166137Y0023300D01*
X0163619Y0020781D01*
X0163619Y0017219D01*
X0166137Y0014700D01*
X0169700Y0014700D01*
X0172219Y0017219D01*
X0172219Y0020613D01*
X0173706Y0022100D01*
X0174819Y0023213D01*
X0174819Y0026019D01*
X0176137Y0024700D01*
X0179700Y0024700D01*
X0181019Y0026019D01*
X0181019Y0024787D01*
X0179532Y0023300D01*
X0176137Y0023300D01*
X0173619Y0020781D01*
X0173619Y0017219D01*
X0176137Y0014700D01*
X0179700Y0014700D01*
X0182219Y0017219D01*
X0182219Y0020613D01*
X0183706Y0022100D01*
X0184819Y0023213D01*
X0184819Y0026019D01*
X0186137Y0024700D01*
X0189700Y0024700D01*
X0192219Y0027219D01*
X0192219Y0030781D01*
X0189700Y0033300D01*
X0186137Y0033300D01*
X0184819Y0031981D01*
X0184819Y0075713D01*
X0185606Y0076500D01*
X0185916Y0076500D01*
X0186835Y0076881D01*
X0187538Y0077584D01*
X0187919Y0078503D01*
X0187919Y0079497D01*
X0187538Y0080416D01*
X0186835Y0081119D01*
X0185916Y0081500D01*
X0184921Y0081500D01*
X0184002Y0081119D01*
X0183299Y0080416D01*
X0182919Y0079497D01*
X0182919Y0079187D01*
X0182919Y0079187D01*
X0182919Y0079497D01*
X0182538Y0080416D01*
X0181835Y0081119D01*
X0180916Y0081500D01*
X0181167Y0081396D02*
X0184670Y0081396D01*
X0186167Y0081396D02*
X0189227Y0081396D01*
X0188229Y0082394D02*
X0104994Y0082394D01*
X0105993Y0081396D02*
X0169670Y0081396D01*
X0171167Y0081396D02*
X0174670Y0081396D01*
X0176167Y0081396D02*
X0179670Y0081396D01*
X0178291Y0080397D02*
X0177546Y0080397D01*
X0177919Y0079399D02*
X0177919Y0079399D01*
X0182546Y0080397D02*
X0183291Y0080397D01*
X0182919Y0079399D02*
X0182919Y0079399D01*
X0187546Y0080397D02*
X0190226Y0080397D01*
X0191224Y0079399D02*
X0187919Y0079399D01*
X0187876Y0078400D02*
X0192223Y0078400D01*
X0193221Y0077402D02*
X0187356Y0077402D01*
X0185509Y0076403D02*
X0194220Y0076403D01*
X0195218Y0075405D02*
X0184819Y0075405D01*
X0184819Y0074406D02*
X0196217Y0074406D01*
X0197215Y0073408D02*
X0184819Y0073408D01*
X0184819Y0072409D02*
X0198214Y0072409D01*
X0199212Y0071411D02*
X0184819Y0071411D01*
X0184819Y0070412D02*
X0200211Y0070412D01*
X0201209Y0069414D02*
X0184819Y0069414D01*
X0184819Y0068415D02*
X0202208Y0068415D01*
X0203206Y0067417D02*
X0184819Y0067417D01*
X0184819Y0066418D02*
X0204205Y0066418D01*
X0205203Y0065420D02*
X0184819Y0065420D01*
X0184819Y0064421D02*
X0206202Y0064421D01*
X0207200Y0063423D02*
X0184819Y0063423D01*
X0184819Y0062424D02*
X0208199Y0062424D01*
X0209197Y0061426D02*
X0184819Y0061426D01*
X0184819Y0060427D02*
X0210196Y0060427D01*
X0211194Y0059429D02*
X0184819Y0059429D01*
X0184819Y0058430D02*
X0212193Y0058430D01*
X0213191Y0057432D02*
X0184819Y0057432D01*
X0184819Y0056433D02*
X0214190Y0056433D01*
X0215189Y0055434D02*
X0184819Y0055434D01*
X0184819Y0054436D02*
X0216187Y0054436D01*
X0226669Y0062125D02*
X0228544Y0060250D01*
X0226669Y0062125D02*
X0226669Y0089000D01*
X0206669Y0109000D01*
X0147919Y0109000D01*
X0134794Y0122125D01*
X0133544Y0123375D01*
X0132919Y0123375D01*
X0130609Y0124332D02*
X0103720Y0124332D01*
X0104719Y0125330D02*
X0112793Y0125330D01*
X0111794Y0126329D02*
X0105717Y0126329D01*
X0106716Y0127327D02*
X0109806Y0127327D01*
X0109242Y0128326D02*
X0107714Y0128326D01*
X0108713Y0129324D02*
X0109169Y0129324D01*
X0111669Y0129000D02*
X0114169Y0126500D01*
X0134169Y0126500D01*
X0149169Y0111500D01*
X0207919Y0111500D01*
X0229169Y0090250D01*
X0229169Y0067750D01*
X0231049Y0068415D02*
X0262919Y0068415D01*
X0262919Y0067417D02*
X0232048Y0067417D01*
X0233046Y0066418D02*
X0262919Y0066418D01*
X0262919Y0065420D02*
X0234045Y0065420D01*
X0235043Y0064421D02*
X0262919Y0064421D01*
X0262919Y0063423D02*
X0235969Y0063423D01*
X0235969Y0062424D02*
X0262919Y0062424D01*
X0262919Y0061426D02*
X0235969Y0061426D01*
X0235969Y0060427D02*
X0262919Y0060427D01*
X0262919Y0059429D02*
X0235969Y0059429D01*
X0235969Y0058430D02*
X0262919Y0058430D01*
X0262919Y0057432D02*
X0235969Y0057432D01*
X0235969Y0056433D02*
X0262919Y0056433D01*
X0262919Y0055434D02*
X0235969Y0055434D01*
X0235969Y0054436D02*
X0262919Y0054436D01*
X0262919Y0053437D02*
X0235969Y0053437D01*
X0235969Y0052439D02*
X0262919Y0052439D01*
X0262919Y0051440D02*
X0235969Y0051440D01*
X0235969Y0050442D02*
X0262919Y0050442D01*
X0262919Y0049443D02*
X0235969Y0049443D01*
X0235969Y0048445D02*
X0262919Y0048445D01*
X0262919Y0047446D02*
X0235969Y0047446D01*
X0235969Y0046448D02*
X0262919Y0046448D01*
X0262919Y0045449D02*
X0235969Y0045449D01*
X0235969Y0044451D02*
X0262919Y0044451D01*
X0262919Y0043452D02*
X0235969Y0043452D01*
X0235168Y0042454D02*
X0262919Y0042454D01*
X0262919Y0041455D02*
X0234170Y0041455D01*
X0233171Y0040457D02*
X0262919Y0040457D01*
X0262919Y0039458D02*
X0232173Y0039458D01*
X0231174Y0038460D02*
X0262919Y0038460D01*
X0262919Y0037461D02*
X0230175Y0037461D01*
X0223729Y0023072D02*
X0222109Y0023072D01*
X0220612Y0022452D01*
X0219467Y0021306D01*
X0218847Y0019810D01*
X0218847Y0018190D01*
X0219467Y0016694D01*
X0220612Y0015548D01*
X0222109Y0014928D01*
X0223729Y0014928D01*
X0225225Y0015548D01*
X0226370Y0016694D01*
X0226990Y0018190D01*
X0226990Y0019810D01*
X0226370Y0021306D01*
X0225225Y0022452D01*
X0223729Y0023072D01*
X0225148Y0022484D02*
X0262919Y0022484D01*
X0262919Y0023482D02*
X0184819Y0023482D01*
X0184819Y0024481D02*
X0262919Y0024481D01*
X0262919Y0025479D02*
X0190479Y0025479D01*
X0191477Y0026478D02*
X0262919Y0026478D01*
X0262919Y0027476D02*
X0192219Y0027476D01*
X0192219Y0028475D02*
X0262919Y0028475D01*
X0262919Y0029473D02*
X0192219Y0029473D01*
X0192219Y0030472D02*
X0262919Y0030472D01*
X0262919Y0031470D02*
X0191529Y0031470D01*
X0190531Y0032469D02*
X0262919Y0032469D01*
X0262919Y0033467D02*
X0184819Y0033467D01*
X0184819Y0032469D02*
X0185306Y0032469D01*
X0184819Y0034466D02*
X0262919Y0034466D01*
X0262919Y0035464D02*
X0184819Y0035464D01*
X0184819Y0036463D02*
X0262919Y0036463D01*
X0262919Y0021485D02*
X0226192Y0021485D01*
X0226710Y0020487D02*
X0262919Y0020487D01*
X0262919Y0019488D02*
X0226990Y0019488D01*
X0226990Y0018490D02*
X0262919Y0018490D01*
X0262919Y0017491D02*
X0226701Y0017491D01*
X0226169Y0016493D02*
X0262919Y0016493D01*
X0262919Y0015494D02*
X0225094Y0015494D01*
X0220743Y0015494D02*
X0215094Y0015494D01*
X0215225Y0015548D02*
X0216370Y0016694D01*
X0216990Y0018190D01*
X0216990Y0019810D01*
X0216370Y0021306D01*
X0215225Y0022452D01*
X0213729Y0023072D01*
X0212109Y0023072D01*
X0210612Y0022452D01*
X0209467Y0021306D01*
X0208847Y0019810D01*
X0208847Y0018190D01*
X0209467Y0016694D01*
X0210612Y0015548D01*
X0212109Y0014928D01*
X0213729Y0014928D01*
X0215225Y0015548D01*
X0216169Y0016493D02*
X0219668Y0016493D01*
X0219136Y0017491D02*
X0216701Y0017491D01*
X0216990Y0018490D02*
X0218847Y0018490D01*
X0218847Y0019488D02*
X0216990Y0019488D01*
X0216710Y0020487D02*
X0219127Y0020487D01*
X0219646Y0021485D02*
X0216192Y0021485D01*
X0215148Y0022484D02*
X0220689Y0022484D01*
X0210689Y0022484D02*
X0190516Y0022484D01*
X0189700Y0023300D02*
X0186137Y0023300D01*
X0183619Y0020781D01*
X0183619Y0017219D01*
X0186137Y0014700D01*
X0189700Y0014700D01*
X0192219Y0017219D01*
X0192219Y0020781D01*
X0189700Y0023300D01*
X0191515Y0021485D02*
X0209646Y0021485D01*
X0209127Y0020487D02*
X0192219Y0020487D01*
X0192219Y0019488D02*
X0208847Y0019488D01*
X0208847Y0018490D02*
X0192219Y0018490D01*
X0192219Y0017491D02*
X0209136Y0017491D01*
X0209668Y0016493D02*
X0191492Y0016493D01*
X0190494Y0015494D02*
X0210743Y0015494D01*
X0185343Y0015494D02*
X0180494Y0015494D01*
X0181492Y0016493D02*
X0184345Y0016493D01*
X0183619Y0017491D02*
X0182219Y0017491D01*
X0182219Y0018490D02*
X0183619Y0018490D01*
X0183619Y0019488D02*
X0182219Y0019488D01*
X0182219Y0020487D02*
X0183619Y0020487D01*
X0183091Y0021485D02*
X0184323Y0021485D01*
X0184089Y0022484D02*
X0185321Y0022484D01*
X0185358Y0025479D02*
X0184819Y0025479D01*
X0181019Y0025479D02*
X0180479Y0025479D01*
X0180712Y0024481D02*
X0174819Y0024481D01*
X0174819Y0025479D02*
X0175358Y0025479D01*
X0174819Y0023482D02*
X0179714Y0023482D01*
X0178419Y0019500D02*
X0177919Y0019000D01*
X0175343Y0015494D02*
X0170494Y0015494D01*
X0171492Y0016493D02*
X0174345Y0016493D01*
X0173619Y0017491D02*
X0172219Y0017491D01*
X0172219Y0018490D02*
X0173619Y0018490D01*
X0173619Y0019488D02*
X0172219Y0019488D01*
X0172219Y0020487D02*
X0173619Y0020487D01*
X0173091Y0021485D02*
X0174323Y0021485D01*
X0174089Y0022484D02*
X0175321Y0022484D01*
X0170712Y0024481D02*
X0164819Y0024481D01*
X0164819Y0025479D02*
X0165358Y0025479D01*
X0164819Y0023482D02*
X0169714Y0023482D01*
X0170479Y0025479D02*
X0171019Y0025479D01*
X0165321Y0022484D02*
X0164089Y0022484D01*
X0164323Y0021485D02*
X0163091Y0021485D01*
X0163619Y0020487D02*
X0162219Y0020487D01*
X0162219Y0019488D02*
X0163619Y0019488D01*
X0163619Y0018490D02*
X0162219Y0018490D01*
X0162219Y0017491D02*
X0163619Y0017491D01*
X0164345Y0016493D02*
X0161492Y0016493D01*
X0160494Y0015494D02*
X0165343Y0015494D01*
X0167919Y0019000D02*
X0168419Y0019500D01*
X0160712Y0024481D02*
X0154819Y0024481D01*
X0154819Y0025479D02*
X0155358Y0025479D01*
X0154819Y0023482D02*
X0159714Y0023482D01*
X0160479Y0025479D02*
X0161019Y0025479D01*
X0155321Y0022484D02*
X0154089Y0022484D01*
X0154323Y0021485D02*
X0153091Y0021485D01*
X0153619Y0020487D02*
X0152219Y0020487D01*
X0152219Y0019488D02*
X0153619Y0019488D01*
X0153619Y0018490D02*
X0152219Y0018490D01*
X0152219Y0017491D02*
X0153619Y0017491D01*
X0154345Y0016493D02*
X0151492Y0016493D01*
X0150494Y0015494D02*
X0155343Y0015494D01*
X0157919Y0019000D02*
X0158419Y0019500D01*
X0150712Y0024481D02*
X0135408Y0024481D01*
X0135358Y0025479D02*
X0135019Y0025479D01*
X0136406Y0023482D02*
X0149714Y0023482D01*
X0150479Y0025479D02*
X0151019Y0025479D01*
X0145358Y0025479D02*
X0140479Y0025479D01*
X0141477Y0026478D02*
X0144360Y0026478D01*
X0143619Y0027476D02*
X0142219Y0027476D01*
X0142219Y0028475D02*
X0143619Y0028475D01*
X0143619Y0029473D02*
X0142219Y0029473D01*
X0142219Y0030472D02*
X0143619Y0030472D01*
X0144308Y0031470D02*
X0141529Y0031470D01*
X0140531Y0032469D02*
X0145306Y0032469D01*
X0150531Y0032469D02*
X0151019Y0032469D01*
X0151019Y0033467D02*
X0135019Y0033467D01*
X0135019Y0032469D02*
X0135306Y0032469D01*
X0135019Y0034466D02*
X0151019Y0034466D01*
X0151019Y0035464D02*
X0135019Y0035464D01*
X0135019Y0036463D02*
X0151019Y0036463D01*
X0151019Y0037461D02*
X0134927Y0037461D01*
X0133929Y0038460D02*
X0151019Y0038460D01*
X0151019Y0039458D02*
X0132930Y0039458D01*
X0131932Y0040457D02*
X0151019Y0040457D01*
X0151019Y0041455D02*
X0130933Y0041455D01*
X0129935Y0042454D02*
X0151019Y0042454D01*
X0151019Y0043452D02*
X0128936Y0043452D01*
X0127938Y0044451D02*
X0151019Y0044451D01*
X0151019Y0045449D02*
X0126939Y0045449D01*
X0125941Y0046448D02*
X0151019Y0046448D01*
X0151019Y0047446D02*
X0124942Y0047446D01*
X0123944Y0048445D02*
X0151019Y0048445D01*
X0151019Y0049443D02*
X0122945Y0049443D01*
X0123419Y0050748D02*
X0126069Y0050748D01*
X0126450Y0050850D01*
X0126792Y0051048D01*
X0127072Y0051327D01*
X0127269Y0051669D01*
X0127371Y0052051D01*
X0127371Y0054307D01*
X0123419Y0054307D01*
X0123419Y0050748D01*
X0123419Y0051440D02*
X0122419Y0051440D01*
X0122419Y0052439D02*
X0123419Y0052439D01*
X0123419Y0053437D02*
X0122419Y0053437D01*
X0122419Y0054436D02*
X0117952Y0054436D01*
X0117669Y0055434D02*
X0118466Y0055434D01*
X0118466Y0056433D02*
X0117669Y0056433D01*
X0117669Y0057432D02*
X0118466Y0057432D01*
X0118666Y0058430D02*
X0117669Y0058430D01*
X0117669Y0059429D02*
X0118666Y0059429D01*
X0118666Y0060427D02*
X0117669Y0060427D01*
X0117669Y0061426D02*
X0118666Y0061426D01*
X0118666Y0062424D02*
X0117669Y0062424D01*
X0117669Y0063423D02*
X0118666Y0063423D01*
X0118666Y0064421D02*
X0117662Y0064421D01*
X0117519Y0065420D02*
X0118666Y0065420D01*
X0118666Y0066418D02*
X0117519Y0066418D01*
X0117519Y0067417D02*
X0118666Y0067417D01*
X0118666Y0068415D02*
X0117519Y0068415D01*
X0117519Y0069414D02*
X0118666Y0069414D01*
X0118666Y0070412D02*
X0116976Y0070412D01*
X0115978Y0071411D02*
X0118786Y0071411D01*
X0114979Y0072409D02*
X0140974Y0072409D01*
X0140458Y0073408D02*
X0113981Y0073408D01*
X0112982Y0074406D02*
X0140419Y0074406D01*
X0140794Y0075405D02*
X0111984Y0075405D01*
X0110985Y0076403D02*
X0142188Y0076403D01*
X0143649Y0076403D02*
X0165135Y0076403D01*
X0164136Y0075405D02*
X0145043Y0075405D01*
X0145419Y0074406D02*
X0163138Y0074406D01*
X0162139Y0073408D02*
X0145379Y0073408D01*
X0144863Y0072409D02*
X0161141Y0072409D01*
X0160142Y0071411D02*
X0147051Y0071411D01*
X0147171Y0070412D02*
X0159144Y0070412D01*
X0158145Y0069414D02*
X0147171Y0069414D01*
X0147171Y0068415D02*
X0157147Y0068415D01*
X0156148Y0067417D02*
X0147171Y0067417D01*
X0147171Y0066418D02*
X0155150Y0066418D01*
X0154151Y0065420D02*
X0147171Y0065420D01*
X0147919Y0062750D02*
X0145419Y0062750D01*
X0144169Y0061500D01*
X0142919Y0061500D01*
X0142919Y0056500D01*
X0143419Y0054436D02*
X0151019Y0054436D01*
X0151019Y0055434D02*
X0147371Y0055434D01*
X0147371Y0056433D02*
X0151019Y0056433D01*
X0151019Y0057432D02*
X0147371Y0057432D01*
X0147171Y0058430D02*
X0151019Y0058430D01*
X0151019Y0059429D02*
X0147171Y0059429D01*
X0148843Y0060427D02*
X0151019Y0060427D01*
X0151019Y0061426D02*
X0150076Y0061426D01*
X0150419Y0062424D02*
X0151156Y0062424D01*
X0150346Y0063423D02*
X0152154Y0063423D01*
X0153153Y0064421D02*
X0149783Y0064421D01*
X0142919Y0068193D02*
X0142919Y0074000D01*
X0138786Y0071411D02*
X0137051Y0071411D01*
X0137171Y0070412D02*
X0138666Y0070412D01*
X0142919Y0068193D02*
X0132919Y0068193D01*
X0122919Y0068193D01*
X0127171Y0070412D02*
X0128666Y0070412D01*
X0128786Y0071411D02*
X0127051Y0071411D01*
X0127294Y0061500D02*
X0122919Y0061500D01*
X0122919Y0056500D01*
X0123419Y0054436D02*
X0132419Y0054436D01*
X0132419Y0054307D02*
X0128466Y0054307D01*
X0128466Y0052051D01*
X0128568Y0051669D01*
X0128766Y0051327D01*
X0129045Y0051048D01*
X0129387Y0050850D01*
X0129768Y0050748D01*
X0132419Y0050748D01*
X0132419Y0054307D01*
X0132419Y0053437D02*
X0133419Y0053437D01*
X0133419Y0054307D02*
X0133419Y0050748D01*
X0136069Y0050748D01*
X0136450Y0050850D01*
X0136792Y0051048D01*
X0137072Y0051327D01*
X0137269Y0051669D01*
X0137371Y0052051D01*
X0137371Y0054307D01*
X0133419Y0054307D01*
X0133419Y0054436D02*
X0142419Y0054436D01*
X0142419Y0054307D02*
X0138466Y0054307D01*
X0138466Y0052051D01*
X0138568Y0051669D01*
X0138766Y0051327D01*
X0139045Y0051048D01*
X0139387Y0050850D01*
X0139768Y0050748D01*
X0142419Y0050748D01*
X0142419Y0054307D01*
X0142419Y0053437D02*
X0143419Y0053437D01*
X0143419Y0054307D02*
X0143419Y0050748D01*
X0146069Y0050748D01*
X0146450Y0050850D01*
X0146792Y0051048D01*
X0147072Y0051327D01*
X0147269Y0051669D01*
X0147371Y0052051D01*
X0147371Y0054307D01*
X0143419Y0054307D01*
X0143419Y0052439D02*
X0142419Y0052439D01*
X0142419Y0051440D02*
X0143419Y0051440D01*
X0138700Y0051440D02*
X0137137Y0051440D01*
X0137371Y0052439D02*
X0138466Y0052439D01*
X0138466Y0053437D02*
X0137371Y0053437D01*
X0137371Y0055434D02*
X0138466Y0055434D01*
X0138466Y0056433D02*
X0137371Y0056433D01*
X0137371Y0057432D02*
X0138466Y0057432D01*
X0138666Y0058430D02*
X0137924Y0058430D01*
X0137294Y0060875D02*
X0136669Y0061500D01*
X0132919Y0061500D01*
X0132919Y0056500D01*
X0132419Y0052439D02*
X0133419Y0052439D01*
X0133419Y0051440D02*
X0132419Y0051440D01*
X0128700Y0051440D02*
X0127137Y0051440D01*
X0127371Y0052439D02*
X0128466Y0052439D01*
X0128466Y0053437D02*
X0127371Y0053437D01*
X0127371Y0055434D02*
X0128466Y0055434D01*
X0128466Y0056433D02*
X0127371Y0056433D01*
X0127371Y0057432D02*
X0128466Y0057432D01*
X0128666Y0058430D02*
X0127171Y0058430D01*
X0121946Y0050442D02*
X0151019Y0050442D01*
X0151019Y0051440D02*
X0147137Y0051440D01*
X0147371Y0052439D02*
X0151019Y0052439D01*
X0151019Y0053437D02*
X0147371Y0053437D01*
X0127989Y0038460D02*
X0117254Y0038460D01*
X0116256Y0039458D02*
X0126990Y0039458D01*
X0125992Y0040457D02*
X0115257Y0040457D01*
X0114259Y0041455D02*
X0124993Y0041455D01*
X0123995Y0042454D02*
X0113469Y0042454D01*
X0113469Y0043452D02*
X0122996Y0043452D01*
X0121998Y0044451D02*
X0113469Y0044451D01*
X0113469Y0045449D02*
X0120999Y0045449D01*
X0120001Y0046448D02*
X0113469Y0046448D01*
X0113469Y0047446D02*
X0119002Y0047446D01*
X0118004Y0048445D02*
X0113469Y0048445D01*
X0113469Y0049443D02*
X0117005Y0049443D01*
X0116007Y0050442D02*
X0113469Y0050442D01*
X0114632Y0051440D02*
X0115008Y0051440D01*
X0111669Y0041500D02*
X0111669Y0066500D01*
X0107919Y0071500D02*
X0107919Y0029000D01*
X0112219Y0029473D02*
X0113619Y0029473D01*
X0113619Y0028475D02*
X0112219Y0028475D01*
X0112219Y0027476D02*
X0113619Y0027476D01*
X0114360Y0026478D02*
X0111477Y0026478D01*
X0113985Y0025479D02*
X0115358Y0025479D01*
X0114984Y0024481D02*
X0130819Y0024481D01*
X0130819Y0025479D02*
X0130762Y0025479D01*
X0130819Y0023482D02*
X0129800Y0023482D01*
X0129783Y0023500D02*
X0128419Y0023500D01*
X0128419Y0019500D01*
X0132419Y0019500D01*
X0132419Y0020864D01*
X0129783Y0023500D01*
X0128419Y0023482D02*
X0127419Y0023482D01*
X0127419Y0023500D02*
X0126055Y0023500D01*
X0123419Y0020864D01*
X0123419Y0019500D01*
X0127419Y0019500D01*
X0127419Y0023500D01*
X0127419Y0024500D02*
X0127419Y0028500D01*
X0123419Y0028500D01*
X0123419Y0027136D01*
X0126055Y0024500D01*
X0127419Y0024500D01*
X0127419Y0025479D02*
X0128419Y0025479D01*
X0128419Y0026478D02*
X0127419Y0026478D01*
X0127419Y0027476D02*
X0128419Y0027476D01*
X0128419Y0028475D02*
X0127419Y0028475D01*
X0127419Y0029473D02*
X0122219Y0029473D01*
X0122219Y0028475D02*
X0123419Y0028475D01*
X0123419Y0027476D02*
X0122219Y0027476D01*
X0121477Y0026478D02*
X0124077Y0026478D01*
X0125075Y0025479D02*
X0120479Y0025479D01*
X0120516Y0022484D02*
X0125038Y0022484D01*
X0126037Y0023482D02*
X0115982Y0023482D01*
X0112888Y0021485D02*
X0111515Y0021485D01*
X0112219Y0020487D02*
X0113619Y0020487D01*
X0121515Y0021485D02*
X0124040Y0021485D01*
X0123419Y0020487D02*
X0122219Y0020487D01*
X0122219Y0019488D02*
X0127419Y0019488D01*
X0127419Y0019500D02*
X0127419Y0018500D01*
X0128419Y0018500D01*
X0128419Y0019500D01*
X0127419Y0019500D01*
X0127419Y0020487D02*
X0128419Y0020487D01*
X0128419Y0021485D02*
X0127419Y0021485D01*
X0127419Y0022484D02*
X0128419Y0022484D01*
X0130799Y0022484D02*
X0131465Y0022484D01*
X0131797Y0021485D02*
X0132464Y0021485D01*
X0132419Y0020487D02*
X0133462Y0020487D01*
X0133619Y0019488D02*
X0128419Y0019488D01*
X0128419Y0018500D02*
X0132419Y0018500D01*
X0132419Y0017136D01*
X0129783Y0014500D01*
X0128419Y0014500D01*
X0128419Y0018500D01*
X0128419Y0018490D02*
X0127419Y0018490D01*
X0127419Y0018500D02*
X0127419Y0014500D01*
X0126055Y0014500D01*
X0123419Y0017136D01*
X0123419Y0018500D01*
X0127419Y0018500D01*
X0127419Y0017491D02*
X0128419Y0017491D01*
X0128419Y0016493D02*
X0127419Y0016493D01*
X0127419Y0015494D02*
X0128419Y0015494D01*
X0130777Y0015494D02*
X0135343Y0015494D01*
X0134345Y0016493D02*
X0131775Y0016493D01*
X0132419Y0017491D02*
X0133619Y0017491D01*
X0133619Y0018490D02*
X0132419Y0018490D01*
X0137419Y0019500D02*
X0137919Y0019000D01*
X0142219Y0019488D02*
X0143619Y0019488D01*
X0143619Y0018490D02*
X0142219Y0018490D01*
X0142219Y0017491D02*
X0143619Y0017491D01*
X0144345Y0016493D02*
X0141492Y0016493D01*
X0140494Y0015494D02*
X0145343Y0015494D01*
X0147919Y0019000D02*
X0148419Y0019500D01*
X0145321Y0022484D02*
X0140516Y0022484D01*
X0141515Y0021485D02*
X0144323Y0021485D01*
X0143619Y0020487D02*
X0142219Y0020487D01*
X0128419Y0030472D02*
X0127419Y0030472D01*
X0127419Y0031470D02*
X0128419Y0031470D01*
X0128419Y0032469D02*
X0127419Y0032469D01*
X0127419Y0033467D02*
X0128419Y0033467D01*
X0129815Y0033467D02*
X0130819Y0033467D01*
X0130814Y0032469D02*
X0130819Y0032469D01*
X0130819Y0034466D02*
X0119719Y0034466D01*
X0119719Y0035464D02*
X0130819Y0035464D01*
X0129986Y0036463D02*
X0119251Y0036463D01*
X0118253Y0037461D02*
X0128987Y0037461D01*
X0126022Y0033467D02*
X0119719Y0033467D01*
X0120531Y0032469D02*
X0125023Y0032469D01*
X0124025Y0031470D02*
X0121529Y0031470D01*
X0122219Y0030472D02*
X0123419Y0030472D01*
X0117919Y0029000D02*
X0117919Y0035250D01*
X0111669Y0041500D01*
X0110166Y0040457D02*
X0109719Y0040457D01*
X0109719Y0039458D02*
X0111165Y0039458D01*
X0112163Y0038460D02*
X0109719Y0038460D01*
X0109719Y0037461D02*
X0113162Y0037461D01*
X0114160Y0036463D02*
X0109719Y0036463D01*
X0109719Y0035464D02*
X0115159Y0035464D01*
X0116119Y0034466D02*
X0109719Y0034466D01*
X0109719Y0033467D02*
X0116119Y0033467D01*
X0115306Y0032469D02*
X0110531Y0032469D01*
X0111529Y0031470D02*
X0114308Y0031470D01*
X0113619Y0030472D02*
X0112219Y0030472D01*
X0100388Y0021485D02*
X0073319Y0021485D01*
X0073319Y0020487D02*
X0072519Y0020487D01*
X0072519Y0019488D02*
X0073319Y0019488D01*
X0073319Y0018490D02*
X0072519Y0018490D01*
X0075989Y0018490D02*
X0103383Y0018490D01*
X0102385Y0019488D02*
X0076719Y0019488D01*
X0077111Y0020487D02*
X0101386Y0020487D01*
X0099389Y0022484D02*
X0077116Y0022484D01*
X0076735Y0023482D02*
X0098391Y0023482D01*
X0097392Y0024481D02*
X0076019Y0024481D01*
X0074581Y0025479D02*
X0096394Y0025479D01*
X0092369Y0042454D02*
X0071158Y0042454D01*
X0071648Y0043452D02*
X0087431Y0043452D01*
X0086794Y0044451D02*
X0072165Y0044451D01*
X0073164Y0045449D02*
X0086669Y0045449D01*
X0086959Y0046448D02*
X0080412Y0046448D01*
X0081411Y0047446D02*
X0087938Y0047446D01*
X0088619Y0048445D02*
X0083399Y0048445D01*
X0084040Y0049443D02*
X0088619Y0049443D01*
X0088619Y0050442D02*
X0084169Y0050442D01*
X0083881Y0051440D02*
X0088619Y0051440D01*
X0092219Y0051440D02*
X0092369Y0051440D01*
X0092369Y0050442D02*
X0092219Y0050442D01*
X0092219Y0049443D02*
X0092369Y0049443D01*
X0092369Y0048445D02*
X0092219Y0048445D01*
X0092219Y0047446D02*
X0092369Y0047446D01*
X0092369Y0046448D02*
X0092219Y0046448D01*
X0092369Y0045449D02*
X0091914Y0045449D01*
X0091544Y0044451D02*
X0092369Y0044451D01*
X0092369Y0043452D02*
X0090906Y0043452D01*
X0089169Y0045250D02*
X0090419Y0046500D01*
X0090419Y0064000D01*
X0067919Y0086500D01*
X0067919Y0171500D01*
X0065109Y0175256D02*
X0073619Y0175256D01*
X0073619Y0176254D02*
X0065419Y0176254D01*
X0065313Y0177253D02*
X0073619Y0177253D01*
X0073619Y0178251D02*
X0064703Y0178251D01*
X0062919Y0176500D02*
X0062919Y0084000D01*
X0075419Y0071500D01*
X0072919Y0071411D02*
X0019419Y0071411D01*
X0019419Y0072409D02*
X0071964Y0072409D01*
X0070965Y0073408D02*
X0019419Y0073408D01*
X0019419Y0074406D02*
X0069967Y0074406D01*
X0068968Y0075405D02*
X0019419Y0075405D01*
X0019419Y0076403D02*
X0067970Y0076403D01*
X0066971Y0077402D02*
X0019419Y0077402D01*
X0019419Y0078400D02*
X0065973Y0078400D01*
X0064974Y0079399D02*
X0019419Y0079399D01*
X0019419Y0080397D02*
X0063976Y0080397D01*
X0062977Y0081396D02*
X0019419Y0081396D01*
X0019419Y0082394D02*
X0061979Y0082394D01*
X0061119Y0083393D02*
X0019419Y0083393D01*
X0019419Y0084391D02*
X0061119Y0084391D01*
X0061119Y0085390D02*
X0019419Y0085390D01*
X0019419Y0086388D02*
X0061119Y0086388D01*
X0061119Y0087387D02*
X0019419Y0087387D01*
X0019419Y0088385D02*
X0061119Y0088385D01*
X0061119Y0089384D02*
X0019419Y0089384D01*
X0019419Y0090382D02*
X0061119Y0090382D01*
X0061119Y0091381D02*
X0019419Y0091381D01*
X0019419Y0092379D02*
X0061119Y0092379D01*
X0061119Y0093378D02*
X0019419Y0093378D01*
X0019419Y0094376D02*
X0061119Y0094376D01*
X0061119Y0095375D02*
X0019419Y0095375D01*
X0019419Y0096373D02*
X0061119Y0096373D01*
X0061119Y0097372D02*
X0019419Y0097372D01*
X0019419Y0098370D02*
X0061119Y0098370D01*
X0061119Y0099369D02*
X0019419Y0099369D01*
X0019419Y0100368D02*
X0061119Y0100368D01*
X0061119Y0101366D02*
X0019419Y0101366D01*
X0019419Y0102365D02*
X0061119Y0102365D01*
X0061119Y0103363D02*
X0019419Y0103363D01*
X0019419Y0104362D02*
X0061119Y0104362D01*
X0061119Y0105360D02*
X0019419Y0105360D01*
X0019419Y0106359D02*
X0061119Y0106359D01*
X0061119Y0107357D02*
X0045419Y0107357D01*
X0045419Y0108356D02*
X0061119Y0108356D01*
X0061119Y0109354D02*
X0045419Y0109354D01*
X0045419Y0110353D02*
X0061119Y0110353D01*
X0061119Y0111351D02*
X0045419Y0111351D01*
X0045419Y0112350D02*
X0061119Y0112350D01*
X0061119Y0113348D02*
X0045419Y0113348D01*
X0045419Y0114347D02*
X0061119Y0114347D01*
X0061119Y0115345D02*
X0045419Y0115345D01*
X0045419Y0116344D02*
X0061119Y0116344D01*
X0061119Y0117342D02*
X0045419Y0117342D01*
X0045419Y0118341D02*
X0061119Y0118341D01*
X0061119Y0119339D02*
X0045419Y0119339D01*
X0045419Y0120338D02*
X0061119Y0120338D01*
X0061119Y0121336D02*
X0045419Y0121336D01*
X0045419Y0122335D02*
X0061119Y0122335D01*
X0061119Y0123333D02*
X0045419Y0123333D01*
X0045419Y0124332D02*
X0061119Y0124332D01*
X0061119Y0125330D02*
X0045419Y0125330D01*
X0045419Y0126329D02*
X0061119Y0126329D01*
X0061119Y0127327D02*
X0045419Y0127327D01*
X0045419Y0128326D02*
X0061119Y0128326D01*
X0061119Y0129324D02*
X0045419Y0129324D01*
X0045419Y0130323D02*
X0061119Y0130323D01*
X0061119Y0131321D02*
X0045419Y0131321D01*
X0045419Y0132320D02*
X0061119Y0132320D01*
X0061119Y0133318D02*
X0045419Y0133318D01*
X0045419Y0134317D02*
X0061119Y0134317D01*
X0061119Y0135315D02*
X0045419Y0135315D01*
X0045419Y0136314D02*
X0061119Y0136314D01*
X0061119Y0137312D02*
X0045419Y0137312D01*
X0045419Y0138311D02*
X0061119Y0138311D01*
X0061119Y0139309D02*
X0045419Y0139309D01*
X0045419Y0140308D02*
X0061119Y0140308D01*
X0061119Y0141306D02*
X0045419Y0141306D01*
X0045419Y0142305D02*
X0061119Y0142305D01*
X0061119Y0143303D02*
X0045419Y0143303D01*
X0045419Y0144302D02*
X0061119Y0144302D01*
X0061119Y0145301D02*
X0045419Y0145301D01*
X0045419Y0146299D02*
X0061119Y0146299D01*
X0061119Y0147298D02*
X0045419Y0147298D01*
X0045419Y0148296D02*
X0061119Y0148296D01*
X0061119Y0149295D02*
X0045419Y0149295D01*
X0045419Y0150293D02*
X0061119Y0150293D01*
X0061119Y0151292D02*
X0045419Y0151292D01*
X0045419Y0152290D02*
X0061119Y0152290D01*
X0061119Y0153289D02*
X0045419Y0153289D01*
X0045419Y0154287D02*
X0061119Y0154287D01*
X0061119Y0155286D02*
X0045419Y0155286D01*
X0045419Y0156284D02*
X0061119Y0156284D01*
X0061119Y0157283D02*
X0045419Y0157283D01*
X0045419Y0158281D02*
X0061119Y0158281D01*
X0061119Y0159280D02*
X0045419Y0159280D01*
X0045419Y0160278D02*
X0061119Y0160278D01*
X0061119Y0161277D02*
X0045419Y0161277D01*
X0045419Y0162275D02*
X0061119Y0162275D01*
X0061119Y0163274D02*
X0045419Y0163274D01*
X0045419Y0164272D02*
X0061119Y0164272D01*
X0061119Y0165271D02*
X0045419Y0165271D01*
X0045419Y0166269D02*
X0061119Y0166269D01*
X0061119Y0167268D02*
X0045419Y0167268D01*
X0045419Y0168266D02*
X0061119Y0168266D01*
X0061119Y0169265D02*
X0045419Y0169265D01*
X0045419Y0170263D02*
X0061119Y0170263D01*
X0061119Y0171262D02*
X0045419Y0171262D01*
X0045419Y0172260D02*
X0061119Y0172260D01*
X0061119Y0173259D02*
X0045419Y0173259D01*
X0045419Y0174257D02*
X0061119Y0174257D01*
X0060728Y0175256D02*
X0045419Y0175256D01*
X0045419Y0176254D02*
X0060419Y0176254D01*
X0060524Y0177253D02*
X0045419Y0177253D01*
X0045419Y0178251D02*
X0061134Y0178251D01*
X0073619Y0179250D02*
X0045419Y0179250D01*
X0045419Y0180248D02*
X0073619Y0180248D01*
X0073619Y0181247D02*
X0045419Y0181247D01*
X0045419Y0182245D02*
X0073619Y0182245D01*
X0073619Y0183244D02*
X0045419Y0183244D01*
X0045419Y0184242D02*
X0073619Y0184242D01*
X0073619Y0185241D02*
X0045419Y0185241D01*
X0045419Y0186239D02*
X0073619Y0186239D01*
X0073619Y0187238D02*
X0045419Y0187238D01*
X0045419Y0188237D02*
X0073619Y0188237D01*
X0074358Y0189235D02*
X0045419Y0189235D01*
X0045419Y0190234D02*
X0075357Y0190234D01*
X0075619Y0191232D02*
X0045419Y0191232D01*
X0045419Y0192231D02*
X0076364Y0192231D01*
X0077919Y0190250D02*
X0075419Y0187750D01*
X0075419Y0084000D01*
X0073163Y0070412D02*
X0019419Y0070412D01*
X0019419Y0069414D02*
X0073969Y0069414D01*
X0092219Y0064421D02*
X0092369Y0064421D01*
X0092369Y0063423D02*
X0092219Y0063423D01*
X0092219Y0062424D02*
X0092369Y0062424D01*
X0092369Y0061426D02*
X0092219Y0061426D01*
X0092219Y0060427D02*
X0092369Y0060427D01*
X0092369Y0059429D02*
X0092219Y0059429D01*
X0092219Y0058430D02*
X0092369Y0058430D01*
X0092369Y0057432D02*
X0092219Y0057432D01*
X0092219Y0056433D02*
X0092369Y0056433D01*
X0092369Y0055434D02*
X0092219Y0055434D01*
X0092219Y0054436D02*
X0092369Y0054436D01*
X0092369Y0053437D02*
X0092219Y0053437D01*
X0092219Y0052439D02*
X0092369Y0052439D01*
X0081669Y0050250D02*
X0079169Y0047750D01*
X0072919Y0047750D01*
X0069169Y0044000D01*
X0025381Y0013497D02*
X0262919Y0013497D01*
X0262919Y0014496D02*
X0023276Y0014496D01*
X0108988Y0078400D02*
X0167132Y0078400D01*
X0167919Y0079399D02*
X0107990Y0079399D01*
X0106991Y0080397D02*
X0168291Y0080397D01*
X0166133Y0077402D02*
X0109987Y0077402D01*
X0109990Y0083393D02*
X0103996Y0083393D01*
X0110215Y0087387D02*
X0110295Y0087387D01*
X0117919Y0099000D02*
X0185419Y0099000D01*
X0229169Y0055250D01*
X0230419Y0055250D01*
X0230969Y0069414D02*
X0262919Y0069414D01*
X0262919Y0070412D02*
X0230969Y0070412D01*
X0230969Y0071411D02*
X0262919Y0071411D01*
X0262919Y0072409D02*
X0230969Y0072409D01*
X0230969Y0073408D02*
X0262919Y0073408D01*
X0262919Y0074406D02*
X0230969Y0074406D01*
X0230969Y0075405D02*
X0262919Y0075405D01*
X0262919Y0076403D02*
X0230969Y0076403D01*
X0230969Y0077402D02*
X0262919Y0077402D01*
X0262919Y0078400D02*
X0230969Y0078400D01*
X0230969Y0079399D02*
X0262919Y0079399D01*
X0262919Y0080397D02*
X0230969Y0080397D01*
X0230969Y0081396D02*
X0262919Y0081396D01*
X0262919Y0082394D02*
X0230969Y0082394D01*
X0230969Y0083393D02*
X0262919Y0083393D01*
X0262919Y0084391D02*
X0230969Y0084391D01*
X0230969Y0085390D02*
X0262919Y0085390D01*
X0262919Y0086388D02*
X0230969Y0086388D01*
X0230969Y0087387D02*
X0262919Y0087387D01*
X0262919Y0088385D02*
X0230969Y0088385D01*
X0230969Y0089384D02*
X0262919Y0089384D01*
X0262919Y0090382D02*
X0230969Y0090382D01*
X0230583Y0091381D02*
X0262919Y0091381D01*
X0262919Y0092379D02*
X0229585Y0092379D01*
X0228586Y0093378D02*
X0262919Y0093378D01*
X0262919Y0094376D02*
X0227588Y0094376D01*
X0226589Y0095375D02*
X0262919Y0095375D01*
X0262919Y0096373D02*
X0225591Y0096373D01*
X0224592Y0097372D02*
X0262919Y0097372D01*
X0262919Y0098370D02*
X0223594Y0098370D01*
X0222595Y0099369D02*
X0262919Y0099369D01*
X0262919Y0100368D02*
X0222450Y0100368D01*
X0223801Y0101366D02*
X0262919Y0101366D01*
X0229169Y0105250D02*
X0195419Y0139000D01*
X0154169Y0139000D01*
X0131669Y0161500D01*
X0108544Y0161500D01*
X0107371Y0159280D02*
X0104494Y0159280D01*
X0105492Y0160278D02*
X0106344Y0160278D01*
X0108169Y0159000D02*
X0108169Y0159000D01*
X0108169Y0154000D02*
X0107421Y0154000D01*
X0108169Y0154000D01*
X0108169Y0154000D01*
X0107919Y0151500D02*
X0134169Y0151500D01*
X0151669Y0134000D01*
X0190419Y0134000D01*
X0221669Y0102750D01*
X0208525Y0113348D02*
X0149866Y0113348D01*
X0148868Y0114347D02*
X0207526Y0114347D01*
X0206528Y0115345D02*
X0147869Y0115345D01*
X0146870Y0116344D02*
X0205529Y0116344D01*
X0204531Y0117342D02*
X0145872Y0117342D01*
X0144873Y0118341D02*
X0203532Y0118341D01*
X0202534Y0119339D02*
X0143875Y0119339D01*
X0142876Y0120338D02*
X0201535Y0120338D01*
X0200537Y0121336D02*
X0141878Y0121336D01*
X0140879Y0122335D02*
X0199538Y0122335D01*
X0198540Y0123333D02*
X0139881Y0123333D01*
X0138882Y0124332D02*
X0197541Y0124332D01*
X0196543Y0125330D02*
X0137884Y0125330D01*
X0136885Y0126329D02*
X0195544Y0126329D01*
X0194546Y0127327D02*
X0135887Y0127327D01*
X0130419Y0123333D02*
X0102722Y0123333D01*
X0101723Y0122335D02*
X0130643Y0122335D01*
X0131422Y0121336D02*
X0100725Y0121336D01*
X0108363Y0118341D02*
X0136032Y0118341D01*
X0137031Y0117342D02*
X0109026Y0117342D01*
X0109795Y0116344D02*
X0138029Y0116344D01*
X0139028Y0115345D02*
X0110793Y0115345D01*
X0111792Y0114347D02*
X0140026Y0114347D01*
X0141025Y0113348D02*
X0112790Y0113348D01*
X0113789Y0112350D02*
X0142023Y0112350D01*
X0143022Y0111351D02*
X0114787Y0111351D01*
X0115786Y0110353D02*
X0144020Y0110353D01*
X0145019Y0109354D02*
X0116784Y0109354D01*
X0117783Y0108356D02*
X0146017Y0108356D01*
X0146919Y0107357D02*
X0118781Y0107357D01*
X0114888Y0128326D02*
X0193547Y0128326D01*
X0192549Y0129324D02*
X0114169Y0129324D01*
X0113827Y0130323D02*
X0191550Y0130323D01*
X0190552Y0131321D02*
X0112597Y0131321D01*
X0111708Y0132320D02*
X0150803Y0132320D01*
X0149805Y0133318D02*
X0129523Y0133318D01*
X0130238Y0134317D02*
X0148806Y0134317D01*
X0147808Y0135315D02*
X0130419Y0135315D01*
X0130184Y0136314D02*
X0146809Y0136314D01*
X0145811Y0137312D02*
X0129392Y0137312D01*
X0110740Y0131321D02*
X0110710Y0131321D01*
X0092369Y0131321D02*
X0083469Y0131321D01*
X0083469Y0130323D02*
X0092369Y0130323D01*
X0092369Y0132320D02*
X0083469Y0132320D01*
X0083469Y0133318D02*
X0092369Y0133318D01*
X0092369Y0134317D02*
X0083469Y0134317D01*
X0083469Y0135315D02*
X0092369Y0135315D01*
X0092369Y0136314D02*
X0083469Y0136314D01*
X0083469Y0137312D02*
X0092369Y0137312D01*
X0092369Y0138311D02*
X0083469Y0138311D01*
X0083469Y0139309D02*
X0092369Y0139309D01*
X0092369Y0140308D02*
X0083469Y0140308D01*
X0083469Y0141306D02*
X0092369Y0141306D01*
X0092369Y0142305D02*
X0083469Y0142305D01*
X0083469Y0143303D02*
X0092369Y0143303D01*
X0092369Y0144302D02*
X0083469Y0144302D01*
X0083469Y0145301D02*
X0092369Y0145301D01*
X0092369Y0146299D02*
X0083469Y0146299D01*
X0083469Y0147298D02*
X0092369Y0147298D01*
X0092369Y0148296D02*
X0083469Y0148296D01*
X0083469Y0149295D02*
X0092369Y0149295D01*
X0092369Y0150293D02*
X0083469Y0150293D01*
X0083469Y0151292D02*
X0092369Y0151292D01*
X0092413Y0152290D02*
X0083469Y0152290D01*
X0083469Y0153289D02*
X0093412Y0153289D01*
X0094410Y0154287D02*
X0083469Y0154287D01*
X0083469Y0155286D02*
X0095409Y0155286D01*
X0096407Y0156284D02*
X0083469Y0156284D01*
X0083469Y0157283D02*
X0097406Y0157283D01*
X0098404Y0158281D02*
X0083469Y0158281D01*
X0083469Y0159280D02*
X0099403Y0159280D01*
X0100401Y0160278D02*
X0083469Y0160278D01*
X0083469Y0161277D02*
X0101400Y0161277D01*
X0102398Y0162275D02*
X0083469Y0162275D01*
X0083469Y0163274D02*
X0103397Y0163274D01*
X0104395Y0164272D02*
X0083469Y0164272D01*
X0083469Y0165271D02*
X0105394Y0165271D01*
X0106392Y0166269D02*
X0083723Y0166269D01*
X0084169Y0167268D02*
X0107391Y0167268D01*
X0108389Y0168266D02*
X0084161Y0168266D01*
X0077613Y0186239D02*
X0077219Y0186239D01*
X0077452Y0187238D02*
X0078611Y0187238D01*
X0079441Y0188237D02*
X0079610Y0188237D01*
X0080204Y0189235D02*
X0080608Y0189235D01*
X0080419Y0190234D02*
X0081607Y0190234D01*
X0082605Y0191232D02*
X0080218Y0191232D01*
X0079474Y0192231D02*
X0083604Y0192231D01*
X0084602Y0193229D02*
X0045419Y0193229D01*
X0045419Y0194228D02*
X0085419Y0194228D01*
X0085720Y0195226D02*
X0045419Y0195226D01*
X0045419Y0196225D02*
X0086756Y0196225D01*
X0089081Y0196225D02*
X0134433Y0196225D01*
X0134019Y0195226D02*
X0090117Y0195226D01*
X0090419Y0194228D02*
X0133847Y0194228D01*
X0133847Y0193229D02*
X0090305Y0193229D01*
X0125419Y0170250D02*
X0130419Y0170250D01*
X0156669Y0144000D01*
X0155115Y0165271D02*
X0278410Y0165271D01*
X0280033Y0165271D02*
X0280804Y0165271D01*
X0280804Y0164272D02*
X0280033Y0164272D01*
X0280033Y0163274D02*
X0280804Y0163274D01*
X0280804Y0162275D02*
X0280033Y0162275D01*
X0280033Y0160278D02*
X0280804Y0160278D01*
X0280804Y0159280D02*
X0280033Y0159280D01*
X0280033Y0158281D02*
X0280804Y0158281D01*
X0284309Y0163274D02*
X0286419Y0163274D01*
X0286419Y0164272D02*
X0283685Y0164272D01*
X0282427Y0165271D02*
X0286419Y0165271D01*
X0286419Y0166269D02*
X0155419Y0166269D01*
X0155307Y0167268D02*
X0286419Y0167268D01*
X0286419Y0168266D02*
X0155019Y0168266D01*
X0155019Y0169265D02*
X0286419Y0169265D01*
X0286419Y0170263D02*
X0155019Y0170263D01*
X0155019Y0171262D02*
X0286419Y0171262D01*
X0286419Y0172260D02*
X0155019Y0172260D01*
X0155019Y0173259D02*
X0286419Y0173259D01*
X0286419Y0174257D02*
X0155019Y0174257D01*
X0155019Y0175256D02*
X0286419Y0175256D01*
X0286419Y0176254D02*
X0155019Y0176254D01*
X0155019Y0177253D02*
X0286419Y0177253D01*
X0286419Y0178251D02*
X0282928Y0178251D01*
X0282725Y0178048D02*
X0283870Y0179194D01*
X0284490Y0180690D01*
X0284490Y0182310D01*
X0283870Y0183806D01*
X0282725Y0184952D01*
X0281229Y0185572D01*
X0279609Y0185572D01*
X0278112Y0184952D01*
X0276967Y0183806D01*
X0276347Y0182310D01*
X0276347Y0180690D01*
X0276967Y0179194D01*
X0278112Y0178048D01*
X0279609Y0177428D01*
X0281229Y0177428D01*
X0282725Y0178048D01*
X0283894Y0179250D02*
X0286419Y0179250D01*
X0286419Y0180248D02*
X0284307Y0180248D01*
X0284490Y0181247D02*
X0286419Y0181247D01*
X0286419Y0182245D02*
X0284490Y0182245D01*
X0284103Y0183244D02*
X0286419Y0183244D01*
X0286419Y0184242D02*
X0283434Y0184242D01*
X0282027Y0185241D02*
X0286419Y0185241D01*
X0286419Y0186239D02*
X0155019Y0186239D01*
X0155019Y0185241D02*
X0278810Y0185241D01*
X0277403Y0184242D02*
X0155019Y0184242D01*
X0155019Y0183244D02*
X0276734Y0183244D01*
X0276347Y0182245D02*
X0155019Y0182245D01*
X0155019Y0181247D02*
X0276347Y0181247D01*
X0276530Y0180248D02*
X0155019Y0180248D01*
X0155019Y0179250D02*
X0276943Y0179250D01*
X0277909Y0178251D02*
X0155019Y0178251D01*
X0155019Y0187238D02*
X0286419Y0187238D01*
X0286419Y0188237D02*
X0155019Y0188237D01*
X0155019Y0189235D02*
X0286419Y0189235D01*
X0286419Y0190234D02*
X0155019Y0190234D01*
X0155019Y0191232D02*
X0286419Y0191232D01*
X0286361Y0192231D02*
X0155019Y0192231D01*
X0154159Y0193229D02*
X0286184Y0193229D01*
X0285860Y0194228D02*
X0153161Y0194228D01*
X0152162Y0195226D02*
X0285535Y0195226D01*
X0284863Y0196225D02*
X0151404Y0196225D01*
X0150454Y0197223D02*
X0284138Y0197223D01*
X0282950Y0198222D02*
X0045419Y0198222D01*
X0045419Y0199220D02*
X0281326Y0199220D01*
X0286419Y0148296D02*
X0203668Y0148296D01*
X0204667Y0147298D02*
X0286419Y0147298D01*
X0286419Y0146299D02*
X0205665Y0146299D01*
X0206664Y0145301D02*
X0286419Y0145301D01*
X0286419Y0144302D02*
X0207662Y0144302D01*
X0208661Y0143303D02*
X0286419Y0143303D01*
X0286419Y0142305D02*
X0209659Y0142305D01*
X0210658Y0141306D02*
X0286419Y0141306D01*
X0286419Y0140308D02*
X0211656Y0140308D01*
X0212655Y0139309D02*
X0286419Y0139309D01*
X0286419Y0138311D02*
X0213653Y0138311D01*
X0214652Y0137312D02*
X0286419Y0137312D01*
X0262919Y0136314D02*
X0215650Y0136314D01*
X0216649Y0135315D02*
X0262919Y0135315D01*
X0262919Y0134317D02*
X0217647Y0134317D01*
X0218646Y0133318D02*
X0262919Y0133318D01*
X0262919Y0132320D02*
X0219644Y0132320D01*
X0220643Y0131321D02*
X0262919Y0131321D01*
X0262919Y0130323D02*
X0221641Y0130323D01*
X0222640Y0129324D02*
X0262919Y0129324D01*
X0262919Y0128326D02*
X0223638Y0128326D01*
X0173291Y0080397D02*
X0172546Y0080397D01*
X0172919Y0079399D02*
X0172919Y0079399D01*
X0184819Y0053437D02*
X0190071Y0053437D01*
X0189352Y0052439D02*
X0184819Y0052439D01*
X0184819Y0051440D02*
X0189169Y0051440D01*
X0189401Y0050442D02*
X0184819Y0050442D01*
X0184819Y0049443D02*
X0189869Y0049443D01*
X0189869Y0048445D02*
X0184819Y0048445D01*
X0184819Y0047446D02*
X0189869Y0047446D01*
X0189869Y0046448D02*
X0184819Y0046448D01*
X0184819Y0045449D02*
X0189869Y0045449D01*
X0189869Y0044451D02*
X0184819Y0044451D01*
X0184819Y0043452D02*
X0189869Y0043452D01*
X0189869Y0042454D02*
X0184819Y0042454D01*
X0184819Y0041455D02*
X0190418Y0041455D01*
X0191416Y0040457D02*
X0184819Y0040457D01*
X0184819Y0039458D02*
X0192415Y0039458D01*
X0193413Y0038460D02*
X0184819Y0038460D01*
X0184819Y0037461D02*
X0194412Y0037461D01*
X0125061Y0015494D02*
X0120494Y0015494D01*
X0121492Y0016493D02*
X0124062Y0016493D01*
X0123419Y0017491D02*
X0122219Y0017491D01*
X0122219Y0018490D02*
X0123419Y0018490D01*
X0126944Y0172260D02*
X0129613Y0172260D01*
X0140909Y0191232D02*
X0144928Y0191232D01*
X0144244Y0192231D02*
X0141593Y0192231D01*
X0141990Y0193229D02*
X0143847Y0193229D01*
X0143847Y0194228D02*
X0141990Y0194228D01*
X0141818Y0195226D02*
X0144019Y0195226D01*
X0144433Y0196225D02*
X0141404Y0196225D01*
X0140454Y0197223D02*
X0145384Y0197223D01*
X0135384Y0197223D02*
X0045419Y0197223D01*
D14*
X0137919Y0194000D03*
X0147919Y0194000D03*
X0280419Y0181500D03*
X0280419Y0161500D03*
X0280419Y0126500D03*
X0280419Y0116500D03*
X0280419Y0106500D03*
X0280419Y0096500D03*
X0280419Y0066500D03*
X0280419Y0056500D03*
X0280419Y0046500D03*
X0280419Y0036500D03*
X0222919Y0019000D03*
X0212919Y0019000D03*
D15*
X0187919Y0019000D03*
X0177919Y0019000D03*
X0167919Y0019000D03*
X0157919Y0019000D03*
X0147919Y0019000D03*
X0137919Y0019000D03*
X0127919Y0019000D03*
X0117919Y0019000D03*
X0107919Y0019000D03*
X0107919Y0029000D03*
X0117919Y0029000D03*
X0127919Y0029000D03*
X0137919Y0029000D03*
X0147919Y0029000D03*
X0157919Y0029000D03*
X0167919Y0029000D03*
X0177919Y0029000D03*
X0187919Y0029000D03*
D16*
X0202919Y0016500D03*
X0222919Y0042125D03*
X0226669Y0044000D03*
X0230419Y0045250D03*
X0230419Y0055250D03*
X0228544Y0060250D03*
X0222919Y0070250D03*
X0236669Y0071500D03*
X0236669Y0076500D03*
X0236669Y0081500D03*
X0252919Y0066500D03*
X0257919Y0066500D03*
X0257919Y0061500D03*
X0257919Y0056500D03*
X0252919Y0056500D03*
X0252919Y0061500D03*
X0252919Y0046500D03*
X0257919Y0046500D03*
X0257919Y0041500D03*
X0257919Y0036500D03*
X0252919Y0036500D03*
X0252919Y0041500D03*
X0202919Y0064000D03*
X0191669Y0051500D03*
X0185419Y0079000D03*
X0180419Y0079000D03*
X0175419Y0079000D03*
X0170419Y0079000D03*
X0152919Y0069000D03*
X0147919Y0062750D03*
X0137294Y0060875D03*
X0127294Y0061500D03*
X0111669Y0066500D03*
X0107919Y0071500D03*
X0125419Y0081500D03*
X0111669Y0085250D03*
X0107919Y0088375D03*
X0106669Y0093375D03*
X0099169Y0096500D03*
X0094169Y0100875D03*
X0088544Y0096500D03*
X0081044Y0094625D03*
X0110419Y0101500D03*
X0117919Y0099000D03*
X0122919Y0111500D03*
X0132919Y0111500D03*
X0132919Y0123375D03*
X0142919Y0126500D03*
X0127919Y0135250D03*
X0111669Y0129000D03*
X0102919Y0136500D03*
X0087919Y0141500D03*
X0102919Y0151500D03*
X0107919Y0151500D03*
X0107919Y0156500D03*
X0108544Y0161500D03*
X0112919Y0166500D03*
X0125419Y0170250D03*
X0110419Y0190250D03*
X0087919Y0194000D03*
X0080419Y0196500D03*
X0077919Y0190250D03*
X0065419Y0196500D03*
X0050419Y0196500D03*
X0062919Y0176500D03*
X0067919Y0171500D03*
X0081669Y0167750D03*
X0087919Y0156500D03*
X0050419Y0156500D03*
X0050419Y0141500D03*
X0050419Y0126500D03*
X0085419Y0127750D03*
X0097919Y0115250D03*
X0106669Y0116500D03*
X0142919Y0074000D03*
X0089169Y0045250D03*
X0081669Y0050250D03*
X0069169Y0044000D03*
X0075419Y0071500D03*
X0057919Y0071500D03*
X0037919Y0081500D03*
X0022919Y0081500D03*
X0022919Y0066500D03*
X0022919Y0096500D03*
X0050419Y0171500D03*
X0152919Y0166500D03*
X0167919Y0181500D03*
X0167919Y0196500D03*
X0212919Y0196500D03*
X0232919Y0169000D03*
X0232919Y0164000D03*
X0232919Y0159000D03*
X0232919Y0139000D03*
X0227919Y0124000D03*
X0227919Y0119000D03*
X0224169Y0116500D03*
X0229169Y0105250D03*
X0225419Y0104000D03*
X0221669Y0102750D03*
X0211669Y0099000D03*
X0192919Y0121500D03*
X0182919Y0121500D03*
X0252919Y0121500D03*
X0257919Y0121500D03*
X0257919Y0126500D03*
X0252919Y0126500D03*
X0252919Y0116500D03*
X0257919Y0116500D03*
X0257919Y0106500D03*
X0252919Y0106500D03*
X0252919Y0101500D03*
X0257919Y0101500D03*
X0257919Y0096500D03*
X0252919Y0096500D03*
D17*
X0211669Y0099000D02*
X0205419Y0105250D01*
X0117919Y0105250D01*
X0106669Y0116500D01*
X0097919Y0115250D02*
X0097919Y0121500D01*
X0111669Y0135250D01*
X0127919Y0135250D01*
X0152919Y0166500D02*
X0152919Y0191500D01*
X0150419Y0194000D01*
X0147919Y0194000D01*
X0081044Y0094625D02*
X0081044Y0089625D01*
X0089169Y0081500D01*
X0102919Y0081500D01*
X0115419Y0069000D01*
X0115419Y0054000D01*
X0132919Y0036500D01*
X0132919Y0024000D01*
X0137419Y0019500D01*
D18*
X0148419Y0019500D02*
X0152919Y0024000D01*
X0152919Y0061500D01*
X0170419Y0079000D01*
X0175419Y0079000D02*
X0162919Y0066500D01*
X0162919Y0024000D01*
X0158419Y0019500D01*
X0168419Y0019500D02*
X0172919Y0024000D01*
X0172919Y0071500D01*
X0180419Y0079000D01*
X0182919Y0076500D02*
X0185419Y0079000D01*
X0182919Y0076500D02*
X0182919Y0024000D01*
X0178419Y0019500D01*
M02*
