G75*
%MOIN*%
%OFA0B0*%
%FSLAX25Y25*%
%IPPOS*%
%LPD*%
%AMOC8*
5,1,8,0,0,1.08239X$1,22.5*
%
%ADD10C,0.00000*%
%ADD11C,0.05400*%
%ADD12R,0.05906X0.05118*%
%ADD13C,0.01000*%
%ADD14C,0.05315*%
%ADD15OC8,0.06000*%
%ADD16C,0.02400*%
%ADD17C,0.01600*%
%ADD18C,0.01200*%
D10*
X0027919Y0011500D02*
X0277919Y0011500D01*
X0278161Y0011503D01*
X0278402Y0011512D01*
X0278643Y0011526D01*
X0278884Y0011547D01*
X0279124Y0011573D01*
X0279364Y0011605D01*
X0279603Y0011643D01*
X0279840Y0011686D01*
X0280077Y0011736D01*
X0280312Y0011791D01*
X0280546Y0011851D01*
X0280778Y0011918D01*
X0281009Y0011989D01*
X0281238Y0012067D01*
X0281465Y0012150D01*
X0281690Y0012238D01*
X0281913Y0012332D01*
X0282133Y0012431D01*
X0282351Y0012536D01*
X0282566Y0012645D01*
X0282779Y0012760D01*
X0282989Y0012880D01*
X0283195Y0013005D01*
X0283399Y0013135D01*
X0283600Y0013270D01*
X0283797Y0013410D01*
X0283991Y0013554D01*
X0284181Y0013703D01*
X0284367Y0013857D01*
X0284550Y0014015D01*
X0284729Y0014177D01*
X0284904Y0014344D01*
X0285075Y0014515D01*
X0285242Y0014690D01*
X0285404Y0014869D01*
X0285562Y0015052D01*
X0285716Y0015238D01*
X0285865Y0015428D01*
X0286009Y0015622D01*
X0286149Y0015819D01*
X0286284Y0016020D01*
X0286414Y0016224D01*
X0286539Y0016430D01*
X0286659Y0016640D01*
X0286774Y0016853D01*
X0286883Y0017068D01*
X0286988Y0017286D01*
X0287087Y0017506D01*
X0287181Y0017729D01*
X0287269Y0017954D01*
X0287352Y0018181D01*
X0287430Y0018410D01*
X0287501Y0018641D01*
X0287568Y0018873D01*
X0287628Y0019107D01*
X0287683Y0019342D01*
X0287733Y0019579D01*
X0287776Y0019816D01*
X0287814Y0020055D01*
X0287846Y0020295D01*
X0287872Y0020535D01*
X0287893Y0020776D01*
X0287907Y0021017D01*
X0287916Y0021258D01*
X0287919Y0021500D01*
X0287919Y0191500D01*
X0287916Y0191742D01*
X0287907Y0191983D01*
X0287893Y0192224D01*
X0287872Y0192465D01*
X0287846Y0192705D01*
X0287814Y0192945D01*
X0287776Y0193184D01*
X0287733Y0193421D01*
X0287683Y0193658D01*
X0287628Y0193893D01*
X0287568Y0194127D01*
X0287501Y0194359D01*
X0287430Y0194590D01*
X0287352Y0194819D01*
X0287269Y0195046D01*
X0287181Y0195271D01*
X0287087Y0195494D01*
X0286988Y0195714D01*
X0286883Y0195932D01*
X0286774Y0196147D01*
X0286659Y0196360D01*
X0286539Y0196570D01*
X0286414Y0196776D01*
X0286284Y0196980D01*
X0286149Y0197181D01*
X0286009Y0197378D01*
X0285865Y0197572D01*
X0285716Y0197762D01*
X0285562Y0197948D01*
X0285404Y0198131D01*
X0285242Y0198310D01*
X0285075Y0198485D01*
X0284904Y0198656D01*
X0284729Y0198823D01*
X0284550Y0198985D01*
X0284367Y0199143D01*
X0284181Y0199297D01*
X0283991Y0199446D01*
X0283797Y0199590D01*
X0283600Y0199730D01*
X0283399Y0199865D01*
X0283195Y0199995D01*
X0282989Y0200120D01*
X0282779Y0200240D01*
X0282566Y0200355D01*
X0282351Y0200464D01*
X0282133Y0200569D01*
X0281913Y0200668D01*
X0281690Y0200762D01*
X0281465Y0200850D01*
X0281238Y0200933D01*
X0281009Y0201011D01*
X0280778Y0201082D01*
X0280546Y0201149D01*
X0280312Y0201209D01*
X0280077Y0201264D01*
X0279840Y0201314D01*
X0279603Y0201357D01*
X0279364Y0201395D01*
X0279124Y0201427D01*
X0278884Y0201453D01*
X0278643Y0201474D01*
X0278402Y0201488D01*
X0278161Y0201497D01*
X0277919Y0201500D01*
X0027919Y0201500D01*
X0027677Y0201497D01*
X0027436Y0201488D01*
X0027195Y0201474D01*
X0026954Y0201453D01*
X0026714Y0201427D01*
X0026474Y0201395D01*
X0026235Y0201357D01*
X0025998Y0201314D01*
X0025761Y0201264D01*
X0025526Y0201209D01*
X0025292Y0201149D01*
X0025060Y0201082D01*
X0024829Y0201011D01*
X0024600Y0200933D01*
X0024373Y0200850D01*
X0024148Y0200762D01*
X0023925Y0200668D01*
X0023705Y0200569D01*
X0023487Y0200464D01*
X0023272Y0200355D01*
X0023059Y0200240D01*
X0022849Y0200120D01*
X0022643Y0199995D01*
X0022439Y0199865D01*
X0022238Y0199730D01*
X0022041Y0199590D01*
X0021847Y0199446D01*
X0021657Y0199297D01*
X0021471Y0199143D01*
X0021288Y0198985D01*
X0021109Y0198823D01*
X0020934Y0198656D01*
X0020763Y0198485D01*
X0020596Y0198310D01*
X0020434Y0198131D01*
X0020276Y0197948D01*
X0020122Y0197762D01*
X0019973Y0197572D01*
X0019829Y0197378D01*
X0019689Y0197181D01*
X0019554Y0196980D01*
X0019424Y0196776D01*
X0019299Y0196570D01*
X0019179Y0196360D01*
X0019064Y0196147D01*
X0018955Y0195932D01*
X0018850Y0195714D01*
X0018751Y0195494D01*
X0018657Y0195271D01*
X0018569Y0195046D01*
X0018486Y0194819D01*
X0018408Y0194590D01*
X0018337Y0194359D01*
X0018270Y0194127D01*
X0018210Y0193893D01*
X0018155Y0193658D01*
X0018105Y0193421D01*
X0018062Y0193184D01*
X0018024Y0192945D01*
X0017992Y0192705D01*
X0017966Y0192465D01*
X0017945Y0192224D01*
X0017931Y0191983D01*
X0017922Y0191742D01*
X0017919Y0191500D01*
X0017919Y0021500D01*
X0017922Y0021258D01*
X0017931Y0021017D01*
X0017945Y0020776D01*
X0017966Y0020535D01*
X0017992Y0020295D01*
X0018024Y0020055D01*
X0018062Y0019816D01*
X0018105Y0019579D01*
X0018155Y0019342D01*
X0018210Y0019107D01*
X0018270Y0018873D01*
X0018337Y0018641D01*
X0018408Y0018410D01*
X0018486Y0018181D01*
X0018569Y0017954D01*
X0018657Y0017729D01*
X0018751Y0017506D01*
X0018850Y0017286D01*
X0018955Y0017068D01*
X0019064Y0016853D01*
X0019179Y0016640D01*
X0019299Y0016430D01*
X0019424Y0016224D01*
X0019554Y0016020D01*
X0019689Y0015819D01*
X0019829Y0015622D01*
X0019973Y0015428D01*
X0020122Y0015238D01*
X0020276Y0015052D01*
X0020434Y0014869D01*
X0020596Y0014690D01*
X0020763Y0014515D01*
X0020934Y0014344D01*
X0021109Y0014177D01*
X0021288Y0014015D01*
X0021471Y0013857D01*
X0021657Y0013703D01*
X0021847Y0013554D01*
X0022041Y0013410D01*
X0022238Y0013270D01*
X0022439Y0013135D01*
X0022643Y0013005D01*
X0022849Y0012880D01*
X0023059Y0012760D01*
X0023272Y0012645D01*
X0023487Y0012536D01*
X0023705Y0012431D01*
X0023925Y0012332D01*
X0024148Y0012238D01*
X0024373Y0012150D01*
X0024600Y0012067D01*
X0024829Y0011989D01*
X0025060Y0011918D01*
X0025292Y0011851D01*
X0025526Y0011791D01*
X0025761Y0011736D01*
X0025998Y0011686D01*
X0026235Y0011643D01*
X0026474Y0011605D01*
X0026714Y0011573D01*
X0026954Y0011547D01*
X0027195Y0011526D01*
X0027436Y0011512D01*
X0027677Y0011503D01*
X0027919Y0011500D01*
D11*
X0072919Y0021500D03*
D12*
X0122919Y0054807D03*
X0122919Y0061500D03*
X0132919Y0061500D03*
X0132919Y0054807D03*
X0142919Y0054807D03*
X0142919Y0061500D03*
X0142919Y0068193D03*
X0132919Y0068193D03*
X0122919Y0068193D03*
D13*
X0104628Y0016493D02*
X0022400Y0016493D01*
X0022615Y0016197D02*
X0021236Y0018095D01*
X0020511Y0020327D01*
X0020419Y0021500D01*
X0020419Y0106500D01*
X0045419Y0106500D01*
X0045419Y0199000D01*
X0161319Y0199000D01*
X0161319Y0170837D01*
X0166319Y0165837D01*
X0167256Y0164900D01*
X0253581Y0164900D01*
X0258581Y0169900D01*
X0285419Y0169900D01*
X0285419Y0136500D01*
X0262919Y0136500D01*
X0262919Y0014000D01*
X0027919Y0014000D01*
X0026745Y0014092D01*
X0024514Y0014817D01*
X0022615Y0016197D01*
X0023582Y0015494D02*
X0105626Y0015494D01*
X0106220Y0014900D02*
X0103819Y0017302D01*
X0103819Y0018337D01*
X0092569Y0029587D01*
X0092569Y0064587D01*
X0073819Y0083337D01*
X0073819Y0188413D01*
X0074756Y0189350D01*
X0075619Y0190213D01*
X0075619Y0191203D01*
X0076966Y0192550D01*
X0078871Y0192550D01*
X0080219Y0191203D01*
X0080219Y0189297D01*
X0078871Y0187950D01*
X0077881Y0187950D01*
X0077019Y0187087D01*
X0077019Y0185363D01*
X0077256Y0185600D01*
X0085619Y0193963D01*
X0085619Y0194953D01*
X0086966Y0196300D01*
X0088871Y0196300D01*
X0090219Y0194953D01*
X0090219Y0193047D01*
X0088871Y0191700D01*
X0087881Y0191700D01*
X0079519Y0183337D01*
X0079519Y0168853D01*
X0080716Y0170050D01*
X0082621Y0170050D01*
X0083969Y0168703D01*
X0083969Y0166797D01*
X0083269Y0166097D01*
X0083269Y0128853D01*
X0084466Y0130050D01*
X0086371Y0130050D01*
X0087719Y0128703D01*
X0087719Y0126797D01*
X0087019Y0126097D01*
X0087019Y0098228D01*
X0087591Y0098800D01*
X0089496Y0098800D01*
X0090196Y0098100D01*
X0093506Y0098100D01*
X0093981Y0098575D01*
X0093216Y0098575D01*
X0091869Y0099922D01*
X0091869Y0101828D01*
X0092569Y0102528D01*
X0092569Y0152163D01*
X0093506Y0153100D01*
X0107628Y0167222D01*
X0108565Y0168159D01*
X0111325Y0168159D01*
X0111966Y0168800D01*
X0113871Y0168800D01*
X0114571Y0168100D01*
X0124316Y0168100D01*
X0123119Y0169297D01*
X0123119Y0171203D01*
X0124466Y0172550D01*
X0126371Y0172550D01*
X0127071Y0171850D01*
X0130306Y0171850D01*
X0113506Y0188650D01*
X0112071Y0188650D01*
X0111371Y0187950D01*
X0109466Y0187950D01*
X0108119Y0189297D01*
X0108119Y0191203D01*
X0109466Y0192550D01*
X0111371Y0192550D01*
X0112071Y0191850D01*
X0114831Y0191850D01*
X0158581Y0148100D01*
X0203581Y0148100D01*
X0226081Y0125600D01*
X0226266Y0125600D01*
X0226966Y0126300D01*
X0228871Y0126300D01*
X0230219Y0124953D01*
X0230219Y0123047D01*
X0228919Y0121747D01*
X0228919Y0121253D01*
X0230219Y0119953D01*
X0230219Y0118047D01*
X0228871Y0116700D01*
X0226966Y0116700D01*
X0226469Y0117197D01*
X0226469Y0115547D01*
X0225121Y0114200D01*
X0223283Y0114200D01*
X0222882Y0113799D01*
X0229131Y0107550D01*
X0230121Y0107550D01*
X0231469Y0106203D01*
X0231469Y0104297D01*
X0230121Y0102950D01*
X0228216Y0102950D01*
X0227719Y0103447D01*
X0227719Y0103047D01*
X0226371Y0101700D01*
X0224466Y0101700D01*
X0223969Y0102197D01*
X0223969Y0101797D01*
X0222621Y0100450D01*
X0221231Y0100450D01*
X0230769Y0090913D01*
X0230769Y0068413D01*
X0234831Y0064350D01*
X0235769Y0063413D01*
X0235769Y0043337D01*
X0230769Y0038337D01*
X0229831Y0037400D01*
X0194756Y0037400D01*
X0191006Y0041150D01*
X0190069Y0042087D01*
X0190069Y0049847D01*
X0189369Y0050547D01*
X0189369Y0052453D01*
X0190716Y0053800D01*
X0192621Y0053800D01*
X0193969Y0052453D01*
X0193969Y0050547D01*
X0193269Y0049847D01*
X0193269Y0043413D01*
X0196081Y0040600D01*
X0221191Y0040600D01*
X0220619Y0041172D01*
X0220619Y0043078D01*
X0221319Y0043778D01*
X0221319Y0049587D01*
X0181006Y0089900D01*
X0109646Y0089900D01*
X0110219Y0089328D01*
X0110219Y0087422D01*
X0109646Y0086850D01*
X0110016Y0086850D01*
X0110716Y0087550D01*
X0112621Y0087550D01*
X0113969Y0086203D01*
X0113969Y0084297D01*
X0112621Y0082950D01*
X0110716Y0082950D01*
X0110016Y0083650D01*
X0103919Y0083650D01*
X0103919Y0083187D01*
X0104819Y0082287D01*
X0117319Y0069787D01*
X0117319Y0064764D01*
X0117669Y0064414D01*
X0117669Y0054437D01*
X0118466Y0053640D01*
X0118466Y0054307D01*
X0122419Y0054307D01*
X0123419Y0054307D01*
X0123419Y0054900D01*
X0123581Y0054900D01*
X0123988Y0055307D01*
X0127371Y0055307D01*
X0127371Y0057564D01*
X0127269Y0057945D01*
X0127072Y0058287D01*
X0126922Y0058436D01*
X0126971Y0058485D01*
X0126971Y0059200D01*
X0128246Y0059200D01*
X0128866Y0059820D01*
X0128866Y0058485D01*
X0128915Y0058436D01*
X0128766Y0058287D01*
X0128568Y0057945D01*
X0128466Y0057564D01*
X0128466Y0055307D01*
X0131849Y0055307D01*
X0132256Y0054900D01*
X0132419Y0054900D01*
X0132419Y0054307D01*
X0133419Y0054307D01*
X0133419Y0054900D01*
X0133581Y0054900D01*
X0133988Y0055307D01*
X0137371Y0055307D01*
X0137371Y0057564D01*
X0137269Y0057945D01*
X0137072Y0058287D01*
X0136922Y0058436D01*
X0136971Y0058485D01*
X0136971Y0058575D01*
X0138246Y0058575D01*
X0138866Y0059195D01*
X0138866Y0058485D01*
X0138915Y0058436D01*
X0138766Y0058287D01*
X0138568Y0057945D01*
X0138466Y0057564D01*
X0138466Y0055307D01*
X0141849Y0055307D01*
X0142256Y0054900D01*
X0142419Y0054900D01*
X0142419Y0054307D01*
X0143419Y0054307D01*
X0143419Y0054900D01*
X0143581Y0054900D01*
X0143988Y0055307D01*
X0147371Y0055307D01*
X0147371Y0057564D01*
X0147269Y0057945D01*
X0147072Y0058287D01*
X0146922Y0058436D01*
X0146971Y0058485D01*
X0146971Y0060450D01*
X0148871Y0060450D01*
X0150219Y0061797D01*
X0150219Y0063703D01*
X0148871Y0065050D01*
X0146966Y0065050D01*
X0146701Y0064785D01*
X0146640Y0064846D01*
X0146971Y0065178D01*
X0146971Y0071208D01*
X0146327Y0071852D01*
X0144519Y0071852D01*
X0144519Y0072347D01*
X0145219Y0073047D01*
X0145219Y0074953D01*
X0143871Y0076300D01*
X0141966Y0076300D01*
X0140619Y0074953D01*
X0140619Y0073047D01*
X0141319Y0072347D01*
X0141319Y0071852D01*
X0139510Y0071852D01*
X0138866Y0071208D01*
X0138866Y0069793D01*
X0136971Y0069793D01*
X0136971Y0071208D01*
X0136327Y0071852D01*
X0129510Y0071852D01*
X0128866Y0071208D01*
X0128866Y0069793D01*
X0126971Y0069793D01*
X0126971Y0071208D01*
X0126327Y0071852D01*
X0119510Y0071852D01*
X0118866Y0071208D01*
X0118866Y0065178D01*
X0119198Y0064846D01*
X0118866Y0064515D01*
X0118866Y0058485D01*
X0118915Y0058436D01*
X0118766Y0058287D01*
X0118568Y0057945D01*
X0118466Y0057564D01*
X0118466Y0055307D01*
X0121849Y0055307D01*
X0122256Y0054900D01*
X0122419Y0054900D01*
X0122419Y0054307D01*
X0122419Y0050748D01*
X0121358Y0050748D01*
X0134819Y0037287D01*
X0134819Y0031698D01*
X0136220Y0033100D01*
X0139617Y0033100D01*
X0142019Y0030698D01*
X0142019Y0027302D01*
X0139617Y0024900D01*
X0136220Y0024900D01*
X0134819Y0026302D01*
X0134819Y0024787D01*
X0136506Y0023100D01*
X0139617Y0023100D01*
X0142019Y0020698D01*
X0142019Y0017302D01*
X0139617Y0014900D01*
X0136220Y0014900D01*
X0133819Y0017302D01*
X0133819Y0020413D01*
X0132132Y0022100D01*
X0131019Y0023213D01*
X0131019Y0025736D01*
X0129783Y0024500D01*
X0128419Y0024500D01*
X0128419Y0028500D01*
X0127419Y0028500D01*
X0127419Y0024500D01*
X0126055Y0024500D01*
X0123419Y0027136D01*
X0123419Y0028500D01*
X0127419Y0028500D01*
X0127419Y0029500D01*
X0127419Y0033500D01*
X0126055Y0033500D01*
X0123419Y0030864D01*
X0123419Y0029500D01*
X0127419Y0029500D01*
X0128419Y0029500D01*
X0128419Y0033500D01*
X0129783Y0033500D01*
X0131019Y0032264D01*
X0131019Y0035713D01*
X0115028Y0051704D01*
X0113556Y0050723D01*
X0113269Y0050436D01*
X0113269Y0042163D01*
X0119519Y0035913D01*
X0119519Y0033100D01*
X0119617Y0033100D01*
X0122019Y0030698D01*
X0122019Y0027302D01*
X0119617Y0024900D01*
X0116220Y0024900D01*
X0113819Y0027302D01*
X0113819Y0030698D01*
X0116220Y0033100D01*
X0116319Y0033100D01*
X0116319Y0034587D01*
X0111006Y0039900D01*
X0110406Y0040500D01*
X0109519Y0040500D01*
X0109519Y0033100D01*
X0109617Y0033100D01*
X0112019Y0030698D01*
X0112019Y0027302D01*
X0110317Y0025600D01*
X0113581Y0025600D01*
X0116151Y0023030D01*
X0116220Y0023100D01*
X0119617Y0023100D01*
X0122019Y0020698D01*
X0122019Y0017302D01*
X0119617Y0014900D01*
X0116220Y0014900D01*
X0113819Y0017302D01*
X0113819Y0020698D01*
X0113888Y0020768D01*
X0112256Y0022400D01*
X0110317Y0022400D01*
X0112019Y0020698D01*
X0112019Y0017302D01*
X0109617Y0014900D01*
X0106220Y0014900D01*
X0110211Y0015494D02*
X0115626Y0015494D01*
X0114628Y0016493D02*
X0111209Y0016493D01*
X0112019Y0017491D02*
X0113819Y0017491D01*
X0113819Y0018490D02*
X0112019Y0018490D01*
X0112019Y0019488D02*
X0113819Y0019488D01*
X0113819Y0020487D02*
X0112019Y0020487D01*
X0111232Y0021485D02*
X0113171Y0021485D01*
X0112919Y0024000D02*
X0117919Y0019000D01*
X0122019Y0019488D02*
X0127419Y0019488D01*
X0127419Y0019500D02*
X0127419Y0018500D01*
X0128419Y0018500D01*
X0128419Y0019500D01*
X0132419Y0019500D01*
X0132419Y0020864D01*
X0129783Y0023500D01*
X0128419Y0023500D01*
X0128419Y0019500D01*
X0127419Y0019500D01*
X0127419Y0023500D01*
X0126055Y0023500D01*
X0123419Y0020864D01*
X0123419Y0019500D01*
X0127419Y0019500D01*
X0127419Y0020487D02*
X0128419Y0020487D01*
X0128419Y0021485D02*
X0127419Y0021485D01*
X0127419Y0022484D02*
X0128419Y0022484D01*
X0128419Y0023482D02*
X0127419Y0023482D01*
X0126037Y0023482D02*
X0115699Y0023482D01*
X0114701Y0024481D02*
X0131019Y0024481D01*
X0131019Y0025479D02*
X0130762Y0025479D01*
X0131019Y0023482D02*
X0129800Y0023482D01*
X0130799Y0022484D02*
X0131748Y0022484D01*
X0131797Y0021485D02*
X0132746Y0021485D01*
X0132419Y0020487D02*
X0133745Y0020487D01*
X0133819Y0019488D02*
X0128419Y0019488D01*
X0128419Y0018500D02*
X0132419Y0018500D01*
X0132419Y0017136D01*
X0129783Y0014500D01*
X0128419Y0014500D01*
X0128419Y0018500D01*
X0128419Y0018490D02*
X0127419Y0018490D01*
X0127419Y0018500D02*
X0127419Y0014500D01*
X0126055Y0014500D01*
X0123419Y0017136D01*
X0123419Y0018500D01*
X0127419Y0018500D01*
X0127419Y0017491D02*
X0128419Y0017491D01*
X0128419Y0016493D02*
X0127419Y0016493D01*
X0127419Y0015494D02*
X0128419Y0015494D01*
X0130777Y0015494D02*
X0135626Y0015494D01*
X0134628Y0016493D02*
X0131775Y0016493D01*
X0132419Y0017491D02*
X0133819Y0017491D01*
X0133819Y0018490D02*
X0132419Y0018490D01*
X0137419Y0019500D02*
X0137919Y0019000D01*
X0142019Y0019488D02*
X0143819Y0019488D01*
X0143819Y0018490D02*
X0142019Y0018490D01*
X0142019Y0017491D02*
X0143819Y0017491D01*
X0143819Y0017302D02*
X0146220Y0014900D01*
X0149617Y0014900D01*
X0152019Y0017302D01*
X0152019Y0020696D01*
X0153623Y0022300D01*
X0154619Y0023296D01*
X0154619Y0026502D01*
X0156220Y0024900D01*
X0159617Y0024900D01*
X0161219Y0026502D01*
X0161219Y0024704D01*
X0159614Y0023100D01*
X0156220Y0023100D01*
X0153819Y0020698D01*
X0153819Y0017302D01*
X0156220Y0014900D01*
X0159617Y0014900D01*
X0162019Y0017302D01*
X0162019Y0020696D01*
X0163623Y0022300D01*
X0164619Y0023296D01*
X0164619Y0026502D01*
X0166220Y0024900D01*
X0169617Y0024900D01*
X0171219Y0026502D01*
X0171219Y0024704D01*
X0169614Y0023100D01*
X0166220Y0023100D01*
X0163819Y0020698D01*
X0163819Y0017302D01*
X0166220Y0014900D01*
X0169617Y0014900D01*
X0172019Y0017302D01*
X0172019Y0020696D01*
X0173623Y0022300D01*
X0174619Y0023296D01*
X0174619Y0026502D01*
X0176220Y0024900D01*
X0179617Y0024900D01*
X0181219Y0026502D01*
X0181219Y0024704D01*
X0179614Y0023100D01*
X0176220Y0023100D01*
X0173819Y0020698D01*
X0173819Y0017302D01*
X0176220Y0014900D01*
X0179617Y0014900D01*
X0182019Y0017302D01*
X0182019Y0020696D01*
X0183623Y0022300D01*
X0184619Y0023296D01*
X0184619Y0026502D01*
X0186220Y0024900D01*
X0189617Y0024900D01*
X0192019Y0027302D01*
X0192019Y0030698D01*
X0189617Y0033100D01*
X0186220Y0033100D01*
X0184619Y0031498D01*
X0184619Y0075796D01*
X0185523Y0076700D01*
X0186371Y0076700D01*
X0187719Y0078047D01*
X0187719Y0079953D01*
X0186371Y0081300D01*
X0184466Y0081300D01*
X0183119Y0079953D01*
X0183119Y0079104D01*
X0182719Y0078704D01*
X0182719Y0079953D01*
X0181371Y0081300D01*
X0179466Y0081300D01*
X0178119Y0079953D01*
X0178119Y0079104D01*
X0177719Y0078704D01*
X0177719Y0079953D01*
X0176371Y0081300D01*
X0174466Y0081300D01*
X0173119Y0079953D01*
X0173119Y0079104D01*
X0172719Y0078704D01*
X0172719Y0079953D01*
X0171371Y0081300D01*
X0169466Y0081300D01*
X0168119Y0079953D01*
X0168119Y0079104D01*
X0151219Y0062204D01*
X0151219Y0031498D01*
X0149617Y0033100D01*
X0146220Y0033100D01*
X0143819Y0030698D01*
X0143819Y0027302D01*
X0146220Y0024900D01*
X0149617Y0024900D01*
X0151219Y0026502D01*
X0151219Y0024704D01*
X0149614Y0023100D01*
X0146220Y0023100D01*
X0143819Y0020698D01*
X0143819Y0017302D01*
X0144628Y0016493D02*
X0141209Y0016493D01*
X0140211Y0015494D02*
X0145626Y0015494D01*
X0147919Y0019000D02*
X0148419Y0019500D01*
X0152019Y0019488D02*
X0153819Y0019488D01*
X0153819Y0018490D02*
X0152019Y0018490D01*
X0152019Y0017491D02*
X0153819Y0017491D01*
X0154628Y0016493D02*
X0151209Y0016493D01*
X0150211Y0015494D02*
X0155626Y0015494D01*
X0157919Y0019000D02*
X0158419Y0019500D01*
X0155604Y0022484D02*
X0153806Y0022484D01*
X0154605Y0021485D02*
X0152808Y0021485D01*
X0152019Y0020487D02*
X0153819Y0020487D01*
X0154619Y0023482D02*
X0159997Y0023482D01*
X0160995Y0024481D02*
X0154619Y0024481D01*
X0154619Y0025479D02*
X0155641Y0025479D01*
X0154643Y0026478D02*
X0154619Y0026478D01*
X0151219Y0026478D02*
X0151195Y0026478D01*
X0151219Y0025479D02*
X0150196Y0025479D01*
X0150995Y0024481D02*
X0135125Y0024481D01*
X0134819Y0025479D02*
X0135641Y0025479D01*
X0136123Y0023482D02*
X0149997Y0023482D01*
X0145604Y0022484D02*
X0140233Y0022484D01*
X0141232Y0021485D02*
X0144605Y0021485D01*
X0143819Y0020487D02*
X0142019Y0020487D01*
X0140196Y0025479D02*
X0145641Y0025479D01*
X0144643Y0026478D02*
X0141195Y0026478D01*
X0142019Y0027476D02*
X0143819Y0027476D01*
X0143819Y0028475D02*
X0142019Y0028475D01*
X0142019Y0029473D02*
X0143819Y0029473D01*
X0143819Y0030472D02*
X0142019Y0030472D01*
X0141247Y0031470D02*
X0144591Y0031470D01*
X0145589Y0032469D02*
X0140248Y0032469D01*
X0135589Y0032469D02*
X0134819Y0032469D01*
X0134819Y0033467D02*
X0151219Y0033467D01*
X0151219Y0032469D02*
X0150248Y0032469D01*
X0151219Y0034466D02*
X0134819Y0034466D01*
X0134819Y0035464D02*
X0151219Y0035464D01*
X0151219Y0036463D02*
X0134819Y0036463D01*
X0134644Y0037461D02*
X0151219Y0037461D01*
X0151219Y0038460D02*
X0133646Y0038460D01*
X0132647Y0039458D02*
X0151219Y0039458D01*
X0151219Y0040457D02*
X0131649Y0040457D01*
X0130650Y0041455D02*
X0151219Y0041455D01*
X0151219Y0042454D02*
X0129652Y0042454D01*
X0128653Y0043452D02*
X0151219Y0043452D01*
X0151219Y0044451D02*
X0127655Y0044451D01*
X0126656Y0045449D02*
X0151219Y0045449D01*
X0151219Y0046448D02*
X0125658Y0046448D01*
X0124659Y0047446D02*
X0151219Y0047446D01*
X0151219Y0048445D02*
X0123661Y0048445D01*
X0122662Y0049443D02*
X0151219Y0049443D01*
X0151219Y0050442D02*
X0121664Y0050442D01*
X0122419Y0051440D02*
X0123419Y0051440D01*
X0123419Y0050748D02*
X0126069Y0050748D01*
X0126450Y0050850D01*
X0126792Y0051048D01*
X0127072Y0051327D01*
X0127269Y0051669D01*
X0127371Y0052051D01*
X0127371Y0054307D01*
X0123419Y0054307D01*
X0123419Y0050748D01*
X0123419Y0052439D02*
X0122419Y0052439D01*
X0122419Y0053437D02*
X0123419Y0053437D01*
X0123419Y0054436D02*
X0132419Y0054436D01*
X0132419Y0054307D02*
X0128466Y0054307D01*
X0128466Y0052051D01*
X0128568Y0051669D01*
X0128766Y0051327D01*
X0129045Y0051048D01*
X0129387Y0050850D01*
X0129768Y0050748D01*
X0132419Y0050748D01*
X0132419Y0054307D01*
X0132419Y0053437D02*
X0133419Y0053437D01*
X0133419Y0054307D02*
X0133419Y0050748D01*
X0136069Y0050748D01*
X0136450Y0050850D01*
X0136792Y0051048D01*
X0137072Y0051327D01*
X0137269Y0051669D01*
X0137371Y0052051D01*
X0137371Y0054307D01*
X0133419Y0054307D01*
X0133419Y0054436D02*
X0142419Y0054436D01*
X0142419Y0054307D02*
X0138466Y0054307D01*
X0138466Y0052051D01*
X0138568Y0051669D01*
X0138766Y0051327D01*
X0139045Y0051048D01*
X0139387Y0050850D01*
X0139768Y0050748D01*
X0142419Y0050748D01*
X0142419Y0054307D01*
X0142419Y0053437D02*
X0143419Y0053437D01*
X0143419Y0054307D02*
X0143419Y0050748D01*
X0146069Y0050748D01*
X0146450Y0050850D01*
X0146792Y0051048D01*
X0147072Y0051327D01*
X0147269Y0051669D01*
X0147371Y0052051D01*
X0147371Y0054307D01*
X0143419Y0054307D01*
X0143419Y0054436D02*
X0151219Y0054436D01*
X0151219Y0055434D02*
X0147371Y0055434D01*
X0147371Y0056433D02*
X0151219Y0056433D01*
X0151219Y0057432D02*
X0147371Y0057432D01*
X0146929Y0058430D02*
X0151219Y0058430D01*
X0151219Y0059429D02*
X0146971Y0059429D01*
X0146971Y0060427D02*
X0151219Y0060427D01*
X0151219Y0061426D02*
X0149847Y0061426D01*
X0150219Y0062424D02*
X0151439Y0062424D01*
X0152437Y0063423D02*
X0150219Y0063423D01*
X0149500Y0064421D02*
X0153436Y0064421D01*
X0154434Y0065420D02*
X0146971Y0065420D01*
X0146971Y0066418D02*
X0155433Y0066418D01*
X0156431Y0067417D02*
X0146971Y0067417D01*
X0146971Y0068415D02*
X0157430Y0068415D01*
X0158428Y0069414D02*
X0146971Y0069414D01*
X0146971Y0070412D02*
X0159427Y0070412D01*
X0160425Y0071411D02*
X0146768Y0071411D01*
X0144580Y0072409D02*
X0161424Y0072409D01*
X0162422Y0073408D02*
X0145219Y0073408D01*
X0145219Y0074406D02*
X0163421Y0074406D01*
X0164419Y0075405D02*
X0144767Y0075405D01*
X0142919Y0074000D02*
X0142919Y0068193D01*
X0132919Y0068193D01*
X0122919Y0068193D01*
X0126971Y0070412D02*
X0128866Y0070412D01*
X0129069Y0071411D02*
X0126768Y0071411D01*
X0119069Y0071411D02*
X0115695Y0071411D01*
X0114696Y0072409D02*
X0141257Y0072409D01*
X0140619Y0073408D02*
X0113698Y0073408D01*
X0112699Y0074406D02*
X0140619Y0074406D01*
X0141071Y0075405D02*
X0111701Y0075405D01*
X0110702Y0076403D02*
X0165418Y0076403D01*
X0166416Y0077402D02*
X0109704Y0077402D01*
X0108705Y0078400D02*
X0167415Y0078400D01*
X0168119Y0079399D02*
X0107707Y0079399D01*
X0106708Y0080397D02*
X0168563Y0080397D01*
X0172274Y0080397D02*
X0173563Y0080397D01*
X0173119Y0079399D02*
X0172719Y0079399D01*
X0177274Y0080397D02*
X0178563Y0080397D01*
X0178119Y0079399D02*
X0177719Y0079399D01*
X0182274Y0080397D02*
X0183563Y0080397D01*
X0183119Y0079399D02*
X0182719Y0079399D01*
X0187274Y0080397D02*
X0190509Y0080397D01*
X0191507Y0079399D02*
X0187719Y0079399D01*
X0187719Y0078400D02*
X0192506Y0078400D01*
X0193504Y0077402D02*
X0187073Y0077402D01*
X0185226Y0076403D02*
X0194503Y0076403D01*
X0195501Y0075405D02*
X0184619Y0075405D01*
X0184619Y0074406D02*
X0196500Y0074406D01*
X0197498Y0073408D02*
X0184619Y0073408D01*
X0184619Y0072409D02*
X0198497Y0072409D01*
X0199495Y0071411D02*
X0184619Y0071411D01*
X0184619Y0070412D02*
X0200494Y0070412D01*
X0201492Y0069414D02*
X0184619Y0069414D01*
X0184619Y0068415D02*
X0202491Y0068415D01*
X0203489Y0067417D02*
X0184619Y0067417D01*
X0184619Y0066418D02*
X0204488Y0066418D01*
X0205486Y0065420D02*
X0184619Y0065420D01*
X0184619Y0064421D02*
X0206485Y0064421D01*
X0207483Y0063423D02*
X0184619Y0063423D01*
X0184619Y0062424D02*
X0208482Y0062424D01*
X0209480Y0061426D02*
X0184619Y0061426D01*
X0184619Y0060427D02*
X0210479Y0060427D01*
X0211477Y0059429D02*
X0184619Y0059429D01*
X0184619Y0058430D02*
X0212476Y0058430D01*
X0213474Y0057432D02*
X0184619Y0057432D01*
X0184619Y0056433D02*
X0214473Y0056433D01*
X0215471Y0055434D02*
X0184619Y0055434D01*
X0184619Y0054436D02*
X0216470Y0054436D01*
X0217468Y0053437D02*
X0192984Y0053437D01*
X0193969Y0052439D02*
X0218467Y0052439D01*
X0219465Y0051440D02*
X0193969Y0051440D01*
X0193863Y0050442D02*
X0220464Y0050442D01*
X0221319Y0049443D02*
X0193269Y0049443D01*
X0193269Y0048445D02*
X0221319Y0048445D01*
X0221319Y0047446D02*
X0193269Y0047446D01*
X0193269Y0046448D02*
X0221319Y0046448D01*
X0221319Y0045449D02*
X0193269Y0045449D01*
X0193269Y0044451D02*
X0221319Y0044451D01*
X0220993Y0043452D02*
X0193269Y0043452D01*
X0194227Y0042454D02*
X0220619Y0042454D01*
X0220619Y0041455D02*
X0195226Y0041455D01*
X0195419Y0039000D02*
X0191669Y0042750D01*
X0191669Y0051500D01*
X0189369Y0051440D02*
X0184619Y0051440D01*
X0184619Y0050442D02*
X0189474Y0050442D01*
X0190069Y0049443D02*
X0184619Y0049443D01*
X0184619Y0048445D02*
X0190069Y0048445D01*
X0190069Y0047446D02*
X0184619Y0047446D01*
X0184619Y0046448D02*
X0190069Y0046448D01*
X0190069Y0045449D02*
X0184619Y0045449D01*
X0184619Y0044451D02*
X0190069Y0044451D01*
X0190069Y0043452D02*
X0184619Y0043452D01*
X0184619Y0042454D02*
X0190069Y0042454D01*
X0190701Y0041455D02*
X0184619Y0041455D01*
X0184619Y0040457D02*
X0191699Y0040457D01*
X0192698Y0039458D02*
X0184619Y0039458D01*
X0184619Y0038460D02*
X0193696Y0038460D01*
X0194695Y0037461D02*
X0184619Y0037461D01*
X0184619Y0036463D02*
X0262919Y0036463D01*
X0262919Y0037461D02*
X0229893Y0037461D01*
X0230891Y0038460D02*
X0262919Y0038460D01*
X0262919Y0039458D02*
X0231890Y0039458D01*
X0232888Y0040457D02*
X0262919Y0040457D01*
X0262919Y0041455D02*
X0233887Y0041455D01*
X0234885Y0042454D02*
X0262919Y0042454D01*
X0262919Y0043452D02*
X0235769Y0043452D01*
X0235769Y0044451D02*
X0262919Y0044451D01*
X0262919Y0045449D02*
X0235769Y0045449D01*
X0235769Y0046448D02*
X0262919Y0046448D01*
X0262919Y0047446D02*
X0235769Y0047446D01*
X0235769Y0048445D02*
X0262919Y0048445D01*
X0262919Y0049443D02*
X0235769Y0049443D01*
X0235769Y0050442D02*
X0262919Y0050442D01*
X0262919Y0051440D02*
X0235769Y0051440D01*
X0235769Y0052439D02*
X0262919Y0052439D01*
X0262919Y0053437D02*
X0235769Y0053437D01*
X0235769Y0054436D02*
X0262919Y0054436D01*
X0262919Y0055434D02*
X0235769Y0055434D01*
X0235769Y0056433D02*
X0262919Y0056433D01*
X0262919Y0057432D02*
X0235769Y0057432D01*
X0235769Y0058430D02*
X0262919Y0058430D01*
X0262919Y0059429D02*
X0235769Y0059429D01*
X0235769Y0060427D02*
X0262919Y0060427D01*
X0262919Y0061426D02*
X0235769Y0061426D01*
X0235769Y0062424D02*
X0262919Y0062424D01*
X0262919Y0063423D02*
X0235759Y0063423D01*
X0234760Y0064421D02*
X0262919Y0064421D01*
X0262919Y0065420D02*
X0233762Y0065420D01*
X0232763Y0066418D02*
X0262919Y0066418D01*
X0262919Y0067417D02*
X0231765Y0067417D01*
X0230769Y0068415D02*
X0262919Y0068415D01*
X0262919Y0069414D02*
X0230769Y0069414D01*
X0230769Y0070412D02*
X0262919Y0070412D01*
X0262919Y0071411D02*
X0230769Y0071411D01*
X0230769Y0072409D02*
X0262919Y0072409D01*
X0262919Y0073408D02*
X0230769Y0073408D01*
X0230769Y0074406D02*
X0262919Y0074406D01*
X0262919Y0075405D02*
X0230769Y0075405D01*
X0230769Y0076403D02*
X0262919Y0076403D01*
X0262919Y0077402D02*
X0230769Y0077402D01*
X0230769Y0078400D02*
X0262919Y0078400D01*
X0262919Y0079399D02*
X0230769Y0079399D01*
X0230769Y0080397D02*
X0262919Y0080397D01*
X0262919Y0081396D02*
X0230769Y0081396D01*
X0230769Y0082394D02*
X0262919Y0082394D01*
X0262919Y0083393D02*
X0230769Y0083393D01*
X0230769Y0084391D02*
X0262919Y0084391D01*
X0262919Y0085390D02*
X0230769Y0085390D01*
X0230769Y0086388D02*
X0262919Y0086388D01*
X0262919Y0087387D02*
X0230769Y0087387D01*
X0230769Y0088385D02*
X0262919Y0088385D01*
X0262919Y0089384D02*
X0230769Y0089384D01*
X0230769Y0090382D02*
X0262919Y0090382D01*
X0262919Y0091381D02*
X0230300Y0091381D01*
X0229302Y0092379D02*
X0262919Y0092379D01*
X0262919Y0093378D02*
X0228303Y0093378D01*
X0227305Y0094376D02*
X0262919Y0094376D01*
X0262919Y0095375D02*
X0226306Y0095375D01*
X0225308Y0096373D02*
X0262919Y0096373D01*
X0262919Y0097372D02*
X0224309Y0097372D01*
X0223311Y0098370D02*
X0262919Y0098370D01*
X0262919Y0099369D02*
X0222312Y0099369D01*
X0221314Y0100368D02*
X0262919Y0100368D01*
X0262919Y0101366D02*
X0223537Y0101366D01*
X0221669Y0102750D02*
X0190419Y0134000D01*
X0151669Y0134000D01*
X0134169Y0151500D01*
X0107919Y0151500D01*
X0109571Y0149900D02*
X0133506Y0149900D01*
X0150069Y0133337D01*
X0151006Y0132400D01*
X0189756Y0132400D01*
X0219369Y0102787D01*
X0219369Y0102313D01*
X0208581Y0113100D01*
X0149831Y0113100D01*
X0134831Y0128100D01*
X0114831Y0128100D01*
X0113969Y0128963D01*
X0113969Y0129953D01*
X0112621Y0131300D01*
X0110716Y0131300D01*
X0109369Y0129953D01*
X0109369Y0128047D01*
X0110716Y0126700D01*
X0111706Y0126700D01*
X0112569Y0125837D01*
X0113506Y0124900D01*
X0131191Y0124900D01*
X0130619Y0124328D01*
X0130619Y0122422D01*
X0131966Y0121075D01*
X0133581Y0121075D01*
X0146319Y0108337D01*
X0146919Y0107737D01*
X0146919Y0107150D01*
X0118706Y0107150D01*
X0108969Y0116887D01*
X0108969Y0117453D01*
X0107621Y0118800D01*
X0105716Y0118800D01*
X0104369Y0117453D01*
X0104369Y0115547D01*
X0105716Y0114200D01*
X0106282Y0114200D01*
X0116019Y0104463D01*
X0117132Y0103350D01*
X0204632Y0103350D01*
X0209369Y0098613D01*
X0209369Y0098047D01*
X0210716Y0096700D01*
X0212621Y0096700D01*
X0213969Y0098047D01*
X0213969Y0099437D01*
X0225069Y0088337D01*
X0225069Y0071353D01*
X0223871Y0072550D01*
X0221966Y0072550D01*
X0221266Y0071850D01*
X0218581Y0071850D01*
X0188269Y0102163D01*
X0187331Y0103100D01*
X0112071Y0103100D01*
X0111371Y0103800D01*
X0109466Y0103800D01*
X0108119Y0102453D01*
X0108119Y0100600D01*
X0096469Y0100600D01*
X0096469Y0101828D01*
X0095769Y0102528D01*
X0095769Y0114147D01*
X0096966Y0112950D01*
X0098871Y0112950D01*
X0100219Y0114297D01*
X0100219Y0116203D01*
X0099819Y0116603D01*
X0099819Y0120713D01*
X0112456Y0133350D01*
X0127816Y0133350D01*
X0128216Y0132950D01*
X0130121Y0132950D01*
X0131469Y0134297D01*
X0131469Y0136203D01*
X0130121Y0137550D01*
X0128216Y0137550D01*
X0127816Y0137150D01*
X0110882Y0137150D01*
X0109769Y0136037D01*
X0096019Y0122287D01*
X0096019Y0116603D01*
X0095769Y0116353D01*
X0095769Y0150837D01*
X0106244Y0161312D01*
X0106244Y0160547D01*
X0107591Y0159200D01*
X0108169Y0159200D01*
X0108169Y0158800D01*
X0106966Y0158800D01*
X0105619Y0157453D01*
X0105619Y0155547D01*
X0106966Y0154200D01*
X0108169Y0154200D01*
X0108169Y0153800D01*
X0106966Y0153800D01*
X0105619Y0152453D01*
X0105619Y0150547D01*
X0106966Y0149200D01*
X0108871Y0149200D01*
X0109571Y0149900D01*
X0108966Y0149295D02*
X0134111Y0149295D01*
X0135110Y0148296D02*
X0095769Y0148296D01*
X0095769Y0147298D02*
X0136108Y0147298D01*
X0137107Y0146299D02*
X0095769Y0146299D01*
X0095769Y0145301D02*
X0138105Y0145301D01*
X0139104Y0144302D02*
X0095769Y0144302D01*
X0095769Y0143303D02*
X0140102Y0143303D01*
X0141101Y0142305D02*
X0095769Y0142305D01*
X0095769Y0141306D02*
X0142099Y0141306D01*
X0143098Y0140308D02*
X0095769Y0140308D01*
X0095769Y0139309D02*
X0144096Y0139309D01*
X0145095Y0138311D02*
X0095769Y0138311D01*
X0095769Y0137312D02*
X0127978Y0137312D01*
X0130359Y0137312D02*
X0146093Y0137312D01*
X0147092Y0136314D02*
X0131357Y0136314D01*
X0131469Y0135315D02*
X0148090Y0135315D01*
X0149089Y0134317D02*
X0131469Y0134317D01*
X0130490Y0133318D02*
X0150087Y0133318D01*
X0150069Y0133337D02*
X0150069Y0133337D01*
X0152919Y0136500D02*
X0192919Y0136500D01*
X0225419Y0104000D01*
X0227036Y0102365D02*
X0262919Y0102365D01*
X0262919Y0103363D02*
X0230534Y0103363D01*
X0231469Y0104362D02*
X0262919Y0104362D01*
X0262919Y0105360D02*
X0231469Y0105360D01*
X0231313Y0106359D02*
X0262919Y0106359D01*
X0262919Y0107357D02*
X0230314Y0107357D01*
X0228326Y0108356D02*
X0262919Y0108356D01*
X0262919Y0109354D02*
X0227327Y0109354D01*
X0226329Y0110353D02*
X0262919Y0110353D01*
X0262919Y0111351D02*
X0225330Y0111351D01*
X0224332Y0112350D02*
X0262919Y0112350D01*
X0262919Y0113348D02*
X0223333Y0113348D01*
X0225268Y0114347D02*
X0262919Y0114347D01*
X0262919Y0115345D02*
X0226266Y0115345D01*
X0226469Y0116344D02*
X0262919Y0116344D01*
X0262919Y0117342D02*
X0229513Y0117342D01*
X0230219Y0118341D02*
X0262919Y0118341D01*
X0262919Y0119339D02*
X0230219Y0119339D01*
X0229834Y0120338D02*
X0262919Y0120338D01*
X0262919Y0121336D02*
X0228919Y0121336D01*
X0229506Y0122335D02*
X0262919Y0122335D01*
X0262919Y0123333D02*
X0230219Y0123333D01*
X0230219Y0124332D02*
X0262919Y0124332D01*
X0262919Y0125330D02*
X0229841Y0125330D01*
X0227919Y0124000D02*
X0225419Y0124000D01*
X0202919Y0146500D01*
X0157919Y0146500D01*
X0114169Y0190250D01*
X0110419Y0190250D01*
X0108119Y0190234D02*
X0086415Y0190234D01*
X0087413Y0191232D02*
X0108148Y0191232D01*
X0109146Y0192231D02*
X0089402Y0192231D01*
X0090219Y0193229D02*
X0134171Y0193229D01*
X0134161Y0193253D02*
X0134733Y0191872D01*
X0135790Y0190815D01*
X0137171Y0190243D01*
X0138666Y0190243D01*
X0140047Y0190815D01*
X0141104Y0191872D01*
X0141676Y0193253D01*
X0141676Y0194747D01*
X0141104Y0196128D01*
X0140047Y0197185D01*
X0138666Y0197757D01*
X0137171Y0197757D01*
X0135790Y0197185D01*
X0134733Y0196128D01*
X0134161Y0194747D01*
X0134161Y0193253D01*
X0134161Y0194228D02*
X0090219Y0194228D01*
X0089945Y0195226D02*
X0134359Y0195226D01*
X0134829Y0196225D02*
X0088947Y0196225D01*
X0086891Y0196225D02*
X0045419Y0196225D01*
X0045419Y0197223D02*
X0135881Y0197223D01*
X0139956Y0197223D02*
X0145881Y0197223D01*
X0145790Y0197185D02*
X0144733Y0196128D01*
X0144161Y0194747D01*
X0144161Y0193253D01*
X0144733Y0191872D01*
X0145790Y0190815D01*
X0147171Y0190243D01*
X0148666Y0190243D01*
X0150047Y0190815D01*
X0150482Y0191250D01*
X0151019Y0190713D01*
X0151019Y0167853D01*
X0150619Y0167453D01*
X0150619Y0165547D01*
X0151966Y0164200D01*
X0153871Y0164200D01*
X0155219Y0165547D01*
X0155219Y0167453D01*
X0154819Y0167853D01*
X0154819Y0192287D01*
X0153706Y0193400D01*
X0151206Y0195900D01*
X0151199Y0195900D01*
X0151104Y0196128D01*
X0150047Y0197185D01*
X0148666Y0197757D01*
X0147171Y0197757D01*
X0145790Y0197185D01*
X0144829Y0196225D02*
X0141008Y0196225D01*
X0141478Y0195226D02*
X0144359Y0195226D01*
X0144161Y0194228D02*
X0141676Y0194228D01*
X0141666Y0193229D02*
X0144171Y0193229D01*
X0144584Y0192231D02*
X0141253Y0192231D01*
X0140465Y0191232D02*
X0145373Y0191232D01*
X0150465Y0191232D02*
X0150500Y0191232D01*
X0151019Y0190234D02*
X0116448Y0190234D01*
X0115449Y0191232D02*
X0135373Y0191232D01*
X0134584Y0192231D02*
X0111691Y0192231D01*
X0111658Y0188237D02*
X0113919Y0188237D01*
X0114918Y0187238D02*
X0083419Y0187238D01*
X0082421Y0186239D02*
X0115916Y0186239D01*
X0116915Y0185241D02*
X0081422Y0185241D01*
X0080424Y0184242D02*
X0117913Y0184242D01*
X0118912Y0183244D02*
X0079519Y0183244D01*
X0079519Y0182245D02*
X0119910Y0182245D01*
X0120909Y0181247D02*
X0079519Y0181247D01*
X0079519Y0180248D02*
X0121907Y0180248D01*
X0122906Y0179250D02*
X0079519Y0179250D01*
X0079519Y0178251D02*
X0123904Y0178251D01*
X0124903Y0177253D02*
X0079519Y0177253D01*
X0079519Y0176254D02*
X0125901Y0176254D01*
X0126900Y0175256D02*
X0079519Y0175256D01*
X0079519Y0174257D02*
X0127899Y0174257D01*
X0128897Y0173259D02*
X0079519Y0173259D01*
X0079519Y0172260D02*
X0124176Y0172260D01*
X0123178Y0171262D02*
X0079519Y0171262D01*
X0079519Y0170263D02*
X0123119Y0170263D01*
X0123151Y0169265D02*
X0083406Y0169265D01*
X0083969Y0168266D02*
X0111432Y0168266D01*
X0112860Y0166559D02*
X0112919Y0166500D01*
X0130419Y0166500D01*
X0155419Y0141500D01*
X0197919Y0141500D01*
X0222919Y0116500D01*
X0224169Y0116500D01*
X0225419Y0119000D02*
X0227919Y0119000D01*
X0225419Y0119000D02*
X0200419Y0144000D01*
X0156669Y0144000D01*
X0130419Y0170250D01*
X0125419Y0170250D01*
X0124150Y0168266D02*
X0114405Y0168266D01*
X0112860Y0166559D02*
X0109228Y0166559D01*
X0094169Y0151500D01*
X0094169Y0100875D01*
X0092422Y0099369D02*
X0087019Y0099369D01*
X0087019Y0098370D02*
X0087161Y0098370D01*
X0087019Y0100368D02*
X0091869Y0100368D01*
X0091869Y0101366D02*
X0087019Y0101366D01*
X0087019Y0102365D02*
X0092405Y0102365D01*
X0092569Y0103363D02*
X0087019Y0103363D01*
X0087019Y0104362D02*
X0092569Y0104362D01*
X0092569Y0105360D02*
X0087019Y0105360D01*
X0087019Y0106359D02*
X0092569Y0106359D01*
X0092569Y0107357D02*
X0087019Y0107357D01*
X0087019Y0108356D02*
X0092569Y0108356D01*
X0092569Y0109354D02*
X0087019Y0109354D01*
X0087019Y0110353D02*
X0092569Y0110353D01*
X0092569Y0111351D02*
X0087019Y0111351D01*
X0087019Y0112350D02*
X0092569Y0112350D01*
X0092569Y0113348D02*
X0087019Y0113348D01*
X0087019Y0114347D02*
X0092569Y0114347D01*
X0092569Y0115345D02*
X0087019Y0115345D01*
X0087019Y0116344D02*
X0092569Y0116344D01*
X0092569Y0117342D02*
X0087019Y0117342D01*
X0087019Y0118341D02*
X0092569Y0118341D01*
X0092569Y0119339D02*
X0087019Y0119339D01*
X0087019Y0120338D02*
X0092569Y0120338D01*
X0092569Y0121336D02*
X0087019Y0121336D01*
X0087019Y0122335D02*
X0092569Y0122335D01*
X0092569Y0123333D02*
X0087019Y0123333D01*
X0087019Y0124332D02*
X0092569Y0124332D01*
X0092569Y0125330D02*
X0087019Y0125330D01*
X0087250Y0126329D02*
X0092569Y0126329D01*
X0092569Y0127327D02*
X0087719Y0127327D01*
X0087719Y0128326D02*
X0092569Y0128326D01*
X0092569Y0129324D02*
X0087097Y0129324D01*
X0085419Y0127750D02*
X0085419Y0095250D01*
X0092294Y0088375D01*
X0107919Y0088375D01*
X0110219Y0088385D02*
X0182520Y0088385D01*
X0181522Y0089384D02*
X0110162Y0089384D01*
X0110183Y0087387D02*
X0110553Y0087387D01*
X0112784Y0087387D02*
X0183519Y0087387D01*
X0184518Y0086388D02*
X0113783Y0086388D01*
X0113969Y0085390D02*
X0185516Y0085390D01*
X0186515Y0084391D02*
X0113969Y0084391D01*
X0113064Y0083393D02*
X0187513Y0083393D01*
X0188512Y0082394D02*
X0104711Y0082394D01*
X0103919Y0083393D02*
X0110273Y0083393D01*
X0111669Y0085250D02*
X0090419Y0085250D01*
X0083544Y0092125D01*
X0083544Y0097125D01*
X0081669Y0099000D01*
X0081669Y0167750D01*
X0079931Y0169265D02*
X0079519Y0169265D01*
X0083441Y0166269D02*
X0106675Y0166269D01*
X0105677Y0165271D02*
X0083269Y0165271D01*
X0083269Y0164272D02*
X0104678Y0164272D01*
X0103680Y0163274D02*
X0083269Y0163274D01*
X0083269Y0162275D02*
X0102681Y0162275D01*
X0101683Y0161277D02*
X0083269Y0161277D01*
X0083269Y0160278D02*
X0100684Y0160278D01*
X0099686Y0159280D02*
X0083269Y0159280D01*
X0083269Y0158281D02*
X0098687Y0158281D01*
X0097689Y0157283D02*
X0083269Y0157283D01*
X0083269Y0156284D02*
X0096690Y0156284D01*
X0095691Y0155286D02*
X0083269Y0155286D01*
X0083269Y0154287D02*
X0094693Y0154287D01*
X0093694Y0153289D02*
X0083269Y0153289D01*
X0083269Y0152290D02*
X0092696Y0152290D01*
X0092569Y0151292D02*
X0083269Y0151292D01*
X0083269Y0150293D02*
X0092569Y0150293D01*
X0092569Y0149295D02*
X0083269Y0149295D01*
X0083269Y0148296D02*
X0092569Y0148296D01*
X0092569Y0147298D02*
X0083269Y0147298D01*
X0083269Y0146299D02*
X0092569Y0146299D01*
X0092569Y0145301D02*
X0083269Y0145301D01*
X0083269Y0144302D02*
X0092569Y0144302D01*
X0092569Y0143303D02*
X0083269Y0143303D01*
X0083269Y0142305D02*
X0092569Y0142305D01*
X0092569Y0141306D02*
X0083269Y0141306D01*
X0083269Y0140308D02*
X0092569Y0140308D01*
X0092569Y0139309D02*
X0083269Y0139309D01*
X0083269Y0138311D02*
X0092569Y0138311D01*
X0092569Y0137312D02*
X0083269Y0137312D01*
X0083269Y0136314D02*
X0092569Y0136314D01*
X0092569Y0135315D02*
X0083269Y0135315D01*
X0083269Y0134317D02*
X0092569Y0134317D01*
X0092569Y0133318D02*
X0083269Y0133318D01*
X0083269Y0132320D02*
X0092569Y0132320D01*
X0092569Y0131321D02*
X0083269Y0131321D01*
X0083269Y0130323D02*
X0092569Y0130323D01*
X0095769Y0130323D02*
X0104054Y0130323D01*
X0103056Y0129324D02*
X0095769Y0129324D01*
X0095769Y0128326D02*
X0102057Y0128326D01*
X0101059Y0127327D02*
X0095769Y0127327D01*
X0095769Y0126329D02*
X0100060Y0126329D01*
X0099062Y0125330D02*
X0095769Y0125330D01*
X0095769Y0124332D02*
X0098063Y0124332D01*
X0097065Y0123333D02*
X0095769Y0123333D01*
X0095769Y0122335D02*
X0096066Y0122335D01*
X0096019Y0121336D02*
X0095769Y0121336D01*
X0095769Y0120338D02*
X0096019Y0120338D01*
X0096019Y0119339D02*
X0095769Y0119339D01*
X0095769Y0118341D02*
X0096019Y0118341D01*
X0096019Y0117342D02*
X0095769Y0117342D01*
X0095769Y0113348D02*
X0096568Y0113348D01*
X0095769Y0112350D02*
X0108132Y0112350D01*
X0107133Y0113348D02*
X0099269Y0113348D01*
X0100219Y0114347D02*
X0105569Y0114347D01*
X0104571Y0115345D02*
X0100219Y0115345D01*
X0100078Y0116344D02*
X0104369Y0116344D01*
X0104369Y0117342D02*
X0099819Y0117342D01*
X0099819Y0118341D02*
X0105257Y0118341D01*
X0108081Y0118341D02*
X0136315Y0118341D01*
X0135317Y0119339D02*
X0099819Y0119339D01*
X0099819Y0120338D02*
X0134318Y0120338D01*
X0134794Y0122125D02*
X0133544Y0123375D01*
X0132919Y0123375D01*
X0134794Y0122125D02*
X0147919Y0109000D01*
X0206669Y0109000D01*
X0226669Y0089000D01*
X0226669Y0062125D01*
X0228544Y0060250D01*
X0234169Y0062750D02*
X0234169Y0044000D01*
X0229169Y0039000D01*
X0195419Y0039000D01*
X0190248Y0032469D02*
X0262919Y0032469D01*
X0262919Y0033467D02*
X0184619Y0033467D01*
X0184619Y0032469D02*
X0185589Y0032469D01*
X0184619Y0034466D02*
X0262919Y0034466D01*
X0262919Y0035464D02*
X0184619Y0035464D01*
X0191247Y0031470D02*
X0262919Y0031470D01*
X0262919Y0030472D02*
X0192019Y0030472D01*
X0192019Y0029473D02*
X0262919Y0029473D01*
X0262919Y0028475D02*
X0192019Y0028475D01*
X0192019Y0027476D02*
X0262919Y0027476D01*
X0262919Y0026478D02*
X0191195Y0026478D01*
X0190196Y0025479D02*
X0262919Y0025479D01*
X0262919Y0024481D02*
X0184619Y0024481D01*
X0184619Y0025479D02*
X0185641Y0025479D01*
X0184643Y0026478D02*
X0184619Y0026478D01*
X0184619Y0023482D02*
X0262919Y0023482D01*
X0262919Y0022484D02*
X0224327Y0022484D01*
X0223666Y0022757D02*
X0222171Y0022757D01*
X0220790Y0022185D01*
X0219733Y0021128D01*
X0219161Y0019747D01*
X0219161Y0018253D01*
X0219733Y0016872D01*
X0220790Y0015815D01*
X0222171Y0015243D01*
X0223666Y0015243D01*
X0225047Y0015815D01*
X0226104Y0016872D01*
X0226676Y0018253D01*
X0226676Y0019747D01*
X0226104Y0021128D01*
X0225047Y0022185D01*
X0223666Y0022757D01*
X0221510Y0022484D02*
X0214327Y0022484D01*
X0213666Y0022757D02*
X0212171Y0022757D01*
X0210790Y0022185D01*
X0209733Y0021128D01*
X0209161Y0019747D01*
X0209161Y0018253D01*
X0209733Y0016872D01*
X0210790Y0015815D01*
X0212171Y0015243D01*
X0213666Y0015243D01*
X0215047Y0015815D01*
X0216104Y0016872D01*
X0216676Y0018253D01*
X0216676Y0019747D01*
X0216104Y0021128D01*
X0215047Y0022185D01*
X0213666Y0022757D01*
X0211510Y0022484D02*
X0190233Y0022484D01*
X0189617Y0023100D02*
X0186220Y0023100D01*
X0183819Y0020698D01*
X0183819Y0017302D01*
X0186220Y0014900D01*
X0189617Y0014900D01*
X0192019Y0017302D01*
X0192019Y0020698D01*
X0189617Y0023100D01*
X0191232Y0021485D02*
X0210090Y0021485D01*
X0209467Y0020487D02*
X0192019Y0020487D01*
X0192019Y0019488D02*
X0209161Y0019488D01*
X0209161Y0018490D02*
X0192019Y0018490D01*
X0192019Y0017491D02*
X0209477Y0017491D01*
X0210112Y0016493D02*
X0191209Y0016493D01*
X0190211Y0015494D02*
X0211564Y0015494D01*
X0214273Y0015494D02*
X0221564Y0015494D01*
X0220112Y0016493D02*
X0215725Y0016493D01*
X0216361Y0017491D02*
X0219477Y0017491D01*
X0219161Y0018490D02*
X0216676Y0018490D01*
X0216676Y0019488D02*
X0219161Y0019488D01*
X0219467Y0020487D02*
X0216370Y0020487D01*
X0215747Y0021485D02*
X0220090Y0021485D01*
X0225747Y0021485D02*
X0262919Y0021485D01*
X0262919Y0020487D02*
X0226370Y0020487D01*
X0226676Y0019488D02*
X0262919Y0019488D01*
X0262919Y0018490D02*
X0226676Y0018490D01*
X0226361Y0017491D02*
X0262919Y0017491D01*
X0262919Y0016493D02*
X0225725Y0016493D01*
X0224273Y0015494D02*
X0262919Y0015494D01*
X0262919Y0014496D02*
X0025504Y0014496D01*
X0021675Y0017491D02*
X0071665Y0017491D01*
X0071935Y0017403D02*
X0071306Y0017608D01*
X0070717Y0017908D01*
X0070182Y0018296D01*
X0069715Y0018764D01*
X0069326Y0019299D01*
X0069026Y0019888D01*
X0068822Y0020516D01*
X0068730Y0021100D01*
X0072519Y0021100D01*
X0073319Y0021100D01*
X0073319Y0021900D01*
X0077108Y0021900D01*
X0077015Y0022484D01*
X0099672Y0022484D01*
X0098674Y0023482D02*
X0076622Y0023482D01*
X0076511Y0023701D02*
X0076122Y0024236D01*
X0075655Y0024704D01*
X0075120Y0025092D01*
X0074531Y0025392D01*
X0073902Y0025597D01*
X0073319Y0025689D01*
X0073319Y0021900D01*
X0072519Y0021900D01*
X0072519Y0025689D01*
X0071935Y0025597D01*
X0071306Y0025392D01*
X0070717Y0025092D01*
X0070182Y0024704D01*
X0069715Y0024236D01*
X0069326Y0023701D01*
X0069026Y0023112D01*
X0068822Y0022484D01*
X0020419Y0022484D01*
X0020419Y0023482D02*
X0069215Y0023482D01*
X0068822Y0022484D02*
X0068730Y0021900D01*
X0072519Y0021900D01*
X0072519Y0021100D01*
X0072519Y0017311D01*
X0071935Y0017403D01*
X0072519Y0017491D02*
X0073319Y0017491D01*
X0073319Y0017311D02*
X0073902Y0017403D01*
X0074531Y0017608D01*
X0075120Y0017908D01*
X0075655Y0018296D01*
X0076122Y0018764D01*
X0076511Y0019299D01*
X0076811Y0019888D01*
X0077015Y0020516D01*
X0077108Y0021100D01*
X0073319Y0021100D01*
X0073319Y0017311D01*
X0074172Y0017491D02*
X0103819Y0017491D01*
X0103666Y0018490D02*
X0075848Y0018490D01*
X0076607Y0019488D02*
X0102668Y0019488D01*
X0101669Y0020487D02*
X0077005Y0020487D01*
X0077015Y0022484D02*
X0076811Y0023112D01*
X0076511Y0023701D01*
X0075878Y0024481D02*
X0097675Y0024481D01*
X0096677Y0025479D02*
X0074263Y0025479D01*
X0073319Y0025479D02*
X0072519Y0025479D01*
X0071574Y0025479D02*
X0020419Y0025479D01*
X0020419Y0024481D02*
X0069960Y0024481D01*
X0072519Y0024481D02*
X0073319Y0024481D01*
X0073319Y0023482D02*
X0072519Y0023482D01*
X0072519Y0022484D02*
X0073319Y0022484D01*
X0073319Y0021485D02*
X0100671Y0021485D01*
X0105419Y0019000D02*
X0107919Y0019000D01*
X0105419Y0019000D02*
X0094169Y0030250D01*
X0094169Y0065250D01*
X0075419Y0084000D01*
X0075419Y0187750D01*
X0077919Y0190250D01*
X0080219Y0190234D02*
X0081889Y0190234D01*
X0082888Y0191232D02*
X0080189Y0191232D01*
X0079191Y0192231D02*
X0083886Y0192231D01*
X0084885Y0193229D02*
X0045419Y0193229D01*
X0045419Y0192231D02*
X0076646Y0192231D01*
X0075648Y0191232D02*
X0045419Y0191232D01*
X0045419Y0190234D02*
X0075619Y0190234D01*
X0074641Y0189235D02*
X0045419Y0189235D01*
X0045419Y0188237D02*
X0073819Y0188237D01*
X0073819Y0187238D02*
X0045419Y0187238D01*
X0045419Y0186239D02*
X0073819Y0186239D01*
X0073819Y0185241D02*
X0045419Y0185241D01*
X0045419Y0184242D02*
X0073819Y0184242D01*
X0073819Y0183244D02*
X0045419Y0183244D01*
X0045419Y0182245D02*
X0073819Y0182245D01*
X0073819Y0181247D02*
X0045419Y0181247D01*
X0045419Y0180248D02*
X0073819Y0180248D01*
X0073819Y0179250D02*
X0045419Y0179250D01*
X0045419Y0178251D02*
X0061417Y0178251D01*
X0061966Y0178800D02*
X0060619Y0177453D01*
X0060619Y0175547D01*
X0061319Y0174847D01*
X0061319Y0083337D01*
X0073119Y0071537D01*
X0073119Y0070547D01*
X0074466Y0069200D01*
X0076371Y0069200D01*
X0077719Y0070547D01*
X0077719Y0072453D01*
X0076371Y0073800D01*
X0075381Y0073800D01*
X0064519Y0084663D01*
X0064519Y0174847D01*
X0065219Y0175547D01*
X0065219Y0177453D01*
X0063871Y0178800D01*
X0061966Y0178800D01*
X0060619Y0177253D02*
X0045419Y0177253D01*
X0045419Y0176254D02*
X0060619Y0176254D01*
X0060910Y0175256D02*
X0045419Y0175256D01*
X0045419Y0174257D02*
X0061319Y0174257D01*
X0061319Y0173259D02*
X0045419Y0173259D01*
X0045419Y0172260D02*
X0061319Y0172260D01*
X0061319Y0171262D02*
X0045419Y0171262D01*
X0045419Y0170263D02*
X0061319Y0170263D01*
X0061319Y0169265D02*
X0045419Y0169265D01*
X0045419Y0168266D02*
X0061319Y0168266D01*
X0061319Y0167268D02*
X0045419Y0167268D01*
X0045419Y0166269D02*
X0061319Y0166269D01*
X0061319Y0165271D02*
X0045419Y0165271D01*
X0045419Y0164272D02*
X0061319Y0164272D01*
X0061319Y0163274D02*
X0045419Y0163274D01*
X0045419Y0162275D02*
X0061319Y0162275D01*
X0061319Y0161277D02*
X0045419Y0161277D01*
X0045419Y0160278D02*
X0061319Y0160278D01*
X0061319Y0159280D02*
X0045419Y0159280D01*
X0045419Y0158281D02*
X0061319Y0158281D01*
X0061319Y0157283D02*
X0045419Y0157283D01*
X0045419Y0156284D02*
X0061319Y0156284D01*
X0061319Y0155286D02*
X0045419Y0155286D01*
X0045419Y0154287D02*
X0061319Y0154287D01*
X0061319Y0153289D02*
X0045419Y0153289D01*
X0045419Y0152290D02*
X0061319Y0152290D01*
X0061319Y0151292D02*
X0045419Y0151292D01*
X0045419Y0150293D02*
X0061319Y0150293D01*
X0061319Y0149295D02*
X0045419Y0149295D01*
X0045419Y0148296D02*
X0061319Y0148296D01*
X0061319Y0147298D02*
X0045419Y0147298D01*
X0045419Y0146299D02*
X0061319Y0146299D01*
X0061319Y0145301D02*
X0045419Y0145301D01*
X0045419Y0144302D02*
X0061319Y0144302D01*
X0061319Y0143303D02*
X0045419Y0143303D01*
X0045419Y0142305D02*
X0061319Y0142305D01*
X0061319Y0141306D02*
X0045419Y0141306D01*
X0045419Y0140308D02*
X0061319Y0140308D01*
X0061319Y0139309D02*
X0045419Y0139309D01*
X0045419Y0138311D02*
X0061319Y0138311D01*
X0061319Y0137312D02*
X0045419Y0137312D01*
X0045419Y0136314D02*
X0061319Y0136314D01*
X0061319Y0135315D02*
X0045419Y0135315D01*
X0045419Y0134317D02*
X0061319Y0134317D01*
X0061319Y0133318D02*
X0045419Y0133318D01*
X0045419Y0132320D02*
X0061319Y0132320D01*
X0061319Y0131321D02*
X0045419Y0131321D01*
X0045419Y0130323D02*
X0061319Y0130323D01*
X0061319Y0129324D02*
X0045419Y0129324D01*
X0045419Y0128326D02*
X0061319Y0128326D01*
X0061319Y0127327D02*
X0045419Y0127327D01*
X0045419Y0126329D02*
X0061319Y0126329D01*
X0061319Y0125330D02*
X0045419Y0125330D01*
X0045419Y0124332D02*
X0061319Y0124332D01*
X0061319Y0123333D02*
X0045419Y0123333D01*
X0045419Y0122335D02*
X0061319Y0122335D01*
X0061319Y0121336D02*
X0045419Y0121336D01*
X0045419Y0120338D02*
X0061319Y0120338D01*
X0061319Y0119339D02*
X0045419Y0119339D01*
X0045419Y0118341D02*
X0061319Y0118341D01*
X0061319Y0117342D02*
X0045419Y0117342D01*
X0045419Y0116344D02*
X0061319Y0116344D01*
X0061319Y0115345D02*
X0045419Y0115345D01*
X0045419Y0114347D02*
X0061319Y0114347D01*
X0061319Y0113348D02*
X0045419Y0113348D01*
X0045419Y0112350D02*
X0061319Y0112350D01*
X0061319Y0111351D02*
X0045419Y0111351D01*
X0045419Y0110353D02*
X0061319Y0110353D01*
X0061319Y0109354D02*
X0045419Y0109354D01*
X0045419Y0108356D02*
X0061319Y0108356D01*
X0061319Y0107357D02*
X0045419Y0107357D01*
X0061319Y0106359D02*
X0020419Y0106359D01*
X0020419Y0105360D02*
X0061319Y0105360D01*
X0061319Y0104362D02*
X0020419Y0104362D01*
X0020419Y0103363D02*
X0061319Y0103363D01*
X0061319Y0102365D02*
X0020419Y0102365D01*
X0020419Y0101366D02*
X0061319Y0101366D01*
X0061319Y0100368D02*
X0020419Y0100368D01*
X0020419Y0099369D02*
X0061319Y0099369D01*
X0061319Y0098370D02*
X0020419Y0098370D01*
X0020419Y0097372D02*
X0061319Y0097372D01*
X0061319Y0096373D02*
X0020419Y0096373D01*
X0020419Y0095375D02*
X0061319Y0095375D01*
X0061319Y0094376D02*
X0020419Y0094376D01*
X0020419Y0093378D02*
X0061319Y0093378D01*
X0061319Y0092379D02*
X0020419Y0092379D01*
X0020419Y0091381D02*
X0061319Y0091381D01*
X0061319Y0090382D02*
X0020419Y0090382D01*
X0020419Y0089384D02*
X0061319Y0089384D01*
X0061319Y0088385D02*
X0020419Y0088385D01*
X0020419Y0087387D02*
X0061319Y0087387D01*
X0061319Y0086388D02*
X0020419Y0086388D01*
X0020419Y0085390D02*
X0061319Y0085390D01*
X0061319Y0084391D02*
X0020419Y0084391D01*
X0020419Y0083393D02*
X0061319Y0083393D01*
X0062262Y0082394D02*
X0020419Y0082394D01*
X0020419Y0081396D02*
X0063260Y0081396D01*
X0064259Y0080397D02*
X0020419Y0080397D01*
X0020419Y0079399D02*
X0065257Y0079399D01*
X0066256Y0078400D02*
X0020419Y0078400D01*
X0020419Y0077402D02*
X0067254Y0077402D01*
X0068253Y0076403D02*
X0020419Y0076403D01*
X0020419Y0075405D02*
X0069251Y0075405D01*
X0070250Y0074406D02*
X0020419Y0074406D01*
X0020419Y0073408D02*
X0071248Y0073408D01*
X0072247Y0072409D02*
X0020419Y0072409D01*
X0020419Y0071411D02*
X0073119Y0071411D01*
X0073254Y0070412D02*
X0020419Y0070412D01*
X0020419Y0069414D02*
X0074252Y0069414D01*
X0076585Y0069414D02*
X0082742Y0069414D01*
X0081744Y0070412D02*
X0077583Y0070412D01*
X0077719Y0071411D02*
X0080745Y0071411D01*
X0079747Y0072409D02*
X0077719Y0072409D01*
X0076764Y0073408D02*
X0078748Y0073408D01*
X0077750Y0074406D02*
X0074775Y0074406D01*
X0073777Y0075405D02*
X0076751Y0075405D01*
X0075753Y0076403D02*
X0072778Y0076403D01*
X0071780Y0077402D02*
X0074754Y0077402D01*
X0073756Y0078400D02*
X0070781Y0078400D01*
X0069783Y0079399D02*
X0072757Y0079399D01*
X0071759Y0080397D02*
X0068784Y0080397D01*
X0067786Y0081396D02*
X0070760Y0081396D01*
X0069762Y0082394D02*
X0066787Y0082394D01*
X0065789Y0083393D02*
X0068763Y0083393D01*
X0067765Y0084391D02*
X0064790Y0084391D01*
X0064519Y0085390D02*
X0066766Y0085390D01*
X0066319Y0085837D02*
X0088819Y0063337D01*
X0088819Y0047550D01*
X0088216Y0047550D01*
X0086869Y0046203D01*
X0086869Y0044297D01*
X0088216Y0042950D01*
X0090121Y0042950D01*
X0091469Y0044297D01*
X0091469Y0045287D01*
X0092019Y0045837D01*
X0092019Y0064663D01*
X0091081Y0065600D01*
X0069519Y0087163D01*
X0069519Y0169847D01*
X0070219Y0170547D01*
X0070219Y0172453D01*
X0068871Y0173800D01*
X0066966Y0173800D01*
X0065619Y0172453D01*
X0065619Y0170547D01*
X0066319Y0169847D01*
X0066319Y0085837D01*
X0066319Y0086388D02*
X0064519Y0086388D01*
X0064519Y0087387D02*
X0066319Y0087387D01*
X0066319Y0088385D02*
X0064519Y0088385D01*
X0064519Y0089384D02*
X0066319Y0089384D01*
X0066319Y0090382D02*
X0064519Y0090382D01*
X0064519Y0091381D02*
X0066319Y0091381D01*
X0066319Y0092379D02*
X0064519Y0092379D01*
X0064519Y0093378D02*
X0066319Y0093378D01*
X0066319Y0094376D02*
X0064519Y0094376D01*
X0064519Y0095375D02*
X0066319Y0095375D01*
X0066319Y0096373D02*
X0064519Y0096373D01*
X0064519Y0097372D02*
X0066319Y0097372D01*
X0066319Y0098370D02*
X0064519Y0098370D01*
X0064519Y0099369D02*
X0066319Y0099369D01*
X0066319Y0100368D02*
X0064519Y0100368D01*
X0064519Y0101366D02*
X0066319Y0101366D01*
X0066319Y0102365D02*
X0064519Y0102365D01*
X0064519Y0103363D02*
X0066319Y0103363D01*
X0066319Y0104362D02*
X0064519Y0104362D01*
X0064519Y0105360D02*
X0066319Y0105360D01*
X0066319Y0106359D02*
X0064519Y0106359D01*
X0064519Y0107357D02*
X0066319Y0107357D01*
X0066319Y0108356D02*
X0064519Y0108356D01*
X0064519Y0109354D02*
X0066319Y0109354D01*
X0066319Y0110353D02*
X0064519Y0110353D01*
X0064519Y0111351D02*
X0066319Y0111351D01*
X0066319Y0112350D02*
X0064519Y0112350D01*
X0064519Y0113348D02*
X0066319Y0113348D01*
X0066319Y0114347D02*
X0064519Y0114347D01*
X0064519Y0115345D02*
X0066319Y0115345D01*
X0066319Y0116344D02*
X0064519Y0116344D01*
X0064519Y0117342D02*
X0066319Y0117342D01*
X0066319Y0118341D02*
X0064519Y0118341D01*
X0064519Y0119339D02*
X0066319Y0119339D01*
X0066319Y0120338D02*
X0064519Y0120338D01*
X0064519Y0121336D02*
X0066319Y0121336D01*
X0066319Y0122335D02*
X0064519Y0122335D01*
X0064519Y0123333D02*
X0066319Y0123333D01*
X0066319Y0124332D02*
X0064519Y0124332D01*
X0064519Y0125330D02*
X0066319Y0125330D01*
X0066319Y0126329D02*
X0064519Y0126329D01*
X0064519Y0127327D02*
X0066319Y0127327D01*
X0066319Y0128326D02*
X0064519Y0128326D01*
X0064519Y0129324D02*
X0066319Y0129324D01*
X0066319Y0130323D02*
X0064519Y0130323D01*
X0064519Y0131321D02*
X0066319Y0131321D01*
X0066319Y0132320D02*
X0064519Y0132320D01*
X0064519Y0133318D02*
X0066319Y0133318D01*
X0066319Y0134317D02*
X0064519Y0134317D01*
X0064519Y0135315D02*
X0066319Y0135315D01*
X0066319Y0136314D02*
X0064519Y0136314D01*
X0064519Y0137312D02*
X0066319Y0137312D01*
X0066319Y0138311D02*
X0064519Y0138311D01*
X0064519Y0139309D02*
X0066319Y0139309D01*
X0066319Y0140308D02*
X0064519Y0140308D01*
X0064519Y0141306D02*
X0066319Y0141306D01*
X0066319Y0142305D02*
X0064519Y0142305D01*
X0064519Y0143303D02*
X0066319Y0143303D01*
X0066319Y0144302D02*
X0064519Y0144302D01*
X0064519Y0145301D02*
X0066319Y0145301D01*
X0066319Y0146299D02*
X0064519Y0146299D01*
X0064519Y0147298D02*
X0066319Y0147298D01*
X0066319Y0148296D02*
X0064519Y0148296D01*
X0064519Y0149295D02*
X0066319Y0149295D01*
X0066319Y0150293D02*
X0064519Y0150293D01*
X0064519Y0151292D02*
X0066319Y0151292D01*
X0066319Y0152290D02*
X0064519Y0152290D01*
X0064519Y0153289D02*
X0066319Y0153289D01*
X0066319Y0154287D02*
X0064519Y0154287D01*
X0064519Y0155286D02*
X0066319Y0155286D01*
X0066319Y0156284D02*
X0064519Y0156284D01*
X0064519Y0157283D02*
X0066319Y0157283D01*
X0066319Y0158281D02*
X0064519Y0158281D01*
X0064519Y0159280D02*
X0066319Y0159280D01*
X0066319Y0160278D02*
X0064519Y0160278D01*
X0064519Y0161277D02*
X0066319Y0161277D01*
X0066319Y0162275D02*
X0064519Y0162275D01*
X0064519Y0163274D02*
X0066319Y0163274D01*
X0066319Y0164272D02*
X0064519Y0164272D01*
X0064519Y0165271D02*
X0066319Y0165271D01*
X0066319Y0166269D02*
X0064519Y0166269D01*
X0064519Y0167268D02*
X0066319Y0167268D01*
X0066319Y0168266D02*
X0064519Y0168266D01*
X0064519Y0169265D02*
X0066319Y0169265D01*
X0065903Y0170263D02*
X0064519Y0170263D01*
X0064519Y0171262D02*
X0065619Y0171262D01*
X0065619Y0172260D02*
X0064519Y0172260D01*
X0064519Y0173259D02*
X0066425Y0173259D01*
X0064519Y0174257D02*
X0073819Y0174257D01*
X0073819Y0173259D02*
X0069412Y0173259D01*
X0070219Y0172260D02*
X0073819Y0172260D01*
X0073819Y0171262D02*
X0070219Y0171262D01*
X0069935Y0170263D02*
X0073819Y0170263D01*
X0073819Y0169265D02*
X0069519Y0169265D01*
X0069519Y0168266D02*
X0073819Y0168266D01*
X0073819Y0167268D02*
X0069519Y0167268D01*
X0069519Y0166269D02*
X0073819Y0166269D01*
X0073819Y0165271D02*
X0069519Y0165271D01*
X0069519Y0164272D02*
X0073819Y0164272D01*
X0073819Y0163274D02*
X0069519Y0163274D01*
X0069519Y0162275D02*
X0073819Y0162275D01*
X0073819Y0161277D02*
X0069519Y0161277D01*
X0069519Y0160278D02*
X0073819Y0160278D01*
X0073819Y0159280D02*
X0069519Y0159280D01*
X0069519Y0158281D02*
X0073819Y0158281D01*
X0073819Y0157283D02*
X0069519Y0157283D01*
X0069519Y0156284D02*
X0073819Y0156284D01*
X0073819Y0155286D02*
X0069519Y0155286D01*
X0069519Y0154287D02*
X0073819Y0154287D01*
X0073819Y0153289D02*
X0069519Y0153289D01*
X0069519Y0152290D02*
X0073819Y0152290D01*
X0073819Y0151292D02*
X0069519Y0151292D01*
X0069519Y0150293D02*
X0073819Y0150293D01*
X0073819Y0149295D02*
X0069519Y0149295D01*
X0069519Y0148296D02*
X0073819Y0148296D01*
X0073819Y0147298D02*
X0069519Y0147298D01*
X0069519Y0146299D02*
X0073819Y0146299D01*
X0073819Y0145301D02*
X0069519Y0145301D01*
X0069519Y0144302D02*
X0073819Y0144302D01*
X0073819Y0143303D02*
X0069519Y0143303D01*
X0069519Y0142305D02*
X0073819Y0142305D01*
X0073819Y0141306D02*
X0069519Y0141306D01*
X0069519Y0140308D02*
X0073819Y0140308D01*
X0073819Y0139309D02*
X0069519Y0139309D01*
X0069519Y0138311D02*
X0073819Y0138311D01*
X0073819Y0137312D02*
X0069519Y0137312D01*
X0069519Y0136314D02*
X0073819Y0136314D01*
X0073819Y0135315D02*
X0069519Y0135315D01*
X0069519Y0134317D02*
X0073819Y0134317D01*
X0073819Y0133318D02*
X0069519Y0133318D01*
X0069519Y0132320D02*
X0073819Y0132320D01*
X0073819Y0131321D02*
X0069519Y0131321D01*
X0069519Y0130323D02*
X0073819Y0130323D01*
X0073819Y0129324D02*
X0069519Y0129324D01*
X0069519Y0128326D02*
X0073819Y0128326D01*
X0073819Y0127327D02*
X0069519Y0127327D01*
X0069519Y0126329D02*
X0073819Y0126329D01*
X0073819Y0125330D02*
X0069519Y0125330D01*
X0069519Y0124332D02*
X0073819Y0124332D01*
X0073819Y0123333D02*
X0069519Y0123333D01*
X0069519Y0122335D02*
X0073819Y0122335D01*
X0073819Y0121336D02*
X0069519Y0121336D01*
X0069519Y0120338D02*
X0073819Y0120338D01*
X0073819Y0119339D02*
X0069519Y0119339D01*
X0069519Y0118341D02*
X0073819Y0118341D01*
X0073819Y0117342D02*
X0069519Y0117342D01*
X0069519Y0116344D02*
X0073819Y0116344D01*
X0073819Y0115345D02*
X0069519Y0115345D01*
X0069519Y0114347D02*
X0073819Y0114347D01*
X0073819Y0113348D02*
X0069519Y0113348D01*
X0069519Y0112350D02*
X0073819Y0112350D01*
X0073819Y0111351D02*
X0069519Y0111351D01*
X0069519Y0110353D02*
X0073819Y0110353D01*
X0073819Y0109354D02*
X0069519Y0109354D01*
X0069519Y0108356D02*
X0073819Y0108356D01*
X0073819Y0107357D02*
X0069519Y0107357D01*
X0069519Y0106359D02*
X0073819Y0106359D01*
X0073819Y0105360D02*
X0069519Y0105360D01*
X0069519Y0104362D02*
X0073819Y0104362D01*
X0073819Y0103363D02*
X0069519Y0103363D01*
X0069519Y0102365D02*
X0073819Y0102365D01*
X0073819Y0101366D02*
X0069519Y0101366D01*
X0069519Y0100368D02*
X0073819Y0100368D01*
X0073819Y0099369D02*
X0069519Y0099369D01*
X0069519Y0098370D02*
X0073819Y0098370D01*
X0073819Y0097372D02*
X0069519Y0097372D01*
X0069519Y0096373D02*
X0073819Y0096373D01*
X0073819Y0095375D02*
X0069519Y0095375D01*
X0069519Y0094376D02*
X0073819Y0094376D01*
X0073819Y0093378D02*
X0069519Y0093378D01*
X0069519Y0092379D02*
X0073819Y0092379D01*
X0073819Y0091381D02*
X0069519Y0091381D01*
X0069519Y0090382D02*
X0073819Y0090382D01*
X0073819Y0089384D02*
X0069519Y0089384D01*
X0069519Y0088385D02*
X0073819Y0088385D01*
X0073819Y0087387D02*
X0069519Y0087387D01*
X0070293Y0086388D02*
X0073819Y0086388D01*
X0073819Y0085390D02*
X0071291Y0085390D01*
X0072290Y0084391D02*
X0073819Y0084391D01*
X0073819Y0083393D02*
X0073289Y0083393D01*
X0074287Y0082394D02*
X0074762Y0082394D01*
X0075286Y0081396D02*
X0075760Y0081396D01*
X0076284Y0080397D02*
X0076759Y0080397D01*
X0077283Y0079399D02*
X0077757Y0079399D01*
X0078281Y0078400D02*
X0078756Y0078400D01*
X0079280Y0077402D02*
X0079754Y0077402D01*
X0080278Y0076403D02*
X0080753Y0076403D01*
X0081277Y0075405D02*
X0081751Y0075405D01*
X0082275Y0074406D02*
X0082750Y0074406D01*
X0083274Y0073408D02*
X0083748Y0073408D01*
X0084272Y0072409D02*
X0084747Y0072409D01*
X0085271Y0071411D02*
X0085745Y0071411D01*
X0086269Y0070412D02*
X0086744Y0070412D01*
X0087268Y0069414D02*
X0087742Y0069414D01*
X0088266Y0068415D02*
X0088741Y0068415D01*
X0089265Y0067417D02*
X0089739Y0067417D01*
X0090263Y0066418D02*
X0090738Y0066418D01*
X0091262Y0065420D02*
X0091736Y0065420D01*
X0092019Y0064421D02*
X0092569Y0064421D01*
X0092569Y0063423D02*
X0092019Y0063423D01*
X0092019Y0062424D02*
X0092569Y0062424D01*
X0092569Y0061426D02*
X0092019Y0061426D01*
X0092019Y0060427D02*
X0092569Y0060427D01*
X0092569Y0059429D02*
X0092019Y0059429D01*
X0092019Y0058430D02*
X0092569Y0058430D01*
X0092569Y0057432D02*
X0092019Y0057432D01*
X0092019Y0056433D02*
X0092569Y0056433D01*
X0092569Y0055434D02*
X0092019Y0055434D01*
X0092019Y0054436D02*
X0092569Y0054436D01*
X0092569Y0053437D02*
X0092019Y0053437D01*
X0092019Y0052439D02*
X0092569Y0052439D01*
X0092569Y0051440D02*
X0092019Y0051440D01*
X0092019Y0050442D02*
X0092569Y0050442D01*
X0092569Y0049443D02*
X0092019Y0049443D01*
X0092019Y0048445D02*
X0092569Y0048445D01*
X0092569Y0047446D02*
X0092019Y0047446D01*
X0092019Y0046448D02*
X0092569Y0046448D01*
X0092569Y0045449D02*
X0091631Y0045449D01*
X0091469Y0044451D02*
X0092569Y0044451D01*
X0092569Y0043452D02*
X0090624Y0043452D01*
X0092569Y0042454D02*
X0070875Y0042454D01*
X0071469Y0043047D02*
X0070121Y0041700D01*
X0068216Y0041700D01*
X0066869Y0043047D01*
X0066869Y0044953D01*
X0068216Y0046300D01*
X0069206Y0046300D01*
X0071319Y0048413D01*
X0072256Y0049350D01*
X0078506Y0049350D01*
X0079369Y0050213D01*
X0079369Y0051203D01*
X0080716Y0052550D01*
X0082621Y0052550D01*
X0083969Y0051203D01*
X0083969Y0049297D01*
X0082621Y0047950D01*
X0081631Y0047950D01*
X0079831Y0046150D01*
X0073581Y0046150D01*
X0071469Y0044037D01*
X0071469Y0043047D01*
X0071469Y0043452D02*
X0087714Y0043452D01*
X0086869Y0044451D02*
X0071882Y0044451D01*
X0072881Y0045449D02*
X0086869Y0045449D01*
X0087114Y0046448D02*
X0080129Y0046448D01*
X0081128Y0047446D02*
X0088112Y0047446D01*
X0088819Y0048445D02*
X0083116Y0048445D01*
X0083969Y0049443D02*
X0088819Y0049443D01*
X0088819Y0050442D02*
X0083969Y0050442D01*
X0083731Y0051440D02*
X0088819Y0051440D01*
X0088819Y0052439D02*
X0082732Y0052439D01*
X0080605Y0052439D02*
X0020419Y0052439D01*
X0020419Y0053437D02*
X0088819Y0053437D01*
X0088819Y0054436D02*
X0020419Y0054436D01*
X0020419Y0055434D02*
X0088819Y0055434D01*
X0088819Y0056433D02*
X0020419Y0056433D01*
X0020419Y0057432D02*
X0088819Y0057432D01*
X0088819Y0058430D02*
X0020419Y0058430D01*
X0020419Y0059429D02*
X0088819Y0059429D01*
X0088819Y0060427D02*
X0020419Y0060427D01*
X0020419Y0061426D02*
X0088819Y0061426D01*
X0088819Y0062424D02*
X0020419Y0062424D01*
X0020419Y0063423D02*
X0088733Y0063423D01*
X0087735Y0064421D02*
X0020419Y0064421D01*
X0020419Y0065420D02*
X0086736Y0065420D01*
X0085738Y0066418D02*
X0020419Y0066418D01*
X0020419Y0067417D02*
X0084739Y0067417D01*
X0083741Y0068415D02*
X0020419Y0068415D01*
X0020419Y0051440D02*
X0079606Y0051440D01*
X0079369Y0050442D02*
X0020419Y0050442D01*
X0020419Y0049443D02*
X0078599Y0049443D01*
X0079169Y0047750D02*
X0081669Y0050250D01*
X0079169Y0047750D02*
X0072919Y0047750D01*
X0069169Y0044000D01*
X0067462Y0042454D02*
X0020419Y0042454D01*
X0020419Y0043452D02*
X0066869Y0043452D01*
X0066869Y0044451D02*
X0020419Y0044451D01*
X0020419Y0045449D02*
X0067365Y0045449D01*
X0069354Y0046448D02*
X0020419Y0046448D01*
X0020419Y0047446D02*
X0070352Y0047446D01*
X0071351Y0048445D02*
X0020419Y0048445D01*
X0020419Y0041455D02*
X0092569Y0041455D01*
X0092569Y0040457D02*
X0020419Y0040457D01*
X0020419Y0039458D02*
X0092569Y0039458D01*
X0092569Y0038460D02*
X0020419Y0038460D01*
X0020419Y0037461D02*
X0092569Y0037461D01*
X0092569Y0036463D02*
X0020419Y0036463D01*
X0020419Y0035464D02*
X0092569Y0035464D01*
X0092569Y0034466D02*
X0020419Y0034466D01*
X0020419Y0033467D02*
X0092569Y0033467D01*
X0092569Y0032469D02*
X0020419Y0032469D01*
X0020419Y0031470D02*
X0092569Y0031470D01*
X0092569Y0030472D02*
X0020419Y0030472D01*
X0020419Y0029473D02*
X0092683Y0029473D01*
X0093681Y0028475D02*
X0020419Y0028475D01*
X0020419Y0027476D02*
X0094680Y0027476D01*
X0095678Y0026478D02*
X0020419Y0026478D01*
X0020420Y0021485D02*
X0072519Y0021485D01*
X0072519Y0020487D02*
X0073319Y0020487D01*
X0073319Y0019488D02*
X0072519Y0019488D01*
X0072519Y0018490D02*
X0073319Y0018490D01*
X0069989Y0018490D02*
X0021108Y0018490D01*
X0020783Y0019488D02*
X0069230Y0019488D01*
X0068832Y0020487D02*
X0020498Y0020487D01*
X0089169Y0045250D02*
X0090419Y0046500D01*
X0090419Y0064000D01*
X0067919Y0086500D01*
X0067919Y0171500D01*
X0064927Y0175256D02*
X0073819Y0175256D01*
X0073819Y0176254D02*
X0065219Y0176254D01*
X0065219Y0177253D02*
X0073819Y0177253D01*
X0073819Y0178251D02*
X0064420Y0178251D01*
X0062919Y0176500D02*
X0062919Y0084000D01*
X0075419Y0071500D01*
X0077919Y0086500D02*
X0097919Y0066500D01*
X0097919Y0031500D01*
X0105419Y0024000D01*
X0112919Y0024000D01*
X0113702Y0025479D02*
X0115641Y0025479D01*
X0114643Y0026478D02*
X0111195Y0026478D01*
X0112019Y0027476D02*
X0113819Y0027476D01*
X0113819Y0028475D02*
X0112019Y0028475D01*
X0112019Y0029473D02*
X0113819Y0029473D01*
X0113819Y0030472D02*
X0112019Y0030472D01*
X0111247Y0031470D02*
X0114591Y0031470D01*
X0115589Y0032469D02*
X0110248Y0032469D01*
X0109519Y0033467D02*
X0116319Y0033467D01*
X0116319Y0034466D02*
X0109519Y0034466D01*
X0109519Y0035464D02*
X0115442Y0035464D01*
X0114443Y0036463D02*
X0109519Y0036463D01*
X0109519Y0037461D02*
X0113445Y0037461D01*
X0112446Y0038460D02*
X0109519Y0038460D01*
X0109519Y0039458D02*
X0111448Y0039458D01*
X0110449Y0040457D02*
X0109519Y0040457D01*
X0111669Y0041500D02*
X0111669Y0066500D01*
X0117319Y0066418D02*
X0118866Y0066418D01*
X0118866Y0065420D02*
X0117319Y0065420D01*
X0117662Y0064421D02*
X0118866Y0064421D01*
X0118866Y0063423D02*
X0117669Y0063423D01*
X0117669Y0062424D02*
X0118866Y0062424D01*
X0118866Y0061426D02*
X0117669Y0061426D01*
X0117669Y0060427D02*
X0118866Y0060427D01*
X0118866Y0059429D02*
X0117669Y0059429D01*
X0117669Y0058430D02*
X0118908Y0058430D01*
X0118466Y0057432D02*
X0117669Y0057432D01*
X0117669Y0056433D02*
X0118466Y0056433D01*
X0118466Y0055434D02*
X0117669Y0055434D01*
X0117670Y0054436D02*
X0122419Y0054436D01*
X0122919Y0056500D02*
X0122919Y0061500D01*
X0127294Y0061500D01*
X0128475Y0059429D02*
X0128866Y0059429D01*
X0128908Y0058430D02*
X0126929Y0058430D01*
X0127371Y0057432D02*
X0128466Y0057432D01*
X0128466Y0056433D02*
X0127371Y0056433D01*
X0127371Y0055434D02*
X0128466Y0055434D01*
X0128466Y0053437D02*
X0127371Y0053437D01*
X0127371Y0052439D02*
X0128466Y0052439D01*
X0128700Y0051440D02*
X0127137Y0051440D01*
X0132419Y0051440D02*
X0133419Y0051440D01*
X0133419Y0052439D02*
X0132419Y0052439D01*
X0137137Y0051440D02*
X0138700Y0051440D01*
X0138466Y0052439D02*
X0137371Y0052439D01*
X0137371Y0053437D02*
X0138466Y0053437D01*
X0138466Y0055434D02*
X0137371Y0055434D01*
X0137371Y0056433D02*
X0138466Y0056433D01*
X0138466Y0057432D02*
X0137371Y0057432D01*
X0136929Y0058430D02*
X0138908Y0058430D01*
X0137294Y0060875D02*
X0136669Y0061500D01*
X0132919Y0061500D01*
X0132919Y0056500D01*
X0142919Y0056500D02*
X0142919Y0061500D01*
X0144169Y0061500D01*
X0145419Y0062750D01*
X0147919Y0062750D01*
X0147371Y0053437D02*
X0151219Y0053437D01*
X0151219Y0052439D02*
X0147371Y0052439D01*
X0147137Y0051440D02*
X0151219Y0051440D01*
X0143419Y0051440D02*
X0142419Y0051440D01*
X0142419Y0052439D02*
X0143419Y0052439D01*
X0128272Y0038460D02*
X0116972Y0038460D01*
X0117970Y0037461D02*
X0129270Y0037461D01*
X0130269Y0036463D02*
X0118969Y0036463D01*
X0119519Y0035464D02*
X0131019Y0035464D01*
X0131019Y0034466D02*
X0119519Y0034466D01*
X0119519Y0033467D02*
X0126022Y0033467D01*
X0127419Y0033467D02*
X0128419Y0033467D01*
X0128419Y0032469D02*
X0127419Y0032469D01*
X0127419Y0031470D02*
X0128419Y0031470D01*
X0128419Y0030472D02*
X0127419Y0030472D01*
X0127419Y0029473D02*
X0122019Y0029473D01*
X0122019Y0028475D02*
X0123419Y0028475D01*
X0123419Y0027476D02*
X0122019Y0027476D01*
X0121195Y0026478D02*
X0124077Y0026478D01*
X0125075Y0025479D02*
X0120196Y0025479D01*
X0120233Y0022484D02*
X0125038Y0022484D01*
X0124040Y0021485D02*
X0121232Y0021485D01*
X0122019Y0020487D02*
X0123419Y0020487D01*
X0123419Y0018490D02*
X0122019Y0018490D01*
X0122019Y0017491D02*
X0123419Y0017491D01*
X0124062Y0016493D02*
X0121209Y0016493D01*
X0120211Y0015494D02*
X0125061Y0015494D01*
X0127419Y0025479D02*
X0128419Y0025479D01*
X0128419Y0026478D02*
X0127419Y0026478D01*
X0127419Y0027476D02*
X0128419Y0027476D01*
X0128419Y0028475D02*
X0127419Y0028475D01*
X0123419Y0030472D02*
X0122019Y0030472D01*
X0121247Y0031470D02*
X0124025Y0031470D01*
X0125023Y0032469D02*
X0120248Y0032469D01*
X0117919Y0035250D02*
X0111669Y0041500D01*
X0113269Y0042454D02*
X0124278Y0042454D01*
X0125276Y0041455D02*
X0113976Y0041455D01*
X0114974Y0040457D02*
X0126275Y0040457D01*
X0127273Y0039458D02*
X0115973Y0039458D01*
X0117919Y0035250D02*
X0117919Y0029000D01*
X0107919Y0029000D02*
X0107919Y0071500D01*
X0116693Y0070412D02*
X0118866Y0070412D01*
X0118866Y0069414D02*
X0117319Y0069414D01*
X0117319Y0068415D02*
X0118866Y0068415D01*
X0118866Y0067417D02*
X0117319Y0067417D01*
X0136768Y0071411D02*
X0139069Y0071411D01*
X0138866Y0070412D02*
X0136971Y0070412D01*
X0115291Y0051440D02*
X0114632Y0051440D01*
X0113275Y0050442D02*
X0116290Y0050442D01*
X0117288Y0049443D02*
X0113269Y0049443D01*
X0113269Y0048445D02*
X0118287Y0048445D01*
X0119285Y0047446D02*
X0113269Y0047446D01*
X0113269Y0046448D02*
X0120284Y0046448D01*
X0121282Y0045449D02*
X0113269Y0045449D01*
X0113269Y0044451D02*
X0122281Y0044451D01*
X0123279Y0043452D02*
X0113269Y0043452D01*
X0129815Y0033467D02*
X0131019Y0033467D01*
X0131019Y0032469D02*
X0130814Y0032469D01*
X0160196Y0025479D02*
X0161219Y0025479D01*
X0161195Y0026478D02*
X0161219Y0026478D01*
X0164619Y0026478D02*
X0164643Y0026478D01*
X0164619Y0025479D02*
X0165641Y0025479D01*
X0164619Y0024481D02*
X0170995Y0024481D01*
X0171219Y0025479D02*
X0170196Y0025479D01*
X0171195Y0026478D02*
X0171219Y0026478D01*
X0169997Y0023482D02*
X0164619Y0023482D01*
X0163806Y0022484D02*
X0165604Y0022484D01*
X0164605Y0021485D02*
X0162808Y0021485D01*
X0162019Y0020487D02*
X0163819Y0020487D01*
X0163819Y0019488D02*
X0162019Y0019488D01*
X0162019Y0018490D02*
X0163819Y0018490D01*
X0163819Y0017491D02*
X0162019Y0017491D01*
X0161209Y0016493D02*
X0164628Y0016493D01*
X0165626Y0015494D02*
X0160211Y0015494D01*
X0167919Y0019000D02*
X0168419Y0019500D01*
X0172019Y0019488D02*
X0173819Y0019488D01*
X0173819Y0018490D02*
X0172019Y0018490D01*
X0172019Y0017491D02*
X0173819Y0017491D01*
X0174628Y0016493D02*
X0171209Y0016493D01*
X0170211Y0015494D02*
X0175626Y0015494D01*
X0177919Y0019000D02*
X0178419Y0019500D01*
X0182019Y0019488D02*
X0183819Y0019488D01*
X0183819Y0018490D02*
X0182019Y0018490D01*
X0182019Y0017491D02*
X0183819Y0017491D01*
X0184628Y0016493D02*
X0181209Y0016493D01*
X0180211Y0015494D02*
X0185626Y0015494D01*
X0183819Y0020487D02*
X0182019Y0020487D01*
X0182808Y0021485D02*
X0184605Y0021485D01*
X0183806Y0022484D02*
X0185604Y0022484D01*
X0180995Y0024481D02*
X0174619Y0024481D01*
X0174619Y0025479D02*
X0175641Y0025479D01*
X0174643Y0026478D02*
X0174619Y0026478D01*
X0174619Y0023482D02*
X0179997Y0023482D01*
X0180196Y0025479D02*
X0181219Y0025479D01*
X0181195Y0026478D02*
X0181219Y0026478D01*
X0175604Y0022484D02*
X0173806Y0022484D01*
X0174605Y0021485D02*
X0172808Y0021485D01*
X0172019Y0020487D02*
X0173819Y0020487D01*
X0184619Y0052439D02*
X0189369Y0052439D01*
X0190353Y0053437D02*
X0184619Y0053437D01*
X0214028Y0076403D02*
X0225069Y0076403D01*
X0225069Y0075405D02*
X0215027Y0075405D01*
X0216025Y0074406D02*
X0225069Y0074406D01*
X0225069Y0073408D02*
X0217024Y0073408D01*
X0218022Y0072409D02*
X0221825Y0072409D01*
X0224012Y0072409D02*
X0225069Y0072409D01*
X0225069Y0071411D02*
X0225011Y0071411D01*
X0222919Y0070250D02*
X0217919Y0070250D01*
X0186669Y0101500D01*
X0110419Y0101500D01*
X0108119Y0101366D02*
X0096469Y0101366D01*
X0095932Y0102365D02*
X0108119Y0102365D01*
X0109029Y0103363D02*
X0095769Y0103363D01*
X0095769Y0104362D02*
X0116120Y0104362D01*
X0115122Y0105360D02*
X0095769Y0105360D01*
X0095769Y0106359D02*
X0114123Y0106359D01*
X0113125Y0107357D02*
X0095769Y0107357D01*
X0095769Y0108356D02*
X0112126Y0108356D01*
X0111127Y0109354D02*
X0095769Y0109354D01*
X0095769Y0110353D02*
X0110129Y0110353D01*
X0109130Y0111351D02*
X0095769Y0111351D01*
X0100442Y0121336D02*
X0131705Y0121336D01*
X0130706Y0122335D02*
X0101440Y0122335D01*
X0102439Y0123333D02*
X0130619Y0123333D01*
X0130623Y0124332D02*
X0103437Y0124332D01*
X0104436Y0125330D02*
X0113076Y0125330D01*
X0112077Y0126329D02*
X0105434Y0126329D01*
X0106433Y0127327D02*
X0110089Y0127327D01*
X0109369Y0128326D02*
X0107431Y0128326D01*
X0108430Y0129324D02*
X0109369Y0129324D01*
X0109428Y0130323D02*
X0109739Y0130323D01*
X0110427Y0131321D02*
X0190834Y0131321D01*
X0189836Y0132320D02*
X0111425Y0132320D01*
X0112424Y0133318D02*
X0127848Y0133318D01*
X0134169Y0126500D02*
X0149169Y0111500D01*
X0207919Y0111500D01*
X0229169Y0090250D01*
X0229169Y0067750D01*
X0234169Y0062750D01*
X0230419Y0055250D02*
X0229169Y0055250D01*
X0185419Y0099000D01*
X0117919Y0099000D01*
X0117119Y0103363D02*
X0111808Y0103363D01*
X0109169Y0099000D02*
X0111669Y0096500D01*
X0184169Y0096500D01*
X0229169Y0051500D01*
X0229169Y0046500D01*
X0230419Y0045250D01*
X0226669Y0044000D02*
X0226669Y0050250D01*
X0182919Y0094000D01*
X0110419Y0094000D01*
X0107919Y0096500D01*
X0099169Y0096500D01*
X0096669Y0099000D02*
X0109169Y0099000D01*
X0106669Y0093375D02*
X0108544Y0091500D01*
X0181669Y0091500D01*
X0222919Y0050250D01*
X0222919Y0042125D01*
X0225069Y0077402D02*
X0213030Y0077402D01*
X0212031Y0078400D02*
X0225069Y0078400D01*
X0225069Y0079399D02*
X0211033Y0079399D01*
X0210034Y0080397D02*
X0225069Y0080397D01*
X0225069Y0081396D02*
X0209036Y0081396D01*
X0208037Y0082394D02*
X0225069Y0082394D01*
X0225069Y0083393D02*
X0207039Y0083393D01*
X0206040Y0084391D02*
X0225069Y0084391D01*
X0225069Y0085390D02*
X0205041Y0085390D01*
X0204043Y0086388D02*
X0225069Y0086388D01*
X0225069Y0087387D02*
X0203044Y0087387D01*
X0202046Y0088385D02*
X0225020Y0088385D01*
X0224022Y0089384D02*
X0201047Y0089384D01*
X0200049Y0090382D02*
X0223023Y0090382D01*
X0222025Y0091381D02*
X0199050Y0091381D01*
X0198052Y0092379D02*
X0221026Y0092379D01*
X0220028Y0093378D02*
X0197053Y0093378D01*
X0196055Y0094376D02*
X0219029Y0094376D01*
X0218031Y0095375D02*
X0195056Y0095375D01*
X0194058Y0096373D02*
X0217032Y0096373D01*
X0216034Y0097372D02*
X0213293Y0097372D01*
X0213969Y0098370D02*
X0215035Y0098370D01*
X0214037Y0099369D02*
X0213969Y0099369D01*
X0210044Y0097372D02*
X0193059Y0097372D01*
X0192061Y0098370D02*
X0209369Y0098370D01*
X0208613Y0099369D02*
X0191062Y0099369D01*
X0190064Y0100368D02*
X0207614Y0100368D01*
X0206616Y0101366D02*
X0189065Y0101366D01*
X0188067Y0102365D02*
X0205617Y0102365D01*
X0212327Y0109354D02*
X0212802Y0109354D01*
X0213326Y0108356D02*
X0213800Y0108356D01*
X0214324Y0107357D02*
X0214799Y0107357D01*
X0215323Y0106359D02*
X0215797Y0106359D01*
X0216321Y0105360D02*
X0216796Y0105360D01*
X0217320Y0104362D02*
X0217794Y0104362D01*
X0218318Y0103363D02*
X0218793Y0103363D01*
X0219317Y0102365D02*
X0219369Y0102365D01*
X0227719Y0103363D02*
X0227803Y0103363D01*
X0229169Y0105250D02*
X0195419Y0139000D01*
X0154169Y0139000D01*
X0131669Y0161500D01*
X0108544Y0161500D01*
X0106244Y0161277D02*
X0106208Y0161277D01*
X0106513Y0160278D02*
X0105210Y0160278D01*
X0104211Y0159280D02*
X0107511Y0159280D01*
X0106447Y0158281D02*
X0103212Y0158281D01*
X0102214Y0157283D02*
X0105619Y0157283D01*
X0105619Y0156284D02*
X0101215Y0156284D01*
X0100217Y0155286D02*
X0105880Y0155286D01*
X0106879Y0154287D02*
X0099218Y0154287D01*
X0098220Y0153289D02*
X0106455Y0153289D01*
X0105619Y0152290D02*
X0097221Y0152290D01*
X0096223Y0151292D02*
X0105619Y0151292D01*
X0105873Y0150293D02*
X0095769Y0150293D01*
X0095769Y0149295D02*
X0106871Y0149295D01*
X0107919Y0156500D02*
X0132919Y0156500D01*
X0152919Y0136500D01*
X0158385Y0148296D02*
X0285419Y0148296D01*
X0285419Y0147298D02*
X0204384Y0147298D01*
X0205382Y0146299D02*
X0285419Y0146299D01*
X0285419Y0145301D02*
X0206381Y0145301D01*
X0207379Y0144302D02*
X0285419Y0144302D01*
X0285419Y0143303D02*
X0208378Y0143303D01*
X0209376Y0142305D02*
X0285419Y0142305D01*
X0285419Y0141306D02*
X0210375Y0141306D01*
X0211373Y0140308D02*
X0285419Y0140308D01*
X0285419Y0139309D02*
X0212372Y0139309D01*
X0213370Y0138311D02*
X0285419Y0138311D01*
X0285419Y0137312D02*
X0214369Y0137312D01*
X0215367Y0136314D02*
X0262919Y0136314D01*
X0262919Y0135315D02*
X0216366Y0135315D01*
X0217364Y0134317D02*
X0262919Y0134317D01*
X0262919Y0133318D02*
X0218363Y0133318D01*
X0219361Y0132320D02*
X0262919Y0132320D01*
X0262919Y0131321D02*
X0220360Y0131321D01*
X0221358Y0130323D02*
X0262919Y0130323D01*
X0262919Y0129324D02*
X0222357Y0129324D01*
X0223355Y0128326D02*
X0262919Y0128326D01*
X0262919Y0127327D02*
X0224354Y0127327D01*
X0225353Y0126329D02*
X0262919Y0126329D01*
X0285419Y0149295D02*
X0157387Y0149295D01*
X0156388Y0150293D02*
X0285419Y0150293D01*
X0285419Y0151292D02*
X0155390Y0151292D01*
X0154391Y0152290D02*
X0285419Y0152290D01*
X0285419Y0153289D02*
X0153393Y0153289D01*
X0152394Y0154287D02*
X0285419Y0154287D01*
X0285419Y0155286D02*
X0151396Y0155286D01*
X0150397Y0156284D02*
X0285419Y0156284D01*
X0285419Y0157283D02*
X0149399Y0157283D01*
X0148400Y0158281D02*
X0277776Y0158281D01*
X0277710Y0158329D02*
X0278240Y0157944D01*
X0278823Y0157647D01*
X0279445Y0157445D01*
X0280033Y0157352D01*
X0280033Y0161114D01*
X0280804Y0161114D01*
X0280804Y0157352D01*
X0281392Y0157445D01*
X0282015Y0157647D01*
X0282598Y0157944D01*
X0283127Y0158329D01*
X0283590Y0158792D01*
X0283974Y0159321D01*
X0284271Y0159904D01*
X0284474Y0160526D01*
X0284567Y0161114D01*
X0280805Y0161114D01*
X0280805Y0161886D01*
X0284567Y0161886D01*
X0284474Y0162474D01*
X0284271Y0163096D01*
X0283974Y0163679D01*
X0283590Y0164208D01*
X0283127Y0164671D01*
X0282598Y0165056D01*
X0282015Y0165353D01*
X0281392Y0165555D01*
X0280804Y0165648D01*
X0280804Y0161886D01*
X0280033Y0161886D01*
X0280033Y0165648D01*
X0279445Y0165555D01*
X0278823Y0165353D01*
X0278240Y0165056D01*
X0277710Y0164671D01*
X0277247Y0164208D01*
X0276863Y0163679D01*
X0276566Y0163096D01*
X0276363Y0162474D01*
X0276270Y0161886D01*
X0280033Y0161886D01*
X0280033Y0161114D01*
X0276270Y0161114D01*
X0276363Y0160526D01*
X0276566Y0159904D01*
X0276863Y0159321D01*
X0277247Y0158792D01*
X0277710Y0158329D01*
X0276893Y0159280D02*
X0147402Y0159280D01*
X0146403Y0160278D02*
X0276444Y0160278D01*
X0276332Y0162275D02*
X0144406Y0162275D01*
X0145405Y0161277D02*
X0280033Y0161277D01*
X0280805Y0161277D02*
X0285419Y0161277D01*
X0285419Y0162275D02*
X0284505Y0162275D01*
X0284181Y0163274D02*
X0285419Y0163274D01*
X0285419Y0164272D02*
X0283526Y0164272D01*
X0282176Y0165271D02*
X0285419Y0165271D01*
X0285419Y0166269D02*
X0254951Y0166269D01*
X0255949Y0167268D02*
X0285419Y0167268D01*
X0285419Y0168266D02*
X0256948Y0168266D01*
X0257946Y0169265D02*
X0285419Y0169265D01*
X0285419Y0171500D02*
X0257919Y0171500D01*
X0252919Y0166500D01*
X0167919Y0166500D01*
X0162919Y0171500D01*
X0162919Y0199000D01*
X0277919Y0199000D01*
X0279092Y0198908D01*
X0281324Y0198183D01*
X0283222Y0196803D01*
X0284601Y0194905D01*
X0285326Y0192673D01*
X0285419Y0191500D01*
X0285419Y0171500D01*
X0285419Y0172260D02*
X0162919Y0172260D01*
X0162919Y0173259D02*
X0285419Y0173259D01*
X0285419Y0174257D02*
X0162919Y0174257D01*
X0162919Y0175256D02*
X0285419Y0175256D01*
X0285419Y0176254D02*
X0162919Y0176254D01*
X0162919Y0177253D02*
X0285419Y0177253D01*
X0285419Y0178251D02*
X0282395Y0178251D01*
X0282547Y0178315D02*
X0283604Y0179372D01*
X0284176Y0180753D01*
X0284176Y0182247D01*
X0283604Y0183628D01*
X0282547Y0184685D01*
X0281166Y0185257D01*
X0279671Y0185257D01*
X0278290Y0184685D01*
X0277233Y0183628D01*
X0276661Y0182247D01*
X0276661Y0180753D01*
X0277233Y0179372D01*
X0278290Y0178315D01*
X0279671Y0177743D01*
X0281166Y0177743D01*
X0282547Y0178315D01*
X0283482Y0179250D02*
X0285419Y0179250D01*
X0285419Y0180248D02*
X0283967Y0180248D01*
X0284176Y0181247D02*
X0285419Y0181247D01*
X0285419Y0182245D02*
X0284176Y0182245D01*
X0283763Y0183244D02*
X0285419Y0183244D01*
X0285419Y0184242D02*
X0282990Y0184242D01*
X0281206Y0185241D02*
X0285419Y0185241D01*
X0285419Y0186239D02*
X0162919Y0186239D01*
X0162919Y0185241D02*
X0279631Y0185241D01*
X0277847Y0184242D02*
X0162919Y0184242D01*
X0162919Y0183244D02*
X0277074Y0183244D01*
X0276661Y0182245D02*
X0162919Y0182245D01*
X0162919Y0181247D02*
X0276661Y0181247D01*
X0276870Y0180248D02*
X0162919Y0180248D01*
X0162919Y0179250D02*
X0277355Y0179250D01*
X0278443Y0178251D02*
X0162919Y0178251D01*
X0161319Y0178251D02*
X0154819Y0178251D01*
X0154819Y0177253D02*
X0161319Y0177253D01*
X0161319Y0176254D02*
X0154819Y0176254D01*
X0154819Y0175256D02*
X0161319Y0175256D01*
X0161319Y0174257D02*
X0154819Y0174257D01*
X0154819Y0173259D02*
X0161319Y0173259D01*
X0161319Y0172260D02*
X0154819Y0172260D01*
X0154819Y0171262D02*
X0161319Y0171262D01*
X0161893Y0170263D02*
X0154819Y0170263D01*
X0154819Y0169265D02*
X0162891Y0169265D01*
X0163890Y0168266D02*
X0154819Y0168266D01*
X0155219Y0167268D02*
X0164888Y0167268D01*
X0165887Y0166269D02*
X0155219Y0166269D01*
X0154942Y0165271D02*
X0166885Y0165271D01*
X0167151Y0167268D02*
X0253686Y0167268D01*
X0254685Y0168266D02*
X0166152Y0168266D01*
X0165154Y0169265D02*
X0255683Y0169265D01*
X0256682Y0170263D02*
X0164155Y0170263D01*
X0163157Y0171262D02*
X0257680Y0171262D01*
X0253952Y0165271D02*
X0278661Y0165271D01*
X0280033Y0165271D02*
X0280804Y0165271D01*
X0280804Y0164272D02*
X0280033Y0164272D01*
X0280033Y0163274D02*
X0280804Y0163274D01*
X0280804Y0162275D02*
X0280033Y0162275D01*
X0280033Y0160278D02*
X0280804Y0160278D01*
X0280804Y0159280D02*
X0280033Y0159280D01*
X0280033Y0158281D02*
X0280804Y0158281D01*
X0283061Y0158281D02*
X0285419Y0158281D01*
X0285419Y0159280D02*
X0283944Y0159280D01*
X0284393Y0160278D02*
X0285419Y0160278D01*
X0277311Y0164272D02*
X0153944Y0164272D01*
X0151894Y0164272D02*
X0142409Y0164272D01*
X0143408Y0163274D02*
X0276656Y0163274D01*
X0285419Y0187238D02*
X0162919Y0187238D01*
X0162919Y0188237D02*
X0285419Y0188237D01*
X0285419Y0189235D02*
X0162919Y0189235D01*
X0162919Y0190234D02*
X0285419Y0190234D01*
X0285419Y0191232D02*
X0162919Y0191232D01*
X0162919Y0192231D02*
X0285361Y0192231D01*
X0285146Y0193229D02*
X0162919Y0193229D01*
X0162919Y0194228D02*
X0284821Y0194228D01*
X0284368Y0195226D02*
X0162919Y0195226D01*
X0162919Y0196225D02*
X0283642Y0196225D01*
X0282644Y0197223D02*
X0162919Y0197223D01*
X0162919Y0198222D02*
X0281203Y0198222D01*
X0191833Y0130323D02*
X0113598Y0130323D01*
X0113969Y0129324D02*
X0192832Y0129324D01*
X0193830Y0128326D02*
X0114605Y0128326D01*
X0114169Y0126500D02*
X0134169Y0126500D01*
X0135604Y0127327D02*
X0194829Y0127327D01*
X0195827Y0126329D02*
X0136603Y0126329D01*
X0137601Y0125330D02*
X0196826Y0125330D01*
X0197824Y0124332D02*
X0138600Y0124332D01*
X0139598Y0123333D02*
X0198823Y0123333D01*
X0199821Y0122335D02*
X0140597Y0122335D01*
X0141595Y0121336D02*
X0200820Y0121336D01*
X0201818Y0120338D02*
X0142594Y0120338D01*
X0143592Y0119339D02*
X0202817Y0119339D01*
X0203815Y0118341D02*
X0144591Y0118341D01*
X0145589Y0117342D02*
X0204814Y0117342D01*
X0205812Y0116344D02*
X0146588Y0116344D01*
X0147586Y0115345D02*
X0206811Y0115345D01*
X0207809Y0114347D02*
X0148585Y0114347D01*
X0149583Y0113348D02*
X0208808Y0113348D01*
X0209332Y0112350D02*
X0209806Y0112350D01*
X0210330Y0111351D02*
X0210805Y0111351D01*
X0211329Y0110353D02*
X0211803Y0110353D01*
X0189510Y0081396D02*
X0105710Y0081396D01*
X0094169Y0096500D02*
X0088544Y0096500D01*
X0089926Y0098370D02*
X0093776Y0098370D01*
X0094169Y0096500D02*
X0096669Y0099000D01*
X0113506Y0112350D02*
X0142306Y0112350D01*
X0141308Y0113348D02*
X0112507Y0113348D01*
X0111509Y0114347D02*
X0140309Y0114347D01*
X0139311Y0115345D02*
X0110510Y0115345D01*
X0109512Y0116344D02*
X0138312Y0116344D01*
X0137314Y0117342D02*
X0108969Y0117342D01*
X0114504Y0111351D02*
X0143305Y0111351D01*
X0144303Y0110353D02*
X0115503Y0110353D01*
X0116501Y0109354D02*
X0145302Y0109354D01*
X0146300Y0108356D02*
X0117500Y0108356D01*
X0118498Y0107357D02*
X0146919Y0107357D01*
X0114169Y0126500D02*
X0111669Y0129000D01*
X0107050Y0133318D02*
X0095769Y0133318D01*
X0095769Y0132320D02*
X0106051Y0132320D01*
X0105053Y0131321D02*
X0095769Y0131321D01*
X0095769Y0134317D02*
X0108048Y0134317D01*
X0109047Y0135315D02*
X0095769Y0135315D01*
X0095769Y0136314D02*
X0110046Y0136314D01*
X0083740Y0129324D02*
X0083269Y0129324D01*
X0083969Y0167268D02*
X0107674Y0167268D01*
X0126661Y0172260D02*
X0129896Y0172260D01*
X0132424Y0174257D02*
X0151019Y0174257D01*
X0151019Y0173259D02*
X0133422Y0173259D01*
X0134421Y0172260D02*
X0151019Y0172260D01*
X0151019Y0171262D02*
X0135420Y0171262D01*
X0136418Y0170263D02*
X0151019Y0170263D01*
X0151019Y0169265D02*
X0137417Y0169265D01*
X0138415Y0168266D02*
X0151019Y0168266D01*
X0150619Y0167268D02*
X0139414Y0167268D01*
X0140412Y0166269D02*
X0150619Y0166269D01*
X0150895Y0165271D02*
X0141411Y0165271D01*
X0151019Y0175256D02*
X0131425Y0175256D01*
X0130427Y0176254D02*
X0151019Y0176254D01*
X0151019Y0177253D02*
X0129428Y0177253D01*
X0128430Y0178251D02*
X0151019Y0178251D01*
X0151019Y0179250D02*
X0127431Y0179250D01*
X0126433Y0180248D02*
X0151019Y0180248D01*
X0151019Y0181247D02*
X0125434Y0181247D01*
X0124436Y0182245D02*
X0151019Y0182245D01*
X0151019Y0183244D02*
X0123437Y0183244D01*
X0122439Y0184242D02*
X0151019Y0184242D01*
X0151019Y0185241D02*
X0121440Y0185241D01*
X0120442Y0186239D02*
X0151019Y0186239D01*
X0151019Y0187238D02*
X0119443Y0187238D01*
X0118445Y0188237D02*
X0151019Y0188237D01*
X0151019Y0189235D02*
X0117446Y0189235D01*
X0109179Y0188237D02*
X0084418Y0188237D01*
X0085416Y0189235D02*
X0108181Y0189235D01*
X0087919Y0194000D02*
X0077919Y0184000D01*
X0077919Y0086500D01*
X0154819Y0179250D02*
X0161319Y0179250D01*
X0161319Y0180248D02*
X0154819Y0180248D01*
X0154819Y0181247D02*
X0161319Y0181247D01*
X0161319Y0182245D02*
X0154819Y0182245D01*
X0154819Y0183244D02*
X0161319Y0183244D01*
X0161319Y0184242D02*
X0154819Y0184242D01*
X0154819Y0185241D02*
X0161319Y0185241D01*
X0161319Y0186239D02*
X0154819Y0186239D01*
X0154819Y0187238D02*
X0161319Y0187238D01*
X0161319Y0188237D02*
X0154819Y0188237D01*
X0154819Y0189235D02*
X0161319Y0189235D01*
X0161319Y0190234D02*
X0154819Y0190234D01*
X0154819Y0191232D02*
X0161319Y0191232D01*
X0161319Y0192231D02*
X0154819Y0192231D01*
X0153877Y0193229D02*
X0161319Y0193229D01*
X0161319Y0194228D02*
X0152878Y0194228D01*
X0151880Y0195226D02*
X0161319Y0195226D01*
X0161319Y0196225D02*
X0151008Y0196225D01*
X0149956Y0197223D02*
X0161319Y0197223D01*
X0161319Y0198222D02*
X0045419Y0198222D01*
X0045419Y0195226D02*
X0085892Y0195226D01*
X0085619Y0194228D02*
X0045419Y0194228D01*
X0077169Y0187238D02*
X0078894Y0187238D01*
X0079158Y0188237D02*
X0079892Y0188237D01*
X0080156Y0189235D02*
X0080891Y0189235D01*
X0077895Y0186239D02*
X0077019Y0186239D01*
D14*
X0137919Y0194000D03*
X0147919Y0194000D03*
X0280419Y0181500D03*
X0280419Y0161500D03*
X0280419Y0126500D03*
X0280419Y0116500D03*
X0280419Y0106500D03*
X0280419Y0096500D03*
X0280419Y0066500D03*
X0280419Y0056500D03*
X0280419Y0046500D03*
X0280419Y0036500D03*
X0222919Y0019000D03*
X0212919Y0019000D03*
D15*
X0187919Y0019000D03*
X0177919Y0019000D03*
X0167919Y0019000D03*
X0157919Y0019000D03*
X0147919Y0019000D03*
X0137919Y0019000D03*
X0127919Y0019000D03*
X0117919Y0019000D03*
X0107919Y0019000D03*
X0107919Y0029000D03*
X0117919Y0029000D03*
X0127919Y0029000D03*
X0137919Y0029000D03*
X0147919Y0029000D03*
X0157919Y0029000D03*
X0167919Y0029000D03*
X0177919Y0029000D03*
X0187919Y0029000D03*
D16*
X0202919Y0016500D03*
X0222919Y0042125D03*
X0226669Y0044000D03*
X0230419Y0045250D03*
X0230419Y0055250D03*
X0228544Y0060250D03*
X0222919Y0070250D03*
X0236669Y0071500D03*
X0236669Y0076500D03*
X0236669Y0081500D03*
X0252919Y0066500D03*
X0257919Y0066500D03*
X0257919Y0061500D03*
X0257919Y0056500D03*
X0252919Y0056500D03*
X0252919Y0061500D03*
X0252919Y0046500D03*
X0257919Y0046500D03*
X0257919Y0041500D03*
X0257919Y0036500D03*
X0252919Y0036500D03*
X0252919Y0041500D03*
X0202919Y0064000D03*
X0191669Y0051500D03*
X0185419Y0079000D03*
X0180419Y0079000D03*
X0175419Y0079000D03*
X0170419Y0079000D03*
X0152919Y0069000D03*
X0147919Y0062750D03*
X0137294Y0060875D03*
X0127294Y0061500D03*
X0111669Y0066500D03*
X0107919Y0071500D03*
X0125419Y0081500D03*
X0111669Y0085250D03*
X0107919Y0088375D03*
X0106669Y0093375D03*
X0099169Y0096500D03*
X0094169Y0100875D03*
X0088544Y0096500D03*
X0081044Y0094625D03*
X0110419Y0101500D03*
X0117919Y0099000D03*
X0122919Y0111500D03*
X0132919Y0111500D03*
X0132919Y0123375D03*
X0142919Y0126500D03*
X0129169Y0135250D03*
X0111669Y0129000D03*
X0102919Y0136500D03*
X0087919Y0141500D03*
X0102919Y0151500D03*
X0107919Y0151500D03*
X0107919Y0156500D03*
X0108544Y0161500D03*
X0112919Y0166500D03*
X0125419Y0170250D03*
X0110419Y0190250D03*
X0087919Y0194000D03*
X0080419Y0196500D03*
X0077919Y0190250D03*
X0065419Y0196500D03*
X0050419Y0196500D03*
X0062919Y0176500D03*
X0067919Y0171500D03*
X0081669Y0167750D03*
X0087919Y0156500D03*
X0050419Y0156500D03*
X0050419Y0141500D03*
X0050419Y0126500D03*
X0085419Y0127750D03*
X0097919Y0115250D03*
X0106669Y0116500D03*
X0157919Y0126500D03*
X0172919Y0126500D03*
X0187919Y0126500D03*
X0217919Y0139000D03*
X0222919Y0139000D03*
X0227919Y0139000D03*
X0227919Y0124000D03*
X0227919Y0119000D03*
X0224169Y0116500D03*
X0229169Y0105250D03*
X0225419Y0104000D03*
X0221669Y0102750D03*
X0211669Y0099000D03*
X0252919Y0096500D03*
X0257919Y0096500D03*
X0257919Y0101500D03*
X0252919Y0101500D03*
X0252919Y0106500D03*
X0257919Y0106500D03*
X0257919Y0116500D03*
X0252919Y0116500D03*
X0252919Y0121500D03*
X0257919Y0121500D03*
X0257919Y0126500D03*
X0252919Y0126500D03*
X0257919Y0146500D03*
X0272919Y0146500D03*
X0257919Y0161500D03*
X0227919Y0181500D03*
X0227919Y0186500D03*
X0227919Y0191500D03*
X0222919Y0191500D03*
X0222919Y0186500D03*
X0222919Y0181500D03*
X0217919Y0181500D03*
X0212919Y0181500D03*
X0212919Y0186500D03*
X0217919Y0186500D03*
X0217919Y0191500D03*
X0212919Y0191500D03*
X0207919Y0191500D03*
X0207919Y0186500D03*
X0207919Y0181500D03*
X0197919Y0176500D03*
X0182919Y0176500D03*
X0167919Y0176500D03*
X0152919Y0166500D03*
X0167919Y0161500D03*
X0167919Y0151500D03*
X0202919Y0151500D03*
X0202919Y0161500D03*
X0197919Y0191500D03*
X0207919Y0196500D03*
X0212919Y0196500D03*
X0217919Y0196500D03*
X0222919Y0196500D03*
X0227919Y0196500D03*
X0237919Y0191500D03*
X0182919Y0191500D03*
X0167919Y0191500D03*
X0050419Y0171500D03*
X0022919Y0096500D03*
X0022919Y0081500D03*
X0037919Y0081500D03*
X0022919Y0066500D03*
X0057919Y0071500D03*
X0075419Y0071500D03*
X0081669Y0050250D03*
X0089169Y0045250D03*
X0069169Y0044000D03*
X0142919Y0074000D03*
D17*
X0115419Y0069000D02*
X0115419Y0054000D01*
X0132919Y0036500D01*
X0132919Y0024000D01*
X0137419Y0019500D01*
X0115419Y0069000D02*
X0102919Y0081500D01*
X0089169Y0081500D01*
X0081044Y0089625D01*
X0081044Y0094625D01*
X0097919Y0115250D02*
X0097919Y0121500D01*
X0111669Y0135250D01*
X0129169Y0135250D01*
X0106669Y0116500D02*
X0117919Y0105250D01*
X0205419Y0105250D01*
X0211669Y0099000D01*
X0152919Y0166500D02*
X0152919Y0191500D01*
X0150419Y0194000D01*
X0147919Y0194000D01*
D18*
X0170419Y0079000D02*
X0152919Y0061500D01*
X0152919Y0024000D01*
X0148419Y0019500D01*
X0158419Y0019500D02*
X0162919Y0024000D01*
X0162919Y0066500D01*
X0175419Y0079000D01*
X0180419Y0079000D02*
X0172919Y0071500D01*
X0172919Y0024000D01*
X0168419Y0019500D01*
X0178419Y0019500D02*
X0182919Y0024000D01*
X0182919Y0076500D01*
X0185419Y0079000D01*
M02*
