%
M48
M72
T01C0.01200
T02C0.03543
T03C0.03600
T04C0.04000
%
T01
X69169Y44000
X81669Y50250
X89169Y45250
X111669Y66500
X107919Y71500
X125419Y81500
X111669Y85250
X107919Y88375
X106669Y93375
X99169Y96500
X94169Y100875
X88544Y96500
X81044Y94625
X110419Y101500
X117919Y99000
X122919Y111500
X132919Y111500
X132919Y123375
X142919Y126500
X127919Y135250
X111669Y129000
X102919Y136500
X87919Y141500
X102919Y151500
X107919Y151500
X107919Y156500
X108544Y161500
X112919Y166500
X125419Y170250
X110419Y190250
X87919Y194000
X80419Y196500
X77919Y190250
X65419Y196500
X50419Y196500
X62919Y176500
X67919Y171500
X81669Y167750
X87919Y156500
X50419Y156500
X50419Y141500
X50419Y126500
X85419Y127750
X97919Y115250
X106669Y116500
X142919Y74000
X152919Y69000
X147919Y62750
X137294Y60875
X127294Y61500
X170419Y79000
X175419Y79000
X180419Y79000
X185419Y79000
X202919Y64000
X191669Y51500
X222919Y42125
X226669Y44000
X230419Y45250
X230419Y55250
X228544Y60250
X222919Y70250
X236669Y71500
X236669Y76500
X236669Y81500
X252919Y66500
X257919Y66500
X257919Y61500
X257919Y56500
X252919Y56500
X252919Y61500
X252919Y46500
X257919Y46500
X257919Y41500
X257919Y36500
X252919Y36500
X252919Y41500
X202919Y16500
X252919Y96500
X257919Y96500
X257919Y101500
X252919Y101500
X252919Y106500
X257919Y106500
X257919Y116500
X252919Y116500
X252919Y121500
X257919Y121500
X257919Y126500
X252919Y126500
X232919Y139000
X227919Y124000
X227919Y119000
X224169Y116500
X229169Y105250
X225419Y104000
X221669Y102750
X211669Y99000
X192919Y121500
X182919Y121500
X232919Y159000
X232919Y164000
X232919Y169000
X212919Y196500
X167919Y196500
X167919Y181500
X152919Y166500
X50419Y171500
X22919Y96500
X22919Y81500
X37919Y81500
X22919Y66500
X57919Y71500
X75419Y71500
T02
X212919Y19000
X222919Y19000
X280419Y36500
X280419Y46500
X280419Y56500
X280419Y66500
X280419Y96500
X280419Y106500
X280419Y116500
X280419Y126500
X280419Y161500
X280419Y181500
X147919Y194000
X137919Y194000
T03
X72919Y21500
T04
X107919Y19000
X117919Y19000
X127919Y19000
X137919Y19000
X147919Y19000
X157919Y19000
X167919Y19000
X177919Y19000
X187919Y19000
X187919Y29000
X177919Y29000
X167919Y29000
X157919Y29000
X147919Y29000
X137919Y29000
X127919Y29000
X117919Y29000
X107919Y29000
M30
